<?xml version="1.0" encoding="UTF-8"?><svg xmlns="http://www.w3.org/2000/svg" viewBox="0 0 360 360"><defs><style>.q{stroke-width:.41px;}.q,.r{fill:none;stroke:#000;stroke-miterlimit:10;}.s{fill:#003dff;}.t{fill:#0091ff;}.u{fill:#edeeee;}.r{stroke-width:.57px;}</style></defs><g id="a"/><g id="b"><g id="c"/><g id="d"/><g id="e"/><g id="f"/><g id="g"/><g id="h"/><g id="i"/><g id="j"/><g id="k"/></g><g id="l"/><g id="m"/><g id="n"/><g id="o"><g><g><path class="t" d="M288.61,177.27l-21.07,6.4-21.07,6.4c-11.29,3.43-51.34,25.81-50.1,29.89s46.97,.4,58.26-3.03l21.07-6.4,21.07-6.4c11.29-3.43,51.34-25.81,50.1-29.89s-46.97-.4-58.26,3.03Z"/><path class="t" d="M284.02,169c-.62-2.03-12.96-3.38-15.84-2.5l-5.37,1.63-5.37,1.63c-2.88,.87-12.39,8.86-11.77,10.89h0l38.34-11.65h0Z"/><path class="s" d="M196.68,220.25c-.09-.29-.17-.58-.25-.86-.08,.22-.1,.42-.05,.58,1.24,4.08,46.97,.4,58.26-3.03l21.07-6.4,21.07-6.4c11.29-3.43,51.34-25.81,50.1-29.89,0,0-40.22,6.23-78.04,17.72-35.89,9.78-72.46,28.01-72.15,28.29Z"/><path class="t" d="M275.88,170.25l-11.37,3.46-11.92,3.62c-9.17,2.79-22.67,14.47-21.75,17.5h0l.89,2.93,73.39-22.3-.89-2.93h0c-.92-3.03-19.46-4.98-28.35-2.27Z"/><path class="s" d="M248.62,217.3l.41,1.34h0c.86,2.83,18.04,4.7,22.04,3.48h0c5.17-.78,10.21-2.31,14.94-4.54h0c4-1.22,17.23-12.32,16.37-15.15h0l-.41-1.34-53.35,16.21Z"/></g><g><path d="M311.35,182.58c-.98,.28-.65,1.74,.35,1.58,5.16-.81,12.43-3.19,12.8-1.25,1,5.33-25.64,7.27-35.15,10.75-1.04,.38-.62,1.93,.46,1.74,4.91-.9,11.34-3.68,11.63-1.36,.24,1.9-9.04,1.55-8.83,3.85,.16,1.81,8.33-2.02,6.71,2.36-1.28,3.44-5.15,10.13-14.54,14.23-5.66,2.47-12.93,3.17-12.45,4.41,.54,1.39,13.48-.41,21.9-7.55,4.71-3.99,6.78-7.72,7.35-9.43,.29-.88,.36-1.89,.99-2.57,.39-.42,.95-.65,1.48-.87,8.94-3.63,13.33-5.34,21.84-9.89,6.04-3.23,13.92-8.81,17.82-12.7-4.37,.4-23.01,4.05-32.36,6.7Z"/><path d="M210.44,211.08c7.74-5.95,16.31-10.72,24.84-15.47,.76-.42,1.56-.85,2.42-.84-1.14,1.17-2.21,2.41-3.2,3.7-.44,.56-.87,1.33-.5,1.94,.46,.74,1.6,.47,2.34,.01,1.38-.84,2.55-2.02,3.4-3.39,.96-1.55,1.55-3.42,2.99-4.54,1.42-1.11,3.34-1.24,5.14-1.33l-.28,1.28c.56,.13,1.09-.36,1.35-.88s.39-1.11,.78-1.54c.25-.27,.59-.45,.92-.61,2.57-1.29,5.23-2.41,7.95-3.35,.27,.63-.52,1.14-1.1,1.48-3.3,1.91-3.68,6.62-6.37,9.32-.24,.24-.53,.47-.87,.44-.84-.08-.68-1.47-1.32-2.03-.47-.41-1.25-.2-1.7,.23s-.7,1.04-1.06,1.56c-.69,1-1.82,1.69-3.02,1.85l.22-1.75c-.77,.05-1.1,.96-1.52,1.59-.66,.99-1.82,1.51-2.92,1.95-2.87,1.16-5.81,2.15-8.79,2.97l1.06-2.37c.1-.22,.19-.48,.06-.68-.2-.32-.7-.15-1.02,.06l-8.18,5.25c-4.39,2.82-8.96,5.71-14.12,6.51,.41-.36,1.06-.28,2.5-1.39Z"/><path d="M239.67,190.97c-1.4,.71,2.19-4.73,5.99-8.08,2.57-2.27,5.85-3.79,8.34-4.92,.22-.1,.42,.2,.23,.35-2.17,1.73-3.45,3.34-4.63,5.37-.82,1.41-.67,2.84-1.85,3.97-.87,.83-3.5,.98-8.08,3.31Z"/><path d="M248.85,178.45c1.57-2.15,3.54-3.97,5.56-5.7,.59-.51,1.19-1.02,1.86-1.41,.83-.49,1.74-.8,2.65-1.1,1.83-.62,3.69-1.24,5.62-1.31,.09,.59-.88,.78-1.07,1.34-.02,.07-.03,.15,0,.21,.05,.07,.14,.08,.23,.09,.4,.03,.8,.04,1.2,.04-.25,.07-.25,.47-.04,.63s.5,.13,.76,.11l4.22-.46c-.05,.26-.33,.38-.58,.47-6.85,2.46-14.06,4-20.43,7.1Z"/><path d="M251.63,187.06c1.3-3.42,3.28-6.59,5.05-8.71,.91-1.1,3.32-2.55,4.71-2.9-1.33,1.16-2.54,2.6-3.39,4.11-.91,1.59-1.32,5.31-1.48,5.59-.18,.32-3.18,1.53-4.88,1.91Z"/><path d="M264.16,173.33c2.26,.24,7.21-.25,9.56,2.35,1.72,1.91,1.25,4.35,1.54,4.48,.23,.1,7.27-1.63,10.1-2.25-2.69-.59-7.72-.79-9.64-2.3-2.12-1.67-2.05-4.15-2.47-4.44-.71-.49-7.56,1.88-9.09,2.16Z"/><path d="M278.76,179.66c-1.51,.66-2.16,1.39-2.11,2.21,.11,1.81,10.56,4.56,16.01,3.53-4.68,1.06-8.9,3.09-14.1,3.88-6.38,1.45,2.29-1.44,1.71-3.34-.41-1.36-9.44-4.93-15.33-2.75,4.49-1.3,9.83-2.53,13.81-3.54Z"/><path d="M240.66,212.09c-.76-1.71,3.27-4.17,7.7-6.38,.84-.42,.3-1.69-.58-1.38-11.46,3.96-20.23,8.7-25.74,10.18-.54,.14-1.13-.12-1.31-.64-.17-.5,.14-.78,.43-1.03,1.4-1.18,2.93-2.2,4.57-3.02-6.5,2.19-15.11,5.34-22.25,8.31-.03,.01-3.44,1.2-6.42,2.49,5.11,2.61,36.83,.34,52.01-2.42,.36-.37,.8-.77,1.37-1.2,.21-.13,.4-.26,.56-.42,.5-.36,.8-.63,.94-.84,8.94-7.79,16.45-8.51,28.8-14.04-21.78,4.39-37.58,15.98-40.07,10.39Z"/><path d="M343.71,175.88s3.1-.51,5.75-.67c0,0-16.29,9.68-23.57,13.37-7.27,3.69,7.53-8.43,7.53-8.43l10.29-4.28Z"/></g><path class="r" d="M196.37,219.97s36.57-18.22,72.46-28.01c37.82-11.49,78.04-17.72,78.04-17.72"/><path class="r" d="M231.32,196.4s17.84-8.89,35.34-13.66c18.44-5.6,38.06-8.64,38.06-8.64"/><path class="q" d="M245.68,180.65s20.37-10.02,38.34-11.65"/><path class="u" d="M265.61,168.91c2.02-1.66,4.88-1.75,7.49-1.54,1.47,.11,2.93,.29,4.38,.54,.48,.08,1.09,.34,1.01,.82-.99,.64-2.3,.31-3.4-.1s-2.32-.87-3.42-.46c-.25,.1-.49,.24-.75,.29-.39,.08-.79-.04-1.18-.11-1.43-.27-2.96,0-4.12,.56Z"/><path class="u" d="M260.09,169.84c-1.91,.83-3.02,1.73-4.37,2.84-1.9,1.56-2.64,3.7-1.83,3.45,3.04-.92-.37-.14,1.08-1.96,1.37-1.72,2.78-2.98,5.12-4.33Z"/><path class="u" d="M267.71,177.76c-8.83,2.93-18.26,4.13-26.66,8.13-2.59,1.23-5.17,2.84-6.54,5.35-.15,.27-.29,.6-.15,.89,.16,.35,.66,.42,1,.25s.58-.5,.81-.81c3-3.99,8.06-5.74,12.8-7.28,6.49-2.1,12.99-4.21,18.74-6.53Z"/><path class="u" d="M262.48,188.36l-25.93,7.84c-2.6,.79-5.41,1.72-6.9,3.99-.22,.33-.35,.87,.01,1.03,.22,.1,.47-.04,.67-.17,4.83-3.11,10.37-4.91,15.83-6.68,5.1-1.65,10.2-3.3,16.31-6.01Z"/><path class="u" d="M294.31,200.39c-1.92,.53-3.93,1.78-5.34,3.31-.26,.28-.5,.58-.61,.87s-.07,.58,.19,.67c.16,.05,.38,.02,.6-.03,1.06-.25,2.12-.94,3.19-1.42s2.35-.71,2.71-.08c.24,.42-.03,1.1-.41,1.72-.82,1.33-2.08,2.58-3.31,3.79,1.38-1,2.66-2.12,3.8-3.31,1.21-1.26,2.3-2.68,2.55-3.97s-.62-2.3-3.37-1.54Z"/><path class="u" d="M297.99,176.51c3.41-.43,8.21-.94,12.2-.97,4.43-.03,7.12-.29,7.54,1.39s-7.05,3.4-7.38,2.92c-.5-.74,1.76-1.5,1.32-2.15-.63-.92-5.27,.91-5.74,.39-.29-.33,.54-.77-.08-1.12-.65-.37-5.79,.17-7.77,.17-1.69,0-.88-.53-.09-.63Z"/><path class="u" d="M280.05,171.22c5.07-.72,10.38-1.29,15.18,.49,.35,.13,.71,.28,.96,.57s.32,.75,.07,1.03c-.13,.15-.32,.22-.51,.29-2.29,.82-4.75,1.19-7.18,1.08-.29-.01-.69-.18-.6-.46,.04-.11,.15-.18,.26-.24,.47-.25,.96-.45,1.46-.6,.53-.16,1.23-.48,1.1-1.02-.09-.36-.53-.51-.9-.54-1.32-.1-2.61,.52-3.92,.39-.2-.02-.45-.11-.46-.31,0-.1,.06-.2,.05-.3-.01-.21-.29-.28-.51-.29-1.73-.03-3.47,.46-5.17,.15-.06-.01-.13-.03-.15-.09s.1-.12,.32-.15Z"/><path class="u" d="M270.78,219.35c-3.57,.86-7.34,.87-10.92,.03-1.37-.32-2.73-.78-3.85-1.62-.24-.18-.48-.4-.51-.7-.07-.58,.68-.9,1.27-.87,1.31,.08,2.42,.92,3.59,1.5,2.35,1.15,5.09,1.24,7.69,.97,.96-.1,2.08-.19,2.73,.68Z"/><path class="u" d="M250.76,199.69c-10.23,2.93-20.25,6.58-29.96,10.92-.67,.3-1.37,.63-1.76,1.25s-.27,1.61,.41,1.88c.45,.18,.96,0,1.4-.21,2.05-.93,3.96-2.14,5.9-3.28,7.48-4.38,15.62-7.61,24.02-10.57Z"/></g></g><g id="p"/></svg>