<?xml version="1.0" encoding="UTF-8"?><svg xmlns="http://www.w3.org/2000/svg" viewBox="0 0 360 360"><defs><style>.q{fill:#003dff;}.r{fill:#0091ff;}.s{fill:#edeeee;}.t{fill:#ff00c7;}.u{fill:#ff4300;}.v{fill:#231f20;}.w{fill:none;stroke:#edeeee;stroke-miterlimit:10;stroke-width:.19px;}</style></defs><g id="a"/><g id="b"><g id="c"/><g id="d"/><g id="e"/><g id="f"/><g id="g"/><g id="h"/><g id="i"/><g id="j"/><g id="k"/></g><g id="l"/><g id="m"/><g id="n"/><g id="o"><g><g><path class="q" d="M40.54,263.52c-1.06,4.34,41.94,16.11,56.18,20.7,.54,.17,1.19,.39,1.92,.64,13.2,4.51,26.78,7.85,40.58,9.92,.89,.13,1.67,.26,2.31,.36,14.67,2.48,57.99,11.73,59.04,7.4h0c-.67-.27-39.91-15.91-79.78-25.63-37.56-10.32-80.25-13.39-79.53-13.83-.07-.06-.14-.12-.2-.18"/><path class="q" d="M125.25,269.05l-1.2-.29c.4,.1,.8,.2,1.2,.29Z"/></g><ellipse class="t" cx="123.7" cy="270.77" rx="23.74" ry="18.48" transform="translate(-168.67 326.81) rotate(-76.3)"/><path class="r" d="M102.45,261.18c1.04-4.25,9.98,2.4,22.28,5.4,12.3,3,23.3,1.21,22.27,5.46-.58,2.38-11.02,1.87-23.32-1.13s-21.8-7.36-21.22-9.73Z"/><path class="u" d="M146.99,272.04s-11.91-.5-22.94-3.28c-10.78-2.63-21.87-7.64-21.87-7.64-11.4-2.78-21.45-1.21-61.11,1.79,.07,.06,.14,.12,.2,.18-.72,.44,41.97,3.52,79.53,13.83,40.22,9.81,79.79,25.63,79.79,25.63-33.66-21.44-41.59-27.58-53.6-30.51Z"/><path class="v" d="M109.04,261.04c2.15-4.61,5.54-8.45,10.09-10.71,6.02-2.98,9.03-1.3,9.12-.53,.2,1.78-3.48,.72-7.92,2-2.57,.74-4.97,2.97-5.56,5.57-.21,.93,.45,1.21,2.05,.15,2.83-1.87,6.54-1.67,7.2-.81s-2.29,1.94-2.44,3.05c-.24,1.77,5.16,3.34,7.34,3.87,3.24,.78,7.35,1.54,7.29,3.03-.02,.44-.67,1.65-3.72,1.32-9.17-1-16.33-4.03-23.45-6.94Z"/><path class="v" d="M106.06,273.26c5.05,.41,10.94,2.51,15.84,3.81h.04c1.05,.29,.75,1.85-.33,1.72-1.59-.19-3.49-.49-5.21-.75-1.91-.29-5.18-1.71-5.72,.14-.57,1.95,4.63,1.68,4.88,3.32,.22,1.44-2.74,1.11-3.36,3.11-.32,1.02,.19,2.11,1.12,2.62,2.81,1.56,6.91-2.32,7.96-2.31,3.48,.02,.6,3.78,3.96,4.97h.03c1.22,.43,1.22,2.14,0,2.54-4.63,1.51-11.5-.25-15.54-5.56-3.06-4.02-4.05-12.43-3.64-13.63Z"/><path class="s" d="M129.95,252.16c-.86,.96-.92,2.53-.14,3.56,.23,.3,.52,.55,.86,.71,.84,.39,1.87,.11,2.61-.45,.7-.53,1.21-1.33,1.26-2.21,.06-1.02-.57-2.04-1.5-2.46s-2.15-.22-3.09,.85Z"/><path class="s" d="M140.65,267.2c.31-2.16-.31-4.34-.96-6.42-.33-1.08-.68-2.16-1.28-3.12-.26-.42-.58-.81-1-1.06-.61-.36-1.4-.37-2.03-.05s-1.08,.96-1.2,1.66c-.04,.24-.04,.5,.06,.72,.15,.31,.48,.5,.81,.59s.68,.12,1.01,.21c.49,.13,.93,.41,1.32,.74,.96,.8,1.67,1.9,1.99,3.11,.29,1.08,.27,2.22,.53,3.31,.06,.26,.26,.59,.74,.31Z"/><path class="s" d="M124.89,290.41c1.03,.17,2.09-.18,3.06-.68,2.28-1.17,4.24-3.18,5.48-5.61,.27-.53,.52-1.09,.92-1.5,.27-.27,.68-.47,.97-.27,.34,.23,.29,.8,.16,1.24-.64,2.19-2.26,3.9-3.94,5.27-1.82,1.48-3.87,2.74-6.06,2.94-.39,.04-.82,.03-1.11-.25s-.33-1.29,.52-1.15Z"/><path class="s" d="M102.85,262.76c-4.41-1.25-7.41-1.76-9.86-1.85-4.07-.14-1.77,2.25-2.42,3.05-.96,1.18-3.48,.71-7.3-1.17s-13.11-.67-19.67-.33c-.4,.02-.39,.65,0,.63,4.58-.24,10.68-.75,14.6-.35s6.54,2.41,9.18,3.23c4.65,1.44,7.95,2.03,8.43,1.21,.55-.96-3.6-3.32-3.02-4.66,.81-1.89,5.69-.36,10.05,.26Z"/><path class="s" d="M53.29,262.65c2.22-.24,4.45-.32,6.68-.26,.52,.01,1.07,.05,1.51,.33,.04,.03,.08,.06,.09,.1,.01,.04,0,.09-.03,.12-.15,.23-.48,.24-.75,.23-2.02-.09-4.04-.07-6.06,.06-.32,.02-.65,.04-.97-.03s-.62-.27-.48-.55Z"/><path class="s" d="M150.37,274.38c2.01,.83,3.97,1.75,5.89,2.76,.32,.17,.65,.35,.86,.64s.27,.73,.04,1c-.2,.23-.53,.28-.83,.32l-3.21,.38c-.35,.04-.76,.13-.88,.46-.15,.38,.22,.76,.57,.98,3.66,2.28,8.72,.31,12.58,2.22,.79,.39,1.49,.92,2.24,1.37,1.41,.85,2.97,1.39,4.47,2.05,3.6,1.56,6.9,3.74,10.17,5.9l-8.27-5.63c-.9-.61-1.8-1.22-2.78-1.7-.71-.34-1.46-.61-2.15-1-.92-.52-1.72-1.24-2.62-1.8-1.64-1.02-3.58-1.45-5.51-1.55-1.56-.08-3.23,.03-4.54-.81l3.57-.59c.38-.06,.86-.23,.86-.62,0-.31-.32-.51-.6-.64-3.41-1.63-6.93-3.04-9.87-3.74Z"/><path class="w" d="M104.27,280.58l-8.52-2.48c-.79-.23-1.6-.47-2.29-.82-1.61-.84-2.25-2.14-3.77-3.05,.8,1.07,1.42,2.15,1.84,3.24-.81,.08-1.66-.51-2.25-1-1.21-1.01-2.52-1.99-3.91-2.93-.16-.11-.34-.22-.56-.25-.19-.03-.36,.02-.47,.09-.63,.38-.27,1.23-1.04,1.5-.51,.18-1.29,.02-1.98-.13-4.5-1.04-6.17-1.59-10.63-2.79-1.21-.33-.49-1.77-1.9-2.15-.98-.26-.71,1.45-1.23,1.66-.62,.25-1.73-1.27-2.88-1.76-.37-.16-.78-.25-1.18-.33-2.36-.51-6.6-1.36-8.96-1.87-2.34-.51-12.46-3.04-12.38-3.54,.07-.41,23.77,3.79,30.31,5.21"/><path class="w" d="M176.11,292.46l3.11-.72c-.83,.43-1.57,1.03-2.17,1.75l3.11-.96c.22-.07,.57-.03,.54,.2,0,.06-.05,.11-.09,.16l-1.01,1.23,2.37-.68c-.13,.17-.07,.43,.07,.6s.35,.25,.55,.34l10.15,4.39"/><path class="w" d="M136.31,273.21c6.4,2.28,18.25,2.71,17.79,4.2-.7,2.3-9.73-1.99-14.45-.84-.46,.11-.99,.37-1,.83-.01,.49,.56,.77,1.04,.87,1.7,.38,4.02-1.62,5.15-.3,.38,.45-.96,1.24-.55,1.67,.6,.62,1.3-1.35,2.16-1.3,.94,.05,.06,1.73,.79,2.32,.64,.52,1.38-.33,2.11-.2,.42,.08,.69,.48,.96,.81,1.49,1.87,4.08,2.34,6.43,2.8,6.08,1.18,20.28,5.53,19.57,7.22-.79,1.87-40.65-12.73-66.62-18.4"/><path class="s" d="M106,264.83c-2.95,.73-5.8,1.85-8.45,3.33-.52,.29-1.07,.66-1.18,1.24,1.21-.01,2.42,.18,3.57,.56,.2,.07,.4,.14,.61,.13,.32-.02,.59-.22,.85-.41,2.35-1.75,5.04-3.05,7.87-3.81-.91-.62-2.03-.9-3.12-.8,.25-.01,.51-.02-.14-.24Z"/><path class="s" d="M111.34,266.82c-2.63,.54-5.15,1.65-7.31,3.25l1.99,.25c.26,.03,.53,.07,.79,.02,.45-.07,.84-.36,1.21-.63,1.84-1.3,3.94-2.22,6.15-2.68-.86-.34-1.77-.43-2.82-.22Z"/><path class="s" d="M161.31,291.51c14.95,4.21,28.79,7.79,28.05,9.35-.4,.85-10.79-.87-20.87-3.03-3.31-.71-15.57-3.18-21.75-4.5-7.97-1.71-6.46-.82-4.26-.28,6.28,1.53,47.52,10.42,53.16,9.75,.28-.03,.54-.08,.67-.19,.49-.43-1.48-2.41-22.33-8.35-3.79-1.08-7.72-2.48-12.26-3.58-2.72-.66-3.02,.21-.42,.85Z"/><path class="s" d="M80.42,271.29c-16.46-3.44-31.54-6.93-31.58-5.19-.02,.94,10.84,4.41,21.61,7.32,3.54,.96,16.56,4.66,23.17,6.45,8.52,2.31,6.64,2.37,4.26,1.79-6.8-1.66-50.9-13.58-56.02-16.88-.25-.16-.49-.33-.56-.49-.27-.62,2.59-1.42,25.57,3.33,4.18,.86,8.65,1.51,13.56,2.71,2.95,.72,2.81,1.64,0,.95Z"/></g></g><g id="p"/></svg>