<?xml version="1.0" encoding="UTF-8"?><svg xmlns="http://www.w3.org/2000/svg" viewBox="0 0 360 360"><defs><style>.q{fill:#003dff;}.r{fill:#0091ff;}.s{fill:#edeeee;}.t{fill:#ff00c7;}.u{fill:#ff4300;}.v{fill:#ff92da;}</style></defs><g id="a"/><g id="b"><g id="c"/><g id="d"/><g id="e"/><g id="f"/><g id="g"/><g id="h"/><g id="i"/><g id="j"/><g id="k"/></g><g id="l"/><g id="m"/><g id="n"/><g id="o"><g><ellipse class="q" cx="248.39" cy="106.09" rx="11.67" ry="18.57" transform="translate(77.57 315.32) rotate(-73.9)"/><path class="s" d="M233.37,104.39c.75,3.04,2.42,5.85,4.74,7.96,1.15,1.05,2.49,1.94,4,2.33,.36,.09,.75,.15,1.11,.05s.68-.42,.68-.79c0-.66-.81-.93-1.45-1.08-2.87-.67-5.4-2.63-6.78-5.24-.52-.98-.88-2.05-1.45-3.01-.08-.13-.17-.28-.32-.32s-.34,.09-.52,.1Z"/><path class="s" d="M246.06,115.66c.33,.27,.93,.03,.97-.39,.03-.31-.18-.6-.42-.81-.27-.25-.68-.46-.99-.26-.23,.16-.28,.5-.18,.76s.32,.45,.62,.7Z"/><path class="s" d="M249.58,115.44c-.12-.18-.33-.31-.55-.33s-.45,.05-.61,.2c-.11,.1-.19,.24-.21,.38-.02,.19,.06,.38,.2,.51s.33,.19,.52,.2c.12,0,.24-.02,.34-.07,.27-.13,.55-.53,.3-.89Z"/><g><path class="v" d="M193.3,85.62s30.85-13.52,61.54-4.67c30.69,8.86,49.59,36.74,49.59,36.74,0,0-26.09-2.96-56.78-11.82-30.69-8.86-54.35-20.26-54.35-20.26Z"/><path class="t" d="M279.36,93.2c.02-.06,.03-.12,.04-.18-6.96-4.9-15.21-9.37-24.56-12.07s-18.71-3.32-27.21-2.88c-.02,.06-.05,.11-.06,.17-.9,3.12,9.77,9.66,24.08,13.78,14.3,4.13,26.82,4.29,27.72,1.17Z"/><path d="M271.53,88.19c1.75,.94,3.58,1.94,4.63,3.63,2.17,3.49-5.08,3.47-10.17,3.08-.35-.03-.42,.48-.08,.55,9.52,2.09,15.22-1.44,21.06,3.52-4.66-4.39-10.03-8.03-15.45-10.78Z"/><path class="r" d="M305.95,118.01c-9.77-1.05-19.46-2.88-28.93-5.47-1.6-.44-5.35-1.11-5.1-2.75s2.25-2.63,1.12-3.93-3.02-1.69-4.74-1.54c-3.1,.26-4.86,1.9-12.86,1.26-3.46-.28-19.39-3.3-18.06-9.6,.12-.55,1.81-3.75,7.03,.01,4.21,3.04,8.27,6.77,13.39,7.62,3.36,.55,3.56-1.68,3.76-2.1,.92-2,3.64-2.41,5.8-1.96,6.88,1.41,16.9,11.56,21.31,8.44,1.17-.83,1.13-2.71,.24-3.84-1.99-2.49-5.6-1.39-7.12-3.12-.12-.14-.23-.31-.24-.49-.01-.34,2.91-5.58,11.91,3.56,4.26,4.33,8.86,8.5,12.49,13.92Z"/><path class="s" d="M217.26,94.7c-1.04-.3-2.19-.85-.69-1.68,.91-.5,5.15-1.46,5.35-2.99,.41-3.12-11.97-1-19.23-2.49-1.92-.39-3.85-3.56,4.48-5.42,.8-.18,3.1-.19,3.28,.29,.52,1.39-1.97,1.01-4.41,1.37-1.26,.19-3.9,.82-3.66,2.08,.42,2.15,5.41,1.45,7.59,1.27,7.53-.62,13.05-.34,20.6-.04,2.36,.09,3.34,1.75,2.02,2.69-2.81,2.01-8.93,2.22-11.31,3.65-1.05,.63-.31,1.61,2.73,2.23,4.66,.95,12.37,.59,14.49,2.46,.5,.45,.53,1.21,.19,1.54-1.95,1.84-19.68-4.47-21.44-4.97Z"/><path class="s" d="M241.19,98.35c-.45,.88,.36,2.09,1.25,2.53,2.39,1.19,3.42-.47,3.44-1.12,.02-.99-.6-1.97-1.5-2.37s-2.44-.49-3.18,.96Z"/><path d="M246.73,79.09c-6.39-1.19-14.51-1.07-15.38-.11-1.65,1.83,.1,6.93,24.54,13.22,.69,.18,.46,1.21-.24,1.08-6.34-1.19-12.56-2.85-18.36-5.62-3.34-1.59-6.53-3.54-10.02-4.78-5.4-1.91-9.71-2.72-17.34-2.44,7.05-1.6,14.68-2.31,20.28-2.51,5.52-.2,9.75-.49,16.52,1.16Z"/><path class="q" d="M269.56,86.88c-.63,2.19-7.49,2.14-15.31-.12-7.82-2.26-13.65-5.87-13.02-8.06s8.07-4.17,15.9-1.91c7.82,2.26,13.06,7.9,12.43,10.09Z"/><path class="u" d="M257.13,76.79c-6.95-2.01-13.59-.67-15.43,1.19,.67,2.2,6.04,5.27,12.99,7.27s13.13,2.27,14.87,.77c-.57-2.56-5.48-7.23-12.42-9.23Z"/></g><path class="s" d="M268.94,85.6c-.92-1.86-2.57-3.23-4.21-4.51-1.17-.91-4.18-2.92-5.82-2.44-1.32,.38-4.46,2.3,2.14,2.35,1.94,.01,4.02,1.15,4.91,1.95,1.32,1.2,1.77,1.99,2.22,2.81,.12,.23,.52,.32,.76-.16Z"/><path class="s" d="M253.39,77.62c-1.52,.91,2.21,2.24,3.99,1.05,1.37-.91-2.2-2.12-3.99-1.05Z"/><path class="s" d="M250.32,83.19c-1.12-.46-2.27-1.06-3.27-1.89-.24-.2-.48-.41-.63-.65s-.18-.5,0-.58c.3-.15,.88,.28,1.3,.63,1.88,1.57,4.24,2.38,6.15,2.92,1.03,.29,2.71,.57,3.45,.76,.56,.14,.42,.58-.46,.52-1.16-.08-4.29-.78-6.55-1.71Z"/><circle class="s" cx="244.93" cy="79.33" r=".73"/><circle class="s" cx="261.02" cy="113.37" r="1.58"/><path class="s" d="M277.38,94.81c6.36,4.35,12.2,9.48,17.33,15.24,.64,.72,1.27,1.45,1.84,2.22,.28,.38,.56,.78,.68,1.24s.05,.99-.28,1.33c-.48,.49-1.34,.39-1.88-.03s-.86-1.06-1.17-1.67c-3.48-6.87-8.91-12.75-15.5-16.74-.67-.4-1.44-.97-1.01-1.59Z"/><path class="s" d="M227.84,79.6c-2.99,.07-5.98,.25-8.95,.53-1.25,.12-2.5,.26-3.72,.56-1.16,.28-2.35,.75-3.07,1.7-.06,.08-.13,.18-.14,.28-.03,.37,.51,.46,.88,.39,1.98-.41,3.81-1.38,5.77-1.85,2.71-.64,5.54-.31,8.32-.24,.45,.01,.94,0,1.3-.27s.48-1.12-.39-1.1Z"/><path class="s" d="M257.67,107.98c22.65-6.7,4.47-12.53,6.11-12.18,7.41,1.57,13.87,.39,13.08,.66-10.65,3.6,11.23,16.72,11.16,17.09-.36,1.9-11.77-1.02-12.13-2.35-1.41-5.31-.25-7.42-3.65-7.71-.8-.07-2.34,.06-2.93,2.6-.54,2.29,2.17,3.17,2.03,4.81-.09,1.04-9.63-1.92-13.67-2.91Z"/></g></g><g id="p"/></svg>