<?xml version="1.0" encoding="UTF-8"?><svg xmlns="http://www.w3.org/2000/svg" viewBox="0 0 360 360"><defs><style>.q{fill:#003dff;}.r{fill:#0091ff;}.s{fill:#edeeee;}.t{fill:#ff92da;}</style></defs><g id="a"/><g id="b"><g id="c"/><g id="d"/><g id="e"/><g id="f"/><g id="g"/><g id="h"/><g id="i"/><g id="j"/><g id="k"/></g><g id="l"/><g id="m"/><g id="n"/><g id="o"><g><g><path class="q" d="M67.04,263.35c23.49,1.2,45.52,8.31,65.32,21.04-1.42-.05-2.53-.41-3.7-1.2-18.49-10.47-36.69-16.76-57.16-18.39-2.89-.74-4.49-1.33-4.45-1.45Z"/><path class="q" d="M56.46,263.9c.04-.14,2.73,.59,7.3,1.94,1.53,.43,3.27,.92,5.24,1.35,21.37,.99,41.55,7.5,59.48,19.21,1.84,.8,3.54,1.43,5.04,1.97,4.5,1.57,7.11,2.56,7.06,2.7s-2.73-.59-7.3-1.94c-1.52-.47-3.24-1.03-5.1-1.77-18.29-11.24-38.09-17.63-59.48-19.21-1.94-.5-3.66-1.04-5.17-1.55-4.5-1.57-7.11-2.56-7.06-2.7Z"/><path class="q" d="M48.69,265.55c.04-.14,3.15,.72,8.42,2.31,1.76,.53,3.76,1.14,5.97,1.82,2.41,.89,4.87,1.48,7.46,1.7,20,1.35,37.28,6.72,54.23,17.51,2.23,1.33,4.57,2.29,7.06,2.99,2.19,.74,4.17,1.42,5.9,2.02,5.21,1.8,8.23,2.92,8.18,3.06s-3.15-.72-8.42-2.31c-1.76-.53-3.76-1.14-5.97-1.82-1.92-.54-3.59-1.08-5.32-2.05-17.68-9.8-34.36-17.02-54.48-18-3.2-.22-5.92-1.3-8.95-2.15-2.19-.74-4.17-1.42-5.9-2.02-5.21-1.8-8.23-2.92-8.18-3.06Z"/></g><g><path class="r" d="M41.98,239.75c15.24,9.1,38.2,11.77,61.84,19.4,23.63,7.63,43.82,18.9,61.5,20.43-.98-1.47-9.19-13.52-23.21-24.94-8.41-6.85-18.92-13.47-31.2-17.44-11.65-3.76-23.4-4.65-33.82-4.19-18.88,.83-33.4,6.1-35.1,6.74Z"/><path class="t" d="M70.34,237.85c12.5-.29,10.43,2.94,7.18,6.02-.93,.88-.07,2.42,1.16,2.08,5.67-1.57,12.17-2.76,14.44-.77,3.22,2.83-.64,9.04,7.94,10.36,4.12,.63,16.63-2.08,27.98,4.74,5.02,3.01,11.63,11.03,15.35,11,2.79-.02,2.05-2.73,1.18-4.07-2.39-3.66-7.47-7.47-12.38-8.91-21.52-6.28-33.33-7.84-34.73-10.97-1.21-2.71,4.99-2.96,17.12,.25,8.28,2.19,18.6,6.21,37.09,21.09,.88,.71,1.97-.66,1.18-1.47-28.4-28.83-36.52-20.1-50.52-28.46-10.94-6.54-30.06-7.1-58.94,1.21"/><path class="s" d="M102.18,237.65c-.91-.53-1.94-.85-2.99-.94-.57-.05-1.3,.09-1.43,.65-.14,.58,.51,1.04,1.09,1.2,.81,.24,1.68,.29,2.51,.14,.27-.05,.56-.12,.75-.32s.3-.6,.07-.74Z"/><path class="s" d="M107.16,238.5c-.49-.23-.98-.45-1.5-.58-.19-.05-.39-.08-.59-.05s-.38,.17-.45,.35c-.1,.3,.14,.61,.4,.79,.44,.32,.99,.5,1.54,.5,.35,0,.77-.14,.82-.48,.03-.19-.02-.45-.22-.54Z"/><path class="q" d="M141.02,253.87c-3.4,2.18-4.64,2.33-16.8-1.4-3-.92-3.1,.72,.58,1.84,4.51,1.38,9.08,3.36,13.75,4.04,5.35,.78,10.99,4.03,10.39,6.14-.62,2.17-7.03,1.24-14.08-1.43-11.97-4.53-9.96-2.11-7.93-1.16,8.54,4.01,18.98,7.02,28.3,5.46-4.09-5.02-9.54-10.31-14.22-13.51Z"/><path class="s" d="M129.69,249.49c7.46,4.46,14.22,10.09,19.95,16.63,1.44,1.65,2.91,3.62,2.65,5.8-1.15-.28-1.86-1.4-2.48-2.4-4.61-7.43-11.05-13.71-18.59-18.14-1.08-.63-2.28-1.36-1.52-1.89Z"/><path class="r" d="M38.78,241.44c-5.71-1.28-11.9-2.72-17.61-4.01,13.99,8.72,29.46,15.07,45.54,18.7,9.38,2.12,18.96,3.31,28.3,5.6,21.9,5.36,36.38,14.08,57.36,22.32,8.2,3.22,23.07,7.03,32.83,4.59l-18.89-7.34c-15.7-1.83-26.9-6.61-57.02-18.79-17.11-6.92-32.78-7.81-50.34-13.49-10.4-3.36-13.91-4.83-20.17-7.58Z"/><path class="s" d="M167.7,285.59c-6.9-.33-11.93-2.1-18.21-4.97s-46.69-20.52-47.43-18.94c-.58,1.23,2.88,1.93,5.67,2.78,10.85,3.29,47.43,20.69,58.53,22.98,.34,.07,3,.14,3.13-.18,.07-.16,.01-.35-.05-.52-.26-.64-.69-1.11-1.64-1.15Z"/><path class="s" d="M173.47,285.83c-.9-.35-1.91-.69-2.81-.36-.19,.07-.38,.18-.44,.38-.08,.24,.08,.49,.24,.69,.27,.35,.57,.71,.98,.89,.65,.29,1.39,.08,2.1,.02,.24-.02,.5-.03,.71-.16,.22-.15,.33-.43,.27-.69s-.29-.48-1.03-.77Z"/><path class="s" d="M100.12,260.9c-.82-.45-1.77-.68-2.71-.67-.24,0-.53,.07-.59,.29-.07,.24,.18,.45,.4,.57,.64,.35,1.33,.59,2.04,.73,.2,.04,.4,.07,.59,.02s.38-.19,.42-.38-.1-.42-.15-.56Z"/><path class="s" d="M95.19,259.82c-.57-.19-1.18-.31-1.78-.33-.17,0-.37,.01-.44,.17-.08,.18,.09,.37,.25,.48,.54,.37,1.19,.58,1.84,.61,.18,0,.39-.02,.48-.17,.12-.21-.1-.46-.35-.76Z"/><path class="q" d="M45.66,238.5c4.28-.3,8.47,1.14,12.52,2.57l25.54,8.98c3.92,1.38,7.92,2.77,12.07,2.94,.79,.03,1.81-.16,1.95-.94-1.33-.76-2.84-1.1-4.33-1.43-10.49-2.35-21.23-4.9-30.11-10.94-1.05-.71-2.12-1.55-2.53-2.75,2.23-1.4,5.12-.42,7.57,.55,9.61,3.84,19.46,7.18,29.59,9.32,1.06,.22,2.38,.35,3.04-.51-7.31-1.59-14.52-3.6-21.6-6.02-2.8-.96-5.6-1.99-8.1-3.58-.37-.24-.76-.51-.92-.92-.24-.61,.12-1.32,.66-1.69s1.21-.48,1.86-.56c4.75-.63,9.59-.58,14.32,.15-1.39-.32-2.79-.57-4.19-.75-2.01-.02-3.99,.02-5.92,.11-14.05,.62-25.68,3.7-31.42,5.49Z"/><path class="s" d="M95.64,236.87c-7.15-1.35-14.52-1.52-21.73-.51-2.07,.29-4.2,.71-5.88,1.94-.66,.48-1.27,1.22-1.12,2.02,.16,.82,1.1,1.29,1.94,1.23s1.59-.5,2.32-.9c4.55-2.48,9.76-3.72,14.94-3.55,3.13,.1,6.24,.7,9.37,.63,.45,0,1.07-.39,.16-.86Z"/><path class="s" d="M55.56,241.88c.68-2.82,3.36-3.84,6.17-3.11,2.29,.59,3.76,3.4,1.93,3.05-2.32-.45-4.26,1.26-1.24,2.79,6.81,3.45,16.18,4.38,23.66,7.09,.5,.18,.25,.94-.26,.78-.47-.14-.93-.31-1.39-.45-6.15-1.96-7.03-1.25-13.48-2.58-3.37-.7-16.01-4.97-15.39-7.56Z"/></g></g></g><g id="p"/></svg>