<?xml version="1.0" encoding="UTF-8"?><svg xmlns="http://www.w3.org/2000/svg" viewBox="0 0 360 360"><defs><style>.q{fill:#003dff;}.r{fill:#0091ff;}.s{fill:#edeeee;}.t{fill:#ff4300;}.u{fill:#ff92da;}</style></defs><g id="a"/><g id="b"><g id="c"/><g id="d"/><g id="e"/><g id="f"/><g id="g"/><g id="h"/><g id="i"/><g id="j"/><g id="k"/></g><g id="l"/><g id="m"/><g id="n"/><g id="o"><g><path class="u" d="M136.18,58.35c-4.72-5.89-26.21,2.26-47.27,19.13-21.06,16.87-33.71,36.07-28.99,41.95,3.95,4.93,23.94,5.33,42.7-4.59-.03,.16-.06,.32-.08,.49-.09,.79-.75,10.49-1.3,18.69-.04,.63,.89,.74,.99,.11,1.25-8.13,2.72-17.74,2.81-18.53,.09-.77-.01-1.48-.24-1.97,2.89-1.66,5.73-3.57,8.46-5.76,1.02-.82,2.01-1.66,2.97-2.53,1.52,1.75,3.65,4.18,5.57,6.38,.26,.3,.72-.07,.48-.39-1.75-2.39-3.69-5.03-5.07-6.9,2.79-2.63,5.28-5.42,7.48-8.29,.43,.3,1.07,.53,1.8,.61,.79,.09,10.49,.75,18.69,1.3,.63,.04,.74-.89,.11-.99-8.13-1.25-17.74-2.72-18.53-2.81-.23-.03-.45-.03-.66-.03,10.74-15.03,13.64-31.45,10.07-35.9Z"/><path class="q" d="M59.92,119.44c-4.72-5.89,7.93-25.08,28.99-41.95,21.06-16.87,42.55-25.02,47.27-19.13,4.72,5.89-8.91,25.56-29.97,42.43-21.06,16.87-41.57,24.54-46.29,18.66Z"/><path class="u" d="M85.71,70.61s-.02-.03-.03-.04c-.31-.38-4.28-4.94-7.64-8.79-.26-.3-.72,.07-.48,.39,3.02,4.12,6.6,8.99,6.91,9.38,.01,.01,.02,.02,.03,.04-11.16,9.39-13.99,24.57-9.35,30.36,2.28,2.85,8.53,.77,14.45-2.16,8.98-4.45,16.99-10.87,23.16-18.76,3.86-4.93,6.8-10.18,4.62-12.91-4.64-5.79-20.07-6.35-31.67,2.49Z"/><path class="t" d="M75.95,99.06c-2.38-6.71-.75-15.08,4.17-21.41,1.02-1.31,2.19-2.55,3.62-3.4,.55-.33,1.21-.6,1.75-.4,.7,.26,.81,1.23,.46,1.96s-1.02,1.29-1.62,1.86c-2.89,2.74-4.71,6.33-6.07,9.92-.61,1.61-1.14,3.37-.6,4.85,.11,.29,.28,.58,.58,.69,.62,.21,1.29-.47,1.65-1.08,1.16-1.92,1.69-4.09,2.87-6,1.05-1.7,2.6-3.16,4.39-4.11,.34-.18,.7-.35,1.07-.35,.79,0,1.26,.77,1.26,1.54s-.33,1.52-.54,2.29c-.36,1.29-.36,2.63-.02,3.83,.16,.54,.45,1.11,1.02,1.21,.4,.07,.83-.11,1.23-.28l7.98-3.45c1.09-.47,2.25-.95,3.34-.78,.44,.07,.89,.3,.94,.72,.03,.23-.07,.46-.17,.69-.85,1.89-2.44,3.46-4.08,4.83-5.1,4.27-11.26,7.29-17.57,8.62-1.08,.23-2.19,.41-3.22,.2s-2.05-.83-2.45-1.94Z"/><path class="t" d="M87.93,71.48c1.14-.15,2.44-.88,3.41-.44,.91,.41-.11,1.99-.56,2.97s-.63,2.34,.3,2.72c.75,.31,1.66-.28,2.41-.79,2.1-1.44,4.41-2.56,6.79-3.31,.94-.29,2.11-.47,2.61,.25,.28,.4,.25,.98,.52,1.39,.42,.65,1.42,.67,2.27,.46s1.68-.62,2.52-.62c1.07,0,1.94,.7,2.43,1.56s.65,1.89,.81,2.9c4.17-3.03,5.05-7.44,4.93-8.5-.18-1.61-3.2-4.78-9.06-5.35-3.3-.32-6.58-.07-9.92,.96-3.4,1.05-6.81,2.52-9.45,5.79Z"/><path class="s" d="M79.14,99.42c-2.23-4.96-3.08-11.05-.36-16.45,.5-.99,1.4-2.1,2.45-1.98,.93,.11,1.32,1.2,1.08,2.13s-.9,1.74-1.43,2.59c-2.29,3.65-2.21,8.01-1.28,11.78,.19,.77,.34,1.76-.46,1.93Z"/><ellipse class="s" cx="83.65" cy="78.33" rx="1.76" ry="1.53" transform="translate(-30.6 69.49) rotate(-38.69)"/><path class="s" d="M90.92,69.38c2.87-.91,5.75-1.83,8.71-2.4,1-.19,2.04-.34,3.02-.08,.14,.04,.3,.1,.35,.24,.05,.12,0,.25-.06,.36-.62,1.23-2.17,1.68-2.97,2.8-.18,.26-.28,.68-.01,.84,.13,.08,.29,.06,.43,.03,2.12-.39,3.93-1.86,6.08-2.09,.21-.02,.43-.03,.62,.05,.33,.14,.5,.51,.78,.74,.7,.6,1.73,.2,2.63,.08,2.05-.28,3.97,1.06,5.58,2.4,.12,.1,.24,.23,.33,.37,.15,.24-.21,.53-.41,.33-1.28-1.24-2.77-2.43-4.5-2.33-1.42,.08-2.61,1.02-3.95,1.48-.4,.13-.91,.19-1.17-.15-.43-.59,.46-1.58-.09-2.06-.25-.22-.63-.14-.93-.03-2.43,.83-4.53,2.43-6.96,3.26-.48,.17-1.11,.26-1.43-.14-.14-.18-.19-.42-.19-.64,0-.85,.54-1.61,1.17-2.17s1.38-.98,1.99-1.56c.2-.19,.4-.45,.35-.73-.1-.48-.76-.51-1.23-.41-2.68,.55-5.32,1.29-7.89,2.22-.09,.03-.18,.06-.27,.09-.32,.09-.4-.37-.08-.47l.11-.03Z"/><path class="r" d="M119.54,72.71c3.79-1.17,9.52-3.57,14.09-7.21,.79-.63,1.89,.23,1.47,1.15-1.52,3.29-4.38,8.34-8.75,13.52-6.16,7.3-.16-2.44-8.39-1.34-.15,.02-3.37,1.01-1.8-.72s2.61-5.17,3.38-5.4Z"/><path class="r" d="M76.34,103.59c.81,.25,1.68,.31,2.51,.19,.71-.11,1.16,.73,.69,1.26v.02c-1.45,1.61-2.91,3.22-4.19,4.95-1.73,2.34-3.14,4.93-4.17,7.65-.19,.51-.39,1.05-.81,1.4-.26,.22-.59,.34-.91,.46-1.05,.39-2.12,.79-3.24,.83-1.34,.04-2.64-.45-3.88-.96-.74-.3-1.5-.64-2-1.26-.66-.82-.73-1.96-.62-3.01,.09-.87,.31-1.76,.85-2.45,.61-.77,1.54-1.2,2.43-1.62,3.81-1.82,7.38-4.13,11.21-7.06,.61-.46,1.4-.62,2.13-.4Z"/><path class="q" d="M126.72,92.39c-.13,.18-.41,.04-.35-.17,.74-2.37,.59-5.02-.44-7.28-.11-.25-.24-.5-.23-.77,.01-.32,.21-.59,.4-.85,2.97-3.92,6.35-7.61,8.38-12.09,.42-.93,.8-1.92,1.57-2.59,.55,.54,.42,1.45,.24,2.2-1.85,7.68-4.98,15.05-9.59,21.55Z"/><path class="q" d="M123.24,96.7c2-3.33,2.56-7.49,1.53-11.24-.03-.12-.07-.24-.18-.3-.18-.1-.39,.07-.52,.23l-6.05,7.09c-.1,.12-.21,.25-.21,.41,0,.14,.1,.27,.19,.38,1,1.23,2.09,2.4,3.25,3.48,.22,.21,.45,.42,.75,.49s.84,.13,1.25-.55Z"/><path class="q" d="M116.44,93.91c1.1,1.08,3.96,4.66,4.04,5.13,.11,.71-.1,1.3-.81,1.45-1.44,.31-6.69,.23-9.35,.17-.57-.01-.84-.72-.42-1.11,1.74-1.62,5.02-4.63,6.54-5.65Z"/><path class="s" d="M118.74,61.69c-.49,.16-.78-.54-.31-.77,5.75-2.77,12.28-3.85,14.53-1.99,4.35,3.59-7.59,21.07-15.31,28.18-1.59,1.46-2.42,2.28-3.68,1.08-1.49-1.41-.49-2.6,1.47-3.9,8.99-5.99,18.76-21.56,16.41-24.11-1.63-1.77-7.2-.45-13.11,1.51Z"/><circle class="s" cx="110.59" cy="90.9" r="1.95"/><path class="s" d="M61.73,110.46c-.74,1.27-1.52,4.69-1.14,6.11,.32,1.19,1.41,2.06,2.6,2.41s2.45,.26,3.67,.08c2.84-.4,5.62-1.24,8.22-2.46,.96-.45,1.9-.96,2.92-1.22,.31-.08,.63-.14,.94-.06s.59,.32,.63,.64c.05,.45-.38,.79-.77,1.02-2.95,1.77-6.24,2.98-9.64,3.53-1.42,.23-2.88,.35-4.31,.15s-2.95-.64-3.91-1.72c-2.14-2.39-.78-6.85,.79-8.49Z"/><path class="q" d="M95.03,111.85c1.63-1.23,3.2-2.59,5.01-3.53,.47-.25,1.25-.34,1.36,.18,.03,.13,0,.27-.05,.4-.56,1.71-2.71,2.41-3.51,4.02-.09,.18-.16,.38-.13,.58,.09,.56,.87,.68,1.41,.5,1.46-.51,2.28-2.06,3.58-2.92,1.84-1.22,4.34-.87,6.3-1.87,1.25-.64,2.5-1.86,3.84-1.41l-3.85,2.58c-.88,.59-1.81,1.2-2.86,1.33-.41,.05-.82,.02-1.22,.07-1.25,.15-2.29,.97-3.31,1.71-2.23,1.62-4.71,3-7.43,3.49-.29,.05-.64,.07-.8-.17-.2-.29,.05-.67,.29-.93l2.1-2.25c-.33-.6-1.25-.28-1.82,.11-4.4,3.02-11.09,6.4-18.02,7.73-.97,.19-1.66-.79,.37-1.18,5.63-1.08,14.06-4.9,18.73-8.43Z"/><path class="s" d="M126.09,92.56c1.71-3.61,3.47-7.39,3.34-11.38-.02-.75-.12-1.51,.03-2.25s.58-1.47,1.29-1.72c.14-.05,.29-.08,.43-.04,.34,.09,.46,.5,.51,.84,.23,1.77-.24,3.55-.78,5.25-.9,2.84-2.04,5.6-3.4,8.25-.33,.65-.87,1.4-1.42,1.05Z"/></g></g><g id="p"/></svg>