<?xml version="1.0" encoding="UTF-8"?><svg xmlns="http://www.w3.org/2000/svg" viewBox="0 0 360 360"><defs><style>.q{fill:#003dff;}.r{fill:#edeeee;}.s{fill:#ff4300;}</style></defs><g id="a"/><g id="b"><g id="c"/><g id="d"/><g id="e"/><g id="f"/><g id="g"/><g id="h"/><g id="i"/><g id="j"/><g id="k"/></g><g id="l"/><g id="m"/><g id="n"/><g id="o"><g><g><path class="s" d="M243.31,95.57c-22.88-9.47-40.5-22.25-47.5-27.72-2.61-.53-4.07-.77-4.07-.77,0,0,20.91,18.02,50.79,30.38,29.88,12.36,57.41,14.39,57.41,14.39,0,0-1.2-.86-3.43-2.33-8.82-1.08-30.32-4.48-53.2-13.95Z"/><path class="q" d="M242.33,97.94c-22.88-9.47-40.5-22.25-47.5-27.72-2.61-.53-4.07-.77-4.07-.77,0,0,20.91,18.02,50.79,30.38,29.88,12.36,57.41,14.39,57.41,14.39,0,0-1.2-.86-3.43-2.33-8.82-1.08-30.32-4.48-53.2-13.95Z"/><path class="q" d="M240.26,102.94c-22.88-9.47-40.5-22.25-47.5-27.72-2.61-.53-4.07-.77-4.07-.77,0,0,20.91,18.02,50.79,30.38s57.41,14.39,57.41,14.39c0,0-1.2-.86-3.43-2.33-8.82-1.08-30.32-4.48-53.2-13.95Z"/><path class="s" d="M239.25,105.39c-22.88-9.47-40.5-22.25-47.5-27.72-2.61-.53-4.07-.77-4.07-.77,0,0,20.91,18.02,50.79,30.38,29.88,12.36,57.41,14.39,57.41,14.39,0,0-1.2-.86-3.43-2.33-8.82-1.08-30.32-4.48-53.2-13.95Z"/><path class="s" d="M241.36,100.29c-25.97-10.75-45.98-25.25-53.92-31.46-2.97-.6-4.62-.88-4.62-.88,0,0,23.74,20.45,57.66,34.48,33.92,14.03,65.16,16.34,65.16,16.34,0,0-1.36-.97-3.89-2.64-10.01-1.22-34.42-5.09-60.39-15.84Z"/><g><path class="s" d="M200.92,69.06s27.42-8.54,52.58,1.87c25.16,10.41,38.54,35.83,38.54,35.83,0,0-21.83-4.98-46.99-15.39-25.16-10.41-44.13-22.31-44.13-22.31Z"/><path class="q" d="M287.31,100.21c-.92-1.75-1.87-3.54-3.31-4.94-1.52-1.47-3.55-2.41-5.6-2.61-1.43-.14-2.92,.1-3.99,.93-.39,.3-.72,.68-.87,1.14s-.11,1.02,.2,1.44c.22,.3,.55,.52,.9,.67,.6,.26,1.27,.35,1.89,.25,.5-.08,.96-.27,1.44-.43,1.03-.33,2.13-.49,3.24-.45,.61,.02,1.22,.1,1.8,.33,.84,.33,1.56,.94,2.15,1.63s1.08,1.44,1.61,2.17c.09,.12,.2,.26,.34,.3s.41-.07,.21-.44Z"/><g><path d="M289.32,106.1l-3.33-4.08c-1.09-1.34-2.25-2.73-3.85-3.39-1.65-.68-3.56-.47-5.22,.18-1.54,.61-2.91,1.57-4.25,2.55,7.51,2.36,13.42,3.93,16.64,4.75Z"/><path d="M235.61,87.27c3.03,1.37,6.18,2.75,9.45,4.1,7.8,3.23,15.27,5.93,21.88,8.13-1.78-2.94-7.04-11.14-8.93-12.55-3.06-2.3-7.1-2.18-10.87-1.54-3.54,.6-7.89,1.24-11.53,1.87Z"/><path d="M219.36,79.39c3.89,2.02,8.28,4.2,13.05,6.42,.73-2.93,1.62-9.45-.27-10.57-1.87-1.1-9.08,1.19-12.78,4.15Z"/><path d="M222.89,70.56c-.83-1.54-5.15-1.16-8.95-1.27-4.9-.14-8.28,.38-11.78,.53,2.14,1.29,6.94,4.13,13.62,7.69,2.87-1.9,7.98-5.34,7.11-6.95Z"/></g><path class="q" d="M260.25,85.06c3.5,2.58,7.57,10.13,10.47,9.72,2.17-.3,1.97-3,1.47-4.28-1.37-3.5-4.81-6.9-8.44-7.88-15.91-4.27-24.9-4.68-25.57-7.75-.58-2.65,4.29-3.53,13.3-1.46,7.48,1.71,18.36,7.6,25.85,13.99-3.39-3.42-7.34-6.87-11.85-9.96-9.71-6.54-19.71-9.73-28.77-10.96l-.14-.02c-.07-.01-.15-.02-.22-.03-8.41-1.09-16.29-.71-22.48,.05-2.41,.33-4.98,.75-7.79,1.29h0c5.37-.09,10.3-.24,15.03-.09,5.41,.17,8.34,2.51-1.76,9.54,0,0,12.13-7.48,14.98-4.03,2.13,2.57-1.72,9.32,4.78,9.8,3.12,.23,13.23-3.79,21.15,2.04Z"/><g><path class="r" d="M263.95,80.74c.45-.14,.69-.64,.55-1.1-.05-.16-.11-.32-.18-.48-.04-.09-.08-.19-.15-.27-.28-.35-.89-.28-1.17,.07s-.25,.88-.04,1.27c.14,.26,.38,.49,.68,.53,.1,.01,.21,0,.31-.03Z"/><path class="r" d="M213.07,73.49c.45-.14,.69-.64,.55-1.1-.05-.16-.11-.32-.18-.48-.04-.09-.08-.19-.15-.27-.28-.35-.89-.28-1.17,.07s-.25,.88-.04,1.27c.14,.26,.38,.49,.68,.53,.1,.01,.21,0,.31-.03Z"/><path class="r" d="M215.33,74.76c.45-.14,.69-.64,.55-1.1-.05-.16-.11-.32-.18-.48-.04-.09-.08-.19-.15-.27-.28-.35-.89-.28-1.17,.07s-.25,.88-.04,1.27c.14,.26,.38,.49,.68,.53,.1,.01,.21,0,.31-.03Z"/><path class="r" d="M284.78,101.05c.18-.25,.19-.58,.03-.83-3.43-5.44-7.57-10.44-12.28-14.81-.48-.45-.98-.9-1.51-1.3-.77-.59-1.67,.53-.94,1.16l.02,.02c5.29,4.56,10.64,9.35,13.85,15.56,.11,.21,.26,.46,.5,.47,.13,0,.23-.12,.34-.27Z"/><circle class="r" cx="266.6" cy="82.02" r="1.42"/><path class="r" d="M280.67,100.12c-7,.45-15.42-4.73-19.15-10.66-.94-1.49-2.85-4.15-4.62-2.27-.71,.75-.97,2.69-4.11,.99-6.57-3.56-14.71-6.64-24.2-8.93-.31-.07-.46,.4-.16,.5,9.34,3.31,18.16,5.88,24.55,10.82,1.29,.99,3.85,4.55,5.03,3.31,.76-.8-.9-3.78-.03-4.45,2.03-1.58,8.64,9.14,15.16,12.07,3.78,1.7,7.11,2.26,8.17,1.73,2.3-1.14,.96-3.22-.64-3.12Z"/></g></g></g><circle class="r" cx="270.57" cy="105.72" r="1.67"/><circle class="r" cx="271.71" cy="111.7" r="1.67"/><circle class="r" cx="273.42" cy="117.4" r="1.67"/><circle class="r" cx="273.01" cy="108.54" r="1.14"/><circle class="r" cx="274.26" cy="114.35" r="1.14"/><path class="r" d="M256.14,101.55c-.17-.07-.08-.33,.1-.28,3.66,1.1,5.69,1.69,11.32,2.95,.44,.1,.63,.4,.57,.64-.06,.21-.42,.4-.68,.35-3.09-.6-7.72-2.11-11.31-3.66Z"/><path class="r" d="M257.43,107.61c-.17-.07-.08-.33,.1-.28,3.66,1.1,5.69,1.69,11.32,2.95,.44,.1,.63,.4,.57,.64-.06,.21-.42,.4-.68,.35-3.09-.6-7.72-2.11-11.31-3.66Z"/><path class="r" d="M259.53,113.45c-.17-.07-.08-.33,.1-.28,3.66,1.1,5.69,1.69,11.32,2.95,.44,.1,.63,.4,.57,.64-.06,.21-.42,.4-.68,.35-3.09-.6-7.72-2.11-11.31-3.66Z"/></g></g><g id="p"/></svg>