<?xml version="1.0" encoding="utf-8"?>
<!-- Generator: Adobe Illustrator 26.2.1, SVG Export Plug-In . SVG Version: 6.00 Build 0)  -->
<svg version="1.1" xmlns="http://www.w3.org/2000/svg" xmlns:xlink="http://www.w3.org/1999/xlink" x="0px" y="0px"
	 viewBox="0 0 360 360" style="enable-background:new 0 0 360 360;" xml:space="preserve">
<style type="text/css">
	.st0{display:none;}
	.st1{display:inline;}
	.st2{fill:#003DFF;}
	.st3{fill:#FF92DA;}
	.st4{fill:#FF4300;}
	.st5{fill:#0091FF;}
	.st6{fill:#FF00C7;}
	.st7{display:inline;fill:#EDEEEE;}
	.st8{fill:#EDEEEE;}
	.st9{fill:#2D2D2D;}
	.st10{fill:#B9B9B9;}
	.st11{fill:none;stroke:#000000;stroke-width:0.5731;stroke-miterlimit:10;}
	.st12{fill:none;stroke:#000000;stroke-width:0.4143;stroke-miterlimit:10;}
	.st13{fill:#231F20;}
	.st14{fill:none;stroke:#EDEEEE;stroke-width:0.187;stroke-miterlimit:10;}
</style>
<g id="Layer_2" class="st0">
	<rect x="0" class="st1" width="360" height="360"/>
</g>
<g id="Layer_17" class="st0">
</g>
<g id="Planets">
	<path class="st2" d="M253.6,180.9c0.3-20.9-8.5-41.2-24-55.3c-2.2-2-4.6-3.9-7.1-5.7c-4-2.8-8.3-5.3-13-7.3
		c-37.2-16.3-80.6,0.7-96.9,37.9c-4.1,9.3-6.1,19-6.2,28.5c-0.2,14.9,4.2,29.5,12.4,41.8c0.3,0.5,0.7,1,1,1.5
		c1.4,1.9,2.8,3.8,4.4,5.6c0.8,0.9,1.6,1.8,2.4,2.7c6.6,6.9,14.6,12.7,23.9,16.8c0.8,0.3,1.5,0.6,2.3,0.9c0.2,0.1,0.4,0.2,0.6,0.2
		c0.7,0.3,1.4,0.5,2,0.8c0.1,0,0.2,0.1,0.3,0.1c0.8,0.3,1.5,0.5,2.3,0.8c0.2,0.1,0.4,0.1,0.5,0.2c0.7,0.2,1.3,0.4,2,0.6
		c0.1,0,0.2,0.1,0.4,0.1c0.8,0.2,1.6,0.4,2.3,0.6c0.1,0,0.3,0.1,0.4,0.1c0.7,0.2,1.4,0.3,2.1,0.4c0.1,0,0.3,0.1,0.4,0.1
		c0.8,0.2,1.6,0.3,2.4,0.4c0.1,0,0.2,0,0.2,0c0.7,0.1,1.5,0.2,2.2,0.3c0.1,0,0.2,0,0.4,0c1.6,0.2,3.3,0.3,4.9,0.4c0.1,0,0.2,0,0.3,0
		c1.7,0.1,3.3,0.1,5,0.1c0.1,0,0.1,0,0.2,0c1.7,0,3.4-0.1,5-0.3c0,0,0.1,0,0.1,0c1.7-0.2,3.4-0.4,5.1-0.7c0.5-0.1,0.9-0.2,1.3-0.2v0
		c9.6-1.8,18.8-5.4,26.9-10.8v0c7.9-5.2,15-11.9,20.5-20.1c0,0,0-0.1,0.1-0.1c0.5-0.7,1-1.5,1.4-2.2c0,0,0,0,0,0
		c0.4-0.7,0.8-1.4,1.3-2.1c0.1-0.1,0.2-0.3,0.2-0.4c0.4-0.7,0.8-1.5,1.2-2.2c0,0,0-0.1,0.1-0.1c0.4-0.7,0.7-1.4,1-2.1
		c0.1-0.2,0.2-0.4,0.3-0.6c0.4-0.7,0.7-1.5,1-2.2c0,0,0,0,0,0c3.4-7.9,5.4-16,6-24.1C253.5,183.9,253.6,182.4,253.6,180.9z"/>
	<path class="st3" d="M231,130.5c-3.2-5.2-7.5-9.6-12.5-13.2c-2.8-1.7-5.8-3.3-9-4.7c-37.2-16.3-80.6,0.7-96.9,37.9
		c-13.4,30.7-4.2,65.6,20.3,86c4.1,3.1,8.8,5.9,13.9,8.2c8.1,3.8,17.5,4.8,26.3,2.8c2.5-0.6,5.3-1.6,6.4-4c1.3-2.6,0-5.7-1.4-8.2
		c-4.1-7.2-9.8-13.4-14.3-20.4c-7.9-12-12.2-25.9-14.9-40c-2.3-12.2-3.2-25.8,3.8-36c1.1-1.6,2.4-3.1,4.1-4.2
		c5.8-3.6,13.9,0.2,17.3,6.1c3.5,5.9,3.6,13.1,3.9,19.9c0.9,18.6,3.6,37.5,12,54.1c2.6,5.2,5.9,10.3,10.4,14
		c4.5,3.7,10.4,6,16.2,5.2c9.4-1.3,19-9.9,21.8-19c10.9-35.3-6-61.4-7.1-68C230.3,141.9,235.5,137.9,231,130.5z"/>
	<path class="st4" d="M147.2,115c-20.3,11.1-33.8,29.4-38.1,52.1s2.8,47.5,19.4,63.6c3.9,3.8,8.4,7.1,13.5,9c5.1,1.9,11,2.2,16,0.1
		c1.1-0.5,2.2-1.1,2.9-2c1.1-1.5,1.1-3.6,0.8-5.4c-0.6-3.8-2.3-7.4-4-10.9c-6.4-13.1-11.1-25.9-14.4-40.1
		c-3.4-14.2-0.7-35.8,7.5-43.9c9.9-9.9,25.7-7.8,29.3,17.8c2.3,16.4,21.8,76.9,46.4,57c11.5-9.3,14.4-19.2,9.6-41.6
		c-5.2-24.3-16.4-27.9-14.6-29.8c3.1-3.4,6.3,6.6,7.5-1.8c0.3-2-0.1-12.2-13.7-21.2c-6.4-4.3-15.5-8.4-23.1-9.6
		C178.3,106.1,162.4,106.7,147.2,115z"/>
	<path class="st5" d="M145.7,117.2c-14.3,8.7-25.4,22.4-31.1,38.2s-5.7,33.4-0.2,49.2c3.1,8.9,8.1,17.5,15.6,23.3
		c3,2.3,6.9,4.2,10.4,3c3.1-1.1,5-4.5,5.3-7.8s-0.6-6.6-1.5-9.8c-3.7-13.4-7.2-27.1-6.7-41c0.3-7.6,1.8-15.2,4.5-22.4
		c2.3-6.1,5.5-12,10.6-16.1c5.1-4.1,12.2-6,18.3-3.6c5,2,8.5,6.7,10.6,11.7s2.8,10.4,3.7,15.7c1.2,6.6,2.8,13.2,6,19.2
		c3.1,5.9,8,11.2,14.2,13.7s13.8,2.1,19.1-2.1c6.9-5.6,7.9-15.9,5.8-24.5c-1.3-5.3-3.5-10.3-6.4-14.9c-3.4-5.4-7.7-10.2-12.2-14.8
		c-1.3-1.4-2.8-3.3-1.9-5c1-1.9,4-1.4,5.5,0.1c1.5,1.5,2.3,3.6,3.8,5.1c1.5,1.5,4.6,1.8,5.5-0.1c0.3-0.6,0.3-1.3,0.2-2
		c-0.6-4.6-3.9-8.3-7.5-11.2c-3.7-3-7.8-5.4-12.2-7.2C186.6,105.8,163.7,106.2,145.7,117.2z"/>
	<path class="st2" d="M146.5,118.9c-21.9,14-34.9,40.7-32.5,66.6c0.6,6.6,2.5,13.7,8,17.5c0.7,0.5,1.5,0.9,2.3,0.9
		c1.9-0.1,2.9-2.3,3.4-4.2c2.9-11.6,3.2-23.8,5.5-35.6c2.2-11.8,6.7-23.8,15.9-31.5c6.3-5.3,15.1-8.1,22.9-5.5
		c7.4,2.6,12.3,9.4,16.7,15.8c2.8,4.1,5.7,8.2,8.5,12.4c2.4,3.5,5,7.2,8.8,9.2c3.8,2,9.2,1.5,11.5-2.2c1.7-2.7,1.1-6.3,0.2-9.4
		c-1.5-4.8-4-9.4-7.2-13.4c-1.9-2.3-4.1-4.6-4.8-7.5c-0.8-2.9,0.8-6.6,3.7-7c0.7-0.1,1.5,0,2.1-0.4c1-0.7,0.5-2.3-0.1-3.4
		c-5.7-8.9-17.7-11.2-28.3-11.6C169.2,109.3,155.8,112.9,146.5,118.9z"/>
	<path class="st3" d="M246.5,148.7c-0.8-1.4-1.7-2.8-2.7-4.1c-0.5-0.7-1.2-1.4-2-1.8c-0.8-0.4-1.8-0.5-2.6,0.1
		c-0.5,0.4-0.7,1-0.9,1.5c-0.4,1.8,0,3.7,0.5,5.4c2.8,10.8,7.8,21.2,8.6,32.3c1.1,15-1.8,29.4-3.5,33.5c0.3-0.4,0.6-0.7,0.9-1.1
		c0.9-1.6,1.7-3.3,2.4-5C256.2,189.2,255.3,167.2,246.5,148.7z"/>
	<path class="st3" d="M152.4,117.1c-8.1,5.4-15.6,11.8-21.2,19.8c-5.5,8-9,17.7-8.4,27.4c0.1,2.1,0.9,4.6,3,4.8
		c2.1,0.2,3.3-2.2,3.8-4.2c1.3-5.2,1.8-10.6,3.5-15.7c1.7-4.9,4.6-9.4,7.4-13.8c1.8-2.8,3.6-5.6,6.1-7.8c3.2-2.9,7.4-4.6,11.7-5.4
		c4.8-0.8,9.9-0.5,14.4,1.4c5.7,2.4,10.1,7,13.9,11.9c2.5,3.3,4.9,6.7,8,9.4c3.1,2.7,7.1,4.8,11.2,4.5c1-0.1,2-0.3,2.6-1
		c1.3-1.3,0.5-3.5-0.4-5.1c-4.4-7.3-11.7-12.2-19.1-16.3c-1.4-0.8-2.9-1.6-3.8-2.9s-1.1-3.3,0-4.4c0.9-0.9,2.3-1,3.5-1.3
		c1.2-0.3,2.6-1,2.7-2.3c0.1-0.6-0.2-1.3-0.6-1.8c-1.5-1.9-4-2.4-6.4-2.6C173,110.7,160.7,111.6,152.4,117.1z"/>
	<g>
		<path class="st6" d="M188.1,231c-10.8-20-13.8-43.1-18.9-65.3c-0.8-3.5-2-7.4-5.1-9.1c-0.7-0.4-1.5-0.6-2.3-0.4
			c-0.8,0.2-1.4,0.8-1.9,1.4c-3.5,4.3-3.8,10.4-3.2,15.9c1.9,19.5,11.6,37.9,25.5,51.8C184,227.2,186.1,229.1,188.1,231z"/>
	</g>
	<g id="_x39___x28_lowest_x29_">
	</g>
	<g id="_x38_">
	</g>
	<g id="_x37_">
	</g>
	<g id="_x36_">
	</g>
	<g id="_x35_">
	</g>
	<g id="_x34_">
	</g>
	<g id="_x33_">
	</g>
	<g id="_x32_">
	</g>
	<g id="_x31___x28_highest_x29_">
	</g>
</g>
<g id="Stars" class="st0">
	<path class="st7" d="M110.6,38.2c-0.6,4.5-1.2,6.6,0,7.8c1.5,1.5,4.8,0.1,8.6-1.1c-4.3,2.1-7.1,2.8-7.5,4.6
		c-0.4,1.7,1.5,4.8,2.5,7.8c-1.4-2.6-3.4-6.1-5.5-6.3c-2-0.2-6.1,3.7-7.9,5c1.8-1.9,5.3-4.7,4.7-7.5c-0.5-2.3-2.5-2.1-5.2-4.4
		c2.4,1.1,5.4,2.9,6.8,2.1C108.8,45.3,109.5,42.2,110.6,38.2z"/>
	<path class="st7" d="M190.2,271c-0.6,4.5-1.2,6.6,0,7.8c1.5,1.5,4.8,0.1,8.6-1.1c-4.3,2.1-7.1,2.8-7.5,4.6
		c-0.4,1.7,1.5,4.8,2.5,7.8c-1.4-2.6-3.4-6.1-5.5-6.3c-2-0.2-6.1,3.7-7.9,5c1.8-1.9,5.3-4.7,4.7-7.5c-0.5-2.3-2.5-2.1-5.2-4.4
		c2.4,1.1,5.4,2.9,6.8,2.1C188.4,278.1,189,275,190.2,271z"/>
	<path class="st7" d="M274.2,127.7c-1.1,8.2-2.1,11.8,0.1,14.1c2.6,2.7,8.6,0.1,15.6-2c-7.7,3.8-12.8,5.1-13.5,8.3
		c-0.7,3.2,2.6,8.6,4.5,14.1c-2.5-4.7-6.1-11.1-9.9-11.4c-3.7-0.3-11,6.7-14.2,9c3.3-3.4,9.5-8.6,8.5-13.5c-0.9-4.2-4.4-3.8-9.4-7.9
		c4.4,2.1,9.7,5.2,12.3,3.8C271.1,140.5,272.2,134.9,274.2,127.7z"/>
	<circle class="st7" cx="312.1" cy="113.2" r="3.8"/>
	<circle class="st7" cx="233.1" cy="58.2" r="3.8"/>
	<circle class="st7" cx="92.6" cy="231.3" r="3.8"/>
</g>
<g id="Moon_2" class="st0">
	<g class="st1">
		<circle class="st9" cx="159.3" cy="69.4" r="17.4"/>
		<path class="st8" d="M161.6,84.2c-0.5,0.1-0.7-0.6-0.3-0.8c4.4-1.9,7.4-4.6,9.7-8c0.9-1.3,2.8-3.7,3.9-3.1c1.2,0.6-0.1,3-3.3,6.3
			C169.3,81.1,165.3,83.1,161.6,84.2z"/>
		<path class="st8" d="M171.8,57.8c-0.6-0.6-1.5-0.8-2.4-0.7c-0.8,0.1-1.6,0.6-2.4,0.9c-6.7,3.4-14.4,5.4-21.8,4.1
			c-0.5-0.1-1-0.2-1.2-0.6c0.3-0.5,1-0.5,1.5-0.4c4,0.5,11,0.6,16.6-4.3c2-1.8,0-4.7-2.4-1.9c-3.9,4.6-9.6,5.8-15.6,5.9
			c-0.2,0.4-0.4,0.7-0.6,1.1c0.2,0.3,0.5,0.6,0.9,0.8c2.4,1.6,5.5,1.9,8.4,1.9c5.2,0,10.4-0.6,15.4-1.9c1.2-0.3,2.4-0.7,3.3-1.6
			C172.3,60.2,172.6,58.7,171.8,57.8z"/>
		<path class="st8" d="M175.1,64.1c0-0.3-0.1-0.7,0.1-0.9c0.1-0.1,0.2-0.1,0.3-0.2c-0.2-0.4-0.3-0.8-0.5-1.1
			c-4.7,4.1-9.6,8.1-15.5,9.9c-4.1,1.3-8.5,1.4-12.8,1.9c-1.3,0.1-2.7,0.4-3.3,1.5c-0.1,0.2-0.2,0.5-0.3,0.7c0.4,1.1,1,2.2,1.6,3.1
			c1.3,0.7,2.9,0.7,4.4,0.4c8.6-1.4,15.7-7.2,22.3-12.8c0.5-0.4,1.2-0.8,1.6-0.3c0.2,0.2,0.2,0.4,0.2,0.6c0,0.9-0.7,1.7-1.4,2.3
			c-5.7,5.2-12.3,9.3-19.4,12.2c-0.4,0.1-0.8,0.3-1,0.6c-0.3,0.3-0.3,0.8,0,1.1c0.2,0.2,0.4,0.2,0.6,0.2c2,0.3,3.9-0.4,5.7-1.3
			c4.6-2.2,8.9-5.1,12.6-8.6C172.9,71,175.5,67.7,175.1,64.1z"/>
		<path class="st8" d="M163.5,65.8c-6.3,1.6-14.4,2.8-18.2,1.7c-0.9-0.3-2.6-0.7-3.4,0.2c-0.1,0.6-0.1,1.1-0.1,1.7
			c0,0.1,0,0.1,0,0.2c0.3,0.5,0.8,0.8,1.2,1c1.8,1,5.6,0.6,7.6,0.4c3.9-0.4,9.2-2.1,13.3-3.8C164.8,66.8,164.3,65.6,163.5,65.8z"/>
		<path class="st8" d="M159.3,52c-0.3,0-0.7,0-1,0c-2.1,2.1-4.9,3.4-7.9,3.8c-0.7,0.1-1.3,0.1-2,0.3c-0.2,0.1-0.5,0.2-0.7,0.3
			c-0.5,0.5-1.1,1-1.5,1.6c0,0,0,0,0,0c0,0.5,0.7,0.7,1.3,0.7c1.4,0,2.9,0,4.3-0.4C154.8,57.2,156.7,54,159.3,52
			C159.3,52,159.3,52,159.3,52z"/>
		<path class="st8" d="M165.4,78.9c-4.8,3.2-8.7,4.7-12.3,5.3c-0.6,0.1-1.4,0.3-2.3,0.5c1.1,0.6,2.3,1.1,3.5,1.4
			c3.2-1.1,7.5-3.8,11.2-6.7C166.1,79.1,166,78.6,165.4,78.9z"/>
		<path class="st8" d="M168.1,54.4c-1.9,1.6-3.6,2.6-5.1,3.2c-0.8,0.3-2.3,1.1-2.8,1.9c-0.4,0.9,0.8,0.6,3.2-0.8
			c1.4-0.8,3.3-2.3,5.1-4C168.4,54.5,168.2,54.5,168.1,54.4z"/>
		<path class="st9" d="M157.8,65.5c-5.1,0.8-10.3,0.2-15-1.7c-0.2,0.6-0.3,1.1-0.5,1.7c4.4,2.3,10.5,1.3,15.4,0.6
			C158.3,66,158.4,65.4,157.8,65.5z"/>
	</g>
</g>
<g id="Moon" class="st0">
	<g class="st1">
		<circle class="st10" cx="74.4" cy="153.9" r="23.1"/>
		<g>
			<path class="st9" d="M88.9,138.1c-1.5-1.2-0.8,1.6-3,0.3c-2.2-1.3-3.5-5.3-5-5.8c-3.4-1.1-0.7,1.2-1.7,1.5
				c-1.8,0.6-7.1-2.9-7.7-0.3c-0.5,2,5.5,1.5,8.3,2.4c2.8,0.9,4.5,3.2,3.2,4.2c-1.9,1.5-4.8,2-4.2,4.1c0.9,2.6,5.4,0.9,7.2,3.9
				c1,1.7,0.8,5.3,0.6,8.4c-0.2,3.2-0.1,5.7,1.7,5.6c1-0.1,2.6-1.5,2.2-5.3c-0.3-3.3-1.8-7-0.4-8.2c1.2-1,2.2,2.5,2.9,4.1
				c1.6,4.1,2.8-1.2,1.3-4c-0.7-1.3-2.4-3.3-3.1-4.7C90.2,141.9,90.7,139.5,88.9,138.1z"/>
			<path class="st9" d="M76.8,175.4c-4,0.4-9.4-0.2-11.6-4.1c3.3-1,9.6,4.3,9.2,0c-0.4-3.1-6.2-3.1-9.6-3.1c-0.4,0-1-0.2-1.4-0.6
				c-1.4-1.6-1.2-4.1-3.1-5.5c-1.8-1.2-3.1-2.9-3.7-4.7c-1-2.9,0-8.4,3.5-7.4c4.3,1.2,2.7,7.2,4.1,10.9c0.6,1.4,1.6,3.5,3.3,2.9
				c4.5-1.6,8.2-9,13.7-6.4c1,0.4,1,2.1,0.2,3.3c-1.4,1.8-3.3,2.5-5.3,3.3c-1.2,0.6-1.4,2.3,0,2.7c3.9,0.8,7.6-1,11.1,1
				c0.6,0.2,0.8,1.2,0.4,2.1c-2.1,3.7-5.1,1-8.2,1c-0.8,0.2-2.1,0.4-2.5,1.4c0,0.6,0.8,0.6,1.2,0.8c1,0.2,2.7-0.2,3.3,0.8
				c0,0.2-0.2,0.6-0.4,0.8C80.5,175.1,79.8,175.2,76.8,175.4z"/>
			<path class="st9" d="M52.4,156.4c0.7,2.9,1.7,7.6,5.2,8c-1-5.7-7-11.9-1.8-17.4c2.3-2.3,5.5-0.6,7.8,1c5.1,4.1,16,11.3,18.5,3.5
				c0.6-2.5-5.9-1.4-8.4-4.1c-0.6-0.8-1.4-1.8-0.8-2.9c1.6-2.7,6.2-1,7.2-3.9c0.6-1.6-1.8-2.5-3.3-2.1c-3.9,1.4-7.2,3.5-11.1,0.4
				c-0.4-0.2-1,0.2-1.2,0.6c-0.2,1.6,0.4,3.7-1.2,4.7c-0.8,0.2-1.6,0.2-2.5-0.2c-3.1-1.8-1.2-4.9-0.2-7.4c-4.5,2.9-7,7.8-8,13
				C52.1,152.1,52.1,154.3,52.4,156.4z"/>
			<path class="st9" d="M93.5,162.5c0.7-2.6,1.3-6.7-1.4-8.6c-1,3.9,1.6,9.4-3.7,11.5c-1.6,0.4,0.8,1,1,1.6c0.2,0.8-1,1.6-1,2.7
				c0.4-0.4,0.8-0.4,1.2-0.9C90.9,167.6,92.3,166,93.5,162.5z"/>
		</g>
	</g>
</g>
<g id="UFOs" class="st0">
	<g class="st1">
		<g>
			<path class="st5" d="M288.6,177.3l-21.1,6.4l-21.1,6.4c-11.3,3.4-51.3,25.8-50.1,29.9c1.2,4.1,47,0.4,58.3-3l21.1-6.4l21.1-6.4
				c11.3-3.4,51.3-25.8,50.1-29.9C345.6,170.2,299.9,173.8,288.6,177.3z"/>
			<path class="st5" d="M284,169c-0.6-2-13-3.4-15.8-2.5l-5.4,1.6l-5.4,1.6c-2.9,0.9-12.4,8.9-11.8,10.9l0,0L284,169L284,169z"/>
			<g>
				<path class="st2" d="M196.7,220.2c-0.1-0.3-0.2-0.6-0.3-0.9c-0.1,0.2-0.1,0.4-0.1,0.6c1.2,4.1,47,0.4,58.3-3l21.1-6.4l21.1-6.4
					c11.3-3.4,51.3-25.8,50.1-29.9c0,0-40.2,6.2-78,17.7C232.9,201.7,196.4,220,196.7,220.2z"/>
			</g>
			<path class="st5" d="M275.9,170.3l-11.4,3.5l-11.9,3.6c-9.2,2.8-22.7,14.5-21.7,17.5l0,0l0.9,2.9l73.4-22.3l-0.9-2.9l0,0
				C303.3,169.5,284.8,167.5,275.9,170.3z"/>
			<path class="st2" d="M248.6,217.3l0.4,1.3l0,0c0.9,2.8,18,4.7,22,3.5l0,0c5.2-0.8,10.2-2.3,14.9-4.5h0c4-1.2,17.2-12.3,16.4-15.2
				l0,0l-0.4-1.3L248.6,217.3z"/>
		</g>
		<g>
			<path d="M311.3,182.6c-1,0.3-0.7,1.7,0.4,1.6c5.2-0.8,12.4-3.2,12.8-1.2c1,5.3-25.6,7.3-35.1,10.8c-1,0.4-0.6,1.9,0.5,1.7
				c4.9-0.9,11.3-3.7,11.6-1.4c0.2,1.9-9,1.5-8.8,3.8c0.2,1.8,8.3-2,6.7,2.4c-1.3,3.4-5.2,10.1-14.5,14.2
				c-5.7,2.5-12.9,3.2-12.4,4.4c0.5,1.4,13.5-0.4,21.9-7.5c4.7-4,6.8-7.7,7.3-9.4c0.3-0.9,0.4-1.9,1-2.6c0.4-0.4,0.9-0.7,1.5-0.9
				c8.9-3.6,13.3-5.3,21.8-9.9c6-3.2,13.9-8.8,17.8-12.7C339.3,176.3,320.7,179.9,311.3,182.6z"/>
			<path d="M210.4,211.1c7.7-5.9,16.3-10.7,24.8-15.5c0.8-0.4,1.6-0.9,2.4-0.8c-1.1,1.2-2.2,2.4-3.2,3.7c-0.4,0.6-0.9,1.3-0.5,1.9
				c0.5,0.7,1.6,0.5,2.3,0c1.4-0.8,2.6-2,3.4-3.4c1-1.6,1.5-3.4,3-4.5c1.4-1.1,3.3-1.2,5.1-1.3c-0.1,0.4-0.2,0.9-0.3,1.3
				c0.6,0.1,1.1-0.4,1.3-0.9c0.3-0.5,0.4-1.1,0.8-1.5c0.3-0.3,0.6-0.4,0.9-0.6c2.6-1.3,5.2-2.4,7.9-3.3c0.3,0.6-0.5,1.1-1.1,1.5
				c-3.3,1.9-3.7,6.6-6.4,9.3c-0.2,0.2-0.5,0.5-0.9,0.4c-0.8-0.1-0.7-1.5-1.3-2c-0.5-0.4-1.3-0.2-1.7,0.2c-0.5,0.4-0.7,1-1.1,1.6
				c-0.7,1-1.8,1.7-3,1.8c0.1-0.6,0.1-1.2,0.2-1.8c-0.8,0.1-1.1,1-1.5,1.6c-0.7,1-1.8,1.5-2.9,2c-2.9,1.2-5.8,2.1-8.8,3
				c0.4-0.8,0.7-1.6,1.1-2.4c0.1-0.2,0.2-0.5,0.1-0.7c-0.2-0.3-0.7-0.1-1,0.1c-2.7,1.8-5.5,3.5-8.2,5.3c-4.4,2.8-9,5.7-14.1,6.5
				C208.3,212.1,209,212.2,210.4,211.1z"/>
			<path d="M239.7,191c-1.4,0.7,2.2-4.7,6-8.1c2.6-2.3,5.8-3.8,8.3-4.9c0.2-0.1,0.4,0.2,0.2,0.4c-2.2,1.7-3.4,3.3-4.6,5.4
				c-0.8,1.4-0.7,2.8-1.8,4C246.9,188.5,244.2,188.7,239.7,191z"/>
			<path d="M248.8,178.4c1.6-2.1,3.5-4,5.6-5.7c0.6-0.5,1.2-1,1.9-1.4c0.8-0.5,1.7-0.8,2.7-1.1c1.8-0.6,3.7-1.2,5.6-1.3
				c0.1,0.6-0.9,0.8-1.1,1.3c0,0.1,0,0.1,0,0.2c0,0.1,0.1,0.1,0.2,0.1c0.4,0,0.8,0,1.2,0c-0.3,0.1-0.2,0.5,0,0.6
				c0.2,0.2,0.5,0.1,0.8,0.1c1.4-0.2,2.8-0.3,4.2-0.5c-0.1,0.3-0.3,0.4-0.6,0.5C262.4,173.8,255.2,175.3,248.8,178.4z"/>
			<path d="M251.6,187.1c1.3-3.4,3.3-6.6,5-8.7c0.9-1.1,3.3-2.5,4.7-2.9c-1.3,1.2-2.5,2.6-3.4,4.1c-0.9,1.6-1.3,5.3-1.5,5.6
				C256.3,185.5,253.3,186.7,251.6,187.1z"/>
			<path d="M264.2,173.3c2.3,0.2,7.2-0.3,9.6,2.4c1.7,1.9,1.3,4.3,1.5,4.5c0.2,0.1,7.3-1.6,10.1-2.3c-2.7-0.6-7.7-0.8-9.6-2.3
				c-2.1-1.7-2.1-4.2-2.5-4.4C272.5,170.7,265.7,173,264.2,173.3z"/>
			<path d="M278.8,179.7c-1.5,0.7-2.2,1.4-2.1,2.2c0.1,1.8,10.6,4.6,16,3.5c-4.7,1.1-8.9,3.1-14.1,3.9c-6.4,1.4,2.3-1.4,1.7-3.3
				c-0.4-1.4-9.4-4.9-15.3-2.7C269.4,181.9,274.8,180.7,278.8,179.7z"/>
			<path d="M240.7,212.1c-0.8-1.7,3.3-4.2,7.7-6.4c0.8-0.4,0.3-1.7-0.6-1.4c-11.5,4-20.2,8.7-25.7,10.2c-0.5,0.1-1.1-0.1-1.3-0.6
				c-0.2-0.5,0.1-0.8,0.4-1c1.4-1.2,2.9-2.2,4.6-3c-6.5,2.2-15.1,5.3-22.2,8.3c0,0-3.4,1.2-6.4,2.5c5.1,2.6,36.8,0.3,52-2.4
				c0.4-0.4,0.8-0.8,1.4-1.2c0.2-0.1,0.4-0.3,0.6-0.4c0.5-0.4,0.8-0.6,0.9-0.8c8.9-7.8,16.4-8.5,28.8-14
				C258.9,206.1,243.1,217.7,240.7,212.1z"/>
			<path d="M343.7,175.9c0,0,3.1-0.5,5.7-0.7c0,0-16.3,9.7-23.6,13.4c-7.3,3.7,7.5-8.4,7.5-8.4L343.7,175.9z"/>
		</g>
		<path class="st11" d="M196.4,220c0,0,36.6-18.2,72.5-28c37.8-11.5,78-17.7,78-17.7"/>
		<path class="st11" d="M231.3,196.4c0,0,17.8-8.9,35.3-13.7c18.4-5.6,38.1-8.6,38.1-8.6"/>
		<path class="st12" d="M245.7,180.6c0,0,20.4-10,38.3-11.7"/>
		<path class="st8" d="M265.6,168.9c2-1.7,4.9-1.7,7.5-1.5c1.5,0.1,2.9,0.3,4.4,0.5c0.5,0.1,1.1,0.3,1,0.8c-1,0.6-2.3,0.3-3.4-0.1
			c-1.1-0.4-2.3-0.9-3.4-0.5c-0.3,0.1-0.5,0.2-0.8,0.3c-0.4,0.1-0.8,0-1.2-0.1C268.3,168.1,266.8,168.4,265.6,168.9z"/>
		<path class="st8" d="M260.1,169.8c-1.9,0.8-3,1.7-4.4,2.8c-1.9,1.6-2.6,3.7-1.8,3.5c3-0.9-0.4-0.1,1.1-2
			C256.3,172.4,257.8,171.2,260.1,169.8z"/>
		<path class="st8" d="M267.7,177.8c-8.8,2.9-18.3,4.1-26.7,8.1c-2.6,1.2-5.2,2.8-6.5,5.4c-0.1,0.3-0.3,0.6-0.2,0.9
			c0.2,0.3,0.7,0.4,1,0.2s0.6-0.5,0.8-0.8c3-4,8.1-5.7,12.8-7.3C255.5,182.2,262,180.1,267.7,177.8z"/>
		<path class="st8" d="M262.5,188.4c-8.6,2.6-17.3,5.2-25.9,7.8c-2.6,0.8-5.4,1.7-6.9,4c-0.2,0.3-0.3,0.9,0,1c0.2,0.1,0.5,0,0.7-0.2
			c4.8-3.1,10.4-4.9,15.8-6.7C251.3,192.7,256.4,191.1,262.5,188.4z"/>
		<path class="st8" d="M294.3,200.4c-1.9,0.5-3.9,1.8-5.3,3.3c-0.3,0.3-0.5,0.6-0.6,0.9c-0.1,0.3-0.1,0.6,0.2,0.7
			c0.2,0.1,0.4,0,0.6,0c1.1-0.3,2.1-0.9,3.2-1.4c1.1-0.5,2.4-0.7,2.7-0.1c0.2,0.4,0,1.1-0.4,1.7c-0.8,1.3-2.1,2.6-3.3,3.8
			c1.4-1,2.7-2.1,3.8-3.3c1.2-1.3,2.3-2.7,2.5-4C297.9,200.6,297.1,199.6,294.3,200.4z"/>
		<path class="st8" d="M298,176.5c3.4-0.4,8.2-0.9,12.2-1c4.4,0,7.1-0.3,7.5,1.4c0.4,1.7-7.1,3.4-7.4,2.9c-0.5-0.7,1.8-1.5,1.3-2.2
			c-0.6-0.9-5.3,0.9-5.7,0.4c-0.3-0.3,0.5-0.8-0.1-1.1c-0.6-0.4-5.8,0.2-7.8,0.2C296.4,177.1,297.2,176.6,298,176.5z"/>
		<path class="st8" d="M280.1,171.2c5.1-0.7,10.4-1.3,15.2,0.5c0.4,0.1,0.7,0.3,1,0.6c0.2,0.3,0.3,0.8,0.1,1
			c-0.1,0.1-0.3,0.2-0.5,0.3c-2.3,0.8-4.7,1.2-7.2,1.1c-0.3,0-0.7-0.2-0.6-0.5c0-0.1,0.2-0.2,0.3-0.2c0.5-0.2,1-0.4,1.5-0.6
			c0.5-0.2,1.2-0.5,1.1-1c-0.1-0.4-0.5-0.5-0.9-0.5c-1.3-0.1-2.6,0.5-3.9,0.4c-0.2,0-0.4-0.1-0.5-0.3c0-0.1,0.1-0.2,0.1-0.3
			c0-0.2-0.3-0.3-0.5-0.3c-1.7,0-3.5,0.5-5.2,0.1c-0.1,0-0.1,0-0.1-0.1C279.7,171.3,279.8,171.3,280.1,171.2z"/>
		<path class="st8" d="M270.8,219.4c-3.6,0.9-7.3,0.9-10.9,0c-1.4-0.3-2.7-0.8-3.9-1.6c-0.2-0.2-0.5-0.4-0.5-0.7
			c-0.1-0.6,0.7-0.9,1.3-0.9c1.3,0.1,2.4,0.9,3.6,1.5c2.4,1.1,5.1,1.2,7.7,1C269,218.6,270.1,218.5,270.8,219.4z"/>
		<path class="st8" d="M250.8,199.7c-10.2,2.9-20.2,6.6-30,10.9c-0.7,0.3-1.4,0.6-1.8,1.3s-0.3,1.6,0.4,1.9c0.5,0.2,1,0,1.4-0.2
			c2.1-0.9,4-2.1,5.9-3.3C234.2,205.9,242.4,202.7,250.8,199.7z"/>
	</g>
</g>
<g id="Label" class="st0">
</g>
</svg>
