<?xml version="1.0" encoding="utf-8"?>
<!-- Generator: Adobe Illustrator 26.2.1, SVG Export Plug-In . SVG Version: 6.00 Build 0)  -->
<svg version="1.1" xmlns="http://www.w3.org/2000/svg" xmlns:xlink="http://www.w3.org/1999/xlink" x="0px" y="0px"
	 viewBox="0 0 360 360" style="enable-background:new 0 0 360 360;" xml:space="preserve">
<style type="text/css">
	.st0{display:none;}
	.st1{display:inline;}
	.st2{fill:#003DFF;}
	.st3{fill:#FF92DA;}
	.st4{fill:#FF4300;}
	.st5{fill:#0091FF;}
	.st6{fill:#FF00C7;}
	.st7{display:inline;fill:#EDEEEE;}
	.st8{fill:#EDEEEE;}
	.st9{fill:#2D2D2D;}
	.st10{fill:#B9B9B9;}
	.st11{fill:none;stroke:#000000;stroke-width:0.5731;stroke-miterlimit:10;}
	.st12{fill:none;stroke:#000000;stroke-width:0.4143;stroke-miterlimit:10;}
	.st13{fill:#231F20;}
	.st14{fill:none;stroke:#EDEEEE;stroke-width:0.187;stroke-miterlimit:10;}
</style>
<g id="Layer_2" class="st0">
	<rect x="0" class="st1" width="360" height="360"/>
</g>
<g id="Layer_17" class="st0">
</g>
<g id="Planets">
	<path class="st2" d="M253.6,180.9c0.3-20.9-8.5-41.2-24-55.3c-2.2-2-4.6-3.9-7.1-5.7c-4-2.8-8.3-5.3-13-7.3
		c-37.2-16.3-80.6,0.7-96.9,37.9c-4.1,9.3-6.1,19-6.2,28.5c-0.2,14.9,4.2,29.5,12.4,41.8c0.3,0.5,0.7,1,1,1.5
		c1.4,1.9,2.8,3.8,4.4,5.6c0.8,0.9,1.6,1.8,2.4,2.7c6.6,6.9,14.6,12.7,23.9,16.8c0.8,0.3,1.5,0.6,2.3,0.9c0.2,0.1,0.4,0.2,0.6,0.2
		c0.7,0.3,1.4,0.5,2,0.8c0.1,0,0.2,0.1,0.3,0.1c0.8,0.3,1.5,0.5,2.3,0.8c0.2,0.1,0.4,0.1,0.5,0.2c0.7,0.2,1.3,0.4,2,0.6
		c0.1,0,0.2,0.1,0.4,0.1c0.8,0.2,1.6,0.4,2.3,0.6c0.1,0,0.3,0.1,0.4,0.1c0.7,0.2,1.4,0.3,2.1,0.4c0.1,0,0.3,0.1,0.4,0.1
		c0.8,0.2,1.6,0.3,2.4,0.4c0.1,0,0.2,0,0.2,0c0.7,0.1,1.5,0.2,2.2,0.3c0.1,0,0.2,0,0.4,0c1.6,0.2,3.3,0.3,4.9,0.4c0.1,0,0.2,0,0.3,0
		c1.7,0.1,3.3,0.1,5,0.1c0.1,0,0.1,0,0.2,0c1.7,0,3.4-0.1,5-0.3c0,0,0.1,0,0.1,0c1.7-0.2,3.4-0.4,5.1-0.7c0.5-0.1,0.9-0.2,1.3-0.2v0
		c9.6-1.8,18.8-5.4,26.9-10.8v0c7.9-5.2,15-11.9,20.5-20.1c0,0,0-0.1,0.1-0.1c0.5-0.7,1-1.5,1.4-2.2c0,0,0,0,0,0
		c0.4-0.7,0.8-1.4,1.3-2.1c0.1-0.1,0.2-0.3,0.2-0.4c0.4-0.7,0.8-1.5,1.2-2.2c0,0,0-0.1,0.1-0.1c0.4-0.7,0.7-1.4,1-2.1
		c0.1-0.2,0.2-0.4,0.3-0.6c0.4-0.7,0.7-1.5,1-2.2c0,0,0,0,0,0c3.4-7.9,5.4-16,6-24.1C253.5,183.9,253.6,182.4,253.6,180.9z"/>
	<path class="st3" d="M231,130.5c-3.2-5.2-7.5-9.6-12.5-13.2c-2.8-1.7-5.8-3.3-9-4.7c-37.2-16.3-80.6,0.7-96.9,37.9
		c-13.4,30.7-4.2,65.6,20.3,86c4.1,3.1,8.8,5.9,13.9,8.2c8.1,3.8,17.5,4.8,26.3,2.8c2.5-0.6,5.3-1.6,6.4-4c1.3-2.6,0-5.7-1.4-8.2
		c-4.1-7.2-9.8-13.4-14.3-20.4c-7.9-12-12.2-25.9-14.9-40c-2.3-12.2-3.2-25.8,3.8-36c1.1-1.6,2.4-3.1,4.1-4.2
		c5.8-3.6,13.9,0.2,17.3,6.1c3.5,5.9,3.6,13.1,3.9,19.9c0.9,18.6,3.6,37.5,12,54.1c2.6,5.2,5.9,10.3,10.4,14
		c4.5,3.7,10.4,6,16.2,5.2c9.4-1.3,19-9.9,21.8-19c10.9-35.3-6-61.4-7.1-68C230.3,141.9,235.5,137.9,231,130.5z"/>
	<path class="st4" d="M147.2,115c-20.3,11.1-33.8,29.4-38.1,52.1s2.8,47.5,19.4,63.6c3.9,3.8,8.4,7.1,13.5,9c5.1,1.9,11,2.2,16,0.1
		c1.1-0.5,2.2-1.1,2.9-2c1.1-1.5,1.1-3.6,0.8-5.4c-0.6-3.8-2.3-7.4-4-10.9c-6.4-13.1-11.1-25.9-14.4-40.1
		c-3.4-14.2-0.7-35.8,7.5-43.9c9.9-9.9,25.7-7.8,29.3,17.8c2.3,16.4,21.8,76.9,46.4,57c11.5-9.3,14.4-19.2,9.6-41.6
		c-5.2-24.3-16.4-27.9-14.6-29.8c3.1-3.4,6.3,6.6,7.5-1.8c0.3-2-0.1-12.2-13.7-21.2c-6.4-4.3-15.5-8.4-23.1-9.6
		C178.3,106.1,162.4,106.7,147.2,115z"/>
	<path class="st5" d="M145.7,117.2c-14.3,8.7-25.4,22.4-31.1,38.2s-5.7,33.4-0.2,49.2c3.1,8.9,8.1,17.5,15.6,23.3
		c3,2.3,6.9,4.2,10.4,3c3.1-1.1,5-4.5,5.3-7.8s-0.6-6.6-1.5-9.8c-3.7-13.4-7.2-27.1-6.7-41c0.3-7.6,1.8-15.2,4.5-22.4
		c2.3-6.1,5.5-12,10.6-16.1c5.1-4.1,12.2-6,18.3-3.6c5,2,8.5,6.7,10.6,11.7s2.8,10.4,3.7,15.7c1.2,6.6,2.8,13.2,6,19.2
		c3.1,5.9,8,11.2,14.2,13.7s13.8,2.1,19.1-2.1c6.9-5.6,7.9-15.9,5.8-24.5c-1.3-5.3-3.5-10.3-6.4-14.9c-3.4-5.4-7.7-10.2-12.2-14.8
		c-1.3-1.4-2.8-3.3-1.9-5c1-1.9,4-1.4,5.5,0.1c1.5,1.5,2.3,3.6,3.8,5.1c1.5,1.5,4.6,1.8,5.5-0.1c0.3-0.6,0.3-1.3,0.2-2
		c-0.6-4.6-3.9-8.3-7.5-11.2c-3.7-3-7.8-5.4-12.2-7.2C186.6,105.8,163.7,106.2,145.7,117.2z"/>
	<path class="st2" d="M146.5,118.9c-21.9,14-34.9,40.7-32.5,66.6c0.6,6.6,2.5,13.7,8,17.5c0.7,0.5,1.5,0.9,2.3,0.9
		c1.9-0.1,2.9-2.3,3.4-4.2c2.9-11.6,3.2-23.8,5.5-35.6c2.2-11.8,6.7-23.8,15.9-31.5c6.3-5.3,15.1-8.1,22.9-5.5
		c7.4,2.6,12.3,9.4,16.7,15.8c2.8,4.1,5.7,8.2,8.5,12.4c2.4,3.5,5,7.2,8.8,9.2c3.8,2,9.2,1.5,11.5-2.2c1.7-2.7,1.1-6.3,0.2-9.4
		c-1.5-4.8-4-9.4-7.2-13.4c-1.9-2.3-4.1-4.6-4.8-7.5c-0.8-2.9,0.8-6.6,3.7-7c0.7-0.1,1.5,0,2.1-0.4c1-0.7,0.5-2.3-0.1-3.4
		c-5.7-8.9-17.7-11.2-28.3-11.6C169.2,109.3,155.8,112.9,146.5,118.9z"/>
	<g id="_x39___x28_lowest_x29_">
	</g>
	<g id="_x38_">
	</g>
	<g id="_x37_">
	</g>
	<g id="_x36_">
	</g>
	<g id="_x35_">
	</g>
	<g id="_x34_">
	</g>
	<g id="_x33_">
	</g>
	<g id="_x32_">
	</g>
	<g id="_x31___x28_highest_x29_">
	</g>
</g>
<g id="Stars" class="st0">
	<path class="st7" d="M110.6,25.6c-0.6,4.5-1.2,6.6,0,7.8c1.5,1.5,4.8,0.1,8.6-1.1c-4.3,2.1-7.1,2.8-7.5,4.6
		c-0.4,1.7,1.5,4.8,2.5,7.8c-1.4-2.6-3.4-6.1-5.5-6.3c-2-0.2-6.1,3.7-7.9,5c1.8-1.9,5.3-4.7,4.7-7.5c-0.5-2.3-2.5-2.1-5.2-4.4
		c2.4,1.1,5.4,2.9,6.8,2.1C108.8,32.7,109.5,29.6,110.6,25.6z"/>
	<path class="st7" d="M190.2,258.4c-0.6,4.5-1.2,6.6,0,7.8c1.5,1.5,4.8,0.1,8.6-1.1c-4.3,2.1-7.1,2.8-7.5,4.6
		c-0.4,1.7,1.5,4.8,2.5,7.8c-1.4-2.6-3.4-6.1-5.5-6.3c-2-0.2-6.1,3.7-7.9,5c1.8-1.9,5.3-4.7,4.7-7.5c-0.5-2.3-2.5-2.1-5.2-4.4
		c2.4,1.1,5.4,2.9,6.8,2.1C188.4,265.5,189,262.4,190.2,258.4z"/>
	<path class="st7" d="M274.2,115.1c-1.1,8.2-2.1,11.8,0.1,14.1c2.6,2.7,8.6,0.1,15.6-2c-7.7,3.8-12.8,5.1-13.5,8.3
		c-0.7,3.2,2.6,8.6,4.5,14.1c-2.5-4.7-6.1-11.1-9.9-11.4c-3.7-0.3-11,6.7-14.2,9c3.3-3.4,9.5-8.6,8.5-13.5c-0.9-4.2-4.4-3.8-9.4-7.9
		c4.4,2.1,9.7,5.2,12.3,3.8C271.1,127.9,272.2,122.3,274.2,115.1z"/>
	<circle class="st7" cx="312.1" cy="100.6" r="3.8"/>
	<circle class="st7" cx="233.1" cy="45.6" r="3.8"/>
	<circle class="st7" cx="92.6" cy="218.7" r="3.8"/>
</g>
<g id="Moon_2" class="st0">
</g>
<g id="Moon" class="st0">
</g>
<g id="UFOs" class="st0">
</g>
<g id="Label" class="st0">
</g>
</svg>
