<svg width="115" height="36" viewBox="0 0 115 36" fill="none" xmlns="http://www.w3.org/2000/svg">
<g clip-path="url(#clip0_7053_107926)">
<path d="M73.7574 6.07156V1.22412H72.0917V0.43615H78.0272V1.21587C77.657 1.21587 77.3053 1.23546 76.9494 1.21071C76.4771 1.17667 76.3224 1.3716 76.3255 1.84088C76.3409 4.53585 76.3327 7.23082 76.3327 9.92579C76.3327 10.5271 76.342 11.1273 76.3327 11.7286C76.3265 12.0679 76.41 12.2443 76.8061 12.1793C77.0932 12.1243 77.3885 12.1271 77.6745 12.1876C77.8271 12.2257 77.9963 12.4516 78.0283 12.6187C78.0458 12.7095 77.7972 12.956 77.6663 12.958C75.8149 12.9807 73.9626 12.9735 72.1247 12.9735C71.8452 12.2649 71.9112 12.1628 72.6187 12.1556C72.9085 12.1556 73.1984 12.1556 73.5624 12.1556V11.0211C73.5624 9.85359 73.5562 8.68608 73.5624 7.51445C73.5624 7.1019 73.4242 6.94822 72.9797 6.96266C71.8648 6.99979 70.7488 6.97401 69.6329 6.9802C69.0058 6.9802 68.9439 7.04105 68.9419 7.64956C68.9419 8.97074 68.9522 10.293 68.9347 11.6152C68.9274 12.102 69.11 12.3217 69.602 12.267C69.7222 12.2598 69.8427 12.2598 69.9629 12.267C70.6457 12.2732 70.6849 12.3134 70.6498 13.0478H64.7246V12.267C65.098 12.267 65.4559 12.2474 65.8106 12.267C66.2675 12.299 66.4202 12.0834 66.4181 11.6575C66.4088 10.4043 66.4181 9.15123 66.4181 7.89812C66.4181 5.92407 66.4181 3.95003 66.4181 1.97599C66.4181 1.23237 66.3748 1.19318 65.6332 1.18699C65.3434 1.18699 65.0546 1.18699 64.7287 1.18699V0.424805H70.9716V1.23443C70.5921 1.23443 70.2187 1.2499 69.8464 1.23443C69.4421 1.2138 69.2956 1.39842 69.2987 1.78415C69.307 3.0548 69.3039 4.32545 69.2987 5.60022C69.2987 5.90344 69.3947 6.08703 69.7402 6.08497C71.0552 6.06743 72.3743 6.07156 73.7574 6.07156Z" fill="#A7A7A7"/>
<path d="M26.0997 6.47169C25.9099 9.20998 25.1003 11.3552 22.7168 12.5568C19.7371 14.0543 15.2373 12.8662 14.3441 8.54681C13.9934 6.84711 14.0873 5.20207 14.7247 3.60242C15.6766 1.21273 17.9075 -0.147645 20.5169 0.0173748C23.0674 0.1793 25.0219 1.74802 25.683 4.22846C25.9016 5.02984 25.9903 5.86834 26.0997 6.47169ZM23.2634 6.84402C23.2366 6.49541 23.217 5.92816 23.1458 5.36812C23.0138 4.3316 22.887 3.29095 22.3465 2.36065C21.3616 0.664044 19.1039 0.504181 17.9632 2.06774C17.4857 2.72163 17.1267 3.43946 17.0587 4.27487C16.9194 5.99107 16.9359 7.70212 17.2196 9.40182C17.367 10.3425 17.8213 11.2081 18.5119 11.8637C19.567 12.8755 21.0068 12.7404 21.9154 11.6028C22.9942 10.263 23.2273 8.69739 23.2634 6.84402Z" fill="#A7A7A7"/>
<path d="M0.507382 1.01054V0.156564C0.556887 0.129749 0.585766 0.0998402 0.610519 0.0998402C3.03011 0.0998402 5.45074 0.0823056 7.87033 0.119435C8.43646 0.141419 8.99568 0.251733 9.52775 0.446381C10.983 0.947627 11.935 2.47818 11.7968 3.99945C11.6513 5.6383 10.6086 6.83882 8.98421 7.09356C8.02298 7.24621 7.04008 7.28437 6.0644 7.31634C4.87523 7.35553 4.87317 7.33078 4.87214 8.53955C4.87214 9.36464 4.86182 10.1897 4.87214 11.0148C4.87936 11.3872 4.93815 11.7585 4.97527 12.1885H6.66569V12.9517H0.49707V12.1968H2.19367V11.5357C2.19367 8.32605 2.19367 5.11643 2.19367 1.9068C2.19367 1.01054 2.19367 1.01054 1.32113 1.00951L0.507382 1.01054ZM4.91133 6.39326C5.79006 6.39326 6.64197 6.44174 7.48976 6.37986C8.24988 6.32313 8.66036 5.93121 8.7274 5.17521C8.80165 4.27235 8.81922 3.36571 8.78 2.46065C8.76144 1.92021 8.48504 1.39524 7.93944 1.27973C6.95036 1.07345 5.93445 0.989912 4.91133 0.85274V6.39326Z" fill="#A7A7A7"/>
<path d="M111.557 8.62171C111.599 8.39187 111.627 8.15975 111.642 7.92656C111.648 6.00134 111.648 4.07817 111.642 2.15707C111.642 1.31857 111.575 1.25772 110.752 1.20821C110.496 1.19274 110.243 1.14736 109.956 1.1123V0.322266H114.251V1.07826C113.907 1.1257 113.557 1.19377 113.204 1.21853C112.808 1.24534 112.611 1.45265 112.571 1.82703C112.551 2.03269 112.542 2.23925 112.544 2.44586C112.544 5.5881 112.544 8.73103 112.544 11.8746C112.544 12.0294 112.579 12.1954 112.534 12.3357C112.46 12.5595 112.315 12.9545 112.224 12.9442C111.943 12.9215 111.569 12.8256 111.418 12.6203C109.613 10.1791 107.846 7.70894 106.061 5.25325C105.346 4.26932 104.609 3.3019 103.81 2.2303C103.785 2.4572 103.76 2.57581 103.76 2.69442C103.76 5.54513 103.76 8.39618 103.76 11.2476C103.76 12.0727 103.877 12.1758 104.724 12.1902C105.446 12.2026 105.507 12.2614 105.429 12.972H101.128C100.861 12.3532 100.921 12.2387 101.552 12.1902C101.689 12.1799 101.826 12.1758 101.964 12.1614C102.577 12.0933 102.709 11.9664 102.71 11.3476C102.716 8.1875 102.71 5.02738 102.717 1.86829C102.717 1.41242 102.595 1.14633 102.06 1.22575C101.743 1.27319 101.413 1.234 101.056 1.234V0.425403C102.368 0.425403 103.654 0.400649 104.937 0.44603C105.197 0.455312 105.529 0.6719 105.692 0.892613C107.471 3.31324 109.224 5.7514 110.99 8.18234C111.117 8.35664 111.272 8.51032 111.414 8.67327L111.557 8.62171Z" fill="#A7A7A7"/>
<path d="M48.1855 34.8079C48.6424 34.8079 49.0344 34.8079 49.4232 34.8079C49.712 34.8028 49.8708 34.9008 49.8739 35.2205C49.877 35.5402 49.7893 35.7135 49.4448 35.7135C47.6936 35.7135 45.9426 35.7135 44.1921 35.7135C43.8899 35.7135 43.764 35.5846 43.7682 35.2752C43.7723 34.9657 43.8909 34.7976 44.224 34.8069C44.6366 34.8172 45.0398 34.8069 45.4802 34.8069C45.4916 34.5821 45.5081 34.416 45.5081 34.25C45.5081 31.107 45.5081 27.9651 45.5081 24.8243C45.5081 23.9126 45.4307 23.8383 44.5046 23.828C44.3674 23.828 44.2013 23.8641 44.1003 23.8001C43.9662 23.7156 43.7909 23.5454 43.8001 23.4175C43.8063 23.2597 43.9631 23.0978 44.0827 22.9606C44.124 22.9121 44.2457 22.9255 44.3313 22.9255C46.7035 22.9389 49.0705 22.9059 51.4364 22.9864C53.099 23.0421 54.2933 24.0807 54.6852 25.5999C55.2009 27.5811 53.9365 29.4242 51.7706 29.7594C50.8093 29.9089 49.8244 29.9285 48.8487 29.9584C48.3732 29.9729 48.1659 30.1152 48.1742 30.6154C48.1989 31.9851 48.1855 33.3578 48.1855 34.8079ZM48.0721 26.4394H48.0422C48.0422 27.2109 48.0422 27.9865 48.0422 28.7548C48.0422 29.0333 48.0917 29.287 48.4547 29.2612C49.2231 29.2066 50.0018 29.1942 50.7557 29.0735C51.4777 28.958 51.7974 28.5578 51.8252 27.8359C51.8582 26.9788 51.8686 26.1197 51.8345 25.2636C51.7964 24.2632 51.3343 23.8001 50.339 23.7114C49.7584 23.6588 49.1746 23.6537 48.5929 23.6135C48.2154 23.5887 48.0618 23.7578 48.0649 24.1291C48.0762 24.8954 48.0762 25.6669 48.0762 26.4394H48.0721Z" fill="#A7A7A7"/>
<path d="M64.0542 27.476C64.1367 26.1022 64.2172 24.7511 64.2966 23.4C64.3182 23.0411 64.5678 23.0153 64.8453 23.0153C66.184 23.0153 67.5227 23.0153 68.8614 23.0153C70.7498 23.0153 72.6383 23.0298 74.5267 23.006C75.0156 22.9998 75.1806 23.1597 75.2054 23.6444C75.2683 24.8769 75.3838 26.1053 75.4787 27.3295C74.8165 27.6627 74.7196 27.6183 74.5803 26.9386C74.4958 26.5199 74.4091 26.1012 74.3256 25.6824C74.1327 24.7119 73.5088 24.1467 72.5197 24.0869C72.0772 24.0601 71.6317 24.0869 71.1438 24.0869V34.7956H73.516V35.5867H66.0716V34.8163H68.3839V23.9931C67.4845 24.0281 66.6367 24.0518 65.8973 24.4685C65.6095 24.6315 65.3816 25.0234 65.2784 25.3586C65.1196 25.8402 65.0722 26.3631 65.0154 26.8726C64.9288 27.5771 64.8349 27.6534 64.0542 27.476Z" fill="#A7A7A7"/>
<path d="M36.6941 34.8026H38.0998C37.8286 34.0095 37.5924 33.2618 37.3046 32.5336C37.251 32.3985 36.988 32.2737 36.8189 32.2696C35.7545 32.2459 34.6891 32.2386 33.6216 32.2696C33.4092 32.2768 33.0915 32.4439 33.0131 32.6213C32.747 33.2277 32.5655 33.8713 32.3273 34.5737C32.6985 34.6294 33.0121 34.7016 33.3277 34.716C33.7402 34.7356 33.7175 34.9955 33.7237 35.2863C33.731 35.6288 33.5175 35.6174 33.2813 35.6164C32.1994 35.6164 31.1154 35.5978 30.0366 35.6246C29.624 35.6349 29.5704 35.3709 29.5838 35.1089C29.5838 35.0058 29.8602 34.8088 29.986 34.8274C30.9813 34.9697 31.3506 34.4303 31.6414 33.5732C32.7976 30.1697 34.0197 26.7806 35.2079 23.3843C35.3657 22.9336 35.5843 22.6242 36.1196 22.6624C36.5889 22.6954 36.7384 23.0254 36.8653 23.3967C37.9606 26.5176 39.0573 29.6379 40.1553 32.7574C40.274 33.0967 40.3895 33.4371 40.5091 33.7764C40.8484 34.7376 40.8484 34.749 41.8829 34.7748C42.2562 34.7851 42.4697 34.9233 42.3573 35.2905C42.3088 35.4483 42.0747 35.6545 41.921 35.6576C40.342 35.6834 38.763 35.6803 37.184 35.669C36.6611 35.671 36.6147 35.5731 36.6941 34.8026ZM35.2811 26.5032L33.5144 31.3187H36.9375C36.3939 29.7396 35.8618 28.1926 35.2811 26.5032Z" fill="#A7A7A7"/>
<path d="M92.0796 12.9964H88.3966C87.8809 12.9964 87.3652 12.9799 86.8495 13.0026C86.5401 13.0171 86.4246 12.8995 86.3998 12.5973C86.371 12.2425 86.5876 12.1992 86.8475 12.193C87.1569 12.1868 87.4601 12.193 87.8427 12.193C87.5746 11.4102 87.3374 10.6851 87.0682 9.97348C87.031 9.87653 86.8351 9.78474 86.7113 9.78371C85.5954 9.76824 84.4794 9.75895 83.3635 9.78371C83.2619 9.7975 83.1648 9.83466 83.08 9.89229C82.9952 9.94991 82.9249 10.0264 82.8746 10.1158C82.6261 10.7346 82.4384 11.3741 82.2115 12.0589C82.5621 12.1084 82.8808 12.1548 83.2005 12.1961C83.4924 12.2342 83.675 12.3477 83.6481 12.6922C83.6213 13.0366 83.3903 12.9933 83.1686 12.9933H79.6258C79.3896 12.3157 79.4494 12.2177 80.1033 12.1816C80.913 12.1363 81.1254 11.9754 81.4039 11.1895C82.6353 7.69931 83.8654 4.20846 85.0941 0.716929C85.221 0.358012 85.3695 0.0475686 85.8295 0.0620078C86.2606 0.0754156 86.4597 0.331196 86.5896 0.705584C87.7544 4.05685 88.9233 7.4064 90.0963 10.7542C90.1582 10.9316 90.2108 11.1121 90.2634 11.2936C90.547 12.2837 90.582 12.3085 91.6165 12.2662C92.2312 12.2435 92.2859 12.3219 92.0796 12.9964ZM86.7773 8.62548L85.1931 4.01835H85.0828C84.5671 5.5159 84.0514 7.00932 83.4914 8.62445L86.7773 8.62548Z" fill="#A7A7A7"/>
<path d="M82.2259 35.5835V34.8347H83.6781C83.3904 33.9941 83.1408 33.2237 82.853 32.4677C82.8107 32.3594 82.5694 32.2707 82.4188 32.2686C81.3544 32.2511 80.289 32.2418 79.2216 32.2748C79.0246 32.281 78.7306 32.4491 78.6584 32.6183C78.38 33.2753 78.1716 33.959 77.9241 34.681L79.3041 34.9234V35.7413H76.3667C76.1089 35.7413 75.851 35.7248 75.5942 35.7413C75.2467 35.7691 75.1549 35.535 75.192 35.2926C75.2137 35.1554 75.4478 34.9296 75.553 34.9471C76.6524 35.1245 76.9804 34.451 77.2816 33.5754C78.4233 30.2523 79.6228 26.9499 80.7965 23.6381C80.9347 23.2462 81.1059 22.9017 81.5896 22.8873C82.0609 22.8728 82.2909 23.1358 82.4384 23.5577C83.3508 26.1794 84.2711 28.7991 85.1994 31.4167C85.5408 32.3862 85.8935 33.3526 86.2194 34.3283C86.3669 34.7687 86.6093 34.9945 87.093 34.9038C87.2303 34.8934 87.3682 34.8934 87.5055 34.9038C87.8149 34.8955 87.9861 35.0203 87.9851 35.3566C87.9841 35.6928 87.7788 35.7928 87.4859 35.7928C85.975 35.7928 84.464 35.8062 82.9531 35.7928C82.7117 35.7897 82.4714 35.6577 82.2259 35.5835ZM80.8614 26.6322L79.2453 31.3033H82.6271C82.0506 29.7768 81.4833 28.2783 80.8614 26.6322Z" fill="#A7A7A7"/>
<path d="M63.155 2.70172C63.155 3.28547 63.155 3.86923 63.155 4.45505C63.155 4.76446 63.2045 5.111 62.7424 5.13679C62.3103 5.16051 62.1545 4.93051 62.106 4.51796C61.9606 3.26381 61.4161 2.24894 60.3187 1.54246C58.4674 0.354316 55.5806 1.43932 55.0762 3.59179C54.5722 5.70825 54.6345 7.9201 55.2567 10.0049C55.7188 11.5633 57.4618 12.5998 59.2007 12.4193C60.0005 12.3318 60.7467 11.9747 61.3165 11.4068C61.8864 10.8388 62.2459 10.0938 62.336 9.29424C62.3536 9.1416 62.3309 8.93533 62.4196 8.84972C62.5769 8.69761 62.7764 8.59628 62.992 8.55887C63.0642 8.54959 63.2581 8.83631 63.2571 8.98689C63.2494 9.9956 62.847 10.9612 62.136 11.6767C60.4187 13.463 58.3292 13.6879 56.1107 12.9144C52.7948 11.7582 51.518 8.90954 51.8707 5.79789C52.2451 2.49751 54.4491 0.421355 57.7557 0.0634694C58.8585 -0.0618811 59.9702 0.204639 60.8962 0.816371C61.3088 1.08453 61.6048 1.08659 61.9771 0.728704C62.2288 0.487363 62.6073 0.375975 62.9291 0.20683C63.0044 0.540994 63.1199 0.873096 63.1457 1.21139C63.1828 1.70438 63.155 2.20357 63.155 2.70172Z" fill="#A7A7A7"/>
<path d="M27.6096 25.0141C27.6096 25.6329 27.6096 26.2517 27.6096 26.8705C27.6096 27.1583 27.6664 27.4811 27.2249 27.5162C26.8124 27.5492 26.5525 27.413 26.4411 26.9695C26.2905 26.3744 26.1461 25.7618 25.8749 25.2162C24.7404 22.9369 21.7092 22.5563 19.9579 24.4447C19.2019 25.2606 18.8646 26.2424 18.7677 27.3326C18.6274 28.8951 18.5893 30.4473 18.9317 31.9944C19.371 33.9746 20.8964 35.1462 22.9654 35.0565C24.796 34.9761 26.2111 33.6033 26.4483 31.6757C26.4669 31.5251 26.4483 31.3075 26.5411 31.2415C26.702 31.1229 26.9454 31.0218 27.1238 31.0589C27.2363 31.0826 27.3703 31.3745 27.3631 31.5406C27.3096 32.5941 26.88 33.5935 26.1523 34.3572C24.565 36.0858 22.5879 36.2777 20.4715 35.7083C17.3341 34.8636 15.3982 31.7355 15.8809 28.4269C16.1387 26.6539 16.7214 25.0471 18.2035 23.9342C20.4437 22.2531 22.8622 22.0953 25.3788 23.2576C25.7542 23.4309 26.0151 23.4722 26.2926 23.1174C26.4584 22.9198 26.6565 22.7517 26.8784 22.6202C27.0228 22.5285 27.2548 22.4253 27.3714 22.482C27.4879 22.5388 27.5911 22.7842 27.5962 22.9503C27.621 23.6361 27.6065 24.323 27.6065 25.013L27.6096 25.0141Z" fill="#A7A7A7"/>
<path d="M37.0664 1.21227V0.474843H42.7544C42.7668 0.718246 42.7781 0.947211 42.7905 1.21949L41.4621 1.36182C42.5409 3.12237 43.594 4.84064 44.6955 6.63625L47.6761 1.36182L46.4478 1.10604V0.341797H50.3897C50.5454 1.04003 50.5227 1.08026 49.8616 1.11739C49.2005 1.15452 48.7199 1.50828 48.4105 2.05284C47.3595 3.90106 46.3343 5.76577 45.3071 7.62224C45.2177 7.76958 45.1646 7.9361 45.1524 8.10802C45.139 9.29203 45.14 10.4802 45.1431 11.6611C45.1431 11.9561 45.3143 12.0901 45.6051 12.086C45.7763 12.086 45.9486 12.086 46.1208 12.0912C46.8232 12.1056 46.849 12.1366 46.7128 12.8678H40.9V12.0901C41.2816 12.0901 41.654 12.0901 42.0252 12.0901C42.3965 12.0901 42.5904 11.9468 42.5842 11.5404C42.5698 10.476 42.5925 9.41064 42.5698 8.34317C42.5595 8.08953 42.4888 7.84201 42.3635 7.62121C41.2672 5.69977 40.1688 3.77832 39.0291 1.88266C38.8672 1.61141 38.5072 1.40101 38.1937 1.29478C37.8802 1.18855 37.48 1.236 37.0664 1.21227Z" fill="#A7A7A7"/>
<path d="M37.415 8.01601C37.2253 9.72603 37.0458 11.3391 36.8653 12.9666H27.7583V12.1827H28.6453C29.4528 12.1827 29.458 12.1766 29.459 11.3896V1.25022H27.8831V0.4375H34.3972V1.21515H32.2664C32.253 1.41008 32.2345 1.55757 32.2345 1.70609C32.2345 4.93221 32.2345 8.15868 32.2345 11.3855C32.2345 12.1281 32.285 12.1745 33.0276 12.1632C34.949 12.1343 35.968 11.3494 36.4734 9.48159C36.5648 9.10391 36.6299 8.72035 36.6683 8.33367C36.7312 7.80149 37.085 8.05005 37.415 8.01601Z" fill="#A7A7A7"/>
<path d="M90.9966 34.8066V34.2806C90.9966 31.0544 90.9966 27.828 90.9966 24.6012C90.9966 23.8575 90.9749 23.8452 90.2169 23.8596C90.0293 23.8788 89.8399 23.8677 89.6558 23.8266C89.5176 23.7822 89.3227 23.6389 89.3144 23.5275C89.2969 23.3006 89.3361 23.0458 89.694 23.0469C91.667 23.0572 93.641 23.0551 95.614 23.0593C95.663 23.067 95.7104 23.0827 95.7543 23.1057C95.943 23.7915 95.9245 23.8276 95.25 23.8493C94.7559 23.8648 94.2609 23.8493 93.7308 23.8493V34.6498C95.4438 35.2531 97.226 34.3466 97.7624 32.5871C97.9067 32.1137 97.982 31.6186 98.1037 31.138C98.2657 30.5016 98.3564 30.4604 99.0433 30.6914C98.9154 31.8352 98.7865 32.9903 98.6555 34.1455C98.6078 34.4157 98.5758 34.6884 98.5596 34.9623C98.5596 35.4955 98.2502 35.6255 97.7985 35.6234C96.7857 35.6234 95.7739 35.6234 94.7611 35.6234C93.1305 35.6234 91.4999 35.6234 89.8703 35.6172C89.5991 35.6172 89.2887 35.6409 89.3309 35.2047C89.3557 34.9468 89.4289 34.7921 89.7332 34.8076C90.123 34.822 90.516 34.8066 90.9966 34.8066Z" fill="#A7A7A7"/>
<path d="M62.5722 34.8058V35.5834H56.3767V34.8058C56.7996 34.8058 57.2018 34.7955 57.6144 34.8058C57.9671 34.8161 58.0939 34.6686 58.0939 34.3138C58.0843 31.0196 58.0843 27.7254 58.0939 24.4312C58.0939 23.9867 57.9114 23.8062 57.4751 23.8248C57.1193 23.8392 56.7624 23.8248 56.3798 23.8248V23.043H62.5629C62.5742 23.2771 62.5856 23.5174 62.6 23.8248C62.1534 23.8248 61.7636 23.8248 61.3747 23.8248C60.9622 23.8196 60.7559 23.9557 60.7559 24.424C60.771 27.7182 60.771 31.0124 60.7559 34.3066C60.7559 34.6913 60.8735 34.8305 61.2561 34.8078C61.678 34.7862 62.1029 34.8058 62.5722 34.8058Z" fill="#A7A7A7"/>
<path d="M99.8057 1.23364H97.9141C97.9018 1.42238 97.8842 1.5709 97.8842 1.72045C97.8842 4.95208 97.8842 8.18027 97.8842 11.405C97.8842 12.1981 97.8966 12.2054 98.6856 12.1703C98.8053 12.1651 98.9259 12.1703 99.0466 12.1703C99.7036 12.1796 99.7572 12.2435 99.6891 12.9634H93.539C93.3565 12.2724 93.4184 12.1858 94.0846 12.1713C95.3419 12.1445 95.345 12.1445 95.345 10.8749C95.345 7.93893 95.345 5.00296 95.345 2.06699C95.345 1.20064 95.3388 1.20167 94.5075 1.22436C94.2033 1.23261 93.898 1.22436 93.5638 1.22436V0.412671H94.1053C95.839 0.40442 97.5728 0.402356 99.3065 0.384823C99.9748 0.378635 99.6314 0.873692 99.8057 1.23364Z" fill="#A7A7A7"/>
</g>
<defs>
<clipPath id="clip0_7053_107926">
<rect width="113.744" height="36" fill="white" transform="translate(0.507324)"/>
</clipPath>
</defs>
</svg>
