<svg width="135" height="20" viewBox="0 0 135 20" fill="none" xmlns="http://www.w3.org/2000/svg">
<g clip-path="url(#clip0_7053_107927)">
<path d="M37.7901 12.6944C37.8623 11.2333 37.8513 9.76939 37.7572 8.3096C37.5325 6.33646 39.0178 5.78287 39.9496 6.53376C41.5062 7.77246 42.3667 6.79686 43.5615 6.30357C45.1072 5.65682 46.7186 5.81028 47.8805 7.01609C48.9164 8.11228 49.4755 7.82179 50.5443 7.01609C53.8329 4.59899 57.7408 6.42962 58.0313 10.5075C58.2012 12.9574 58.0313 15.4403 58.1025 17.8793C58.1299 19.0358 57.7463 19.4579 56.5405 19.4688C55.3346 19.4798 55.0332 18.8824 55.0606 17.8245C55.1044 15.824 55.1099 13.8234 55.0606 11.8229C55.0113 10.1786 54.4248 8.96183 52.5174 8.95087C50.6101 8.9399 49.6893 10.0471 49.6344 11.8393C49.5796 13.8399 49.5851 15.8459 49.6344 17.8684C49.6344 18.9152 49.5413 19.5127 48.1984 19.5127C46.8556 19.5127 46.3897 19.0742 46.4171 17.8026C46.461 15.8021 46.4171 13.796 46.4171 11.7736C46.4171 10.0361 45.6936 8.9728 43.874 8.92895C42.0543 8.88511 41.1335 9.88263 41.0677 11.5872C40.9745 13.6754 40.9581 15.7747 41.0677 17.8629C41.1335 19.2825 40.4648 19.4579 39.2645 19.4798C38.0641 19.5017 37.7298 18.9646 37.7737 17.8355C37.8394 16.1528 37.7901 14.4209 37.7901 12.6944Z" fill="#A7A7A7"/>
<path d="M89.9688 15.0942C91.361 12.8415 91.6131 10.7423 92.1118 8.78558C92.6599 6.5932 93.6027 5.86972 95.795 6.70282C94.6221 10.5121 93.4163 14.3159 92.2982 18.1416C91.9748 19.2378 91.3829 19.5173 90.3196 19.4954C89.2563 19.4734 88.4506 19.3967 88.0614 18.1251C87.3189 15.562 86.2505 13.1047 84.8825 10.8135C84.0987 12.973 83.2382 15.1051 82.5695 17.2975C82.1694 18.591 81.8844 19.5173 80.1414 19.5392C78.2724 19.5666 78.1573 18.3882 77.7846 17.1934C76.8584 14.2501 75.8827 11.3287 75.0113 8.37451C74.8359 7.78804 73.6794 6.7905 75.2305 6.50001C76.2006 6.31914 77.5161 5.95193 77.971 7.48659C78.5191 9.31723 78.9685 11.1643 79.5111 12.9675C79.6536 13.4334 79.6207 14.1514 80.3826 14.1569C81.1445 14.1624 81.0568 13.4225 81.2267 12.9675C81.8186 11.3233 82.3831 9.71735 82.9093 8.07306C83.282 6.91658 83.8575 6.30819 85.2442 6.35203C86.6309 6.39588 87.179 6.83436 87.5517 8.0895C88.2039 10.3093 89.048 12.5017 89.9688 15.0942Z" fill="#A7A7A7"/>
<path d="M125.063 11.4938C128.259 9.44936 129.311 5.19615 133.97 6.70341C132.682 8.04076 131.503 9.31782 130.27 10.5401C129.366 11.4335 129.174 12.1844 130.062 13.3189C131.525 15.1495 132.775 17.1556 134.129 19.0958C130.923 20.5812 129.799 18.2518 128.374 16.3225C127.908 15.6922 127.744 14.2671 126.538 14.7604C126.065 14.9468 125.665 15.2814 125.398 15.7142C125.131 16.1471 125.012 16.6547 125.058 17.1611C125.157 18.4984 125.244 19.7042 123.194 19.5069C121.057 19.2986 122.005 17.7585 121.989 16.8432C121.89 11.9103 121.945 7.01581 121.939 2.09939C121.939 1.0032 121.731 -0.0162466 123.507 0.000196232C125.283 0.0166391 125.069 1.04157 125.063 2.13228C125.058 5.08651 125.063 8.04624 125.063 11.4938Z" fill="#A7A7A7"/>
<path d="M112.112 13.0115C112.112 11.3672 112.2 9.72289 112.084 8.12245C111.931 5.93007 114.184 6.02323 114.463 6.53844C115.718 8.87333 116.656 6.76317 117.708 6.6097C118.459 6.50008 119.621 5.65053 119.813 7.15779C119.939 8.16629 120.432 9.58586 118.399 9.61327C116.075 9.65164 115.362 11.2576 115.362 13.291C115.362 14.7434 115.335 16.1904 115.362 17.6429C115.389 18.7391 115.411 19.5064 113.866 19.5064C112.32 19.5064 111.991 18.9583 112.079 17.61C112.183 16.0972 112.112 14.5516 112.112 13.0115Z" fill="#A7A7A7"/>
<path d="M14.074 13.0497C14.074 11.4054 14.0356 9.76113 14.074 8.14425C14.1178 6.61507 16.1184 5.53532 16.65 6.63699C17.664 8.74716 18.2943 7.18509 19.1548 6.79594C19.9057 6.45064 20.7991 6.0615 21.5007 6.48901C22.2022 6.91652 21.7473 7.83185 21.8021 8.53341C21.8734 9.41036 21.3143 9.54738 20.5963 9.57479C17.9709 9.67893 17.2803 11.4109 17.2475 13.6416C17.2475 15.0064 17.1762 16.3821 17.2475 17.7359C17.3187 18.9582 17.0227 19.5008 15.6032 19.5118C14.1836 19.5227 13.9589 18.854 14.0137 17.6866C14.1178 16.1574 14.074 14.6063 14.074 13.0497Z" fill="#A7A7A7"/>
<path d="M8.17088 0.444074C8.98754 0.444074 9.81517 0.493402 10.6209 0.444074C11.7171 0.361859 12.2652 0.6688 12.2652 1.92394C12.2652 3.17908 11.8048 3.68332 10.5167 3.61206C8.97592 3.52711 7.43161 3.52711 5.8908 3.61206C4.65759 3.67236 4.104 3.35446 4.104 1.96778C4.104 0.460516 4.92614 0.400226 6.01685 0.444074C6.71841 0.444074 7.44739 0.444074 8.17088 0.444074Z" fill="#A7A7A7"/>
<path d="M7.3323 11.9539C6.53208 11.1756 4.20266 13.4721 4.11496 10.4795C4.08208 9.41622 4.26844 8.73658 5.56743 8.83524C6.92328 8.92842 8.28392 8.92842 9.63977 8.83524C10.9716 8.72562 11.3389 9.21342 11.3389 10.5124C11.3389 11.8114 10.7908 12.069 9.69459 11.9868C8.9985 11.9539 8.26954 11.9539 7.3323 11.9539Z" fill="#A7A7A7"/>
<path d="M3.62182 16.2564C2.94766 17.1443 5.07976 19.5998 1.88436 19.5066C0.788174 19.4737 0.201704 19.2326 0.283919 18.0049C0.360652 16.9087 0.234589 15.8125 0.316803 14.7711C0.399017 13.7297 -0.346396 12.4143 1.76925 12.3649C3.76432 12.3156 3.70404 13.368 3.6273 14.6998C3.5999 15.1493 3.62182 15.5987 3.62182 16.2564Z" fill="#A7A7A7"/>
<path d="M0.327614 6.11714C0.0974141 4.80171 0.355009 4.04534 2.08151 4.06179C4.11494 4.06179 3.51753 5.38817 3.61619 6.44052C3.73129 7.66277 3.56138 8.4027 1.9719 8.43011C0.0480855 8.46299 0.2454 7.3668 0.327614 6.11714Z" fill="#A7A7A7"/>
<path d="M68.3354 13.6752C67.4256 13.6752 66.5103 13.6259 65.595 13.6752C64.9208 13.7246 63.9507 13.2806 63.6437 14.1301C63.2655 15.1112 64 15.8841 64.7399 16.4102C66.4116 17.5941 68.2971 17.7092 69.7002 16.2129C70.7964 15.0509 71.8104 15.3359 72.4407 16.0759C73.1532 16.9145 72.0844 17.6818 71.4651 18.2683C69.3056 20.3236 65.7923 20.4606 63.1504 18.6903C60.843 17.1282 59.6974 13.6588 60.5963 10.9512C61.6925 7.5859 64.2521 5.7717 67.5188 6.01834C70.5443 6.24306 72.4845 8.21072 73.1258 11.3952C73.5095 13.308 72.8517 13.8725 71.054 13.6862C70.1486 13.6363 69.2412 13.6327 68.3354 13.6752ZM69.8756 10.7046C70.0619 9.06027 68.5053 8.51217 67.0255 8.47929C65.425 8.44092 63.7369 9.06575 63.7369 10.6717C63.7862 12.579 65.7703 11.0444 66.8665 11.8665C67.6668 10.858 69.6235 12.738 69.8482 10.7046H69.8756Z" fill="#A7A7A7"/>
<path d="M103.375 6.02325C104.286 6.02341 105.188 6.20713 106.027 6.56343C106.866 6.91974 107.624 7.44135 108.257 8.09713C108.89 8.7529 109.384 9.52941 109.71 10.3803C110.036 11.2313 110.187 12.1391 110.155 13.0498C110.156 13.9622 109.978 14.8659 109.629 15.709C109.281 16.5522 108.769 17.3183 108.124 17.9635C107.479 18.6086 106.713 19.1201 105.87 19.4685C105.027 19.817 104.123 19.9957 103.211 19.9942C101.369 19.9355 99.6232 19.156 98.3501 17.8234C97.077 16.4908 96.3779 14.7118 96.4033 12.869C96.4061 11.9601 96.5892 11.0609 96.9421 10.2233C97.2951 9.38578 97.8107 8.62661 98.4592 7.98984C99.1077 7.35307 99.8761 6.85135 100.72 6.51377C101.564 6.17619 102.466 6.00947 103.375 6.02325ZM103.342 8.87335C101.029 8.82951 99.6206 10.3587 99.6041 12.9293C99.5877 15.4998 100.958 17.0509 103.249 17.0783C105.54 17.1057 106.965 15.5217 106.976 13.017C106.987 10.3971 105.688 8.9172 103.342 8.87335Z" fill="#A7A7A7"/>
<path d="M35.1646 14.7598C35.0932 15.756 35.0932 16.7561 35.1646 17.7524C35.5428 20.3558 33.0161 19.7529 32.6982 19.2925C31.8102 17.999 31.4046 18.591 30.5496 19.1555C29.7599 19.7081 28.8115 19.9883 27.8483 19.9537C26.885 19.9191 25.9592 19.5715 25.2112 18.9637C24.0492 18.1196 23.3038 16.9467 23.6436 15.4504C24.1314 13.258 25.8031 12.4633 27.8256 12.1618C28.5484 12.1041 29.2652 11.9868 29.9686 11.811C30.8182 11.5315 32.2432 11.7233 31.9856 10.1667C31.7664 8.90611 30.7634 8.48407 29.5356 8.52244C28.4723 8.52244 27.5625 8.7965 27.0309 9.81595C26.3074 11.2026 25.0632 10.4188 24.4712 10.0297C23.5395 9.40487 24.4986 8.55532 24.959 8.02367C26.7732 5.94091 29.141 5.58466 31.6622 6.30815C34.0793 6.99875 35.1152 8.79102 35.1207 11.241V14.7762L35.1646 14.7598ZM32.172 14.6337C32.172 13.8445 32.0569 12.9236 31.0758 13.3347C29.5411 13.9705 26.8555 12.814 26.7568 15.8669C26.702 17.4016 27.6009 17.9497 29.7494 17.8455C31.01 17.7304 32.161 16.711 32.161 14.6337H32.172Z" fill="#A7A7A7"/>
</g>
<defs>
<clipPath id="clip0_7053_107927">
<rect width="133.872" height="20" fill="white" transform="translate(0.250977)"/>
</clipPath>
</defs>
</svg>
