<svg width="135" height="40" viewBox="0 0 135 40" fill="none" xmlns="http://www.w3.org/2000/svg">
<g clip-path="url(#clip0_7053_107928)">
<path d="M1.45659 14.211C1.56972 14.1189 1.69421 14.0417 1.827 13.9813C1.94071 13.9438 2.06385 13.9466 2.17579 13.9891C2.28772 14.0315 2.38167 14.1112 2.44188 14.2147C2.50142 14.3008 2.53079 14.4041 2.52543 14.5086C2.52007 14.6132 2.48028 14.713 2.41226 14.7925C2.34726 14.8941 2.2475 14.9686 2.13161 15.002C2.01573 15.0354 1.89165 15.0254 1.78255 14.974C1.66531 14.9129 1.5548 14.8397 1.45288 14.7555L1.45659 14.211Z" fill="#C6C6C6"/>
<path d="M24.1258 25.9575C23.9439 25.9578 23.7639 25.921 23.5967 25.8495C23.4295 25.778 23.2786 25.6732 23.1532 25.5415C23.0278 25.4099 22.9305 25.2541 22.8671 25.0836C22.8038 24.9132 22.7758 24.7316 22.7849 24.55C22.7861 24.3686 22.8241 24.1893 22.8965 24.023C22.9688 23.8567 23.0741 23.7067 23.206 23.5821C23.3378 23.4575 23.4935 23.3609 23.6637 23.2981C23.8338 23.2352 24.015 23.2075 24.1961 23.2165C24.3778 23.2146 24.5579 23.2502 24.7252 23.321C24.8925 23.3918 25.0434 23.4964 25.1685 23.6281C25.2937 23.7598 25.3903 23.9159 25.4524 24.0866C25.5145 24.2573 25.5408 24.439 25.5296 24.6204C25.5314 24.8022 25.4959 24.9824 25.4251 25.1499C25.3543 25.3174 25.2499 25.4686 25.1182 25.594C24.9865 25.7194 24.8305 25.8164 24.6598 25.8789C24.489 25.9414 24.3073 25.9682 24.1258 25.9575Z" fill="#6D6D6D"/>
<path d="M24.4924 18.6074C24.8599 18.6084 25.2121 18.7545 25.4723 19.014C25.7324 19.2735 25.8795 19.6253 25.8815 19.9928C25.8805 20.175 25.8434 20.3552 25.7724 20.523C25.7013 20.6908 25.5976 20.8428 25.4674 20.9702C25.3372 21.0977 25.183 21.1981 25.0137 21.2655C24.8445 21.333 24.6635 21.3662 24.4813 21.3633C24.1148 21.3595 23.7642 21.2124 23.5047 20.9535C23.2451 20.6946 23.0971 20.3445 23.0923 19.978C23.0991 19.6115 23.2497 19.2623 23.5117 19.0059C23.7736 18.7495 24.1259 18.6064 24.4924 18.6074Z" fill="#6C6C6C"/>
<path d="M20.1735 19.6226C19.9919 19.6227 19.812 19.5861 19.6449 19.5148C19.4778 19.4436 19.3269 19.3392 19.2012 19.208C19.0755 19.0768 18.9777 18.9215 18.9138 18.7515C18.8498 18.5814 18.8209 18.4002 18.8289 18.2187C18.8332 18.0369 18.8736 17.8578 18.9476 17.6917C19.0216 17.5257 19.1278 17.3759 19.2601 17.2512C19.3924 17.1265 19.5482 17.0293 19.7183 16.9652C19.8884 16.9011 20.0696 16.8714 20.2513 16.8778C20.4327 16.879 20.612 16.9171 20.7782 16.9898C20.9444 17.0625 21.0941 17.1682 21.2182 17.3006C21.3422 17.4329 21.438 17.5892 21.4998 17.7597C21.5616 17.9303 21.588 18.1117 21.5774 18.2928C21.5799 18.4744 21.5447 18.6547 21.474 18.822C21.4033 18.9894 21.2988 19.1403 21.1669 19.2653C21.035 19.3902 20.8786 19.4865 20.7076 19.548C20.5367 19.6095 20.3548 19.6349 20.1735 19.6226Z" fill="#6C6C6C"/>
<path d="M17.2621 20.4157C17.4435 20.4114 17.6238 20.4445 17.7918 20.5131C17.9598 20.5817 18.1119 20.6842 18.2384 20.8142C18.365 20.9443 18.4633 21.099 18.5274 21.2688C18.5914 21.4386 18.6196 21.6198 18.6104 21.801C18.6119 21.9823 18.5771 22.1622 18.5081 22.3298C18.439 22.4975 18.3371 22.6497 18.2084 22.7774C18.0797 22.9051 17.9267 23.0058 17.7584 23.0735C17.5902 23.1412 17.4101 23.1745 17.2288 23.1715C16.8699 23.1659 16.5272 23.0216 16.2724 22.7689C16.0176 22.5161 15.8705 22.1746 15.862 21.8158C15.8563 21.6304 15.8887 21.4458 15.957 21.2734C16.0254 21.101 16.1283 20.9444 16.2595 20.8132C16.3906 20.682 16.5473 20.5791 16.7197 20.5107C16.8921 20.4424 17.0767 20.41 17.2621 20.4157Z" fill="#6D6D6D"/>
<path d="M19.6956 24.3308C19.8777 24.3236 20.0594 24.3549 20.2287 24.4225C20.398 24.4901 20.5512 24.5925 20.6783 24.7231C20.8055 24.8538 20.9037 25.0097 20.9667 25.1808C21.0297 25.3518 21.056 25.5342 21.0439 25.7161C21.049 25.8986 21.0168 26.0803 20.9491 26.2498C20.8814 26.4194 20.7797 26.5733 20.6502 26.702C20.5208 26.8308 20.3663 26.9316 20.1964 26.9984C20.0265 27.0652 19.8447 27.0965 19.6622 27.0904C19.4768 27.0941 19.2927 27.0589 19.1217 26.987C18.9508 26.9151 18.7968 26.8082 18.6697 26.6731C18.5426 26.538 18.4453 26.3777 18.384 26.2027C18.3228 26.0277 18.2989 25.8417 18.314 25.6569C18.3122 25.4775 18.3472 25.2997 18.4167 25.1343C18.4863 24.969 18.5889 24.8196 18.7183 24.6954C18.8477 24.5712 19.0012 24.4747 19.1692 24.412C19.3373 24.3493 19.5164 24.3217 19.6956 24.3308Z" fill="#6C6C6C"/>
<path d="M26.3928 28.5238C26.0632 28.5268 25.7458 28.3998 25.5093 28.1703C25.2729 27.9407 25.1365 27.6272 25.1296 27.2978C25.1291 27.1305 25.1622 26.9649 25.227 26.8108C25.2919 26.6566 25.3872 26.5171 25.5071 26.4006C25.6271 26.2841 25.7693 26.1929 25.9253 26.1326C26.0813 26.0723 26.2478 26.044 26.415 26.0495C26.5784 26.049 26.7402 26.081 26.891 26.1438C27.0419 26.2065 27.1787 26.2987 27.2936 26.4149C27.4084 26.5311 27.4989 26.669 27.5599 26.8206C27.6208 26.9722 27.6509 27.1344 27.6484 27.2978C27.6436 27.6266 27.5088 27.9401 27.2735 28.1698C27.0382 28.3995 26.7216 28.5268 26.3928 28.5238Z" fill="#7B7B7B"/>
<path d="M27.7448 19.9197C27.5788 19.9242 27.4136 19.895 27.2592 19.8338C27.1049 19.7726 26.9645 19.6806 26.8468 19.5636C26.729 19.4465 26.6362 19.3067 26.5741 19.1527C26.512 18.9987 26.4818 18.8337 26.4854 18.6677C26.5059 18.34 26.6492 18.0321 26.8868 17.8055C27.1244 17.5789 27.4387 17.4503 27.767 17.4453C28.095 17.4586 28.4052 17.5976 28.6335 17.8334C28.8617 18.0693 28.9905 18.3839 28.9931 18.7121C28.9969 18.8752 28.9669 19.0374 28.905 19.1883C28.8431 19.3393 28.7506 19.4758 28.6333 19.5892C28.5161 19.7027 28.3766 19.7906 28.2237 19.8475C28.0707 19.9043 27.9077 19.9289 27.7448 19.9197Z" fill="#7C7C7C"/>
<path d="M17.7806 29.872C17.6184 29.8762 17.457 29.847 17.3064 29.7863C17.1559 29.7255 17.0195 29.6345 16.9055 29.5189C16.7916 29.4032 16.7027 29.2654 16.6442 29.114C16.5858 28.9626 16.559 28.8007 16.5657 28.6385C16.5637 28.4757 16.5945 28.3141 16.6563 28.1635C16.7181 28.0128 16.8097 27.8762 16.9255 27.7617C17.0414 27.6473 17.1791 27.5574 17.3305 27.4974C17.4819 27.4374 17.6438 27.4085 17.8066 27.4125C17.9726 27.4087 18.1376 27.4392 18.2913 27.5019C18.4451 27.5647 18.5843 27.6583 18.7003 27.7771C18.8164 27.8959 18.9067 28.0373 18.9658 28.1925C19.0249 28.3477 19.0514 28.5134 19.0437 28.6793C19.0446 28.8422 19.0119 29.0035 18.9478 29.1532C18.8837 29.303 18.7895 29.438 18.6711 29.5498C18.5526 29.6616 18.4125 29.7479 18.2593 29.8034C18.1061 29.8588 17.9432 29.8822 17.7806 29.872Z" fill="#7B7B7B"/>
<path d="M19.9624 13.5143C20.1291 13.5089 20.2951 13.537 20.4507 13.5972C20.6062 13.6573 20.748 13.7482 20.8677 13.8643C20.9873 13.9805 21.0823 14.1196 21.1469 14.2733C21.2116 14.427 21.2446 14.5922 21.2441 14.7589C21.245 14.9217 21.2137 15.083 21.1519 15.2335C21.0901 15.3841 20.999 15.5209 20.8839 15.6359C20.7688 15.751 20.632 15.8421 20.4815 15.9039C20.3309 15.9658 20.1696 15.9971 20.0069 15.9961C19.844 16.0022 19.6816 15.975 19.5296 15.9162C19.3776 15.8574 19.2391 15.7683 19.1226 15.6543C19.0062 15.5403 18.9142 15.4037 18.8522 15.253C18.7903 15.1022 18.7597 14.9404 18.7623 14.7774C18.7564 14.6153 18.7829 14.4535 18.8403 14.3017C18.8977 14.1499 18.9849 14.0111 19.0967 13.8935C19.2085 13.7758 19.3426 13.6817 19.4913 13.6166C19.64 13.5515 19.8001 13.5167 19.9624 13.5143Z" fill="#7C7C7C"/>
<path d="M15.0841 20.901C15.0914 21.068 15.0639 21.2347 15.0035 21.3906C14.943 21.5465 14.8508 21.6881 14.7328 21.8065C14.6148 21.9249 14.4734 22.0174 14.3177 22.0784C14.162 22.1393 13.9954 22.1672 13.8284 22.1604C13.5057 22.1604 13.1961 22.0333 12.9666 21.8065C12.7371 21.5798 12.6062 21.2718 12.6023 20.9492C12.6011 20.6197 12.7279 20.3027 12.956 20.065C13.184 19.8273 13.4955 19.6874 13.8247 19.6749C13.9879 19.6725 14.1501 19.7023 14.3018 19.7626C14.4535 19.823 14.5919 19.9127 14.7089 20.0266C14.8259 20.1405 14.9192 20.2763 14.9836 20.4264C15.048 20.5764 15.0821 20.7377 15.0841 20.901Z" fill="#7C7C7C"/>
<path d="M15.9359 32.4238C15.6382 32.4151 15.3556 32.2907 15.1481 32.077C14.9406 31.8633 14.8246 31.5771 14.8247 31.2792C14.8423 30.9832 14.9705 30.7047 15.1839 30.4988C15.3973 30.293 15.6803 30.1749 15.9767 30.168C16.2733 30.1891 16.5515 30.3199 16.7569 30.5349C16.9624 30.7499 17.0804 31.0338 17.0879 31.3311C17.0754 31.6272 16.9482 31.9068 16.7332 32.1107C16.5182 32.3147 16.2323 32.4269 15.9359 32.4238Z" fill="#8A8A8A"/>
<path d="M30.8043 18.7559C30.6568 18.7583 30.5103 18.7314 30.3734 18.6767C30.2364 18.6219 30.1117 18.5405 30.0066 18.437C29.9014 18.3336 29.8179 18.2103 29.7609 18.0742C29.7039 17.9382 29.6745 17.7922 29.6746 17.6447C29.6745 17.4968 29.704 17.3505 29.7612 17.2142C29.8185 17.0779 29.9023 16.9544 30.0079 16.8509C30.1134 16.7475 30.2385 16.6661 30.3759 16.6115C30.5133 16.557 30.6602 16.5305 30.808 16.5334C30.9565 16.5334 31.1034 16.5631 31.2402 16.6208C31.377 16.6784 31.5009 16.763 31.6044 16.8693C31.708 16.9756 31.7893 17.1017 31.8433 17.2399C31.8974 17.3782 31.9232 17.5259 31.9193 17.6743C31.9115 17.9645 31.7905 18.2401 31.5822 18.4423C31.3738 18.6444 31.0946 18.757 30.8043 18.7559Z" fill="#898989"/>
<path d="M21.0438 11.5666C21.0486 11.7151 21.0212 11.8628 20.9637 11.9997C20.9062 12.1367 20.8198 12.2596 20.7105 12.3601C20.6011 12.4607 20.4714 12.5365 20.3302 12.5823C20.1889 12.6282 20.0394 12.6431 19.8919 12.626C19.7463 12.633 19.6008 12.6086 19.4654 12.5546C19.33 12.5005 19.2078 12.418 19.107 12.3127C19.0063 12.2074 18.9293 12.0816 18.8813 11.944C18.8333 11.8063 18.8154 11.6599 18.8288 11.5148C18.8288 11.367 18.8582 11.2206 18.9155 11.0843C18.9727 10.948 19.0565 10.8245 19.1621 10.7211C19.2676 10.6176 19.3928 10.5362 19.5302 10.4817C19.6676 10.4271 19.8145 10.4006 19.9622 10.4035C20.1101 10.4073 20.2558 10.4406 20.3906 10.5014C20.5255 10.5622 20.6468 10.6493 20.7476 10.7577C20.8483 10.866 20.9264 10.9934 20.9773 11.1323C21.0282 11.2712 21.0508 11.4189 21.0438 11.5666Z" fill="#898989"/>
<path d="M28.33 30.9425C28.1821 30.9533 28.0337 30.9319 27.8949 30.8796C27.7562 30.8273 27.6305 30.7454 27.5265 30.6397C27.4226 30.534 27.3429 30.407 27.2929 30.2674C27.243 30.1278 27.224 29.979 27.2373 29.8313C27.2306 29.6837 27.2559 29.5363 27.3114 29.3993C27.3669 29.2623 27.4514 29.139 27.559 29.0377C27.6667 28.9364 27.7949 28.8595 27.935 28.8124C28.0751 28.7652 28.2237 28.7489 28.3707 28.7645C28.5146 28.7593 28.6581 28.7839 28.792 28.8369C28.9259 28.8899 29.0474 28.9701 29.1487 29.0725C29.25 29.1748 29.329 29.2971 29.3806 29.4315C29.4322 29.566 29.4554 29.7097 29.4486 29.8535C29.4577 30.0015 29.4348 30.1497 29.3814 30.2879C29.328 30.4262 29.2453 30.5513 29.1391 30.6547C29.0329 30.7581 28.9056 30.8373 28.766 30.887C28.6263 30.9367 28.4776 30.9556 28.33 30.9425Z" fill="#8A8A8A"/>
<path d="M10.7797 21.0745C10.6316 21.078 10.4844 21.0518 10.3465 20.9975C10.2087 20.9432 10.0831 20.8619 9.97717 20.7584C9.87122 20.6548 9.78703 20.5312 9.72957 20.3946C9.67212 20.2581 9.64254 20.1114 9.64258 19.9633C9.6425 19.673 9.75601 19.3942 9.95883 19.1866C10.1617 18.9789 10.4377 18.8588 10.7279 18.8521C10.875 18.8476 11.0216 18.8725 11.1591 18.9252C11.2966 18.9779 11.4222 19.0574 11.5287 19.159C11.6352 19.2607 11.7204 19.3825 11.7794 19.5174C11.8385 19.6523 11.8701 19.7976 11.8725 19.9448C11.8812 20.0923 11.8593 20.24 11.8079 20.3786C11.7566 20.5172 11.6771 20.6436 11.5744 20.7498C11.4716 20.856 11.3479 20.9397 11.2112 20.9956C11.0744 21.0515 10.9275 21.0784 10.7797 21.0745Z" fill="#8A8A8A"/>
<path d="M21.1773 8.67757C21.1658 8.92322 21.0593 9.15478 20.8803 9.32341C20.7013 9.49203 20.4638 9.58453 20.2179 9.58138C19.9808 9.56629 19.7583 9.46133 19.5959 9.28788C19.4334 9.11443 19.3433 8.88557 19.3438 8.64795C19.3494 8.41002 19.4464 8.18339 19.6147 8.0151C19.783 7.84681 20.0096 7.74979 20.2476 7.74414C20.4927 7.75073 20.7259 7.8513 20.899 8.02505C21.072 8.19879 21.1717 8.43241 21.1773 8.67757Z" fill="#9A9A9A"/>
<path d="M29.7709 33.2804C29.5327 33.2814 29.3037 33.1887 29.1332 33.0224C28.9628 32.8561 28.8645 32.6295 28.8597 32.3914C28.8575 32.1527 28.9484 31.9227 29.1129 31.7498C29.2774 31.577 29.5028 31.4749 29.7412 31.4653C29.8637 31.4613 29.9856 31.4822 30.0997 31.5267C30.2138 31.5713 30.3176 31.6386 30.4049 31.7245C30.4922 31.8104 30.5612 31.9131 30.6075 32.0265C30.6539 32.1399 30.6767 32.2615 30.6747 32.384C30.6727 32.6224 30.5766 32.8504 30.4073 33.0183C30.2381 33.1862 30.0093 33.2804 29.7709 33.2804Z" fill="#999999"/>
<path d="M13.9801 34.3171C13.8621 34.3204 13.7446 34.2991 13.6352 34.2547C13.5257 34.2104 13.4266 34.1438 13.3442 34.0592C13.2617 33.9747 13.1976 33.874 13.156 33.7635C13.1144 33.6529 13.0961 33.535 13.1022 33.417C13.1007 33.2988 13.1231 33.1814 13.1682 33.0721C13.2133 32.9627 13.2801 32.8637 13.3646 32.7809C13.4491 32.6982 13.5495 32.6334 13.6598 32.5906C13.77 32.5478 13.8878 32.5277 14.0061 32.5318C14.245 32.5345 14.4738 32.6291 14.6449 32.796C14.8159 32.9629 14.9161 33.1893 14.9247 33.4282C14.9266 33.5502 14.903 33.6713 14.8555 33.7837C14.8079 33.8961 14.7374 33.9974 14.6486 34.0811C14.5597 34.1647 14.4543 34.2289 14.3392 34.2696C14.2241 34.3102 14.1018 34.3264 13.9801 34.3171Z" fill="#9A9A9A"/>
<path d="M9.02038 18.7967C9.01296 19.0341 8.91535 19.2597 8.74743 19.4276C8.57952 19.5955 8.35393 19.6931 8.11658 19.7005C7.87994 19.6875 7.65692 19.5857 7.49211 19.4154C7.32729 19.2451 7.23283 19.0188 7.22759 18.7819C7.22444 18.6596 7.24644 18.538 7.29224 18.4246C7.33804 18.3112 7.40667 18.2084 7.49385 18.1226C7.58103 18.0368 7.6849 17.9699 7.79903 17.9259C7.91317 17.8819 8.03511 17.8619 8.15732 17.867C8.27601 17.8683 8.3932 17.8937 8.50174 17.9417C8.61028 17.9898 8.70791 18.0594 8.78866 18.1464C8.86941 18.2334 8.9316 18.3359 8.97144 18.4477C9.01127 18.5595 9.02793 18.6783 9.02038 18.7967Z" fill="#9A9A9A"/>
<path d="M32.7414 17.0637C32.7334 16.9449 32.7507 16.8257 32.7922 16.714C32.8336 16.6023 32.8984 16.5008 32.9821 16.416C33.0658 16.3313 33.1665 16.2653 33.2777 16.2224C33.3888 16.1795 33.5078 16.1607 33.6267 16.1673C33.7455 16.1617 33.8642 16.1806 33.9753 16.2228C34.0865 16.265 34.1878 16.3296 34.2729 16.4127C34.358 16.4957 34.4252 16.5953 34.4701 16.7054C34.5151 16.8155 34.5369 16.9337 34.5342 17.0526C34.5367 17.1715 34.5153 17.2897 34.4713 17.4002C34.4272 17.5107 34.3615 17.6112 34.2779 17.6959C34.1943 17.7805 34.0946 17.8475 33.9846 17.8929C33.8747 17.9382 33.7568 17.9611 33.6378 17.9601C33.5189 17.9648 33.4002 17.9448 33.2893 17.9014C33.1784 17.858 33.0777 17.7922 32.9935 17.708C32.9093 17.6238 32.8435 17.5231 32.8001 17.4122C32.7567 17.3013 32.7367 17.1827 32.7414 17.0637Z" fill="#999999"/>
<path d="M21.4587 6.03581C21.4594 6.13143 21.4404 6.22618 21.4029 6.31414C21.3654 6.4021 21.3101 6.48139 21.2406 6.54707C21.1711 6.61275 21.0889 6.66341 20.9989 6.6959C20.909 6.72838 20.8133 6.742 20.7179 6.73589C20.5232 6.7303 20.338 6.65045 20.2002 6.51272C20.0625 6.37498 19.9826 6.18978 19.9771 5.99507C19.9857 5.79168 20.0742 5.59989 20.2232 5.46123C20.3723 5.32258 20.5699 5.24822 20.7734 5.25425C20.8714 5.25565 20.968 5.2776 21.0569 5.31868C21.1459 5.35976 21.2252 5.41905 21.2898 5.49272C21.3544 5.56638 21.4028 5.65278 21.4319 5.74633C21.461 5.83989 21.4701 5.9385 21.4587 6.03581Z" fill="#ABABAB"/>
<path d="M12.0171 34.5724C12.2102 34.5683 12.398 34.6362 12.5438 34.7628C12.6896 34.8895 12.7831 35.0659 12.8061 35.2577C12.8111 35.4602 12.7362 35.6565 12.5975 35.8042C12.4589 35.9518 12.2677 36.039 12.0653 36.0467C11.8726 36.0468 11.6874 35.9718 11.5491 35.8376C11.4108 35.7035 11.3302 35.5207 11.3244 35.3281C11.3173 35.2323 11.3299 35.1361 11.3614 35.0454C11.3929 34.9547 11.4426 34.8714 11.5075 34.8006C11.5724 34.7298 11.6511 34.6731 11.7387 34.6338C11.8263 34.5946 11.9211 34.5737 12.0171 34.5724Z" fill="#A9A9A9"/>
<path d="M30.2413 34.8092C30.2368 34.7138 30.2516 34.6185 30.2849 34.5291C30.3182 34.4396 30.3693 34.3578 30.435 34.2886C30.5008 34.2193 30.5799 34.1642 30.6675 34.1263C30.7552 34.0885 30.8496 34.0688 30.945 34.0684C31.1392 34.0757 31.3234 34.1561 31.4607 34.2935C31.5981 34.4309 31.6785 34.615 31.6859 34.8092C31.691 34.9059 31.6761 35.0027 31.6421 35.0934C31.6081 35.1841 31.5557 35.2669 31.4882 35.3364C31.4208 35.406 31.3397 35.4608 31.25 35.4976C31.1604 35.5343 31.0641 35.5522 30.9673 35.55C30.8689 35.5568 30.7702 35.5422 30.678 35.5072C30.5858 35.4722 30.5023 35.4176 30.4333 35.3471C30.3643 35.2767 30.3114 35.1921 30.2782 35.0992C30.2451 35.0064 30.2324 34.9074 30.2413 34.8092Z" fill="#A8A8A8"/>
<path d="M37.0197 16.7151C37.0285 16.813 37.0151 16.9116 36.9804 17.0035C36.9457 17.0955 36.8907 17.1784 36.8194 17.2461C36.7482 17.3138 36.6626 17.3645 36.569 17.3944C36.4754 17.4243 36.3762 17.4327 36.2789 17.4189C36.1823 17.4224 36.0861 17.4054 35.9967 17.3689C35.9072 17.3324 35.8265 17.2773 35.7599 17.2072C35.6934 17.1372 35.6425 17.0537 35.6106 16.9625C35.5788 16.8713 35.5667 16.7743 35.5751 16.6781C35.5722 16.5817 35.5897 16.4857 35.6264 16.3965C35.6631 16.3073 35.7182 16.2269 35.7881 16.1604C35.858 16.094 35.9412 16.0431 36.0322 16.011C36.1231 15.9789 36.2198 15.9664 36.316 15.9743C36.4138 15.9655 36.5124 15.9789 36.6044 16.0136C36.6963 16.0483 36.7792 16.1033 36.8469 16.1746C36.9146 16.2458 36.9653 16.3315 36.9952 16.4251C37.0251 16.5187 37.0335 16.6178 37.0197 16.7151Z" fill="#A9A9A9"/>
<path d="M6.44603 17.5345C6.45048 17.6306 6.43392 17.7266 6.39752 17.8157C6.36111 17.9049 6.30574 17.985 6.23524 18.0506C6.16474 18.1161 6.08081 18.1656 5.98928 18.1954C5.89775 18.2253 5.80081 18.2348 5.70521 18.2234C5.60843 18.2184 5.51368 18.1938 5.42666 18.1511C5.33963 18.1085 5.26212 18.0487 5.1988 17.9754C5.13548 17.902 5.08764 17.8166 5.05818 17.7243C5.02872 17.632 5.01824 17.5346 5.02736 17.4381C5.0388 17.253 5.12324 17.08 5.26214 16.9571C5.40103 16.8341 5.58304 16.7714 5.76819 16.7825C5.86523 16.7768 5.96232 16.793 6.05227 16.8298C6.14222 16.8667 6.22272 16.9234 6.28781 16.9956C6.3529 17.0678 6.40092 17.1537 6.42831 17.247C6.4557 17.3403 6.46176 17.4385 6.44603 17.5345Z" fill="#A7A7A7"/>
<path d="M39.4867 16.6595C39.4862 16.748 39.4681 16.8355 39.4335 16.9169C39.3988 16.9984 39.3483 17.0721 39.2849 17.1338C39.2214 17.1955 39.1463 17.244 39.0639 17.2764C38.9816 17.3088 38.8936 17.3245 38.8051 17.3225C38.7202 17.3285 38.635 17.3162 38.5553 17.2866C38.4755 17.2569 38.403 17.2105 38.3426 17.1505C38.2823 17.0905 38.2355 17.0183 38.2054 16.9387C38.1752 16.8591 38.1625 16.774 38.168 16.6891C38.1629 16.5183 38.2247 16.3522 38.3402 16.2263C38.4558 16.1003 38.6159 16.0245 38.7866 16.0149C38.8753 16.0094 38.9642 16.0219 39.048 16.0516C39.1318 16.0814 39.2086 16.1277 39.274 16.1879C39.3394 16.2481 39.392 16.3209 39.4285 16.402C39.4651 16.483 39.4848 16.5706 39.4867 16.6595Z" fill="#B9B9B9"/>
<path d="M3.69377 16.6928C3.60799 16.6979 3.52212 16.6845 3.44197 16.6535C3.36183 16.6225 3.28927 16.5746 3.22922 16.5132C3.16916 16.4517 3.12302 16.3781 3.09389 16.2972C3.06475 16.2164 3.05332 16.1302 3.06037 16.0446C3.05638 15.9596 3.06957 15.8746 3.09914 15.7948C3.12872 15.715 3.17408 15.642 3.23251 15.5801C3.29094 15.5182 3.36125 15.4687 3.43923 15.4346C3.5172 15.4005 3.60126 15.3825 3.68637 15.3815C3.77205 15.3776 3.85766 15.3908 3.93812 15.4206C4.01858 15.4503 4.09226 15.4959 4.15478 15.5546C4.21731 15.6133 4.26741 15.684 4.30211 15.7624C4.33681 15.8409 4.35541 15.9255 4.35681 16.0112C4.36033 16.1001 4.34573 16.1888 4.3139 16.2719C4.28207 16.3549 4.23365 16.4306 4.17163 16.4944C4.1096 16.5582 4.03525 16.6086 3.9531 16.6427C3.87094 16.6768 3.78272 16.6939 3.69377 16.6928Z" fill="#B7B7B7"/>
<path d="M22.1552 3.6032C22.1538 3.6914 22.1349 3.77844 22.0996 3.85928C22.0642 3.94011 22.0132 4.01313 21.9495 4.07411C21.8858 4.13509 21.8106 4.18282 21.7282 4.21453C21.6459 4.24624 21.5581 4.2613 21.47 4.25884C21.3848 4.26216 21.2999 4.24751 21.2207 4.21585C21.1416 4.1842 21.07 4.13624 21.0106 4.0751C20.9512 4.01397 20.9054 3.94101 20.876 3.86098C20.8467 3.78096 20.8345 3.69566 20.8403 3.61062C20.8418 3.43995 20.9081 3.27622 21.0256 3.15248C21.1432 3.02874 21.3033 2.95418 21.4737 2.94387C21.5622 2.94037 21.6506 2.95486 21.7334 2.98647C21.8162 3.01807 21.8918 3.06615 21.9555 3.12778C22.0192 3.18941 22.0697 3.26331 22.1041 3.34503C22.1384 3.42675 22.1558 3.51457 22.1552 3.6032Z" fill="#B9B9B9"/>
<path d="M32.3897 37.1995C32.3884 37.2878 32.3692 37.3748 32.3332 37.4553C32.2973 37.5359 32.2453 37.6083 32.1806 37.6683C32.1158 37.7282 32.0396 37.7743 31.9565 37.8039C31.8733 37.8335 31.7851 37.8459 31.697 37.8404C31.5277 37.8291 31.3689 37.754 31.2527 37.6303C31.1365 37.5066 31.0716 37.3433 31.071 37.1736C31.0784 37.0034 31.1495 36.8422 31.2703 36.7221C31.3911 36.602 31.5527 36.5317 31.723 36.5254C31.9002 36.5283 32.0692 36.6005 32.1938 36.7265C32.3184 36.8525 32.3888 37.0223 32.3897 37.1995Z" fill="#B8B8B8"/>
<path d="M10.0502 36.1624C10.2211 36.1643 10.3845 36.2334 10.5051 36.3546C10.6256 36.4759 10.6937 36.6396 10.6947 36.8106C10.6976 36.8957 10.6824 36.9804 10.6503 37.0592C10.6181 37.138 10.5697 37.2091 10.5082 37.2678C10.4466 37.3266 10.3733 37.3717 10.2931 37.4001C10.2129 37.4286 10.1276 37.4397 10.0428 37.4329C9.95454 37.4406 9.86572 37.4291 9.78236 37.3992C9.699 37.3694 9.62307 37.3219 9.55976 37.26C9.49645 37.1981 9.44726 37.1232 9.41555 37.0406C9.38383 36.9579 9.37035 36.8693 9.37602 36.781C9.3856 36.6103 9.46142 36.4502 9.58735 36.3347C9.71327 36.2191 9.87934 36.1573 10.0502 36.1624Z" fill="#B8B8B8"/>
<path d="M41.6315 16.9783C41.6315 17.2783 41.4241 17.4413 41.1018 17.445C41.0349 17.4508 40.9676 17.4424 40.9042 17.4202C40.8409 17.398 40.783 17.3627 40.7343 17.3165C40.6856 17.2702 40.6473 17.2142 40.6219 17.1521C40.5965 17.09 40.5846 17.0231 40.5869 16.9561C40.5802 16.8824 40.589 16.8082 40.6128 16.7382C40.6367 16.6682 40.675 16.604 40.7254 16.5498C40.7757 16.4956 40.8369 16.4527 40.9049 16.4238C40.973 16.3948 41.0464 16.3806 41.1203 16.3819C41.1937 16.3856 41.2656 16.4041 41.3317 16.4365C41.3977 16.4688 41.4564 16.5143 41.5042 16.5701C41.5521 16.6259 41.588 16.6909 41.6099 16.7611C41.6318 16.8313 41.6391 16.9052 41.6315 16.9783Z" fill="#C8C8C8"/>
<path d="M32.2192 39.9776C32.1459 39.9802 32.0729 39.967 32.0052 39.9388C31.9375 39.9107 31.8766 39.8683 31.8267 39.8145C31.7768 39.7607 31.739 39.6969 31.716 39.6272C31.693 39.5576 31.6852 39.4838 31.6932 39.4109C31.6936 39.3443 31.7076 39.2784 31.7345 39.2174C31.7614 39.1564 31.8006 39.1016 31.8496 39.0565C31.8986 39.0113 31.9563 38.9767 32.0193 38.9548C32.0823 38.9329 32.1491 38.9243 32.2155 38.9294C32.2856 38.9235 32.3561 38.9332 32.4219 38.9578C32.4878 38.9823 32.5475 39.0211 32.5966 39.0713C32.6458 39.1215 32.6833 39.182 32.7064 39.2484C32.7295 39.3148 32.7377 39.3854 32.7304 39.4554C32.7399 39.5252 32.7333 39.5963 32.7111 39.6632C32.6889 39.7301 32.6518 39.7911 32.6025 39.8415C32.5532 39.8918 32.493 39.9303 32.4266 39.9539C32.3602 39.9775 32.2893 39.9856 32.2192 39.9776Z" fill="#C6C6C6"/>
<path d="M22.9626 1.53917C22.9608 1.61 22.9439 1.67962 22.9131 1.74344C22.8824 1.80725 22.8384 1.86379 22.7841 1.90932C22.7298 1.95485 22.6665 1.98833 22.5983 2.00753C22.5301 2.02673 22.4586 2.03122 22.3885 2.0207C22.3211 2.02064 22.2545 2.00631 22.193 1.97867C22.1315 1.95103 22.0766 1.91069 22.0318 1.86032C21.987 1.80994 21.9534 1.75067 21.9332 1.68638C21.913 1.6221 21.9065 1.55425 21.9144 1.48731C21.9099 1.41627 21.9213 1.34512 21.9476 1.27899C21.9739 1.21285 22.0146 1.15338 22.0667 1.10485C22.1187 1.05632 22.1809 1.01994 22.2487 0.998328C22.3166 0.976713 22.3883 0.970397 22.4589 0.979846C22.796 0.994662 22.9478 1.2095 22.9626 1.53917Z" fill="#C8C8C8"/>
<path d="M8.05359 38.4774C7.71651 38.4404 7.51279 38.2774 7.51279 37.9441C7.50714 37.8737 7.51689 37.803 7.54138 37.7368C7.56587 37.6706 7.60449 37.6106 7.65457 37.5608C7.70464 37.5111 7.76496 37.4729 7.83132 37.4489C7.89767 37.4249 7.96848 37.4156 8.03878 37.4218C8.10573 37.4175 8.17283 37.4274 8.23565 37.451C8.29847 37.4745 8.35557 37.5112 8.40319 37.5584C8.4508 37.6057 8.48785 37.6625 8.51187 37.7252C8.53589 37.7878 8.54634 37.8548 8.54253 37.9218C8.54915 37.9909 8.54155 38.0605 8.52019 38.1265C8.49883 38.1925 8.46417 38.2534 8.41835 38.3055C8.37253 38.3575 8.31652 38.3997 8.25378 38.4292C8.19105 38.4588 8.12291 38.4752 8.05359 38.4774Z" fill="#C6C6C6"/>
<path d="M134.79 18.3078C134.599 18.2913 134.407 18.2913 134.216 18.3078C133.512 18.43 133.064 18.1263 132.679 17.5669C132.19 16.8446 131.623 16.1779 131.086 15.4889C131.048 15.4184 130.995 15.357 130.931 15.309C130.867 15.261 130.794 15.2276 130.715 15.2111V16.8261C130.715 17.1965 130.715 17.5669 130.715 17.9373C130.715 18.2077 130.612 18.2855 130.345 18.3078C128.982 18.3707 128.982 18.3744 128.982 17.0261C128.982 15.5741 128.982 14.1258 128.982 12.6738C128.982 12.3034 129.089 12.2219 129.452 12.1811C129.814 12.1086 130.189 12.154 130.522 12.3107C130.856 12.4674 131.13 12.7272 131.304 13.0516C131.737 13.6872 132.204 14.2981 132.705 14.8815C132.782 14.9852 132.853 15.1704 132.986 15.1333C133.119 15.0963 133.082 14.8777 133.086 14.7407C133.086 14.048 133.086 13.3517 133.086 12.6553C133.086 12.3219 133.168 12.1663 133.538 12.1923C133.908 12.2182 134.364 12.1923 134.779 12.1923L134.79 18.3078Z" fill="#A7A7A7"/>
<path d="M108.85 15.2451C108.85 16.1193 108.85 16.9898 108.85 17.8639C108.85 18.1677 108.761 18.2751 108.446 18.2825C107.12 18.3158 107.12 18.327 107.12 17.0046C107.12 15.9823 107.12 15.9823 106.079 15.9823C105.039 15.9823 104.994 15.9823 104.994 17.0564C104.994 18.2973 104.994 18.2899 103.753 18.2825C103.427 18.2825 103.275 18.2121 103.279 17.8417C103.298 16.0934 103.279 14.345 103.279 12.6004C103.279 12.2707 103.379 12.1411 103.713 12.167C103.992 12.1929 104.274 12.1929 104.553 12.167C104.924 12.13 105.013 12.3041 104.998 12.6337C104.998 13.1079 104.998 13.582 104.998 14.0561C104.998 14.3524 105.079 14.4895 105.402 14.4747C105.846 14.4747 106.291 14.4525 106.735 14.4747C107.061 14.4932 107.139 14.345 107.128 14.0524C107.128 13.5672 107.128 13.0782 107.128 12.5893C107.128 12.293 107.209 12.1485 107.528 12.167C107.853 12.1855 108.18 12.1855 108.506 12.167C108.783 12.167 108.876 12.2707 108.858 12.5374C108.832 13.4375 108.85 14.3413 108.85 15.2451Z" fill="#A7A7A7"/>
<path d="M84.8362 15.2039C84.8362 14.3483 84.8362 13.4889 84.8362 12.6296C84.8362 12.2962 84.9177 12.1665 85.2807 12.1628C86.5401 12.1628 86.5401 12.1628 86.5438 13.4111C86.5438 13.6037 86.5438 13.7815 86.5438 13.989C86.5438 14.1964 86.4697 14.3334 86.6179 14.3964C86.766 14.4594 86.8475 14.2557 86.9364 14.1519C87.418 13.5926 87.8995 13.0407 88.3699 12.4592C88.4359 12.3625 88.526 12.2847 88.6312 12.2333C88.7364 12.182 88.8532 12.159 88.97 12.1665C89.3997 12.1851 89.8293 12.1665 90.259 12.1665C90.3516 12.1665 90.485 12.1221 90.5294 12.2517C90.5739 12.3814 90.459 12.4036 90.4035 12.4703C89.8071 13.1481 89.2182 13.8334 88.6144 14.5001C88.5663 14.5387 88.527 14.5871 88.4989 14.6419C88.4708 14.6968 88.4547 14.757 88.4515 14.8186C88.4484 14.8802 88.4583 14.9417 88.4806 14.9992C88.5029 15.0567 88.5372 15.1087 88.5811 15.1521C89.2256 16.0559 89.8442 16.9745 90.4702 17.8894C90.5294 17.9783 90.6628 18.0635 90.5739 18.1968C90.485 18.3302 90.3887 18.2635 90.2887 18.2672C88.6922 18.3524 88.6922 18.3524 87.8032 17.0263C87.7208 16.8855 87.6306 16.7495 87.5328 16.6189C87.3994 16.4596 87.3291 16.104 87.1068 16.1892C86.9506 16.2433 86.8141 16.3426 86.7145 16.4745C86.6149 16.6064 86.5567 16.765 86.5475 16.93C86.5475 17.2671 86.5475 17.6116 86.5475 17.9487C86.5475 18.1746 86.4512 18.2783 86.2326 18.2746H86.1882C84.8436 18.3709 84.8436 18.3709 84.8473 17.0226L84.8362 15.2039Z" fill="#A7A7A7"/>
<path d="M78.3281 18.4042C77.9088 18.4196 77.4908 18.3488 77.1 18.1961C76.7091 18.0435 76.3538 17.8123 76.0559 17.5168C75.758 17.2214 75.5239 16.8679 75.3681 16.4784C75.2122 16.0888 75.138 15.6714 75.1499 15.252C75.1397 14.8291 75.2157 14.4086 75.3733 14.0161C75.5309 13.6235 75.7667 13.2672 76.0665 12.9688C76.3663 12.6704 76.7238 12.4361 77.117 12.2804C77.5103 12.1246 77.9312 12.0506 78.354 12.0628C78.7986 12.0424 79.2423 12.1197 79.6538 12.2893C80.0653 12.4589 80.4346 12.7166 80.7358 13.0444C80.9395 13.2592 80.9395 13.4148 80.6876 13.574C80.5987 13.6296 80.5246 13.7037 80.4431 13.763C80.2437 13.9605 80.0135 14.1244 79.7616 14.2482C79.4838 14.3297 79.3541 13.963 79.1282 13.8445C78.9127 13.7111 78.6656 13.6376 78.4122 13.6318C78.1589 13.6259 77.9086 13.6878 77.6873 13.8111C77.4347 13.956 77.2288 14.1699 77.0936 14.4278C76.9585 14.6856 76.8997 14.9767 76.9242 15.2668C76.9019 15.5733 76.9768 15.8791 77.1385 16.1405C77.3001 16.4019 77.5401 16.6056 77.8243 16.7225C78.1008 16.8416 78.4078 16.8698 78.7014 16.8033C78.9949 16.7367 79.2598 16.5788 79.4578 16.3521C79.6653 16.1373 79.8282 16.1151 80.0542 16.3077C80.2579 16.4798 80.4746 16.6358 80.7024 16.7744C80.9802 16.9411 80.9728 17.1004 80.7654 17.3337C80.4676 17.6861 80.0932 17.9658 79.6708 18.1514C79.2483 18.3369 78.7891 18.4234 78.3281 18.4042Z" fill="#A7A7A7"/>
<path d="M96.7895 18.4043C96.37 18.4193 95.952 18.3478 95.5613 18.1945C95.1706 18.0411 94.8155 17.8091 94.5182 17.5128C94.2209 17.2166 93.9877 16.8624 93.8329 16.4722C93.6782 16.082 93.6053 15.6642 93.6188 15.2447C93.6082 14.8257 93.6826 14.4089 93.8376 14.0195C93.9927 13.6301 94.225 13.2762 94.5207 12.9791C94.8164 12.6821 95.1692 12.448 95.5579 12.2912C95.9466 12.1343 96.363 12.0579 96.7821 12.0666C97.2196 12.0442 97.657 12.1144 98.0655 12.2727C98.474 12.431 98.8445 12.6738 99.1527 12.9852C99.3824 13.2186 99.4602 13.4112 99.1157 13.6038C99.0157 13.663 98.9305 13.7482 98.8342 13.8186C98.6527 13.9922 98.4468 14.1382 98.223 14.252C97.9378 14.3409 97.8526 13.989 97.6266 13.8816C97.4041 13.7308 97.1428 13.6475 96.874 13.6416C96.6053 13.6356 96.3406 13.7074 96.1116 13.8483C95.85 14.008 95.6417 14.2419 95.5131 14.5202C95.3846 14.7984 95.3415 15.1086 95.3893 15.4114C95.3925 15.7037 95.4836 15.9883 95.6507 16.2281C95.8178 16.4679 96.0533 16.6519 96.3265 16.756C96.6056 16.8659 96.9121 16.8857 97.2031 16.8126C97.494 16.7396 97.7548 16.5773 97.9489 16.3485C97.9774 16.3055 98.0155 16.2695 98.0602 16.2435C98.1049 16.2175 98.1549 16.2021 98.2064 16.1986C98.258 16.195 98.3097 16.2033 98.3575 16.2229C98.4053 16.2425 98.448 16.2728 98.4823 16.3115C98.7156 16.493 98.9601 16.6597 99.2046 16.8227C99.449 16.9856 99.4342 17.119 99.2638 17.3264C98.9604 17.6822 98.5798 17.9642 98.1511 18.151C97.7224 18.3378 97.2567 18.4244 96.7895 18.4043Z" fill="#A7A7A7"/>
<path d="M56.8665 15.2003C56.8665 14.3262 56.8665 13.4557 56.8665 12.5815C56.8665 12.2778 56.9591 12.1482 57.274 12.1704C57.5699 12.1926 57.8671 12.1926 58.163 12.1704C58.5075 12.1407 58.6223 12.2593 58.6186 12.6149C58.5964 13.8446 58.6186 15.0744 58.6001 16.3005C58.6001 16.6931 58.7112 16.819 59.1001 16.8005C59.7817 16.7746 60.4632 16.8005 61.1448 16.8005C61.4559 16.8005 61.5597 16.9154 61.556 17.2191C61.5263 18.4822 61.7375 18.2748 60.5225 18.2896C59.4557 18.2896 58.3889 18.2896 57.3259 18.2896C56.9777 18.2896 56.8591 18.1748 56.8665 17.8266C56.8776 16.945 56.8665 16.0856 56.8665 15.2003Z" fill="#A7A7A7"/>
<path d="M124.822 15.2783C124.822 16.1229 124.822 16.9674 124.822 17.8082C124.822 18.1787 124.693 18.2824 124.333 18.2861C123.104 18.2861 123.104 18.2861 123.104 17.06C123.104 15.5784 123.104 14.1264 123.104 12.6632C123.104 12.2632 123.229 12.1595 123.615 12.1632C124.822 12.1632 124.822 12.1632 124.822 13.367V15.2783Z" fill="#A7A7A7"/>
<path d="M50.7139 29.8766C48.9656 30.0173 47.8321 28.5505 47.6543 27.4393C47.3765 25.6724 48.1951 24.1759 49.7694 23.7352C50.2737 23.5746 50.8098 23.5413 51.3301 23.6383C51.8504 23.7352 52.3386 23.9594 52.7512 24.2908C52.9364 24.4315 53.1216 24.5612 52.8771 24.8205C52.6327 25.0797 52.5438 25.0686 52.2919 24.876C51.1362 23.9981 49.8249 24.0833 48.9582 25.0686C48.5516 25.5566 48.3339 26.1744 48.3447 26.8095C48.3556 27.4445 48.5944 28.0545 49.0174 28.5283C49.4408 28.9619 50.0125 29.2193 50.6178 29.2488C51.2231 29.2784 51.8172 29.0779 52.2808 28.6876C52.4141 28.5875 52.5141 28.3912 52.729 28.4653C52.7989 28.4768 52.8636 28.5095 52.9142 28.5591C52.9648 28.6086 52.999 28.6726 53.0119 28.7423C53.0249 28.8119 53.016 28.8839 52.9866 28.9483C52.9572 29.0128 52.9086 29.0666 52.8475 29.1024C52.5648 29.3721 52.2292 29.5802 51.862 29.7134C51.4947 29.8467 51.1038 29.9022 50.7139 29.8766Z" fill="#A7A7A7"/>
<path d="M84.2955 27.0537C84.2955 27.776 84.2955 28.502 84.2955 29.2243C84.2955 29.4688 84.3992 29.7837 83.9547 29.7948C83.5102 29.8059 83.5843 29.4984 83.5843 29.2466C83.5843 27.7834 83.5843 26.3203 83.5843 24.8572C83.5843 24.4386 83.4547 24.3127 83.0546 24.3423C82.6546 24.372 82.2879 24.3423 81.9026 24.3423C81.6915 24.3423 81.5322 24.3238 81.5322 24.0423C81.5322 23.7608 81.6063 23.6719 81.9026 23.6719C83.2769 23.6719 84.6511 23.6719 86.0253 23.6719C86.2698 23.6719 86.3698 23.7756 86.3698 24.0201C86.3698 24.2645 86.2513 24.3571 85.9994 24.3534C85.5845 24.3534 85.1697 24.372 84.7548 24.3534C84.3399 24.3349 84.2696 24.4868 84.2807 24.8461C84.3066 25.5721 84.2955 26.3129 84.2955 27.0537Z" fill="#A7A7A7"/>
<path d="M100.642 26.3977C100.642 27.1682 100.642 27.9349 100.642 28.7054C100.642 29.0128 100.756 29.1239 101.056 29.1202C101.931 29.1202 102.801 29.1202 103.675 29.1202C103.916 29.1202 104.116 29.1202 104.109 29.4684C104.101 29.8166 103.923 29.7944 103.694 29.7907C102.583 29.7907 101.449 29.7907 100.323 29.7907C100.042 29.7907 99.9526 29.687 99.9526 29.398C99.9526 27.609 99.9526 25.8236 99.9526 24.0345C99.9526 23.7715 100.034 23.6641 100.323 23.6641C100.612 23.6641 100.693 23.7974 100.693 24.0345C100.638 24.8309 100.642 25.6161 100.642 26.3977Z" fill="#A7A7A7"/>
<path d="M77.1057 26.7533C77.1057 27.6238 77.1057 28.4942 77.1057 29.3647C77.1057 29.6129 77.0872 29.7944 76.7613 29.7981C76.4353 29.8018 76.3575 29.6462 76.3612 29.361C76.3612 27.6028 76.3612 25.8458 76.3612 24.09C76.3612 23.7974 76.4538 23.6641 76.7687 23.6641C77.0835 23.6641 77.1094 23.853 77.1094 24.0937C77.1045 24.9827 77.1033 25.8692 77.1057 26.7533Z" fill="#A7A7A7"/>
<path d="M47.521 15.1961C47.521 14.3219 47.521 13.4477 47.521 12.5773C47.521 12.2735 47.6062 12.1624 47.9247 12.1661C48.8841 12.1846 49.8472 12.1661 50.8102 12.1661C51.1667 12.1685 51.5187 12.2455 51.8437 12.3921C52.0788 12.4847 52.2855 12.6376 52.4429 12.8353C52.6003 13.0331 52.7029 13.2688 52.7404 13.5187C52.7779 13.7686 52.7491 14.024 52.6567 14.2593C52.5643 14.4946 52.4117 14.7014 52.2141 14.859C51.9845 15.0479 51.9585 15.1294 52.2437 15.2701C52.5014 15.39 52.7141 15.5891 52.8507 15.8383C52.9872 16.0875 53.0407 16.3738 53.0031 16.6555C53.005 16.9382 52.9244 17.2153 52.7711 17.4529C52.6178 17.6904 52.3985 17.878 52.14 17.9927C51.7645 18.1735 51.353 18.2673 50.9362 18.2668C49.9472 18.2668 48.9545 18.2668 47.9729 18.2668C47.6025 18.2668 47.5284 18.126 47.5358 17.7964C47.5321 16.9407 47.521 16.0851 47.521 15.1961ZM50.0768 16.8925C50.2694 16.8925 50.4472 16.8925 50.651 16.8925C50.9732 16.8666 51.251 16.7444 51.2696 16.3814C51.2881 16.0184 51.0066 15.8628 50.6954 15.8369C50.2843 15.8035 49.8694 15.8369 49.4582 15.8369C49.3991 15.8337 49.3411 15.8536 49.2962 15.8922C49.2513 15.9309 49.2231 15.9854 49.2175 16.0443C49.0545 16.6777 49.2175 16.9148 49.8546 16.9148H50.0768V16.8925ZM50.7436 14.5034C50.8258 14.4698 50.8965 14.413 50.9471 14.3401C50.9977 14.2671 51.0261 14.181 51.0288 14.0922C51.0345 14.0018 51.0109 13.9118 50.9615 13.8358C50.9122 13.7597 50.8397 13.7016 50.7547 13.67C50.3166 13.5327 49.8532 13.4959 49.399 13.5626C49.3626 13.5677 49.3284 13.5829 49.3003 13.6064C49.2721 13.63 49.2511 13.661 49.2397 13.6959C49.1779 13.7875 49.1435 13.8949 49.1405 14.0054C49.1375 14.1158 49.166 14.2249 49.2228 14.3197C49.2795 14.4146 49.3621 14.4913 49.4609 14.5409C49.5597 14.5904 49.6705 14.6109 49.7805 14.5997H50.0139C50.2612 14.6215 50.5103 14.5886 50.7436 14.5034Z" fill="#A7A7A7"/>
<path d="M68.064 18.4045C67.634 18.4238 67.2047 18.3536 66.8032 18.1983C66.4018 18.043 66.037 17.8061 65.7319 17.5024C65.4269 17.1987 65.1882 16.835 65.0311 16.4343C64.874 16.0336 64.8018 15.6046 64.8192 15.1745C64.8192 13.3706 66.249 12.0593 68.201 12.0667C68.6202 12.0607 69.0363 12.1391 69.4244 12.2973C69.8126 12.4554 70.165 12.6902 70.4606 12.9874C70.7561 13.2847 70.9888 13.6384 71.1447 14.0275C71.3006 14.4167 71.3766 14.8332 71.3681 15.2523C71.3607 17.0562 69.9383 18.4082 68.064 18.4045ZM68.1233 16.8673C68.3296 16.8578 68.532 16.8074 68.7187 16.7189C68.9053 16.6304 69.0725 16.5057 69.2104 16.3519C69.3484 16.1981 69.4543 16.0184 69.522 15.8232C69.5897 15.6281 69.6179 15.4214 69.6049 15.2152C69.6125 15.008 69.5777 14.8014 69.5028 14.608C69.4279 14.4147 69.3143 14.2386 69.1691 14.0906C69.0239 13.9426 68.85 13.8257 68.6581 13.7471C68.4661 13.6685 68.2602 13.6299 68.0529 13.6336C67.8502 13.6363 67.6502 13.6799 67.4648 13.7619C67.2794 13.8438 67.1125 13.9624 66.9742 14.1105C66.8358 14.2585 66.7287 14.4331 66.6595 14.6236C66.5903 14.814 66.5602 15.0166 66.5712 15.2189C66.5623 15.4297 66.5956 15.6401 66.6693 15.8378C66.7429 16.0355 66.8553 16.2165 66.9999 16.3701C67.1446 16.5237 67.3184 16.6468 67.5114 16.7322C67.7043 16.8176 67.9123 16.8635 68.1233 16.8673Z" fill="#A7A7A7"/>
<path d="M118.392 18.2789C118.288 18.2715 118.184 18.2715 118.081 18.2789C117.996 18.3048 117.906 18.3112 117.819 18.2976C117.731 18.2841 117.648 18.251 117.575 18.2008C117.502 18.1506 117.441 18.0846 117.397 18.0077C117.353 17.9308 117.327 17.845 117.321 17.7566C117.312 17.661 117.283 17.5685 117.234 17.4856C117.185 17.4028 117.119 17.3317 117.04 17.2772C116.961 17.2228 116.871 17.1865 116.776 17.1707C116.681 17.155 116.584 17.1603 116.492 17.1862C116.123 17.2327 115.749 17.2327 115.38 17.1862C115.287 17.1616 115.19 17.1575 115.095 17.1742C115.001 17.1909 114.911 17.2281 114.832 17.2831C114.753 17.338 114.687 17.4095 114.638 17.4926C114.59 17.5757 114.56 17.6683 114.551 17.764C114.462 18.1974 114.199 18.3308 113.78 18.2826C113.545 18.2696 113.308 18.2696 113.073 18.2826C112.554 18.2826 112.543 18.2641 112.736 17.8011C113.385 16.2626 114.035 14.7242 114.684 13.1858C115.117 12.156 115.121 12.1819 116.221 12.1486C116.4 12.1257 116.581 12.1687 116.73 12.2696C116.88 12.3705 116.987 12.5224 117.032 12.6968C117.721 14.3933 118.444 16.0787 119.155 17.7677C119.37 18.2789 119.37 18.2789 118.833 18.2826L118.392 18.2789ZM115.936 15.8379H116.332C116.473 15.8379 116.562 15.7712 116.499 15.6157C116.363 15.2601 116.222 14.9045 116.077 14.5489C116.051 14.4896 116.017 14.3896 115.932 14.4192C115.869 14.4554 115.822 14.5134 115.799 14.5822C115.684 14.8526 115.599 15.1341 115.466 15.3971C115.295 15.7379 115.366 15.8861 115.758 15.8416H115.936V15.8379Z" fill="#A7A7A7"/>
<path d="M59.9965 23.653C60.304 23.5863 60.3966 23.8011 60.4966 24.0234C61.293 25.7865 62.0931 27.5497 62.882 29.3166C62.9376 29.4425 63.1858 29.6499 62.882 29.75C62.6672 29.824 62.3709 29.887 62.2227 29.5796C62.0746 29.2721 61.9005 28.9128 61.7671 28.5683C61.7398 28.453 61.6712 28.3517 61.5743 28.2834C61.4774 28.2152 61.3589 28.1848 61.2411 28.1979C60.3818 28.1979 59.5261 28.1979 58.6668 28.1979C58.5489 28.184 58.4299 28.214 58.3328 28.2824C58.2358 28.3508 58.1674 28.4526 58.1408 28.5683C58.0297 28.8758 57.8889 29.1684 57.7519 29.461C57.6815 29.6092 57.6111 29.7685 57.4111 29.7722C57.211 29.7759 57.0962 29.8314 56.9888 29.7092C56.8814 29.587 56.9888 29.461 57.0518 29.3388C57.8593 27.546 58.6742 25.7569 59.4743 23.9641C59.5928 23.7419 59.7261 23.6048 59.9965 23.653ZM59.9558 27.5386C60.2818 27.5386 60.6077 27.5386 60.9337 27.5386C61.1856 27.5386 61.3041 27.4793 61.1744 27.2089C60.8226 26.4274 60.4781 25.6421 60.1336 24.8568C60.0225 24.6049 59.9151 24.6494 59.8224 24.8568C59.4669 25.6347 59.115 26.415 58.7668 27.1978C58.6668 27.4164 58.726 27.5349 58.9816 27.5349H59.9558V27.5386Z" fill="#A7A7A7"/>
<path d="M92.4891 28.2199C92.1186 28.2199 91.7186 28.2459 91.3371 28.2199C91.1918 28.1915 91.0411 28.2214 90.9177 28.3032C90.7943 28.385 90.7081 28.5121 90.6777 28.657C90.574 28.9496 90.4333 29.2275 90.3073 29.509C90.28 29.5937 90.2266 29.6676 90.1548 29.7201C90.0829 29.7727 89.9963 29.8012 89.9073 29.8016C89.5369 29.8016 89.4517 29.7349 89.6147 29.3719C90.4123 27.6088 91.2099 25.8456 92.0075 24.0824C92.1112 23.8528 92.1927 23.6453 92.5298 23.6416C92.8669 23.6379 92.9743 23.8676 93.0817 24.1084C93.867 25.8456 94.6597 27.5791 95.4338 29.3238C95.4894 29.446 95.7264 29.6608 95.4598 29.7609C95.1931 29.8609 94.9227 29.9053 94.7708 29.5682C94.6189 29.2312 94.4522 28.9015 94.3226 28.557C94.2945 28.4493 94.2274 28.3559 94.1343 28.295C94.0412 28.2341 93.9287 28.21 93.8188 28.2273C93.378 28.2273 92.9335 28.2199 92.4891 28.2199ZM93.4373 27.5384C93.7336 27.5384 93.8559 27.4717 93.7114 27.168C93.3632 26.4012 93.0224 25.6308 92.678 24.864C92.6483 24.7973 92.6372 24.7084 92.552 24.701C92.4668 24.6936 92.4113 24.7862 92.3742 24.864C92.0223 25.6456 91.6741 26.4271 91.3223 27.205C91.2037 27.468 91.3223 27.5532 91.5741 27.5458C91.8853 27.5458 92.1964 27.5458 92.5076 27.5458C92.8187 27.5458 93.1262 27.5273 93.4373 27.5384Z" fill="#A7A7A7"/>
<path d="M67.3862 26.6979C67.3862 25.8237 67.3862 24.9533 67.3862 24.0791C67.3862 23.8902 67.3565 23.6679 67.6529 23.6753C68.5678 23.7013 69.4864 23.5827 70.3939 23.7717C70.8399 23.8286 71.2486 24.0501 71.5398 24.3927C71.831 24.7353 71.9838 25.1743 71.9681 25.6237C71.9821 26.0796 71.8326 26.5254 71.5466 26.8806C71.2606 27.2359 70.857 27.4772 70.4087 27.561C69.7981 27.6727 69.1764 27.7113 68.5567 27.6758C68.2233 27.6758 68.1122 27.798 68.1233 28.1166C68.1418 28.5463 68.1233 28.9759 68.1233 29.4056C68.1233 29.6908 68.0085 29.7945 67.7269 29.7945C67.4454 29.7945 67.3788 29.6501 67.3825 29.4056C67.3825 28.95 67.3825 28.4907 67.3825 28.0314L67.3862 26.6979ZM68.127 25.8941C68.127 27.0053 68.127 27.0053 69.2382 27.0053C69.7409 27.0537 70.2467 26.9505 70.6902 26.709C70.8805 26.5919 71.0337 26.4233 71.1321 26.2227C71.2304 26.0221 71.2699 25.7977 71.2458 25.5756C71.2537 25.3824 71.2055 25.191 71.1068 25.0247C71.0082 24.8584 70.8635 24.7242 70.6902 24.6384C70.3067 24.4482 69.8848 24.3481 69.4568 24.3458C68.1418 24.3458 68.1418 24.3458 68.1418 25.6793L68.127 25.8941Z" fill="#A7A7A7"/>
</g>
<defs>
<clipPath id="clip0_7053_107928">
<rect width="134.667" height="40" fill="white" transform="translate(0.123291)"/>
</clipPath>
</defs>
</svg>
