<svg width="122" height="22" viewBox="0 0 122 22" fill="none" xmlns="http://www.w3.org/2000/svg">
<g clip-path="url(#clip0_7053_107924)">
<path d="M116.789 8.8808V0H121.011V21.3396H117.164C117.128 20.8875 117.09 20.4162 117.035 19.7814C115.484 21.487 113.659 22.0705 111.563 21.705C108.283 21.1344 106.132 18.5471 106.048 15.0621C106.023 14.2242 106.102 13.3864 106.282 12.5678C107.571 6.84815 113.336 5.85107 116.789 8.8808ZM113.666 10.9936C111.63 10.9936 110.296 12.4042 110.306 14.5203C110.316 16.6363 111.659 18.0084 113.701 18.0277C115.798 18.0277 117.135 16.6234 117.093 14.4529C117.051 12.2824 115.756 10.984 113.675 10.9936H113.666Z" fill="#A7A7A7"/>
<path d="M63.427 13.5584V21.3524H59.0347V1.33691H72.3879V5.35091H63.4879V9.45788H71.6954V13.5712L63.427 13.5584Z" fill="#A7A7A7"/>
<path d="M94.9875 21.3847H90.7715V7.66918H94.7759V9.35236C95.0616 8.99925 95.3689 8.66411 95.696 8.34887C97.3215 7.02476 99.1714 6.9382 101.063 7.55377C102.791 8.11804 103.609 9.50625 103.775 11.2279C103.932 12.8309 103.939 14.434 103.964 16.0562C103.993 17.7939 103.964 19.5316 103.964 21.3366H99.6811C99.6811 20.2722 99.6811 19.227 99.6811 18.1787C99.6811 16.534 99.6972 14.886 99.6266 13.2413C99.5657 11.8563 98.8476 11.0804 97.7254 10.9971C96.3276 10.8913 95.4203 11.5517 95.1349 12.9656C95.0287 13.572 94.9793 14.1871 94.9875 14.8027C94.9875 16.9828 94.9875 19.1469 94.9875 21.3847Z" fill="#A7A7A7"/>
<path d="M87.671 21.3844H83.6955C83.6666 20.8938 83.6378 20.4225 83.5961 19.7813C82.365 21.3844 80.8325 21.8813 79.021 21.8044C76.6101 21.7018 74.959 20.3199 74.6768 17.9058C74.5388 16.4544 74.4746 14.997 74.4845 13.5391C74.4524 11.6155 74.4845 9.69185 74.4845 7.69448H78.771C78.771 8.47996 78.771 9.27827 78.771 10.0734C78.771 11.9361 78.7325 13.8052 78.8223 15.6647C78.8992 17.2934 79.6591 18.0404 80.9896 18.034C82.4131 18.034 83.3428 17.2069 83.4069 15.6391C83.4999 13.3756 83.455 11.1057 83.4679 8.83583C83.4679 8.47034 83.4679 8.10484 83.4679 7.68164H87.6806L87.671 21.3844Z" fill="#A7A7A7"/>
<path d="M18.3017 4.05568L16.1183 5.72925C12.8578 2.93677 9.16438 2.76684 6.34946 5.36055C3.91285 7.60479 3.29408 10.4902 3.993 13.6322C4.60536 16.3862 6.28213 18.3098 9.06178 19.0472C11.9472 19.8135 14.4768 19.2139 16.455 16.7292L18.6992 18.3964C17.2821 20.833 13.0822 22.731 8.70271 21.7307C4.32323 20.7304 1.07548 16.7421 0.825409 12.2183C0.546481 7.2393 3.20752 2.96242 7.50364 1.48122C11.5946 0.0545225 16.2818 1.16381 18.3017 4.05568Z" fill="#A7A7A7"/>
<path d="M27.2754 21.7823C26.3338 21.8021 25.398 21.6307 24.5246 21.2785C23.6511 20.9263 22.8582 20.4006 22.1938 19.7332C21.5294 19.0657 21.0072 18.2704 20.6589 17.3954C20.3107 16.5204 20.1435 15.5838 20.1676 14.6424C20.1676 10.6348 23.2903 7.58903 27.3908 7.61148C28.3228 7.60542 29.2467 7.78532 30.1083 8.14066C30.9699 8.496 31.752 9.01964 32.4088 9.68092C33.0656 10.3422 33.584 11.1278 33.9334 11.9919C34.2829 12.8559 34.4565 13.7809 34.4441 14.7129C34.4538 18.7397 31.3599 21.7855 27.2754 21.7823ZM27.2401 19.3328C29.8883 19.3553 31.7286 17.4541 31.7286 14.7001C31.7286 11.9461 29.9172 10.0737 27.3331 10.0641C24.749 10.0545 22.9408 11.9012 22.8991 14.6488C22.8574 17.3964 24.6657 19.3104 27.2401 19.3328Z" fill="#A7A7A7"/>
<path d="M45.7775 21.3615H43.2126V8.0692H45.7262C45.7518 8.59178 45.7775 9.09515 45.8095 9.76201C47.3709 7.78387 49.3362 7.29975 51.5452 7.77424C53.5618 8.20386 54.9532 9.67863 55.027 11.7305C55.1392 14.9366 55.0558 18.117 55.0558 21.3679H52.491V20.4061C52.491 18.0753 52.491 15.7445 52.491 13.4169C52.491 11.5446 51.6702 10.4353 50.1089 10.1371C48.3616 9.8165 46.7457 10.6501 46.1558 12.3204C45.9219 13.025 45.7986 13.7615 45.7903 14.5038C45.7486 16.7448 45.7775 19.0115 45.7775 21.3615Z" fill="#A7A7A7"/>
<path d="M39.5514 21.41H37.0891V8.04395H39.5514V21.41Z" fill="#A7A7A7"/>
<path d="M38.3748 1.26919C38.624 1.26226 38.8718 1.30825 39.1019 1.4041C39.332 1.49995 39.5392 1.64349 39.7097 1.82526C39.8803 2.00704 40.0104 2.22292 40.0914 2.45865C40.1725 2.69438 40.2026 2.9446 40.1798 3.19283C40.1888 3.44073 40.1452 3.68772 40.0518 3.91754C39.9584 4.14736 39.8175 4.35479 39.6382 4.52621C39.4589 4.69763 39.2453 4.82915 39.0116 4.9121C38.7778 4.99505 38.5291 5.02755 38.2818 5.00747C38.0328 5.00632 37.7866 4.95524 37.5576 4.85727C37.3287 4.7593 37.1217 4.61642 36.9489 4.43708C36.7762 4.25774 36.6411 4.04558 36.5518 3.81314C36.4624 3.58071 36.4206 3.33272 36.4287 3.08384C36.4357 2.83639 36.4918 2.5928 36.5937 2.36721C36.6957 2.14161 36.8414 1.93849 37.0224 1.76967C37.2035 1.60085 37.4162 1.46968 37.6484 1.38377C37.8806 1.29785 38.1275 1.2589 38.3748 1.26919Z" fill="#A7A7A7"/>
</g>
<defs>
<clipPath id="clip0_7053_107924">
<rect width="120.231" height="22" fill="white" transform="translate(0.790039)"/>
</clipPath>
</defs>
</svg>
