<svg width="136" height="36" viewBox="0 0 136 36" fill="none" xmlns="http://www.w3.org/2000/svg">
<g clip-path="url(#clip0_7053_107925)">
<path d="M19.6399 0C19.6593 0.312034 19.906 0.241886 20.0922 0.263656C26.3087 1.06994 30.9328 4.20238 33.9644 9.66095C34.5844 10.78 35.0714 11.9677 35.4158 13.1998C35.6787 14.2497 36.1831 15.2237 36.8889 16.0443C37.3451 16.5833 37.9949 16.9213 38.6982 16.9853C39.0126 17.0143 39.1505 17.1232 39.1239 17.4352C39.113 17.5696 39.113 17.7047 39.1239 17.8391C39.1844 18.5648 39.1747 19.0486 38.1854 19.2759C36.6615 19.6364 36.0398 21.032 35.5972 22.4011C35.036 24.1354 34.4143 25.8335 33.4395 27.3864C30.5563 31.9823 26.4248 34.7349 21.1033 35.7291C20.905 35.7654 20.6195 35.6468 20.5833 36.0024H20.1793C20.0439 35.8065 19.9084 35.8355 19.7729 36.0024H16.5244C16.3914 35.8379 16.2559 35.8089 16.1204 36.0024H15.7141C15.7141 35.7847 15.5641 35.7605 15.3972 35.7388C10.9821 35.0988 6.97741 32.7985 4.20028 29.307C1.90145 26.5408 0.529111 23.1226 0.276872 19.5348C0.262359 19.3364 0.37364 19.051 0.0180664 19.0123V16.9901C0.284142 16.9901 0.259942 16.7821 0.279293 16.6031C0.493571 13.3621 1.63553 10.2511 3.56896 7.6412C6.71349 3.36464 10.9175 0.890142 16.2099 0.263656C16.3962 0.239467 16.6429 0.312034 16.6623 0H17.6105C17.7702 0.107629 17.9585 0.165123 18.1511 0.165123C18.3437 0.165123 18.532 0.107629 18.6917 0H19.6399ZM6.51756 7.41866C6.72558 7.33642 6.93601 7.26385 7.1392 7.17677C10.1047 5.85123 13.1598 5.60209 16.2003 6.74864C20.6945 8.44184 23.3795 11.6928 24.1148 16.4701C24.1705 16.8377 24.318 17.0095 24.7244 17.0095C27.627 16.995 30.5361 16.995 33.4516 17.0095C33.9354 17.0095 34.0201 16.7966 33.9669 16.3927C33.4274 12.2951 31.7004 8.81193 28.5389 6.09796C25.1936 3.22918 21.321 1.93751 16.8921 2.26648C13.7755 2.49089 10.7985 3.64812 8.34863 5.58758C7.67135 6.11248 6.89732 6.5769 6.51514 7.41382C6.49633 7.41812 6.47835 7.42548 6.46192 7.43559C6.46192 7.43559 6.46192 7.45978 6.46192 7.4743L6.51756 7.41866ZM6.49821 28.6757C6.57561 28.8764 6.58286 28.9538 6.6264 28.9925C6.95294 29.2997 7.2795 29.6093 7.61814 29.902C11.7665 33.4844 16.5365 34.672 21.8725 33.465C25.4476 32.6547 28.3285 30.6978 30.6095 27.8508C32.4822 25.504 33.6476 22.6723 33.9693 19.6872C34.008 19.363 33.9693 19.1236 33.5339 19.1236C30.5603 19.1348 27.5859 19.1348 24.6107 19.1236C24.2648 19.1236 24.1487 19.2905 24.11 19.6073C23.7971 22.4765 22.4007 25.1179 20.2059 26.9921C17.2549 29.5852 13.8153 30.5285 9.933 29.8222C8.7792 29.6214 7.7028 29.1691 6.49821 28.6853V28.6757ZM6.10151 25.9157C8.52037 27.6718 11.1497 28.4507 14.033 27.8363C18.3458 26.9171 21.0114 24.237 22.0152 19.9411C22.2136 19.0921 22.1531 19.0292 21.2654 19.0292C18.445 19.0292 15.627 19.0462 12.7993 19.0147C12.2382 19.0147 12.035 19.1816 11.9092 19.7234C11.2658 22.5003 9.59194 24.4233 6.93844 25.4973C6.67962 25.6037 6.36758 25.6085 6.10151 25.9157ZM17.0348 16.9998C18.5224 16.9998 20.01 16.9829 21.4976 16.9998C21.9814 16.9998 22.1531 16.8474 22.0636 16.3757C21.7292 14.4607 20.8412 12.6855 19.5093 11.2695C17.8866 9.52447 15.6851 8.42846 13.3146 8.18544C10.9027 7.89833 8.47049 8.52105 6.49336 9.93186C6.37 10.0165 6.18618 10.1447 6.18618 10.2512C6.18618 10.464 6.44015 10.4519 6.59979 10.5076C9.44196 11.5283 11.2658 13.4658 11.9213 16.4265C12.0181 16.8619 12.1946 17.0143 12.647 17.007C14.1055 16.9853 15.5714 16.9998 17.0348 16.9998ZM6.14989 19.0292C5.04447 19.0292 3.93904 19.0292 2.83604 19.0292C2.47563 19.0292 2.2676 19.1018 2.35226 19.513C2.58812 20.9834 3.13755 22.3858 3.96324 23.6251C4.11079 23.8379 4.26316 24.0169 4.55585 23.9855C7.03519 23.7121 9.15171 22.1689 9.85802 19.6557C10.0031 19.1526 9.8193 19.022 9.33553 19.0316C8.26881 19.0437 7.20935 19.0292 6.14989 19.0292ZM6.17165 16.9998C7.20934 16.9998 8.24705 16.9732 9.28232 16.9998C9.8822 17.0216 9.96444 16.8281 9.79028 16.2911C8.99447 13.819 6.9336 12.4209 4.56311 12.1451C4.23656 12.1088 4.07934 12.312 3.92695 12.5515C3.16226 13.718 2.63839 15.0257 2.38613 16.3975C2.30389 16.8595 2.38613 17.0046 2.8699 16.995C3.96323 16.9853 5.06865 16.9998 6.17165 16.9998Z" fill="#A7A7A7"/>
<path d="M135.467 32.7656C135.209 33.23 135.1 33.7622 134.759 34.1928C133.827 35.3732 131.984 35.8594 130.25 35.3611C128.651 34.8991 127.555 33.6558 127.374 32.1367C127.326 31.711 127.415 31.4885 127.894 31.5489C128.096 31.5719 128.299 31.5719 128.501 31.5489C128.886 31.5054 129.038 31.6288 129.094 32.0472C129.156 32.4538 129.318 32.8387 129.565 33.1677C129.812 33.4967 130.137 33.7597 130.51 33.9334C130.883 34.1071 131.293 34.1861 131.704 34.1634C132.114 34.1407 132.513 34.017 132.865 33.8033C133.99 33.1236 134.055 31.1789 132.974 30.3661C132.431 30.002 131.84 29.717 131.218 29.5195C130.354 29.193 129.493 28.8567 128.799 28.2109C127.667 27.1539 127.442 25.8549 127.894 24.4471C128.346 23.0394 129.374 22.3355 130.782 22.1371C132.783 21.8541 134.234 22.6451 135.136 24.452C135.211 24.6044 135.228 24.8148 135.475 24.81V26.0194C135.363 26.037 135.251 26.0475 135.139 26.0508C134.713 26.0508 134.239 26.1403 133.876 25.9831C133.564 25.8477 133.721 25.3349 133.607 24.9986C133.269 24.0117 132.567 23.5231 131.43 23.5473C130.388 23.5618 129.754 23.9996 129.495 24.8874C129.193 25.9081 129.495 26.7402 130.4 27.3329C130.915 27.6554 131.471 27.9083 132.052 28.0851C133.745 28.6463 135.083 29.5364 135.47 31.4183L135.467 32.7656Z" fill="#A7A7A7"/>
<path d="M18.6918 0C18.5321 0.107629 18.3438 0.165123 18.1512 0.165123C17.9586 0.165123 17.7703 0.107629 17.6106 0H18.6918Z" fill="#A7A7A7"/>
<path d="M16.1228 36.0026C16.2583 35.8091 16.3937 35.8381 16.5268 36.0026H16.1228Z" fill="#A7A7A7"/>
<path d="M19.7754 36.0025C19.9108 35.8356 20.0463 35.8066 20.1818 36.0025H19.7754Z" fill="#A7A7A7"/>
<path d="M92.9147 4.3783C92.1383 7.63893 91.3763 10.7133 90.6869 13.8119C90.5128 14.5908 90 14.3198 89.5597 14.3803C89.076 14.4505 88.972 14.1892 88.8897 13.7756C88.1173 9.83123 87.3288 5.89009 86.5241 1.95218C86.3983 1.34746 86.5676 1.20716 87.1409 1.24103C88.1496 1.30392 88.0407 1.02575 88.2511 2.20857C88.7591 5.058 89.2695 7.90823 89.7823 10.7593C89.8065 10.8875 89.8452 11.0132 89.9129 11.2987L91.6182 3.8921C91.7803 3.19305 91.9907 2.49884 92.0899 1.79011C92.177 1.18781 92.5567 1.27247 92.9655 1.2507C93.3743 1.22893 93.6549 1.30876 93.7637 1.80946C94.4072 4.81612 95.0869 7.81793 95.7569 10.8197C95.7883 10.9649 95.827 11.11 95.8899 11.3664C96.3737 8.6476 96.8405 6.0449 97.3074 3.43736C97.4017 2.90762 97.5202 2.38031 97.5807 1.84574C97.6315 1.40551 97.8032 1.19265 98.2677 1.25554C98.4702 1.27851 98.6747 1.27851 98.8772 1.25554C99.3005 1.21442 99.361 1.40309 99.286 1.7756C98.4797 5.80704 97.6734 9.83849 96.8671 13.8699C96.7728 14.3537 96.5309 14.4456 96.1221 14.3924C95.7133 14.3392 95.2562 14.5908 95.1014 13.8699C94.4749 10.9504 93.7782 8.0453 93.1058 5.13541C93.0719 4.92013 93.0115 4.73871 92.9147 4.3783Z" fill="#A7A7A7"/>
<path d="M79.6739 25.5892C79.5519 25.819 79.5094 26.0826 79.553 26.3391C79.553 29.1038 79.536 31.8686 79.553 34.6309C79.553 35.1655 79.4538 35.3929 78.8587 35.3566C77.6614 35.2937 77.838 35.5017 77.8356 34.2995C77.8356 30.5237 77.8356 26.7503 77.821 22.9744C77.821 22.4374 77.9299 22.2488 78.5128 22.2342C79.2579 22.2101 79.6618 22.4229 80.0101 23.122C81.3913 25.8988 82.8523 28.6346 84.2915 31.3848C84.3629 31.6275 84.5237 31.8341 84.7414 31.9629C84.7559 31.692 84.7777 31.4622 84.7777 31.2373C84.7777 28.4725 84.8092 25.7077 84.7608 22.9454C84.7463 22.1786 85.1478 22.256 85.6388 22.2584C86.1299 22.2609 86.4782 22.1931 86.4709 22.9139C86.4322 26.8253 86.4419 30.7341 86.4709 34.6454C86.4709 35.1945 86.3379 35.3445 85.7694 35.3711C85.0075 35.4122 84.6277 35.1486 84.2843 34.4664C82.8015 31.5227 81.2486 28.6055 79.6739 25.5892Z" fill="#A7A7A7"/>
<path d="M108.986 28.7964C108.986 26.8202 108.986 24.8439 108.986 22.8701C108.986 22.4057 109.116 22.2412 109.598 22.2558C110.722 22.2872 111.849 22.2558 112.984 22.2703C114.774 22.3066 115.986 23.158 116.436 24.6553C117.011 26.5758 116.486 28.4747 115.047 29.4156C114.624 29.6889 114.67 29.8994 114.846 30.267C115.555 31.7692 116.223 33.2906 116.934 34.7927C117.152 35.2572 117.043 35.4023 116.557 35.3491C116.468 35.3346 116.377 35.3346 116.288 35.3491C115.536 35.4966 115.173 35.158 114.905 34.4614C114.406 33.1648 113.782 31.9167 113.252 30.6299C113.066 30.1775 112.807 30.0566 112.341 30.0614C110.71 30.0832 110.71 30.0614 110.71 31.7208C110.71 32.7294 110.686 33.7405 110.71 34.7492C110.725 35.2209 110.58 35.3733 110.103 35.3539C108.785 35.3055 109.01 35.5136 109 34.2485C108.976 32.4319 108.986 30.6202 108.986 28.7964ZM110.679 26.1888C110.679 26.3461 110.679 26.5033 110.679 26.6605C110.713 27.2846 110.408 28.1118 110.792 28.4795C111.233 28.9028 112.074 28.615 112.74 28.6125C113.241 28.6368 113.734 28.4756 114.124 28.1597C114.513 27.8438 114.773 27.3954 114.854 26.9C114.955 26.3914 114.955 25.8677 114.854 25.3592C114.79 24.9069 114.565 24.493 114.22 24.1938C113.875 23.8946 113.433 23.7303 112.977 23.7313C112.37 23.6974 111.767 23.7313 111.153 23.7119C110.809 23.6998 110.669 23.8087 110.669 24.1691C110.705 24.8415 110.691 25.5164 110.688 26.1888H110.679Z" fill="#A7A7A7"/>
<path d="M75.8036 8.23344C75.8036 6.83534 75.7673 5.89198 75.9439 4.95829C76.4059 2.51766 77.937 1.08811 80.1527 1.08811C82.4918 1.06876 84.0374 2.34592 84.4728 4.87363C84.8499 6.9329 84.831 9.04518 84.4172 11.0974C83.8705 13.6904 81.8024 14.9821 79.2239 14.4378C77.4823 14.0702 76.5631 12.8849 76.0794 11.2643C75.748 10.1153 75.7915 8.94459 75.8036 8.23344ZM82.9731 7.86094C82.9731 6.67327 83.0626 5.47593 82.6538 4.32697C82.3684 3.52148 81.8798 2.91919 81.0138 2.68214C79.4561 2.25642 78.0967 2.98933 77.7314 4.62932C77.2944 6.72188 77.2886 8.88158 77.7145 10.9764C77.7556 11.1517 77.8157 11.322 77.8935 11.4844C78.0784 11.9732 78.4159 12.3894 78.856 12.6713C79.296 12.9532 79.8152 13.0858 80.3365 13.0494C81.5121 13.0107 82.3128 12.3987 82.6804 11.2643C83.0481 10.1298 82.9779 9.00264 82.9779 7.86094H82.9731Z" fill="#A7A7A7"/>
<path d="M104.794 27.3717C104.794 25.8889 104.816 24.4037 104.782 22.9234C104.767 22.3719 104.961 22.1977 105.478 22.263C105.612 22.28 105.748 22.28 105.882 22.263C106.352 22.1977 106.499 22.3816 106.494 22.8581C106.472 25.3302 106.494 27.8022 106.48 30.2743C106.48 31.058 106.547 31.8442 106.378 32.6255C106.066 34.0526 105.22 34.9839 103.804 35.3709C102.885 35.62 101.916 35.62 100.996 35.3709C99.4142 34.9524 98.4322 33.7067 98.408 31.9191C98.3669 28.8641 98.408 25.8067 98.3862 22.7516C98.3862 22.3622 98.5193 22.2195 98.8966 22.2679C99.0757 22.2896 99.2569 22.2896 99.436 22.2679C99.9077 22.2074 100.05 22.3936 100.048 22.8677C100.026 25.5648 100.036 28.2594 100.048 30.9564C100.047 31.2714 100.061 31.5863 100.092 31.8998C100.292 33.8349 101.872 34.7081 103.655 33.8929C104.487 33.5156 104.753 32.7803 104.772 31.9578C104.806 30.4315 104.772 28.9028 104.772 27.3741L104.794 27.3717Z" fill="#A7A7A7"/>
<path d="M61.7888 1.0791C63.9101 1.0791 65.4461 2.41674 65.7315 4.48971C65.792 4.92994 65.688 5.13313 65.2163 5.07507C65.0372 5.0533 64.856 5.0533 64.6769 5.07507C64.2318 5.12587 64.0625 4.96864 64.0093 4.49454C63.8642 3.17384 63.0417 2.50624 61.7235 2.53284C60.797 2.55219 60.127 2.98033 59.8609 3.72051C59.5247 4.66628 59.7497 5.55643 60.4947 6.13938C60.987 6.49798 61.5321 6.77788 62.1105 6.96904C62.5995 7.13945 63.0791 7.33565 63.5473 7.55683C65.4098 8.50744 66.1839 10.2684 65.6009 12.1527C65.0978 13.7806 63.4384 14.7191 61.4308 14.5062C59.4231 14.2934 58.0105 13.0114 57.7081 11.1682C57.6283 10.6844 57.7323 10.4425 58.279 10.5078C58.4581 10.5296 58.6393 10.5296 58.8184 10.5078C59.2006 10.4667 59.3554 10.5804 59.4159 11.0037C59.4753 11.4114 59.6349 11.798 59.8803 12.129C60.1256 12.4599 60.4492 12.7249 60.822 12.9003C61.1948 13.0757 61.6052 13.156 62.0167 13.134C62.4281 13.112 62.8276 12.9884 63.1796 12.7743C64.3092 12.1212 64.3891 10.1571 63.3054 9.34195C62.8395 9.02556 62.3335 8.77258 61.8009 8.58969C61.2104 8.36743 60.6316 8.11554 60.0665 7.835C58.3733 6.9376 57.6888 5.41613 58.1314 3.66971C58.5475 2.07809 59.9383 1.08152 61.7888 1.0791Z" fill="#A7A7A7"/>
<path d="M68.6752 28.7868C68.6752 26.8324 68.6752 24.8779 68.6752 22.9235C68.6752 22.459 68.7551 22.2438 69.2969 22.2534C71.232 22.2849 73.1671 22.2946 75.1021 22.2534C75.7915 22.2365 75.6512 22.6429 75.6682 23.0299C75.6851 23.4169 75.6996 23.7556 75.0997 23.7338C73.7258 23.6878 72.3495 23.7338 70.9756 23.7096C70.5233 23.7096 70.3346 23.7991 70.3515 24.2974C70.3902 25.306 70.383 26.3171 70.3515 27.3282C70.337 27.7685 70.47 27.916 70.9175 27.9039C72.0229 27.8773 73.1284 27.9354 74.2314 27.8797C74.8724 27.8459 74.9836 28.0732 75.0127 28.6659C75.0465 29.3697 74.6909 29.3528 74.1975 29.3456C73.1163 29.3262 72.035 29.3601 70.9538 29.3286C70.47 29.3141 70.3394 29.4786 70.3515 29.943C70.3805 31.0654 70.3854 32.1901 70.3515 33.3125C70.337 33.7963 70.4628 33.9753 70.9853 33.9632C72.3809 33.9269 73.7815 33.9849 75.1771 33.9341C75.8206 33.91 75.7722 34.251 75.7843 34.6816C75.7964 35.1121 75.7577 35.3758 75.1868 35.3637C73.2033 35.3274 71.2199 35.3371 69.2364 35.3637C68.7817 35.3637 68.6631 35.221 68.6656 34.788C68.6849 32.7973 68.6752 30.7848 68.6752 28.7868Z" fill="#A7A7A7"/>
<path d="M118.816 28.7702C118.816 26.794 118.816 24.8178 118.816 22.8416C118.816 22.411 118.915 22.2514 119.375 22.2562C121.336 22.278 123.298 22.2925 125.257 22.2562C125.942 22.2417 125.809 22.6433 125.828 23.0327C125.847 23.4221 125.852 23.7584 125.255 23.7366C123.881 23.693 122.505 23.7366 121.131 23.7124C120.647 23.7124 120.444 23.7946 120.468 24.3316C120.511 25.3403 120.495 26.3538 120.468 27.3649C120.468 27.7737 120.596 27.914 121.012 27.9043C122.115 27.8825 123.221 27.9043 124.324 27.8922C124.841 27.8801 125.185 27.868 125.185 28.5985C125.185 29.329 124.844 29.3653 124.285 29.3508C123.204 29.3217 122.122 29.3508 121.041 29.3338C120.591 29.3217 120.456 29.4765 120.465 29.9144C120.492 31.0803 120.49 32.251 120.465 33.4169C120.465 33.8305 120.594 33.966 121.007 33.9611C122.459 33.9418 123.893 33.9829 125.335 33.9394C125.964 33.92 125.874 34.2828 125.886 34.665C125.898 35.0472 125.91 35.3786 125.313 35.3665C123.329 35.3278 121.346 35.3375 119.362 35.3665C118.891 35.3665 118.806 35.1899 118.811 34.7763C118.825 32.7686 118.816 30.7706 118.816 28.7702Z" fill="#A7A7A7"/>
<path d="M41.1461 18.0424V13.8021C41.1461 12.9991 41.1461 12.9942 41.8379 13.345C43.9786 14.4334 46.1193 15.5219 48.2624 16.6201C48.8477 16.9152 49.2299 17.3458 49.2565 18.0158C49.2831 18.6858 48.9082 19.1599 48.3277 19.4671C46.0927 20.6185 43.848 21.7578 41.6129 22.9116C41.1485 23.1535 41.1292 22.8995 41.1437 22.5536C41.1485 21.0442 41.1461 19.5421 41.1461 18.0424ZM46.5377 18.0424L43.6182 16.5306C43.2771 16.3564 43.1779 16.5161 43.1779 16.8402C43.1779 17.6433 43.1779 18.4488 43.1779 19.2591C43.1779 19.634 43.2916 19.767 43.6617 19.5735L46.5377 18.0424Z" fill="#A7A7A7"/>
<path d="M62.1104 32.6648C62.466 31.4336 62.7708 30.3887 63.078 29.3389C63.6803 27.2224 64.3092 25.1131 64.8679 22.9845C65.0276 22.3774 65.3009 22.2226 65.8935 22.2589C66.9336 22.3072 66.9336 22.271 66.6192 23.2458C65.4363 27.041 64.2366 30.8313 63.0828 34.6362C62.9062 35.2216 62.6426 35.3619 62.0523 35.3836C61.4186 35.403 61.2686 35.1079 61.1138 34.6048C59.9286 30.7346 58.7167 26.8837 57.517 23.0232C57.2751 22.2758 57.2751 22.2758 58.0419 22.2734C59.1134 22.2734 59.1158 22.2734 59.4134 23.3159C60.2293 26.1895 61.0429 29.0639 61.854 31.9392C61.9096 32.1133 61.9798 32.2923 62.1104 32.6648Z" fill="#A7A7A7"/>
<path d="M91.6013 29.5319C91.6013 27.7806 91.5868 26.0294 91.6013 24.2781C91.6013 23.8403 91.4804 23.6903 91.0305 23.7073C90.2226 23.7435 89.4098 23.6903 88.5995 23.7266C88.0432 23.7532 88.0891 23.4025 88.1302 23.0711C88.1714 22.7397 87.8763 22.2559 88.5753 22.2608C91.1441 22.2721 93.7122 22.2721 96.2794 22.2608C96.9785 22.2608 96.6785 22.7639 96.7196 23.0784C96.7608 23.3928 96.7995 23.7556 96.248 23.7266C95.4836 23.6903 94.7144 23.7508 93.95 23.7073C93.3985 23.6734 93.2244 23.8355 93.2244 24.4063C93.2534 27.7927 93.2413 31.1791 93.2244 34.5656C93.2244 34.8074 93.3816 35.2041 93.0768 35.2912C92.6205 35.4219 92.1356 35.4144 91.6835 35.2694C91.4852 35.1993 91.582 34.9042 91.582 34.7107C91.5989 32.9885 91.6013 31.259 91.6013 29.5319Z" fill="#A7A7A7"/>
<path d="M67.923 7.82274C67.923 5.84652 67.9448 3.87031 67.9085 1.89409C67.9085 1.34017 68.0827 1.21197 68.6003 1.23132C69.7347 1.27728 69.5678 1.12489 69.5678 2.19887C69.5678 2.55928 69.5678 2.92453 69.5678 3.27768C69.5678 6.22144 69.5944 9.16279 69.5461 12.1041C69.5461 12.8298 69.7614 12.9628 70.4169 12.9362C71.6771 12.8854 72.9422 12.9483 74.2024 12.9072C74.7829 12.8903 74.7394 13.2216 74.72 13.5893C74.7007 13.957 74.8652 14.3561 74.2048 14.344C72.2915 14.3101 70.3757 14.3198 68.46 14.344C67.9883 14.344 67.9061 14.1602 67.9085 13.749C67.9327 11.7752 67.923 9.79895 67.923 7.82274Z" fill="#A7A7A7"/>
<path d="M6.5177 7.4189L6.45239 7.47453C6.45239 7.46002 6.45239 7.44067 6.45239 7.43583C6.46882 7.42572 6.48679 7.41836 6.5056 7.41406L6.5177 7.4189Z" fill="#A7A7A7"/>
</g>
<defs>
<clipPath id="clip0_7053_107925">
<rect width="135.432" height="36" fill="white" transform="translate(0.0205078)"/>
</clipPath>
</defs>
</svg>
