<svg width="96" height="36" viewBox="0 0 96 36" fill="none" xmlns="http://www.w3.org/2000/svg">
<g clip-path="url(#clip0_7053_107923)">
<path d="M48.0855 0.0515912C63.2199 0.0515912 78.3535 0.0566506 93.4864 0.0667662C94.2549 0.0667662 95.5465 -0.351588 95.5421 0.870955C95.5378 2.0935 94.2505 1.66431 93.4799 1.66648C63.1605 1.68382 32.8426 1.68382 2.52608 1.66648C1.76849 1.66648 0.476911 2.1 0.483423 0.864452C0.489935 -0.371097 1.77284 0.0710991 2.5326 0.0710991C17.7162 0.0450875 32.9005 0.0385854 48.0855 0.0515912Z" fill="#A7A7A7"/>
<path d="M31.625 35.9696H2.35263C1.94888 35.9696 1.51039 36.0585 1.15656 35.9263C0.994821 35.8538 0.849604 35.7492 0.729788 35.6187C0.609973 35.4883 0.518089 35.3348 0.459758 35.1676C0.416343 35.0159 0.822269 34.6279 1.09578 34.5173C1.40403 34.3981 1.78825 34.4718 2.13991 34.4718H61.2947C61.5964 34.4718 61.9459 34.3851 62.189 34.5C62.5081 34.643 62.7512 34.9487 63.0269 35.185C62.7708 35.4407 62.5558 35.8071 62.2476 35.9198C61.8938 36.0498 61.4553 35.961 61.0515 35.961L31.625 35.9696Z" fill="#A7A7A7"/>
<path d="M9.77222 30.2427C10.8576 30.5397 11.1897 29.7658 11.5088 29.0223C12.5247 26.6379 13.5059 24.2384 14.5348 21.8583C14.6976 21.4833 15.0384 21.1864 15.2989 20.8525C15.6115 21.1907 16.0435 21.4746 16.2193 21.8713C17.2613 24.2557 18.199 26.664 19.2844 29.0245C19.5932 29.601 20.0994 30.0472 20.7106 30.2817C21.5181 30.5787 21.9935 30.1647 21.9739 29.1979C21.9327 27.052 22.0022 24.9017 21.9327 22.7557C21.9153 22.2181 21.5463 21.6936 21.2424 20.9241C23.1678 21.0108 25.1497 21.0043 27.1034 21.221C28.5903 21.3858 29.1743 22.4761 29.133 23.9111C29.0918 25.3937 28.306 26.393 26.8798 26.664C26.0983 26.8135 25.2973 26.8482 24.301 26.9588C24.6179 28.2355 23.4978 29.7615 25.6446 30.7348H15.8763L15.8329 30.4898L17.1071 30.0433L16.3409 27.971C12.605 27.5072 12.5247 27.5375 11.8865 30.0823L12.9719 30.5158C11.8713 30.544 10.66 31.6495 9.82214 30.1929L9.77222 30.2427ZM24.4638 21.7499V26.0549C26.1548 26.0549 26.7865 25.2875 26.6823 23.5707C26.5933 22.1011 25.9941 21.6047 24.4638 21.7499ZM16.0283 27.1929L14.4219 23.5469C13.8792 24.9082 13.4451 25.9942 12.9654 27.1929H16.0283Z" fill="#A7A7A7"/>
<path d="M83.3687 6.62452C83.3687 8.57539 83.3188 10.5263 83.3991 12.4598C83.4208 13.0255 83.8072 13.5739 84.0503 14.2069H81.7146C82.8173 13.1556 82.9367 5.81383 81.8492 4.76253C84.2175 3.9605 85.0814 4.29649 86.1407 6.44461C86.9526 8.09418 87.7536 9.74807 88.6588 11.6014C89.4706 9.83695 90.1957 8.30877 90.8795 6.76541C92.0321 4.16426 92.0864 4.13391 95.0039 4.64547C93.823 5.90487 93.8816 13.303 95.3447 14.2004H91.1899C91.4069 13.5501 91.802 12.8608 91.8411 12.1585C91.9479 10.4302 91.8605 8.69539 91.5806 6.98652C90.9902 8.25386 90.4004 9.52048 89.8114 10.7864C89.2225 12.0523 88.6356 13.3391 88.051 14.6469L87.6168 14.6231C86.2956 11.9294 84.9743 9.23579 83.6531 6.54215L83.3687 6.62452Z" fill="#A7A7A7"/>
<path d="M14.6477 14.2651H10.482C10.736 13.5455 11.1463 12.8713 11.1875 12.1755C11.2969 10.4223 11.2051 8.6623 10.914 6.92987L7.39088 14.5664L6.95673 14.6596L3.02336 6.67843L2.68038 6.74129C2.68038 8.90892 2.6413 11.0657 2.72162 13.2247C2.73465 13.5346 3.32291 13.8229 3.77877 14.2413H1.08488C2.26793 12.9277 2.2853 5.65965 0.778809 4.48696C2.09862 4.48696 3.12538 4.39808 4.1174 4.53681C4.46689 4.58666 4.82072 5.15675 5.02477 5.56426C5.98424 7.46527 6.89378 9.3923 7.96178 11.6033C8.81271 9.7543 9.52688 8.1936 10.2476 6.63724C11.3677 4.216 11.3677 4.216 14.2005 4.60184C13.1867 6.1582 13.3192 13.2919 14.6477 14.2651Z" fill="#A7A7A7"/>
<path d="M45.5784 14.2935H40.8592C43.0495 13.0666 41.6298 11.2869 42.2289 9.74143H38.3216C38.6972 11.2588 37.4707 12.9343 39.4873 14.2306H35.072C36.3441 13.1684 36.3506 5.86571 35.072 4.5803C35.441 4.54128 35.7232 4.49143 35.9881 4.48926C37.0734 4.48926 38.1588 4.48926 39.7283 4.48926C37.5271 5.76599 38.6429 7.41339 38.3021 8.91556H42.0922C41.7753 7.50443 42.9279 5.88088 40.8484 4.64099H45.2593C44.0697 5.90256 44.0893 13.2313 45.5784 14.2935Z" fill="#A7A7A7"/>
<path d="M56.8989 4.61493C58.9199 4.18141 60.5414 4.41984 61.6745 6.44658C62.558 8.01594 63.7888 9.39239 65.1868 10.732C65.1868 9.05641 65.2432 7.37866 65.1434 5.70958C65.1217 5.34759 64.5377 5.01811 64.1405 4.59542H66.4502C66.257 5.24571 65.9162 5.896 65.901 6.54629C65.8358 9.13444 65.8749 11.7269 65.8749 14.8483C65.1 14.2609 64.5204 13.9813 64.1731 13.5326C62.3323 11.12 60.5479 8.6619 58.4249 6.28834C58.4249 8.59904 58.3902 10.9097 58.4662 13.2248C58.477 13.5412 59.048 13.8382 59.4495 14.2305H56.9293C58.0711 13.1814 58.0668 5.72693 56.8989 4.61493Z" fill="#A7A7A7"/>
<path d="M23.2177 7.40005C21.9413 5.1197 21.4116 4.8791 19.0217 5.25627C18.9568 5.48083 18.9124 5.71082 18.8892 5.9434C18.8719 6.88632 18.8892 7.82708 18.8892 8.73315C20.4999 9.51783 21.0752 8.44918 21.8263 7.41522V11.4687C21.3357 10.7664 21.1164 10.1898 20.6953 9.9145C20.2742 9.63921 19.6099 9.62187 18.9587 9.4658V13.5258C21.4768 14.1761 21.9977 13.9246 23.7213 11.1804V14.2823H15.7916C16.9942 12.9232 16.9508 5.79167 15.4204 4.48242H23.2351L23.2177 7.40005Z" fill="#A7A7A7"/>
<path d="M80.091 4.77985V7.54575C79.7481 6.88246 79.6048 6.62234 79.4767 6.35572C78.921 5.1852 77.9377 4.77986 76.7459 5.05515C76.2966 5.16136 75.6779 5.64691 75.6215 6.02841C75.6114 6.30487 75.6633 6.5801 75.7733 6.83399C75.8833 7.08788 76.0488 7.31401 76.2575 7.49589C76.874 7.96844 77.6924 8.1787 78.4152 8.52118C80.3928 9.4511 81.0527 10.5956 80.586 12.256C80.1366 13.8557 78.4543 14.8073 76.4963 14.5168C75.5585 14.3781 74.6338 14.1484 73.5767 13.9359V11.2047L73.8306 11.0768C73.9913 11.4215 74.1671 11.7596 74.3082 12.1108C74.7662 13.2531 75.6106 13.9771 76.8349 13.8275C77.4493 13.7538 78.3393 13.2249 78.4782 12.7286C78.628 12.1953 78.2134 11.2502 77.7336 10.8622C77.0216 10.2878 76.0361 10.0515 75.17 9.66136C73.9631 9.11512 73.4508 8.15486 73.6374 6.87595C73.8285 5.55153 74.5991 4.58043 75.9558 4.50457C77.3125 4.4287 78.6931 4.67364 80.091 4.77985Z" fill="#A7A7A7"/>
<path d="M56.2563 14.2458H51.5566L51.498 14.0291L52.6767 13.5717C52.4596 12.6764 52.6919 11.391 51.294 11.3759C47.951 11.3347 48.3548 10.873 47.6037 13.563L48.65 14.0074L48.5979 14.2436H45.6804C47.747 12.8173 47.8946 10.4069 48.9213 8.47775C49.4336 7.51532 49.7332 6.44452 50.1977 5.45391C50.3887 5.04206 50.76 4.71475 51.0487 4.35059C51.3504 4.6909 51.7585 4.9857 51.9343 5.38454C52.8612 7.47631 53.6818 9.61576 54.6391 11.6945C55.0537 12.5963 55.7049 13.3983 56.2563 14.2458ZM51.7151 10.6844C51.1963 9.50087 50.7274 8.42789 50.1218 7.04278C49.5508 8.49076 49.1341 9.55073 48.6891 10.6844H51.7151Z" fill="#A7A7A7"/>
<path d="M53.2519 30.7389H48.6326L48.5913 30.4939L49.8178 30.0604C49.414 29.1153 49.6962 27.7476 48.0964 27.8646C46.883 27.9535 45.2224 27.171 44.8664 29.2085C44.7904 29.6421 45.1182 30.1428 45.2875 30.7064H42.98C43.4727 29.9607 44.1131 29.2085 44.4995 28.348C45.472 26.2215 46.3142 24.0366 47.2585 21.895C47.4343 21.4961 47.8403 21.1991 48.1398 20.8545C48.4285 21.2165 48.8128 21.5373 48.9908 21.9383C49.948 24.1276 50.8163 26.3559 51.8127 28.5322C52.1644 29.3191 52.7592 29.9932 53.2519 30.7389ZM48.765 27.1905L47.1999 23.5597L45.7021 27.1905H48.765Z" fill="#A7A7A7"/>
<path d="M9.8242 30.1928C8.50656 30.4919 7.19544 30.9926 5.86912 31.0446C2.77365 31.1639 0.713612 28.9009 0.856881 25.7838C1.00666 22.5324 3.15569 20.562 6.36187 20.8633C7.44724 20.963 8.49788 21.3445 9.54852 21.5916V23.9998C9.05576 23.3105 8.81047 22.9334 8.52827 22.5822C7.10427 20.8047 4.47768 21.0995 3.91546 23.2758C3.50736 24.8517 3.60287 26.6118 3.7787 28.2614C3.89592 29.3626 4.67955 30.2556 5.99068 30.3792C7.30181 30.5027 8.23088 29.9998 8.86256 28.8792C9.00366 28.6321 9.16647 28.398 9.58759 27.7368C9.67008 28.8683 9.72 29.5598 9.76993 30.2469L9.8242 30.1928Z" fill="#A7A7A7"/>
<path d="M33.6871 5.16071V7.52126C33.2161 6.83846 33.0554 6.36158 32.732 6.186C31.8637 5.71779 30.8825 5.02632 30.0034 5.10218C29.2892 5.15854 28.2125 6.10796 28.0736 6.81027C27.7823 8.45632 27.7362 10.1363 27.9368 11.7958C28.0562 12.9078 28.8724 13.7727 30.1684 13.8876C31.3775 13.9938 32.3217 13.5624 32.9534 12.5068C33.1249 12.2185 33.3138 11.9411 33.724 11.3038V13.6448C30.3051 15.0451 27.646 14.7872 26.0765 12.8688C24.7871 11.2821 24.6699 8.07617 25.8421 6.36591C27.303 4.23513 29.6604 3.86013 33.6871 5.16071Z" fill="#A7A7A7"/>
<path d="M41.7796 30.7388H37.1993C38.5951 30.2272 38.2543 29.0437 38.2586 28.0033C38.2586 25.9137 38.2586 23.8262 38.2586 21.7388C36.4721 21.2403 36.0032 22.4693 35.2695 23.5249V21.0625H43.6377V23.9043C42.8693 22.5213 42.4243 21.2359 40.6226 21.7106C40.6226 24.3118 40.5878 26.9953 40.6682 29.6658C40.6812 29.9975 41.3194 30.3053 41.7796 30.7388Z" fill="#A7A7A7"/>
<path d="M61.2924 28.1659V30.8039H53.8794C55.0993 29.5033 55.0971 22.2049 53.7969 21.1016H57.7693C57.5522 21.9079 57.168 22.6969 57.1355 23.499C57.0465 25.6839 57.1051 27.8732 57.1051 30.0387C59.4256 30.6001 60.1419 30.2446 61.2924 28.1659Z" fill="#A7A7A7"/>
<path d="M72.3023 14.2655H67.9912C69.3175 13.1361 69.3045 5.66213 67.8523 4.64551H72.0483C70.9109 5.9851 70.9347 13.2618 72.3023 14.2655Z" fill="#A7A7A7"/>
<path d="M30.2422 21.082H34.1278C33.0099 22.6557 33.0424 29.6225 34.2776 30.7453H30.3941C31.3341 29.202 31.2907 22.3523 30.2422 21.082Z" fill="#A7A7A7"/>
</g>
<defs>
<clipPath id="clip0_7053_107923">
<rect width="95.087" height="36" fill="white" transform="translate(0.453125)"/>
</clipPath>
</defs>
</svg>
