<svg width="139" height="40" viewBox="0 0 139 40" fill="none" xmlns="http://www.w3.org/2000/svg">
<g opacity="0.9" clip-path="url(#clip0_7053_107922)">
<path d="M14.8015 35.7796C15.3784 37.2993 16.3506 38.5305 17.7847 39.3162C20.5398 40.8265 24.0815 39.7377 25.7142 37.0016C26.5438 35.5923 27.0572 34.0206 27.2188 32.3947C27.5491 29.3776 29.4618 26.9466 32.3282 26.7414C32.5379 26.7266 32.9071 26.453 32.8941 26.3292C32.87 26.0999 32.6603 25.7635 32.46 25.7043C32.0831 25.5779 31.6772 25.5651 31.293 25.6673C28.3097 26.6823 26.46 28.6603 25.9127 31.8401C25.6685 33.221 25.2663 34.5694 24.7142 35.8591C23.9721 37.6043 22.5175 38.6026 20.6029 38.658C18.6419 38.7135 17.3487 37.5303 16.371 35.9756C15.7551 35.0087 15.7829 34.9902 14.8015 35.7796ZM5.29874 27.1075C5.13362 27.6177 4.95365 28.0743 4.83863 28.5476C4.07796 31.6903 6.01673 35.3286 9.51949 35.739C12.0649 36.0366 14.2634 35.2417 16.2245 33.6925C18.0482 32.2523 20.0111 31.3317 22.3691 32.1525C23.191 32.4391 23.9294 32.9604 24.7216 33.3819C25.2337 32.6849 24.9832 32.1858 24.4173 31.7791C22.5027 30.3963 18.922 30.3334 16.935 31.5739C15.4805 32.4816 14.0556 33.5131 12.4824 34.1214C10.6141 34.8405 8.69389 34.663 7.21895 33.0122C5.96849 31.6145 5.8145 30.0043 6.35624 28.2703C6.65865 27.2812 6.62526 27.2443 5.29874 27.1075ZM16.3951 6.70721C15.9944 7.38753 15.9796 7.87189 16.7662 8.30263C19.3636 9.72982 21.8979 9.80931 24.4804 8.27675C25.9776 7.38938 27.4489 6.34857 29.0778 5.8143C32.6028 4.66072 35.28 7.45593 35.0147 10.3085C34.9442 11.0831 34.7215 11.8429 34.5546 12.6803L35.7475 13.0501C36.4154 11.6746 36.4599 10.2937 36.2893 8.92009C35.9906 6.50016 33.8236 4.53131 31.3746 4.29838C28.8218 4.04696 26.6771 4.92878 24.6956 6.45764C21.8274 8.67606 19.9573 8.73892 16.8367 6.87545C16.6955 6.80492 16.5476 6.74856 16.3951 6.70721ZM8.18925 13.466C8.56031 14.4865 8.66606 14.5586 9.53247 14.3903C12.2115 13.8672 14.5417 11.4639 15.0259 8.82396C15.2289 7.55414 15.5348 6.30281 15.9406 5.08222C16.5232 3.45353 17.499 2.03374 19.2986 1.56972C21.6344 0.974441 23.5565 1.91727 24.7012 4.0562C25.2207 5.02861 25.512 5.05264 26.2986 4.15788C26.0704 3.73638 25.8552 3.29454 25.6029 2.87674C24.0129 0.249758 20.5268 -0.820631 17.8701 0.658317C15.6438 1.89878 14.4861 3.96746 14.0593 6.43731C13.7458 8.24347 13.6345 10.0885 12.2523 11.5452C11.1503 12.7228 9.74398 13.1499 8.18925 13.466ZM14.0204 32.2912C15.0705 31.8845 15.2838 31.5887 14.948 30.6588C14.0204 28.1279 12.295 26.1277 9.09648 25.5361C7.59371 25.2588 6.06311 24.8927 4.68093 24.2697C2.22269 23.1605 1.2598 20.5982 2.19486 18.28C2.69578 17.0432 3.7032 16.2963 4.77555 15.6271C5.18556 15.3702 5.51766 15.1723 5.20226 14.6381C4.88686 14.1038 4.49169 14.3404 4.11321 14.5789C3.8275 14.7638 3.53993 14.9376 3.25793 15.1224C-0.370987 17.5109 -0.341302 22.5449 3.25793 24.9352C5.04642 26.1258 7.05568 26.4863 9.09092 26.8061C11.0482 27.113 12.41 28.1575 13.1985 29.9378C13.5139 30.6791 13.7328 31.4685 14.0204 32.2912ZM7.17999 24.1015C8.38777 24.6043 8.5566 24.5396 9.05196 23.5284C9.88869 21.8128 10.3098 20.0288 9.62895 18.1857C9.2412 17.1412 8.61597 16.1854 8.10577 15.1871C7.42674 13.8598 6.56218 12.599 6.12619 11.1884C5.41005 8.8979 6.76811 6.36521 9.04083 5.77918C10.154 5.49448 11.4007 5.818 12.5881 5.80691C12.8794 5.80691 13.3117 5.63683 13.4286 5.41499C13.6697 4.95836 13.3803 4.67551 12.872 4.62005C11.9128 4.50543 10.9258 4.29283 9.95548 4.32056C7.15958 4.40005 4.87388 6.75528 4.73288 9.55049C4.60301 12.1035 5.7069 14.1722 7.22637 16.1004C8.63638 17.8862 9.20038 19.8366 8.29315 22.0162C8.00187 22.7224 7.57701 23.362 7.17999 24.1015ZM33.896 15.8564C33.3208 15.6123 32.6974 15.3017 32.293 16.0116C30.7791 18.683 30.6808 21.6538 32.6195 24.3104C33.9498 26.1332 35.2169 27.9449 35.0685 30.3759C34.9442 32.3392 33.6826 34.0604 31.742 34.3451C30.5008 34.5299 29.2021 34.3284 27.8459 34.297C27.4173 35.0938 27.4748 35.2694 28.4971 35.5171C28.9783 35.6269 29.4669 35.7016 29.9591 35.7408C34.2262 36.1272 37.2577 32.587 36.1464 28.176C35.6844 26.3366 34.5472 24.902 33.5063 23.3879C32.4971 21.9182 31.9256 20.3154 32.6492 18.5333C33.0128 17.6403 33.46 16.7825 33.896 15.8545V15.8564ZM26.9869 7.74432C26.4173 7.95692 25.6882 8.13625 26.0426 9.08832C26.5491 10.449 27.2188 11.7005 28.3079 12.7284C29.896 14.2277 31.9312 14.4717 33.9182 14.8507C35.2561 15.0787 36.5134 15.6431 37.5713 16.4905C39.8347 18.3391 39.8885 21.5928 37.6325 23.4471C37.0277 23.9444 36.3598 24.3714 35.729 24.8151C36.1557 25.8097 36.382 25.8836 37.2132 25.3346C37.4451 25.1811 37.6733 25.024 37.9052 24.8724C41.202 22.7131 41.5638 17.6071 37.9052 15.1502C36.3542 14.1075 34.6603 13.5862 32.831 13.3754C31.0017 13.1647 29.3691 12.5916 28.4062 10.9259C27.8459 9.9572 27.4841 8.87757 26.9869 7.74248V7.74432ZM80.4875 23.2733C81.4151 23.5598 81.7472 23.2345 81.6415 22.3489C81.5813 22.0151 81.5876 21.6728 81.66 21.3414C81.7268 21.1196 81.994 20.8127 82.1925 20.796C82.9494 20.7332 83.7157 20.7702 84.5932 20.7702V22.3194C84.5932 23.46 84.6786 23.5229 85.8028 23.1919V17.1467H84.5543V19.6184H81.6563V17.1246H80.4875V23.2733ZM112.109 17.7845C110.996 16.533 108.543 16.7622 107.673 17.5997C107.136 18.1307 106.771 18.8097 106.624 19.5494C106.478 20.289 106.557 21.0554 106.851 21.75C107.285 22.8185 108.439 23.4267 109.972 23.3971C111.788 23.3602 112.354 22.8019 112.357 21.0475C112.344 20.8937 112.344 20.7391 112.357 20.5853C112.523 19.685 112.113 19.5001 111.255 19.7515C111.255 20.149 111.255 20.5409 111.255 20.9347C111.255 21.8128 110.74 22.3471 109.847 22.3083C108.955 22.2694 108.235 21.8997 107.873 21.0308C107.573 20.3061 107.825 19.0232 108.393 18.5443C109.081 17.9639 109.895 17.779 110.712 18.1949C111.356 18.5296 111.799 18.5554 112.109 17.7882V17.7845ZM74.2834 20.5724C75.1202 20.5724 75.7955 20.6001 76.4671 20.5724C77.6805 20.5113 78.4226 19.6813 78.3947 18.4612C78.3706 17.3723 77.6007 16.6125 76.443 16.57C75.5821 16.5404 74.7176 16.5699 73.8549 16.5496C73.4282 16.5367 73.1295 16.5977 73.1276 17.1172C73.1258 17.6366 73.3131 17.8344 73.8437 17.8123C74.6434 17.7753 75.4467 17.7901 76.2463 17.8123C76.7806 17.8289 77.2797 18.0175 77.2352 18.6442C77.1962 19.1988 76.751 19.3522 76.2222 19.3393C75.2426 19.3189 74.263 19.3393 73.135 19.3393C73.135 20.4355 73.1963 21.4449 73.1183 22.4432C73.0423 23.3824 73.4411 23.5025 74.2834 23.2548V20.5724ZM51.4302 22.1068V23.3361C52.3188 23.3361 53.1556 23.4175 53.9737 23.3213C56.5377 23.02 57.8123 19.9734 56.2483 17.925C54.9849 16.2723 53.2057 16.5015 51.4394 16.6014V17.7938C52.2187 17.7938 52.9237 17.7771 53.6305 17.7938C54.9125 17.8326 55.8179 18.7292 55.8216 19.9346C55.8216 21.1935 54.894 22.0975 53.5674 22.1012C52.8643 22.1086 52.1723 22.1068 51.4302 22.1068ZM95.5672 17.7938H96.7119C97.1145 17.7938 97.5171 17.7716 97.9178 17.7938C98.4713 17.8251 98.9916 18.0672 99.371 18.47C99.7505 18.8728 99.9601 19.4055 99.9565 19.9579C99.9529 20.5103 99.7364 21.0403 99.3518 21.4382C98.9672 21.836 98.4438 22.0714 97.89 22.0957C97.428 22.1179 96.9623 22.0957 96.5004 22.0957C95.4354 22.1068 95.3612 22.2158 95.6859 23.3324C96.4391 23.3324 97.2147 23.3934 97.9772 23.3195C98.5999 23.277 99.1976 23.0587 99.7003 22.69C100.203 22.3214 100.59 21.8177 100.816 21.2379C101.343 19.9438 101.153 18.6497 100.085 17.5867C98.7749 16.2779 97.1887 16.5071 95.5672 16.6162V17.7938ZM131.847 23.1938L128.53 16.5681L125.174 23.2493C126.411 23.4341 126.714 23.2123 127.175 22.1068C127.558 21.1954 127.994 20.3061 128.517 19.1692C129.105 20.4097 129.63 21.4043 130.053 22.4358C130.368 23.1975 130.799 23.5839 131.847 23.1938ZM120.159 20.5945H120.148C120.148 21.2693 120.166 21.9478 120.148 22.6281C120.129 23.1124 120.252 23.3787 120.81 23.3676C121.368 23.3565 121.467 23.0662 121.458 22.5967C121.439 21.6446 121.435 20.6907 121.458 19.7386C121.471 19.1341 121.374 18.4445 121.643 17.9602C121.782 17.7106 122.615 17.8881 123.109 17.7753C123.23 17.726 123.337 17.6472 123.421 17.5462C123.504 17.4452 123.561 17.325 123.586 17.1967C123.586 16.9896 123.305 16.6014 123.14 16.5977C121.568 16.5484 119.996 16.5484 118.422 16.5977C118.259 16.5977 117.979 16.9878 117.983 17.193C117.986 17.3982 118.237 17.6755 118.45 17.7882C118.663 17.901 118.936 17.8474 119.177 17.816C119.92 17.7161 120.263 17.9749 120.183 18.7736C120.107 19.3596 120.155 19.9789 120.155 20.589L120.159 20.5945ZM133.96 23.3676C135.359 23.3676 136.65 23.3953 137.94 23.3398C138.148 23.3398 138.496 22.9701 138.496 22.7538C138.496 22.5375 138.162 22.2084 137.94 22.177C137.358 22.0994 136.769 22.0938 136.187 22.1604C135.383 22.2473 135.094 21.9866 135.131 21.151C135.196 19.6536 135.149 18.1524 135.149 16.6346H133.962L133.96 23.3676ZM67.6508 16.5681C67.1147 16.5977 66.5544 16.3093 66.5599 17.1726C66.5729 19.049 66.5507 20.9273 66.5803 22.8037C66.5803 22.9886 66.8475 23.338 66.9978 23.3417C68.3169 23.3861 69.6378 23.3676 70.9773 23.3676V22.0994H67.6508V16.5681ZM88.2796 16.6069C88.2796 18.6183 88.3167 20.5779 88.2648 22.5338C88.2407 23.4766 88.6785 23.4434 89.3446 23.2529V16.5977L88.2796 16.6069ZM104.582 16.6328C103.729 16.4073 103.411 16.6328 103.437 17.4592C103.487 19.1137 103.452 20.772 103.437 22.4284C103.437 23.4193 103.562 23.5081 104.573 23.179L104.582 16.6328ZM114.699 16.6328V23.2548C115.502 23.4877 115.838 23.301 115.812 22.4506C115.758 20.7868 115.749 19.123 115.812 17.4592C115.843 16.6365 115.565 16.3962 114.695 16.6402L114.699 16.6328ZM61.623 17.7864V17.816C62.1462 17.816 62.6824 17.8825 63.187 17.7882C63.3341 17.7415 63.4686 17.6622 63.5804 17.5562C63.6923 17.4502 63.7785 17.3203 63.8327 17.1763C63.9663 16.7215 63.6601 16.5441 63.1963 16.5515C62.1203 16.5699 61.0405 16.5237 59.9663 16.5773C59.7492 16.5884 59.547 16.9249 59.3392 17.1098C59.547 17.339 59.7251 17.7198 59.9681 17.7642C60.5025 17.8622 61.0776 17.7938 61.623 17.7938V17.7864ZM61.623 22.0957V22.0809C61.0665 22.0809 60.5099 22.0254 59.9533 22.1068C59.8166 22.146 59.691 22.2166 59.5866 22.3129C59.4823 22.4092 59.402 22.5286 59.3522 22.6614C59.2464 23.0533 59.4134 23.362 59.9385 23.3491C61.0182 23.3232 62.1017 23.3787 63.1759 23.3066C63.4078 23.2918 63.6119 22.8777 63.829 22.6466C63.6156 22.4617 63.4208 22.1567 63.1833 22.1197C62.6898 22.0476 62.1555 22.1031 61.6342 22.1031L61.623 22.0957ZM63.1926 19.3226C62.111 19.3226 61.0646 19.3393 60.0201 19.3226C59.5655 19.3115 59.3225 19.4317 59.3355 19.9346C59.3466 20.3856 59.4969 20.6038 59.9904 20.5871C60.79 20.5594 61.5915 20.5871 62.393 20.5871C63.419 20.576 63.4728 20.5021 63.2 19.3245L63.1926 19.3226Z" fill="#A7A7A7"/>
<path d="M14.8015 35.7792C15.783 34.9898 15.7551 35.0065 16.3655 35.9752C17.3432 37.5299 18.6364 38.7131 20.5974 38.6576C22.512 38.6022 23.9629 37.6039 24.7087 35.8587C25.2602 34.5689 25.6617 33.2205 25.9053 31.8397C26.4619 28.6599 28.3172 26.6818 31.2856 25.6669C31.6698 25.5646 32.0757 25.5775 32.4526 25.7039C32.653 25.763 32.8626 26.0995 32.8868 26.3287C32.8997 26.4526 32.5305 26.7262 32.3209 26.741C29.4545 26.9462 27.5417 29.3772 27.2115 32.3943C27.0498 34.0202 26.5365 35.5919 25.7068 37.0012C24.0742 39.7373 20.5325 40.8261 17.7774 39.3157C16.3507 38.5301 15.3785 37.2988 14.8015 35.7792Z" fill="#A7A7A7"/>
<path d="M5.29875 27.1074C6.62528 27.2479 6.65867 27.2812 6.34884 28.2721C5.8071 30.0062 5.96109 31.6164 7.21154 33.014C8.69576 34.663 10.6067 34.8405 12.475 34.1232C14.0557 33.515 15.4805 32.4834 16.9276 31.5757C18.9146 30.3352 22.4935 30.3981 24.41 31.7809C24.9665 32.1876 25.2263 32.6868 24.7142 33.3837C23.922 32.9622 23.1836 32.4409 22.3617 32.1543C20.0037 31.3335 18.0408 32.2542 16.2171 33.6943C14.2634 35.2416 12.0649 36.0366 9.51951 35.7482C6.01675 35.3378 4.07798 31.694 4.83865 28.5568C4.95367 28.0743 5.13363 27.614 5.29875 27.1074Z" fill="#A7A7A7"/>
<path d="M16.3953 6.70745C16.5479 6.74452 16.6964 6.79654 16.8387 6.86274C19.9593 8.72621 21.8294 8.65781 24.6976 6.44494C26.6791 4.91607 28.8238 4.04165 31.3766 4.28567C33.8256 4.526 35.9926 6.49485 36.2913 8.90738C36.4619 10.281 36.4174 11.6619 35.7495 13.0373L34.5566 12.6676C34.7236 11.8302 34.9462 11.0703 35.0167 10.2957C35.2783 7.44323 32.5956 4.64802 29.0798 5.8016C27.4527 6.33587 25.9796 7.37667 24.4824 8.26404C21.8999 9.7966 19.3582 9.71711 16.7682 8.28993C15.9797 7.87212 15.9945 7.38777 16.3953 6.70745Z" fill="#A7A7A7"/>
<path d="M8.18933 13.4657C9.74405 13.1496 11.1578 12.7263 12.2524 11.5597C13.6346 10.103 13.7366 8.258 14.0594 6.45183C14.4861 3.98199 15.6475 1.91331 17.8702 0.672842C20.5269 -0.806106 24.013 0.255036 25.6029 2.89126C25.8553 3.30906 26.0705 3.7509 26.2987 4.1724C25.512 5.06717 25.2208 5.04313 24.7013 4.07072C23.5566 1.93179 21.6345 0.988966 19.2987 1.58424C17.4991 2.04087 16.5158 3.46066 15.9407 5.09675C15.5349 6.31734 15.229 7.56867 15.026 8.83848C14.5436 11.4784 12.2116 13.8817 9.53255 14.4049C8.66614 14.5583 8.55297 14.4881 8.18933 13.4657Z" fill="#A7A7A7"/>
<path d="M14.0204 32.2907C13.7328 31.4681 13.5139 30.6787 13.1855 29.9374C12.397 28.1571 11.0353 27.1126 9.07796 26.8057C7.03715 26.4859 5.03346 26.1254 3.24497 24.9348C-0.3487 22.5445 -0.378385 17.5105 3.24497 15.122C3.52697 14.9371 3.81454 14.7523 4.10025 14.5785C4.47131 14.34 4.85535 14.0793 5.1893 14.6376C5.52325 15.1959 5.1726 15.3771 4.76259 15.6267C3.69024 16.2959 2.68282 17.0428 2.1819 18.2796C1.25426 20.5978 2.20973 23.1656 4.66797 24.2693C6.05015 24.8923 7.58075 25.2583 9.08352 25.5356C12.282 26.1272 14.0019 28.1238 14.9351 30.6583C15.2839 31.5882 15.0668 31.884 14.0204 32.2907Z" fill="#A7A7A7"/>
<path d="M7.18014 24.1013C7.57717 23.3618 8.00203 22.724 8.29331 22.0252C9.20054 19.8382 8.63653 17.8879 7.22652 16.1094C5.70705 14.1868 4.60316 12.1126 4.73303 9.55955C4.87403 6.76434 7.15973 4.40911 9.95563 4.32962C10.9259 4.30189 11.9037 4.51449 12.8795 4.62726C13.3805 4.68087 13.6699 4.96557 13.4361 5.42219C13.3192 5.64403 12.8795 5.81041 12.5957 5.81411C11.4083 5.8252 10.1523 5.50169 9.0484 5.78638C6.76827 6.36317 5.41948 8.89588 6.12634 11.1864C6.56233 12.5895 7.42504 13.8577 8.10592 15.1851C8.61612 16.1834 9.24135 17.1392 9.62911 18.1837C10.31 20.0324 9.88884 21.8108 9.05211 23.5264C8.55676 24.5376 8.38793 24.6023 7.18014 24.1013Z" fill="#A7A7A7"/>
<path d="M33.896 15.8542C33.46 16.7785 33.0129 17.64 32.6493 18.5311C31.9257 20.3132 32.4971 21.916 33.5064 23.3857C34.5472 24.8998 35.6845 26.3344 36.1465 28.1738C37.2596 32.5848 34.2226 36.1232 29.9591 35.7386C29.467 35.6995 28.9784 35.6247 28.4972 35.5149C27.4786 35.2672 27.4174 35.0916 27.846 34.2948C29.2022 34.3262 30.5009 34.5259 31.742 34.3429C33.6827 34.0582 34.9443 32.3371 35.0686 30.3738C35.2207 27.9427 33.9554 26.131 32.6196 24.3082C30.6808 21.6517 30.7792 18.6808 32.2931 16.0095C32.6919 15.2959 33.3209 15.6101 33.896 15.8542Z" fill="#A7A7A7"/>
<path d="M26.987 7.74219C27.4842 8.87728 27.846 9.96061 28.4044 10.9238C29.3673 12.5876 31.0222 13.1662 32.8292 13.3733C34.6363 13.5803 36.3543 14.1128 37.9034 15.148C41.562 17.6049 41.2003 22.711 37.9034 24.8703C37.6715 25.0218 37.4433 25.179 37.2114 25.3324C36.3821 25.887 36.1558 25.8075 35.7272 24.8129C36.358 24.3637 37.0259 23.9422 37.6307 23.4449C39.8867 21.5962 39.8329 18.3315 37.5695 16.4883C36.5112 15.6446 35.2546 15.0834 33.9183 14.8578C31.9313 14.4788 29.8961 14.2348 28.3079 12.7355C27.2189 11.7076 26.5491 10.4561 26.0426 9.09542C25.6883 8.1341 26.4174 7.95479 26.987 7.74219Z" fill="#A7A7A7"/>
<path d="M80.4875 23.2764V17.124H81.6564V19.6179H84.5543V17.1462H85.8029V23.1988C84.6786 23.5297 84.5896 23.4669 84.5933 22.3262V20.7733C83.7157 20.7733 82.9495 20.7364 82.1925 20.7992C81.994 20.8158 81.7269 21.1227 81.6601 21.3446C81.5877 21.676 81.5814 22.0183 81.6415 22.3521C81.7473 23.2376 81.4096 23.563 80.4875 23.2764Z" fill="#A7A7A7"/>
<path d="M112.109 17.7881C111.799 18.559 111.356 18.5276 110.719 18.2059C109.903 17.7899 109.088 17.9748 108.4 18.5553C107.832 19.0341 107.58 20.3171 107.881 21.0418C108.252 21.9107 108.972 22.2785 109.855 22.3192C110.738 22.3599 111.255 21.8238 111.263 20.9456C111.263 20.5519 111.263 20.16 111.263 19.7625C112.12 19.5111 112.53 19.6959 112.365 20.5962C112.352 20.75 112.352 20.9046 112.365 21.0584C112.365 22.8128 111.795 23.3711 109.979 23.4081C108.447 23.4377 107.293 22.8295 106.858 21.7609C106.564 21.0664 106.485 20.3 106.632 19.5604C106.778 18.8207 107.143 18.1417 107.68 17.6106C108.543 16.7658 110.985 16.5365 112.109 17.7881Z" fill="#A7A7A7"/>
<path d="M74.2835 20.5723V23.2455C73.4412 23.4932 73.0423 23.373 73.1184 22.4339C73.1963 21.4356 73.1351 20.4262 73.1351 19.33C74.2631 19.33 75.2427 19.3152 76.2223 19.33C76.751 19.3429 77.1963 19.1913 77.2353 18.6348C77.2798 18.0081 76.7807 17.8196 76.2464 17.8029C75.4468 17.7789 74.6434 17.7641 73.8438 17.8029C73.3095 17.8251 73.1258 17.6051 73.1277 17.1078C73.1295 16.6105 73.4282 16.5273 73.8549 16.5403C74.7177 16.5643 75.5822 16.531 76.4431 16.5606C77.6007 16.5976 78.3707 17.3629 78.3948 18.4518C78.4226 19.672 77.6805 20.502 76.4672 20.563C75.7956 20.6 75.1202 20.5723 74.2835 20.5723Z" fill="#A7A7A7"/>
<path d="M51.4303 22.1065C52.1631 22.1065 52.8644 22.1065 53.5676 22.1065C54.8885 22.1065 55.8273 21.1988 55.8217 19.9398C55.8217 18.7345 54.9126 17.8379 53.6307 17.799C52.9256 17.7787 52.2188 17.799 51.4396 17.799V16.6066C53.2058 16.5068 54.985 16.2776 56.2484 17.9303C57.8124 19.9786 56.5379 23.0253 53.9739 23.3266C53.1557 23.4227 52.319 23.3414 51.4303 23.3414V22.1065Z" fill="#A7A7A7"/>
<path d="M95.5672 17.7931V16.6229C97.1887 16.5138 98.775 16.2846 100.085 17.5935C101.153 18.6639 101.343 19.9524 100.816 21.2446C100.59 21.8244 100.203 22.3281 99.7003 22.6968C99.1976 23.0654 98.5999 23.2838 97.9772 23.3262C97.2147 23.4002 96.4392 23.3392 95.686 23.3392C95.3613 22.23 95.4355 22.1135 96.5004 22.1024C96.9643 22.1024 97.4281 22.1227 97.89 22.1024C98.4439 22.0782 98.9673 21.8428 99.3519 21.4449C99.7365 21.047 99.953 20.5171 99.9565 19.9647C99.9601 19.4122 99.7505 18.8795 99.3711 18.4768C98.9916 18.074 98.4714 17.8319 97.9179 17.8005C97.5171 17.7728 97.1145 17.8005 96.7119 17.8005L95.5672 17.7931Z" fill="#A7A7A7"/>
<path d="M131.847 23.194C130.799 23.5841 130.363 23.194 130.053 22.4361C129.623 21.4045 129.105 20.4025 128.517 19.1695C127.994 20.3064 127.558 21.203 127.176 22.107C126.714 23.2162 126.411 23.4288 125.174 23.2495L128.53 16.5684L131.847 23.194Z" fill="#A7A7A7"/>
<path d="M120.155 20.5892C120.155 19.9736 120.107 19.3542 120.168 18.7405C120.248 17.9418 119.91 17.683 119.163 17.7829C118.922 17.8143 118.628 17.8587 118.435 17.7551C118.243 17.6516 117.972 17.3669 117.968 17.1599C117.964 16.9528 118.244 16.5683 118.408 16.5646C119.98 16.5214 121.552 16.5214 123.126 16.5646C123.291 16.5646 123.575 16.9565 123.571 17.1636C123.546 17.2919 123.489 17.4121 123.406 17.5131C123.323 17.6141 123.216 17.6929 123.094 17.7422C122.601 17.8624 121.768 17.6849 121.628 17.9271C121.361 18.4077 121.458 19.101 121.443 19.7055C121.424 20.6576 121.428 21.6115 121.443 22.5636C121.452 23.0331 121.354 23.3234 120.795 23.3345C120.237 23.3456 120.114 23.0793 120.133 22.595C120.157 21.9202 120.133 21.2418 120.133 20.5614L120.155 20.5892Z" fill="#A7A7A7"/>
<path d="M133.957 23.3621V16.6348H135.144C135.144 18.1525 135.19 19.6537 135.125 21.1511C135.088 21.9867 135.378 22.2474 136.181 22.1605C136.764 22.0939 137.353 22.0995 137.934 22.1771C138.157 22.2086 138.491 22.5561 138.491 22.7539C138.491 22.9517 138.144 23.3326 137.934 23.34C136.647 23.3954 135.356 23.3621 133.957 23.3621Z" fill="#A7A7A7"/>
<path d="M67.651 16.5676V22.0989H70.9775V23.3616C69.638 23.3616 68.317 23.38 66.9979 23.3357C66.8477 23.3357 66.5842 22.9881 66.5805 22.7977C66.5508 20.9213 66.5805 19.043 66.5601 17.1666C66.5545 16.3088 67.1148 16.5972 67.651 16.5676Z" fill="#A7A7A7"/>
<path d="M88.2797 16.6064H89.3446V23.2617C88.6786 23.4466 88.2407 23.4854 88.2649 22.5426C88.3168 20.5774 88.2797 18.6178 88.2797 16.6064Z" fill="#A7A7A7"/>
<path d="M104.582 16.6327V23.177C103.571 23.5061 103.443 23.4174 103.447 22.4265C103.447 20.7627 103.487 19.1118 103.447 17.4572C103.411 16.629 103.729 16.4072 104.582 16.6327Z" fill="#A7A7A7"/>
<path d="M114.695 16.6398C115.562 16.3958 115.84 16.6398 115.808 17.4699C115.745 19.1337 115.755 20.7975 115.808 22.4613C115.834 23.3117 115.499 23.4985 114.695 23.2655V16.6398Z" fill="#A7A7A7"/>
<path d="M61.6232 17.794C61.0666 17.794 60.51 17.8624 59.9683 17.7625C59.7252 17.7182 59.5471 17.3373 59.3394 17.1081C59.5471 16.9232 59.7494 16.5868 59.9664 16.5757C61.0406 16.5221 62.1204 16.5757 63.1965 16.5498C63.6603 16.5498 63.9664 16.7199 63.8328 17.1747C63.7787 17.3187 63.6924 17.4486 63.5806 17.5546C63.4688 17.6605 63.3342 17.7399 63.1872 17.7866C62.6826 17.8809 62.1464 17.8143 61.6232 17.8143V17.794Z" fill="#A7A7A7"/>
<path d="M61.6343 22.1027C62.1593 22.1027 62.6936 22.0472 63.2038 22.1286C63.4413 22.1655 63.6361 22.4724 63.8495 22.6554C63.6324 22.8865 63.4283 23.3006 63.1964 23.3154C62.1222 23.3875 61.0387 23.3321 59.959 23.3579C59.4339 23.3709 59.2669 23.0622 59.3727 22.6702C59.4225 22.5374 59.5028 22.4181 59.6071 22.3218C59.7115 22.2255 59.8371 22.1549 59.9738 22.1156C60.5155 22.0343 61.087 22.0897 61.6435 22.0897L61.6343 22.1027Z" fill="#A7A7A7"/>
<path d="M63.2002 19.3242C63.4729 20.5018 63.4191 20.5757 62.4005 20.5757C61.599 20.5757 60.7976 20.5554 59.9979 20.5757C59.5044 20.5924 59.3542 20.3742 59.343 19.9231C59.33 19.4203 59.5731 19.3001 60.0276 19.3112C61.0777 19.3408 62.1185 19.3242 63.2002 19.3242Z" fill="#A7A7A7"/>
</g>
<defs>
<clipPath id="clip0_7053_107922">
<rect width="137.953" height="40" fill="white" transform="translate(0.540039)"/>
</clipPath>
</defs>
</svg>
