<svg width="130" height="146" viewBox="0 0 130 146" fill="none" xmlns="http://www.w3.org/2000/svg">
<path d="M79.9502 77.5883C87.0137 61.4493 80.4467 42.9946 65.2822 36.3687C50.1178 29.7427 32.0984 37.4546 25.0348 53.5936C17.9713 69.7326 24.5383 88.1873 39.7028 94.8133C54.8672 101.439 72.8866 93.7274 79.9502 77.5883Z" fill="#FF5628"/>
<path d="M64.8543 92.7515C69.3722 90.307 73.063 86.5787 75.46 82.0382C77.857 77.4976 78.8525 72.3488 78.3204 67.2429C77.7884 62.137 75.7528 57.3035 72.4712 53.3537C69.1895 49.4038 64.8092 46.5151 59.8842 45.053C54.9593 43.5908 49.7109 43.6209 44.8031 45.1394C39.8952 46.6579 35.5483 49.5965 32.3122 53.5837C29.0761 57.5709 27.0961 62.4274 26.6227 67.5391C26.1493 72.6507 27.2038 77.7878 29.6527 82.3006C32.9344 88.3499 38.4864 92.8492 45.0877 94.809C51.689 96.7688 58.799 96.0287 64.8543 92.7515ZM46.8829 55.594C43.7327 56.3415 42.1473 54.1779 45.119 51.4006C47.1025 49.5457 50.8224 48.3525 54.6418 48.6576C58.5774 49.0231 62.2297 50.86 64.868 53.8008C65.4665 54.4066 65.9337 55.1291 66.2406 55.9232C66.4391 56.5016 66.484 57.1216 66.3709 57.7226C66.2578 58.3236 65.9907 58.885 65.5955 59.3519C65.1844 59.7935 64.6639 60.1188 64.0868 60.2952C63.5096 60.4716 62.896 60.4928 62.308 60.3565C61.028 60.0582 60.3623 58.5736 58.341 57.1198C55.5271 55.0934 50.3797 54.7677 46.8829 55.594ZM33.63 83.487C31.964 80.4565 31.236 77.0001 31.5384 73.5558C31.8408 70.1115 33.1599 66.8344 35.3284 64.14C37.497 61.4457 40.4174 59.4553 43.7194 58.4212C47.0214 57.3872 50.5564 57.356 53.8762 58.3316C57.196 59.3073 60.1511 61.2458 62.3669 63.9015C64.5827 66.5572 65.9595 69.8105 66.3227 73.2489C66.6859 76.6874 66.0191 80.1561 64.4069 83.2155C62.7948 86.2748 60.3098 88.787 57.267 90.4336C55.2585 91.5286 53.0538 92.2176 50.7789 92.4611C48.5039 92.7046 46.2032 92.4979 44.0082 91.8528C41.8132 91.2077 39.7669 90.1368 37.9862 88.7014C36.2055 87.266 34.7252 85.4941 33.63 83.487Z" fill="#0E0D0D"/>
<path d="M39.7897 54.7436C43.131 54.7436 45.8396 52.0372 45.8396 48.6987C45.8396 45.3602 43.131 42.6538 39.7897 42.6538C36.4484 42.6538 33.7397 45.3602 33.7397 48.6987C33.7397 52.0372 36.4484 54.7436 39.7897 54.7436Z" fill="white"/>
<path d="M48.0256 54.2875C49.6812 50.9417 49.9835 47.0873 48.8697 43.5246C48.4511 42.2045 47.8403 40.8776 47.9672 39.4992C49.8443 38.9301 51.8896 40.161 52.9019 41.8445C53.9142 43.528 54.127 45.5476 54.3157 47.502C54.5045 49.4564 54.7275 51.4759 55.733 53.156C58.0631 50.2793 56.8208 46.0379 57.4488 42.3897C57.5964 41.5119 57.9944 40.5176 58.8557 40.2913C59.7171 40.065 60.6368 40.8227 60.8838 41.7039C61.1309 42.5851 60.9113 43.5177 60.6917 44.4024C61.9682 44.2309 62.7987 42.9897 63.9311 42.376C65.7224 41.4091 68.0491 42.2148 69.456 43.6926C70.863 45.1704 71.5356 47.1694 72.1807 49.0998" stroke="white" stroke-miterlimit="10"/>
<path d="M35.3111 109.528C50.4407 109.528 62.7057 107.423 62.7057 104.827C62.7057 102.231 50.4407 100.126 35.3111 100.126C20.1815 100.126 7.9165 102.231 7.9165 104.827C7.9165 107.423 20.1815 109.528 35.3111 109.528Z" fill="#FF5628"/>
<path d="M23.4755 48.8633C23.4755 48.8633 -1.99392 52.148 42.5073 71.2531C93.5629 93.1697 111.912 77.5517 83.3436 66.5934C83.3436 66.5934 107.413 80.9736 69.6171 74.6921C33.3895 68.6712 6.23167 54.9493 23.4755 48.8633Z" fill="white"/>
<path d="M79.0646 127.612C93.7981 127.612 105.742 115.678 105.742 100.956C105.742 86.2352 93.7981 74.3013 79.0646 74.3013C64.3311 74.3013 52.3872 86.2352 52.3872 100.956C52.3872 115.678 64.3311 127.612 79.0646 127.612Z" fill="#0091FF"/>
<path d="M63.0458 119.026C72.0916 127.33 85.9656 126.706 94.0334 117.631C102.101 108.555 101.305 94.4624 92.2592 86.1545C83.2135 77.8466 69.3429 78.4707 61.2751 87.55C53.2074 96.6294 54.0173 110.718 63.0458 119.026ZM87.4515 94.0235C85.9553 91.6817 87.2216 89.7856 90.2826 91.4142C92.3416 92.5011 94.3422 95.1859 95.1932 98.3643C96.0331 101.639 95.6208 105.108 94.0368 108.095C93.7244 108.743 93.283 109.321 92.7397 109.792C92.3361 110.114 91.855 110.323 91.3448 110.399C90.8345 110.476 90.3131 110.417 89.8331 110.228C89.3608 110.016 88.952 109.685 88.6469 109.267C88.3418 108.849 88.151 108.359 88.0932 107.845C87.9628 106.724 88.9511 105.77 89.5311 103.73C90.3272 100.888 89.1124 96.6225 87.4515 94.0235ZM61.4639 91.1159C66.8584 85.047 76.1649 84.6561 82.2492 90.245C88.3335 95.8339 88.8962 105.284 83.5017 111.352C78.1072 117.421 68.8007 117.812 62.7164 112.223C56.6321 106.634 56.0762 97.1848 61.4639 91.1159Z" fill="#0E0D0D"/>
<path d="M63.8624 94.9837C67.1923 94.9837 69.8917 92.2865 69.8917 88.9594C69.8917 85.6322 67.1923 82.9351 63.8624 82.9351C60.5324 82.9351 57.833 85.6322 57.833 88.9594C57.833 92.2865 60.5324 94.9837 63.8624 94.9837Z" fill="white"/>
<path d="M69.3945 95.1413C71.5702 93.612 72.2634 90.6461 72.0197 87.9957C71.7761 85.3453 70.7843 82.832 70.3039 80.2159C71.2991 79.7187 72.5448 80.2604 73.2757 81.097C74.0066 81.9337 74.391 83.0103 74.9229 83.9875C75.4548 84.9647 76.244 85.9179 77.325 86.1408C77.7702 84.1342 77.6863 82.0465 77.0814 80.0821C77.4245 79.5164 78.2378 80.0821 78.828 80.3907C79.6997 80.8262 80.7395 80.4799 81.7141 80.4456C82.4633 80.4275 83.2051 80.5984 83.8708 80.9423C84.5365 81.2863 85.1048 81.7923 85.5231 82.4137" stroke="white" stroke-miterlimit="10"/>
<path d="M94.5001 146C109.63 146 121.895 143.895 121.895 141.299C121.895 138.703 109.63 136.598 94.5001 136.598C79.3705 136.598 67.1055 138.703 67.1055 141.299C67.1055 143.895 79.3705 146 94.5001 146Z" fill="#0091FF"/>
<path d="M48.3068 100.62C48.3068 100.62 28.7946 114.905 74.1949 110.437C126.28 105.311 134.307 84.0903 105.766 88.0403C105.766 88.0403 132.165 88.9626 98.127 100.96C65.4923 112.453 36.8589 113.478 48.3068 100.62Z" fill="white"/>
</svg>
