<svg width="130" height="146" viewBox="0 0 130 146" fill="none" xmlns="http://www.w3.org/2000/svg">
<g clip-path="url(#clip0_832_12160)">
<path d="M79.9501 77.5883C87.0137 61.4493 80.4466 42.9946 65.2822 36.3687C50.1177 29.7427 32.0983 37.4546 25.0348 53.5936C17.9712 69.7326 24.5383 88.1873 39.7027 94.8133C54.8672 101.439 72.8865 93.7274 79.9501 77.5883Z" fill="#FF5628"/>
<path d="M64.8543 92.7515C69.3722 90.307 73.0631 86.5787 75.4601 82.0382C77.8571 77.4976 78.8525 72.3488 78.3205 67.2429C77.7885 62.137 75.7529 57.3035 72.4712 53.3537C69.1895 49.4038 64.8092 46.5151 59.8843 45.053C54.9593 43.5908 49.711 43.6209 44.8032 45.1394C39.8953 46.6579 35.5484 49.5965 32.3123 53.5837C29.0762 57.5709 27.0962 62.4274 26.6228 67.5391C26.1494 72.6507 27.2038 77.7878 29.6528 82.3006C32.9345 88.3499 38.4865 92.8492 45.0877 94.809C51.689 96.7688 58.7991 96.0287 64.8543 92.7515ZM46.8829 55.594C43.7327 56.3415 42.1473 54.1779 45.1191 51.4006C47.1026 49.5457 50.8224 48.3525 54.6418 48.6576C58.5774 49.0231 62.2298 50.86 64.8681 53.8008C65.4665 54.4066 65.9338 55.1291 66.2407 55.9232C66.4392 56.5016 66.484 57.1216 66.371 57.7226C66.2579 58.3236 65.9907 58.885 65.5956 59.3519C65.1844 59.7935 64.664 60.1188 64.0868 60.2952C63.5096 60.4716 62.8961 60.4928 62.3081 60.3565C61.0281 60.0582 60.3623 58.5736 58.3411 57.1198C55.5272 55.0934 50.3798 54.7677 46.8829 55.594ZM33.63 83.487C31.9641 80.4565 31.2361 77.0001 31.5385 73.5558C31.8409 70.1115 33.1599 66.8344 35.3285 64.14C37.497 61.4457 40.4174 59.4553 43.7195 58.4212C47.0215 57.3872 50.5565 57.356 53.8762 58.3316C57.196 59.3073 60.1511 61.2458 62.367 63.9015C64.5828 66.5572 65.9596 69.8105 66.3227 73.2489C66.6859 76.6874 66.0192 80.1561 64.407 83.2155C62.7948 86.2748 60.3098 88.787 57.267 90.4336C55.2586 91.5286 53.0539 92.2176 50.7789 92.4611C48.504 92.7046 46.2033 92.4979 44.0083 91.8528C41.8133 91.2077 39.767 90.1368 37.9862 88.7014C36.2055 87.266 34.7253 85.4941 33.63 83.487Z" fill="#0E0D0D"/>
<path d="M39.7895 54.7436C43.1308 54.7436 45.8395 52.0372 45.8395 48.6987C45.8395 45.3602 43.1308 42.6538 39.7895 42.6538C36.4482 42.6538 33.7396 45.3602 33.7396 48.6987C33.7396 52.0372 36.4482 54.7436 39.7895 54.7436Z" fill="white"/>
<path d="M48.0256 54.2875C49.6812 50.9417 49.9835 47.0873 48.8697 43.5246C48.4511 42.2045 47.8403 40.8776 47.9672 39.4992C49.8443 38.9301 51.8896 40.161 52.9019 41.8445C53.9142 43.528 54.127 45.5476 54.3157 47.502C54.5045 49.4564 54.7275 51.4759 55.733 53.156C58.0631 50.2793 56.8208 46.0379 57.4488 42.3897C57.5964 41.5119 57.9944 40.5176 58.8557 40.2913C59.7171 40.065 60.6368 40.8227 60.8838 41.7039C61.1309 42.5851 60.9113 43.5177 60.6917 44.4024C61.9682 44.2309 62.7987 42.9897 63.9311 42.376C65.7224 41.4091 68.0491 42.2148 69.456 43.6926C70.863 45.1704 71.5356 47.1694 72.1807 49.0998" stroke="white" stroke-miterlimit="10"/>
<path d="M35.3112 109.528C50.4409 109.528 62.7058 107.423 62.7058 104.827C62.7058 102.231 50.4409 100.126 35.3112 100.126C20.1816 100.126 7.91663 102.231 7.91663 104.827C7.91663 107.423 20.1816 109.528 35.3112 109.528Z" fill="#FF5628"/>
<path d="M23.4757 48.8633C23.4757 48.8633 -1.9938 52.148 42.5074 71.2531C93.563 93.1697 111.912 77.5517 83.3437 66.5934C83.3437 66.5934 107.413 80.9736 69.6172 74.6921C33.3896 68.6712 6.23179 54.9493 23.4757 48.8633Z" fill="white"/>
<path d="M92.3346 6.67919C89.0196 18.8684 86.7239 26.0688 91.5693 32.5217C94.6921 36.6774 102.334 39.0021 119.101 41.9303C105.21 40.8776 96.5795 40.9771 92.1115 46.5077C87.9936 51.6028 90.533 58.6832 92.6915 64.8618L107.969 108.575L87.2626 63.0686C86.1954 60.7233 84.8605 58.1311 82.3932 57.3837C78.9924 56.355 75.7118 59.5061 74.2911 62.76C72.8704 66.0139 71.8615 71.4107 68.6358 78.81C70.0085 69.9398 73.0317 57.5517 70.8629 50.485C68.7834 43.6995 66.2577 38.6489 61.2544 33.6258C50.1291 22.5029 36.3477 11.1229 25.2361 0.0102539C53.8902 22.4961 64.6792 30.6805 68.1931 28.5615C71.9679 26.278 67.0367 10.4714 66.3332 5.44141C68.248 14.1162 74.5142 26.9329 79.3528 27.0426C83.8722 27.0974 87.9078 16.722 92.3346 6.67919Z" fill="white"/>
<path d="M79.0644 127.612C93.7979 127.612 105.742 115.678 105.742 100.956C105.742 86.2352 93.7979 74.3013 79.0644 74.3013C64.3308 74.3013 52.387 86.2352 52.387 100.956C52.387 115.678 64.3308 127.612 79.0644 127.612Z" fill="#0091FF"/>
<path d="M63.0456 119.026C72.0914 127.33 85.9654 126.706 94.0331 117.631C102.101 108.555 101.305 94.4624 92.259 86.1545C83.2132 77.8466 69.3426 78.4707 61.2749 87.55C53.2072 96.6294 54.017 110.718 63.0456 119.026ZM87.4513 94.0235C85.9551 91.6817 87.2214 89.7856 90.2824 91.4142C92.3413 92.5011 94.342 95.1859 95.193 98.3643C96.0329 101.639 95.6206 105.108 94.0366 108.095C93.7241 108.743 93.2828 109.321 92.7394 109.792C92.3359 110.114 91.8548 110.323 91.3445 110.399C90.8343 110.476 90.3129 110.417 89.8328 110.228C89.3606 110.016 88.9518 109.685 88.6467 109.267C88.3416 108.849 88.1507 108.359 88.093 107.845C87.9626 106.724 88.9509 105.77 89.5308 103.73C90.327 100.888 89.1122 96.6225 87.4513 94.0235ZM61.4636 91.1159C66.8581 85.047 76.1647 84.6561 82.2489 90.245C88.3332 95.8339 88.896 105.284 83.5015 111.352C78.107 117.421 68.8004 117.812 62.7162 112.223C56.6319 106.634 56.076 97.1848 61.4636 91.1159Z" fill="#0E0D0D"/>
<path d="M63.8624 94.9837C67.1923 94.9837 69.8917 92.2865 69.8917 88.9594C69.8917 85.6322 67.1923 82.9351 63.8624 82.9351C60.5324 82.9351 57.833 85.6322 57.833 88.9594C57.833 92.2865 60.5324 94.9837 63.8624 94.9837Z" fill="white"/>
<path d="M69.3944 95.1413C71.5701 93.612 72.2633 90.6461 72.0196 87.9957C71.776 85.3453 70.7842 82.832 70.3038 80.2159C71.299 79.7187 72.5446 80.2604 73.2756 81.097C74.0065 81.9337 74.3908 83.0103 74.9227 83.9875C75.4546 84.9647 76.2439 85.9179 77.3249 86.1408C77.7701 84.1342 77.6862 82.0465 77.0812 80.0821C77.4244 79.5164 78.2377 80.0821 78.8279 80.3907C79.6996 80.8262 80.7393 80.4799 81.7139 80.4456C82.4632 80.4275 83.2049 80.5984 83.8707 80.9423C84.5364 81.2863 85.1047 81.7923 85.523 82.4137" stroke="white" stroke-miterlimit="10"/>
<path d="M94.5001 146C109.63 146 121.895 143.895 121.895 141.299C121.895 138.703 109.63 136.598 94.5001 136.598C79.3705 136.598 67.1055 138.703 67.1055 141.299C67.1055 143.895 79.3705 146 94.5001 146Z" fill="#0091FF"/>
<path d="M48.3068 100.62C48.3068 100.62 28.7946 114.905 74.1949 110.437C126.28 105.311 134.307 84.0903 105.766 88.0403C105.766 88.0403 132.165 88.9626 98.127 100.96C65.4923 112.453 36.8589 113.478 48.3068 100.62Z" fill="white"/>
<path d="M113.916 83.0034L115.906 83.6652C117.172 83.8673 118.403 84.2495 119.561 84.8001C121.153 85.6573 120.446 84.9407 122.251 85.8767C123.706 86.6551 124.125 86.5008 124.592 86.6825C125.245 86.9599 125.881 87.2759 126.496 87.6288C127.183 88.0128 127.869 88.414 128.281 88.6266C128.545 88.7603 128.967 88.9386 129.348 89.0998L130.014 89.3946L129.272 90.5776C128.816 90.2587 128.342 89.957 127.859 89.6655C127.305 89.4488 126.787 89.1506 126.321 88.7809C125.765 88.3317 124.794 87.9957 124.001 87.7145C122.306 87.1008 120.474 86.415 119.163 85.8767C118.545 85.6264 117.869 85.5339 117.231 85.3487C116.593 85.1635 116.016 84.7247 115.354 84.5841L113.47 84.3235L113.916 83.0034Z" fill="#F1F2F2"/>
<path d="M102.249 74.6271C102.06 74.8036 101.915 75.0221 101.826 75.2649C101.79 75.3759 101.77 75.4912 101.765 75.6078C101.762 75.7453 101.77 75.8829 101.789 76.0192C101.904 76.3352 102.066 76.6322 102.269 76.9004C102.742 77.4796 103.254 78.025 103.803 78.5325C104.077 78.8662 104.432 79.1256 104.833 79.2868C105.291 79.4766 105.722 79.7281 106.113 80.0343C107.461 80.9258 107.911 80.7475 108.35 80.9326C109.287 81.3201 111.226 82.3041 112.094 82.5853C112.688 82.755 113.291 82.8947 113.899 83.0036L113.453 84.3237L111.85 83.6722C111.254 83.536 110.688 83.2933 110.179 82.9556C109.572 82.551 108.576 82.2698 107.777 81.9544C106.106 81.3593 104.536 80.5104 103.124 79.4377C102.529 79.0386 101.977 78.579 101.476 78.0662C101.237 77.7619 101.063 77.4118 100.965 77.0376C100.864 76.6633 100.786 76.2831 100.732 75.8992C100.637 75.5129 100.637 75.1095 100.732 74.7232C100.84 74.3285 101.022 73.9583 101.271 73.6328L102.249 74.6271Z" fill="#F1F2F2"/>
<path d="M118.483 71.123L116.394 71.3287C115.162 71.6565 113.893 71.8247 112.619 71.8293C110.831 71.7744 111.775 72.0796 109.771 72.1036C108.141 72.1482 107.876 72.5322 107.406 72.6316C106.936 72.7311 106.133 72.8545 105.382 73.0122C104.741 73.1283 104.116 73.3158 103.518 73.5711C103.199 73.7309 102.903 73.934 102.64 74.1746C102.487 74.3088 102.351 74.4608 102.235 74.6272L101.246 73.6397C101.748 73.204 102.32 72.8562 102.938 72.6111C103.487 72.279 104.107 72.0826 104.747 72.0385C105.617 71.9014 106.477 71.7043 107.32 71.4487C109.021 71.059 110.751 70.8078 112.492 70.6978C113.161 70.6498 113.813 70.4407 114.475 70.3549C115.138 70.2692 115.848 70.4235 116.51 70.2795L118.332 69.748L118.483 71.123Z" fill="#F1F2F2"/>
<path d="M104.87 64.1454L103.71 64.814C103.359 65.0051 103.031 65.2351 102.732 65.4997C102.657 65.5929 102.588 65.6915 102.526 65.7946C102.401 65.9747 102.345 66.1938 102.368 66.4118C102.413 66.6346 102.506 66.7752 102.839 66.9775C103.251 67.1815 103.686 67.3336 104.136 67.4301L104.479 67.5055L104.795 67.5535C104.983 67.581 105.138 67.5947 105.258 67.605C105.443 67.6192 105.629 67.6192 105.814 67.605C106.462 67.5759 107.112 67.6324 107.746 67.773C109.805 68.1159 110.241 67.8313 110.862 67.8621C112.173 67.9307 114.911 68.3524 116.071 68.4073C116.812 68.4416 118.425 68.3524 118.425 68.3524L118.343 69.7445L116.146 69.5285C115.378 69.5516 114.61 69.4685 113.864 69.2816C112.982 69.0588 111.672 69.0588 110.591 69.0279C109.455 68.997 108.254 68.9285 107.118 68.8428L105.474 68.7125C104.946 68.661 104.472 68.6302 103.988 68.565C103.524 68.5095 103.066 68.419 102.616 68.2941C102.375 68.2175 102.144 68.1115 101.929 67.9787C101.681 67.8266 101.472 67.6188 101.318 67.3718C101.166 67.1129 101.083 66.8188 101.078 66.5182C101.073 66.2177 101.146 65.9211 101.291 65.6574C101.554 65.2282 101.887 64.8458 102.276 64.5259C102.575 64.2238 102.896 63.9442 103.237 63.6893L104.18 62.9521L104.87 64.1454Z" fill="#F1F2F2"/>
<path d="M100.979 56.0566C100.635 56.492 100.275 56.9172 99.9491 57.3458C99.9491 57.3458 99.7638 57.7195 99.4824 58.203C99.201 58.6864 98.8476 59.2796 98.5113 59.7699C98.175 60.2602 98.2162 60.4557 98.2299 60.6031C98.2507 60.6968 98.2645 60.7919 98.2711 60.8877C98.2686 61.0881 98.2882 61.2881 98.3294 61.4843C98.4701 62.0054 98.724 62.1323 98.9368 62.17C99.0281 62.1795 99.1201 62.1795 99.2113 62.17C99.2876 62.1596 99.365 62.1596 99.4412 62.17C99.926 62.2654 100.419 62.3102 100.913 62.3037C101.428 62.3046 101.942 62.2483 102.444 62.1357C102.73 62.052 103.009 61.9453 103.278 61.8169C103.556 61.6866 103.775 61.57 103.775 61.57L104.187 62.9072C103.727 63.0135 103.267 63.1164 102.815 63.2021C102.342 63.3882 101.829 63.4496 101.325 63.3804C100.721 63.2844 99.8771 63.4558 99.0878 63.2947C98.6336 63.2153 98.2119 63.007 97.873 62.6946C97.7882 62.6087 97.708 62.5182 97.6328 62.4238C97.567 62.3335 97.5063 62.2396 97.4509 62.1426C97.3384 61.949 97.2519 61.7415 97.1935 61.5254C97.0854 61.1203 97.0702 60.696 97.1489 60.2842C97.2132 59.9458 97.3216 59.6172 97.4715 59.307C97.6782 58.7816 97.913 58.2677 98.175 57.7675C98.4701 57.2875 98.9883 56.9926 99.2594 56.5229L99.9251 55.1514L100.979 56.0566Z" fill="#F1F2F2"/>
<path d="M108.178 44.3511L107.42 45.846L107.338 46.1237C107.266 46.3575 107.181 46.5865 107.08 46.8095C106.82 47.4382 106.473 48.0279 106.051 48.5616C105.08 49.6416 105.824 49.2473 104.774 50.4782C103.896 51.4623 104.006 51.8498 103.8 52.1926C103.69 52.3675 103.535 52.5801 103.357 52.8098C103.179 53.0395 102.969 53.2795 102.767 53.5196C102.355 54.003 101.96 54.4728 101.754 54.7745C101.483 55.1722 100.986 56.0671 100.986 56.0671L99.9048 55.1894C100.214 54.8465 100.519 54.5242 100.797 54.1882C101.016 53.7649 101.322 53.3932 101.696 53.0978C102.153 52.7549 102.554 52.028 102.877 51.4452C103.597 50.2314 104.438 48.9182 105.066 47.9958C105.308 47.5275 105.526 47.0468 105.718 46.5557C105.849 46.3182 106.003 46.0942 106.178 45.8871C106.348 45.6817 106.483 45.4502 106.579 45.2014L106.922 43.7373L108.178 44.3511Z" fill="#F1F2F2"/>
<path d="M113.058 31.5241C112.904 32.0624 112.766 32.6076 112.591 33.1391C112.554 33.4765 112.499 33.8118 112.427 34.1437C112.358 34.4646 112.272 34.7816 112.169 35.0935C112.051 35.4266 111.901 35.7481 111.723 36.0535C110.972 37.2947 111.655 36.777 110.817 38.1725C110.131 39.3005 110.337 39.6674 110.182 40.0274C110.028 40.3875 109.712 40.9738 109.41 41.5224C109.108 42.071 108.779 42.599 108.638 42.935C108.522 43.2182 108.422 43.5078 108.34 43.8025L108.178 44.3511L106.926 43.7374C107.156 43.343 107.365 42.9419 107.585 42.5441C107.723 42.0876 107.957 41.6657 108.271 41.3064C108.645 40.8675 108.896 40.0892 109.125 39.4617C109.609 38.1313 110.227 36.6981 110.639 35.6695C110.806 35.1698 110.937 34.6587 111.03 34.1403C111.167 33.6259 111.548 33.1871 111.634 32.659C111.72 32.131 111.679 31.6544 111.703 31.1538L113.058 31.5241Z" fill="#F1F2F2"/>
<path d="M115.529 18.0286L115.354 19.6984L115.375 19.9865C115.389 20.2297 115.389 20.4736 115.375 20.7168C115.356 21.3994 115.24 22.0759 115.031 22.726C114.524 24.0975 115.069 23.4461 114.53 24.9753C114.074 26.2097 114.304 26.5251 114.232 26.9126C114.091 27.7286 113.408 29.347 113.254 30.0567C113.144 30.5093 113.048 31.5242 113.048 31.5242L111.703 31.1505L112.152 29.8613C112.197 29.3842 112.35 28.9235 112.598 28.5138C112.757 28.2244 112.872 27.9138 112.942 27.5915C113.014 27.2486 113.062 26.8748 113.113 26.5628C113.353 25.1913 113.666 23.645 113.916 22.558C113.976 22.0343 114.008 21.5079 114.012 20.9808C114.074 20.4528 114.355 19.9522 114.335 19.4173L114.136 17.9258L115.529 18.0286Z" fill="#F1F2F2"/>
<path d="M15.7889 70.1421L16.3963 71.7742C16.5857 72.0714 16.7598 72.3781 16.9179 72.6931C17.2478 73.3161 17.5002 73.977 17.6695 74.6612C18.0126 76.1253 18.0915 75.2715 18.5377 76.8933C18.9048 78.2203 19.3132 78.3368 19.4882 78.7037C19.8623 79.4752 20.4319 81.2101 20.7888 81.8856C21.0537 82.3305 21.3424 82.7608 21.6536 83.1748L20.4079 83.8091L19.8314 82.4719C19.5442 82.0484 19.349 81.5696 19.2583 81.0661C19.1519 80.4627 18.7024 79.722 18.3661 79.0912C17.693 77.8014 17.1072 76.4681 16.6125 75.1001C16.4272 74.572 16.084 74.1057 15.8473 73.5949C15.6105 73.084 15.6208 72.4599 15.3462 71.9628L14.4712 70.5913L15.7889 70.1421Z" fill="#F1F2F2"/>
<path d="M12.968 56.2935C12.9989 56.8695 13.0092 57.4489 13.0606 58.0078C13.0606 58.0078 13.191 58.433 13.3043 59.0365C13.4429 59.7214 13.5084 60.419 13.4999 61.1177C13.4515 61.492 13.4963 61.8724 13.6303 62.2252C13.7675 62.6255 13.8326 63.0469 13.8225 63.4699C13.8217 63.9286 13.9115 64.383 14.0867 64.8071C14.197 65.0035 14.2933 65.2074 14.375 65.4174C14.4745 65.8288 14.6083 66.4769 14.7181 67.1318C14.8175 67.681 14.9458 68.2247 15.1025 68.7604C15.3041 69.2306 15.5333 69.6886 15.7888 70.1319L14.4745 70.6017L14.0764 69.1856C13.8588 68.7191 13.7419 68.2121 13.7332 67.6975C13.7332 67.0769 13.3901 66.2711 13.2082 65.5785C12.7934 64.1742 12.5153 62.7332 12.3778 61.2754C12.34 60.7131 12.1101 60.1748 12.0346 59.6125C11.9591 59.0502 12.1341 58.4536 12.0071 57.8981L11.5782 56.338L12.968 56.2935Z" fill="#F1F2F2"/>
<path d="M14.4022 42.184L14.0591 43.8984C14.0591 43.8984 14.0591 44.0081 14.0591 44.1967C14.0591 44.3853 14.0591 44.6459 14.0213 44.9545C13.9868 45.2906 13.9353 45.6248 13.8669 45.9557C13.8113 46.3169 13.724 46.6726 13.6061 47.0186C13.1051 48.4347 13.6507 47.7523 13.184 49.3639C12.8203 50.6839 13.1325 50.9891 13.0948 51.3937C13.057 51.7983 12.9781 52.4737 12.8855 53.1081C12.7957 53.658 12.7475 54.2139 12.7413 54.771C12.7564 55.0881 12.7897 55.4041 12.8408 55.7174C12.8958 56.0362 12.9575 56.2934 12.9575 56.2934L11.5609 56.3448C11.5609 55.8511 11.5952 55.3608 11.6226 54.867C11.5465 54.355 11.5924 53.8322 11.7565 53.3412C11.9589 52.7549 11.8903 51.884 11.9315 51.1674C11.9485 50.3972 12.0138 49.6288 12.1271 48.8667C12.182 48.493 12.2369 48.1295 12.2849 47.7832L12.4771 46.83C12.5938 46.278 12.5354 45.7019 12.6212 45.1465C12.707 44.591 13.0193 44.0596 13.057 43.4938L13.0261 41.8857L14.4022 42.184Z" fill="#F1F2F2"/>
<path d="M18.1328 28.3455L17.6283 30.0255C17.5253 31.0912 17.2506 32.1333 16.815 33.1114C16.1287 34.4555 16.7533 33.852 16.0464 35.3881C15.4664 36.6362 15.7032 36.9894 15.6037 37.3837C15.5042 37.778 15.2605 38.4123 15.0546 39.0466C14.8552 39.5697 14.6879 40.1044 14.5536 40.6478C14.4977 40.9621 14.4587 41.2792 14.4369 41.5976C14.4095 41.9233 14.4026 42.1874 14.4026 42.1874L13.03 41.8993L13.4349 40.4901C13.4802 39.9789 13.6372 39.4838 13.8947 39.0398C14.2036 38.5083 14.334 37.6683 14.4884 36.9551C14.81 35.5402 15.2191 34.1465 15.7135 32.7823C15.8988 32.2542 15.9263 31.6782 16.0567 31.1399C16.1871 30.6016 16.5783 30.1113 16.6675 29.5524L16.7773 27.958L18.1328 28.3455Z" fill="#F1F2F2"/>
<path d="M16.4959 29.8402L16.5508 29.6173C16.5508 29.6173 16.2625 29.3053 16.5782 29.1956C16.8939 29.0859 16.4547 29.0619 16.7738 28.9179C17.0346 28.8013 16.7464 28.6916 16.7532 28.6367C16.7773 28.527 17.0964 28.3624 17.0964 28.263C17.0964 28.1635 16.9626 28.0195 16.9626 28.0195L18.3146 28.3624L18.1842 28.5236C18.2323 28.6058 18.1842 28.6607 18.0195 28.6847C17.8548 28.7087 17.8822 28.8459 17.8891 28.9419C17.8881 29.1399 17.8135 29.3305 17.6798 29.4768C17.6283 29.5385 17.7381 29.6413 17.7415 29.7168C17.745 29.7922 17.5013 29.8093 17.5562 29.8985L17.8411 30.1831L16.4959 29.8402Z" fill="#F1F2F2"/>
<path d="M4.69423 67.6561C4.47118 67.1075 4.26185 66.5555 4.05595 66.0035C4.05595 66.0035 3.81917 65.6229 3.54807 65.0606C3.22898 64.4173 3.00474 63.7313 2.88234 63.0239C2.65585 61.5187 2.48084 62.3793 2.19601 60.6958C1.97296 59.3243 1.58862 59.1597 1.45822 58.7688C1.18369 57.9459 0.871416 56.1355 0.638066 55.4052C0.448187 54.9199 0.232839 54.4449 -0.00708008 53.9823L1.32781 53.5708L1.67098 54.9834C1.88547 55.4449 2.0023 55.9457 2.01414 56.4544C2.0313 57.0681 2.3573 57.8636 2.61811 58.5116C3.15344 59.9106 3.6167 61.5049 3.953 62.6261C4.15119 63.1513 4.38037 63.6642 4.63932 64.1622C4.85552 64.6834 4.83493 65.2937 5.10603 65.7909C5.39429 66.2366 5.69055 66.6778 5.99482 67.1144L4.69423 67.6561Z" fill="#F1F2F2"/>
<path d="M11.0155 80.7028L10.1096 79.1736C9.88114 78.8963 9.66807 78.6067 9.47127 78.3061C9.05572 77.7163 8.73284 77.0665 8.51385 76.3792C8.10206 74.9048 8.03686 75.786 7.54271 74.1471C7.16866 72.8098 6.77059 72.683 6.59214 72.3058C6.22839 71.5172 5.74797 69.7342 5.44598 69.0279C5.21977 68.5579 4.96891 68.1001 4.69446 67.6564L5.99504 67.1421L6.44802 68.5136C6.69659 68.9553 6.85739 69.4408 6.92159 69.9434C7.08158 70.648 7.35263 71.3227 7.72458 71.9424C8.06774 72.6041 8.4109 73.3139 8.69916 73.9996C8.98742 74.6854 9.30313 75.3197 9.53648 75.8614C9.79678 76.3554 10.0927 76.8298 10.4218 77.2809C10.7101 77.761 10.765 78.3713 11.1082 78.8205L12.2063 79.9725L11.0155 80.7028Z" fill="#F1F2F2"/>
<path d="M20.044 92.0967L18.7811 90.835L18.5306 90.6601C18.3796 90.5435 18.1566 90.3858 17.9232 90.1698C17.3879 89.6814 16.9194 89.1246 16.53 88.5137C16.3275 88.1914 16.204 87.9891 16.101 87.8554C16.0258 87.7576 15.9395 87.669 15.8437 87.5913C15.5238 87.3016 15.2639 86.9522 15.0784 86.5627C14.8556 86.1501 14.5812 85.7676 14.2617 85.4244C14.084 85.2783 13.9166 85.1202 13.7607 84.9512C13.6303 84.7763 13.4793 84.5432 13.318 84.2654C13.1567 83.9877 12.9748 83.7134 12.8341 83.4151C12.5218 82.8254 12.2164 82.2493 12.0002 81.9305C11.8595 81.7247 11.6056 81.4264 11.4031 81.1658L11.0188 80.703L12.2164 79.9795C12.4395 80.4047 12.6454 80.8401 12.9028 81.2516C13.2343 81.6333 13.481 82.0808 13.6268 82.5648C13.7915 83.1579 14.3646 83.806 14.8039 84.358C15.0372 84.646 15.2671 84.9512 15.4902 85.2598L16.1765 86.1547L16.8217 87.0153L17.1168 87.4199C17.2163 87.5468 17.3089 87.6668 17.4016 87.7799C17.7448 88.2154 18.2149 88.5411 18.5958 88.9388C18.9767 89.3366 19.2169 89.8989 19.663 90.2418L20.9979 91.0852L20.044 92.0967Z" fill="#F1F2F2"/>
<path d="M32.971 101.718C32.7956 101.326 32.5183 100.989 32.168 100.74C32.168 100.74 32.0856 100.716 31.9552 100.668C31.8248 100.62 31.6327 100.572 31.4062 100.517C30.9532 100.408 30.3286 100.332 29.7281 100.175C29.4163 100.054 29.0747 100.032 28.7501 100.113C28.3796 100.198 27.9957 100.209 27.6211 100.144C26.3857 100.058 26.1695 100.418 25.8058 100.487C25.0405 100.61 23.359 100.617 22.6555 100.703C22.4325 100.733 22.0825 100.819 21.7805 100.888L21.228 101.011L21.1765 99.6157C21.5883 99.6157 22.0138 99.6157 22.4428 99.6157C22.8846 99.4963 23.347 99.4741 23.7983 99.5506C24.3508 99.6431 25.116 99.4443 25.7543 99.3174C27.0791 99.0393 28.4374 98.955 29.7865 99.0671C30.3338 99.0677 30.8805 99.1032 31.4233 99.1734C31.9964 99.3037 32.4528 99.7494 32.9298 100.044C33.4506 100.308 33.8993 100.694 34.2373 101.169L32.971 101.718Z" fill="#F1F2F2"/>
<path d="M26.2209 111.322C26.6327 110.979 27.0342 110.636 27.4357 110.293C27.4357 110.293 27.6759 109.967 28.05 109.559C28.4718 109.081 28.9513 108.658 29.4776 108.297C30.6066 107.547 29.8379 107.742 31.0252 106.813C31.9723 106.024 31.8454 105.62 32.0547 105.332C32.264 105.044 32.6003 104.564 32.892 104.087C33.1373 103.694 33.2953 103.253 33.3553 102.794C33.3553 102.746 33.3553 102.691 33.3553 102.63C33.3553 102.568 33.3313 102.51 33.3175 102.445C33.3001 102.318 33.2606 102.195 33.2009 102.081C33.1576 101.991 33.1095 101.902 33.0567 101.817L32.9778 101.707L34.2441 101.125C34.3465 101.389 34.4213 101.664 34.4671 101.944C34.4877 102.085 34.4671 102.225 34.4877 102.362C34.5033 102.499 34.5033 102.637 34.4877 102.774C34.5078 103.05 34.4728 103.327 34.3848 103.59C34.3463 103.717 34.297 103.841 34.2372 103.96C34.1723 104.071 34.1013 104.179 34.0244 104.282C33.8279 104.559 33.6524 104.85 33.4994 105.153C33.3175 105.465 33.1563 105.808 32.9709 106.089C32.2324 107.224 31.3305 108.245 30.2943 109.117C29.9065 109.46 29.6251 109.906 29.2648 110.269C28.9045 110.632 28.352 110.811 28.0088 111.202C27.724 111.603 27.4289 112.001 27.1338 112.391L26.2209 111.322Z" fill="#F1F2F2"/>
<path d="M15.5209 118.69C15.9785 118.429 16.436 118.161 16.8936 117.884C17.1277 117.665 17.3728 117.458 17.6279 117.263C18.1322 116.861 18.6886 116.529 19.282 116.276C20.562 115.772 19.7521 115.789 21.1591 115.162C22.2984 114.64 22.3224 114.236 22.6244 114.016C23.2524 113.56 24.7245 112.782 25.2599 112.343C25.6056 112.022 25.93 111.678 26.231 111.314L27.1164 112.395C26.7526 112.659 26.382 112.909 26.0148 113.163C25.6905 113.503 25.2892 113.76 24.8446 113.913C24.3127 114.102 23.7225 114.633 23.2146 115.038C22.166 115.85 21.0579 116.583 19.8997 117.229C19.4536 117.483 19.0967 117.87 18.6746 118.162C18.2525 118.453 17.6863 118.535 17.2814 118.865C16.9382 119.207 16.595 119.55 16.221 119.893L15.5209 118.69Z" fill="#F1F2F2"/>
<path d="M29.8826 114.188C29.584 114.229 29.2923 114.287 28.9972 114.352C28.7021 114.418 28.407 114.466 28.1187 114.548C28.1187 114.548 27.7035 114.743 27.1098 114.966C26.7845 115.098 26.4523 115.213 26.1147 115.309C25.756 115.433 25.3875 115.525 25.0131 115.587C23.4757 115.878 24.3611 115.988 22.6556 116.413C21.2829 116.79 21.1422 117.209 20.7579 117.394C19.9549 117.788 18.1464 118.422 17.4464 118.82C16.9833 119.106 16.5365 119.417 16.1081 119.753L15.4423 118.525L16.8321 117.877C17.2726 117.568 17.771 117.351 18.2974 117.24C18.9288 117.106 19.7078 116.626 20.3564 116.273C21.7181 115.553 23.1452 114.964 24.6185 114.514C25.1881 114.349 25.7063 114.016 26.2759 113.828C26.8456 113.639 27.4976 113.701 28.057 113.485L28.8394 113.142L29.234 112.971L29.6527 112.816L29.8826 114.188Z" fill="#F1F2F2"/>
<path d="M37.9159 120.264C38.0429 120.003 38.1733 119.742 38.2831 119.482C38.3929 119.221 38.4856 118.964 38.5611 118.673L38.5851 118.378C38.5851 118.196 38.6194 117.939 38.6297 117.661C38.6382 117.371 38.6244 117.081 38.5885 116.794C38.5446 116.505 38.4792 116.219 38.3929 115.94C38.3563 115.813 38.3033 115.692 38.2351 115.58C38.1944 115.5 38.1411 115.427 38.0772 115.364C38.005 115.28 37.9146 115.215 37.813 115.172C37.7272 115.127 37.6483 115.079 37.5041 114.987L37.2468 114.798C37.1404 114.716 37.01 114.623 36.8418 114.51C36.4713 114.244 36.0341 114.086 35.579 114.054C35.2873 114.037 35.1054 114.092 34.9098 114.054C34.7142 114.016 34.4363 113.982 34.1377 113.938L33.1597 113.828C32.8165 113.783 32.4734 113.783 32.1886 113.766C31.9357 113.75 31.682 113.756 31.4302 113.783C31.103 113.828 30.7796 113.897 30.4624 113.989L29.8825 114.174L29.6526 112.803L30.4384 112.724L31.2311 112.689C31.7736 112.571 32.3362 112.579 32.8749 112.713C33.5097 112.899 34.4328 112.809 35.229 112.919C36.088 113.018 36.9199 113.281 37.6791 113.694C38.0551 113.899 38.4015 114.154 38.7086 114.452C38.9835 114.725 39.215 115.038 39.395 115.381C39.7461 115.966 39.9498 116.627 39.9886 117.308C39.9886 117.994 39.6111 118.566 39.515 119.163C39.4876 119.451 39.4293 119.753 39.3812 120.051C39.3332 120.349 39.2405 120.63 39.1582 120.918L37.9159 120.264Z" fill="#F1F2F2"/>
<path d="M28.9424 132.329C29.3027 131.822 29.663 131.301 30.0371 130.817C30.2059 130.48 30.3938 130.153 30.5999 129.837C31.0005 129.203 31.4853 128.626 32.0411 128.122C33.2422 127.077 32.4049 127.437 33.7192 126.219C34.783 125.242 34.7178 124.82 34.9786 124.478C35.5311 123.771 36.8591 122.403 37.2744 121.735C37.4381 121.45 37.5825 121.154 37.7067 120.85C37.82 120.538 37.9161 120.284 37.9161 120.284L39.1515 120.936L38.7225 121.621L38.2661 122.266C38.0219 122.76 37.6702 123.194 37.2366 123.535C36.7322 123.943 36.2449 124.714 35.8056 125.328C34.9023 126.554 33.9344 127.732 32.9059 128.856C32.5147 129.292 32.2608 129.837 31.9142 130.306C31.5676 130.776 31.0219 131.116 30.7371 131.633C30.4523 132.151 30.291 132.662 30.0714 133.152L28.9424 132.329Z" fill="#F1F2F2"/>
<path d="M41.4163 120.559C40.8241 120.863 40.2652 121.229 39.7486 121.649C39.7486 121.649 39.4054 122.03 38.9319 122.564C38.3778 123.194 37.7767 123.781 37.1337 124.32C35.737 125.451 36.6601 125.064 35.1468 126.405C33.9285 127.512 33.9594 127.975 33.6506 128.356C33.002 129.161 31.4509 130.711 30.9053 131.442C30.5621 131.911 29.9307 133.032 29.9307 133.032L28.8154 132.189L29.9513 130.848C30.2698 130.323 30.6801 129.858 31.1627 129.477C31.7392 129.021 32.326 128.16 32.8441 127.474C33.9055 126.078 35.0637 124.759 36.3101 123.525C36.7905 123.048 37.1646 122.465 37.6347 121.964C38.1048 121.464 38.7774 121.155 39.2922 120.668C39.7456 120.167 40.2441 119.708 40.7815 119.297L41.4163 120.559Z" fill="#F1F2F2"/>
<path d="M53.8866 127.351C53.5435 126.73 53.2003 126.106 52.8571 125.492C52.8571 125.492 52.514 125.074 52.1091 124.464C51.7041 123.854 51.1928 123.092 50.7982 122.376C50.6238 121.977 50.3467 121.631 49.9952 121.375C49.6134 121.096 49.2553 120.786 48.9245 120.449C48.7984 120.331 48.6617 120.226 48.5161 120.133C48.4012 120.053 48.2781 119.985 48.149 119.931C48.0357 119.88 47.9328 119.838 47.8401 119.804C47.752 119.78 47.6627 119.76 47.5725 119.746C47.2533 119.684 47.0474 119.746 46.8312 119.677C46.1961 119.539 45.5491 119.463 44.8992 119.451C44.2547 119.442 43.6121 119.525 42.9912 119.698C42.8574 119.746 42.6893 119.818 42.5108 119.897C42.3324 119.976 42.1677 120.085 41.9961 120.174L41.5911 120.435C41.4882 120.5 41.4264 120.548 41.4264 120.548L40.7744 119.331C41.3436 119.072 41.9322 118.857 42.5348 118.69C43.1381 118.427 43.7981 118.322 44.4531 118.385C44.6627 118.409 44.8736 118.42 45.0845 118.419C45.3076 118.419 45.5444 118.436 45.7709 118.436C46.2555 118.448 46.7385 118.497 47.2156 118.583C48.1947 118.778 49.1149 119.198 49.9025 119.811C50.5843 120.352 51.1832 120.99 51.6801 121.704C52.085 122.269 52.5758 122.773 52.9532 123.349C53.3307 123.926 53.468 124.649 53.8626 125.204C54.2675 125.698 54.6725 126.185 55.0808 126.658L53.8866 127.351Z" fill="#F1F2F2"/>
</g>
<defs>
<clipPath id="clip0_832_12160">
<rect width="130" height="146" fill="white"/>
</clipPath>
</defs>
</svg>
