<svg width="163" height="131" viewBox="0 0 163 131" fill="none" xmlns="http://www.w3.org/2000/svg">
<g clip-path="url(#clip0_5708_67691)">
<path d="M100.084 49.2085H72.418V76.7664H100.084V49.2085Z" fill="black" stroke="#0091FF" stroke-width="1.74" stroke-miterlimit="10"/>
<path d="M83.8612 127.751C119.584 127.751 148.543 121.218 148.543 113.16C148.543 105.102 119.584 98.5688 83.8612 98.5688C48.1383 98.5688 19.1792 105.102 19.1792 113.16C19.1792 121.218 48.1383 127.751 83.8612 127.751Z" fill="black"/>
<path d="M83.8617 129.921C66.4259 129.921 50.0057 128.386 37.6426 125.593C23.9478 122.507 17.0073 118.326 17.0073 113.166C17.0073 108.006 23.9478 103.824 37.6426 100.739C50.0113 97.9282 66.4202 96.4106 83.8617 96.4106C101.303 96.4106 117.718 97.945 130.075 100.739C143.77 103.824 150.716 108.006 150.716 113.166C150.716 118.326 143.77 122.507 130.075 125.593C117.707 128.386 101.298 129.921 83.8617 129.921ZM83.8617 100.739C66.7419 100.739 50.6659 102.239 38.6075 104.96C21.5497 108.804 21.3578 112.992 21.3578 113.166C21.3578 113.34 21.5497 117.522 38.6075 121.372C50.6659 124.092 66.7419 125.587 83.8617 125.587C100.982 125.587 117.052 124.092 129.116 121.372C146.168 117.522 146.366 113.34 146.366 113.166C146.366 112.992 146.168 108.804 129.116 104.96C117.052 102.239 100.982 100.739 83.8617 100.739Z" fill="#0091FF"/>
<path d="M83.8615 97.4895C101.213 97.4895 117.543 99.0184 129.838 101.789C138.866 103.83 149.627 107.455 149.627 113.166C149.627 118.876 138.866 122.501 129.838 124.536C117.543 127.313 101.213 128.836 83.8615 128.836C66.5102 128.836 50.1747 127.313 37.8849 124.536C28.8567 122.501 18.0961 118.876 18.0961 113.166C18.0961 107.455 28.8567 103.83 37.8849 101.789C50.1747 99.0184 66.5046 97.4895 83.8615 97.4895ZM83.8615 126.672C101.06 126.672 117.215 125.166 129.358 122.428C146.145 118.64 147.454 114.38 147.454 113.166C147.454 111.951 146.145 107.691 129.358 103.903C117.215 101.166 101.06 99.6592 83.8615 99.6592C66.6626 99.6592 50.5076 101.166 38.3646 103.903C21.5719 107.691 20.2685 111.951 20.2685 113.166C20.2685 114.38 21.5719 118.64 38.3646 122.428C50.5076 125.166 66.6626 126.672 83.8615 126.672ZM83.8615 95.3257C66.3692 95.3257 49.8474 96.8714 37.4053 99.6817C22.9488 102.942 15.918 107.348 15.918 113.171C15.918 118.994 22.9488 123.395 37.4053 126.661C49.8192 129.471 66.3466 131.017 83.8615 131.017C101.376 131.017 117.87 129.471 130.318 126.661C144.774 123.401 151.799 118.989 151.799 113.171C151.799 107.354 144.774 102.947 130.318 99.6817C117.87 96.8714 101.371 95.3257 83.8615 95.3257ZM22.4522 113.143C22.5764 112.772 24.145 109.304 38.816 105.994C50.8067 103.29 66.7924 101.801 83.8333 101.801C100.874 101.801 116.86 103.29 128.845 105.994C143.516 109.304 145.113 112.772 145.243 113.143C145.113 113.514 143.55 116.982 128.845 120.292C116.86 122.996 100.874 124.485 83.8333 124.485C66.7924 124.485 50.801 122.996 38.816 120.292C24.145 116.982 22.5482 113.514 22.4522 113.143Z" fill="black"/>
<path d="M83.8612 32.4313C119.584 32.4313 148.543 25.8986 148.543 17.8402C148.543 9.7817 119.584 3.24902 83.8612 3.24902C48.1383 3.24902 19.1792 9.7817 19.1792 17.8402C19.1792 25.8986 48.1383 32.4313 83.8612 32.4313Z" fill="black"/>
<path d="M83.8617 34.6008C66.4259 34.6008 50.0057 33.0608 37.6426 30.273C23.9478 27.1816 17.0073 22.9998 17.0073 17.8401C17.0073 12.6804 23.9478 8.5043 37.6426 5.41295C50.0113 2.60264 66.4202 1.08496 83.8617 1.08496C101.303 1.08496 117.718 2.62512 130.075 5.41295C143.77 8.5043 150.716 12.686 150.716 17.8401C150.716 22.9942 143.77 27.1816 130.075 30.273C117.707 33.0608 101.298 34.6008 83.8617 34.6008ZM83.8617 5.41858C66.7419 5.41858 50.6716 6.91367 38.6075 9.63968C21.5497 13.4842 21.3578 17.6658 21.3578 17.8401C21.3578 18.0143 21.5497 22.2017 38.6075 26.0463C50.6659 28.7666 66.7419 30.2674 83.8617 30.2674C100.982 30.2674 117.052 28.7666 129.116 26.0463C146.168 22.2017 146.366 18.0199 146.366 17.8401C146.366 17.6602 146.168 13.4842 129.116 9.63968C117.052 6.91367 100.982 5.41858 83.8617 5.41858Z" fill="#0091FF"/>
<path d="M83.8615 2.16962C101.213 2.16962 117.543 3.69276 129.838 6.46935C138.866 8.50402 149.627 12.1349 149.627 17.8399C149.627 23.5448 138.866 27.1814 129.838 29.216C117.543 31.987 101.213 33.5159 83.8615 33.5159C66.5102 33.5159 50.1747 31.987 37.8849 29.216C28.8567 27.1814 18.0961 23.5504 18.0961 17.8399C18.0961 12.1293 28.8567 8.50402 37.8849 6.46935C50.1747 3.69276 66.5046 2.16962 83.8615 2.16962ZM83.8615 31.3519C101.06 31.3519 117.215 29.8399 129.358 27.1027C146.145 23.3144 147.454 19.0595 147.454 17.8399C147.454 16.6202 146.145 12.371 129.358 8.58271C117.215 5.83984 101.06 4.33348 83.8615 4.33348C66.6626 4.33348 50.5076 5.83984 38.3646 8.58271C21.5719 12.371 20.2685 16.6258 20.2685 17.8399C20.2685 19.0539 21.5719 23.3144 38.3646 27.1027C50.5076 29.8399 66.6626 31.3519 83.8615 31.3519ZM83.8615 0C66.3692 0 49.8474 1.55129 37.4053 4.35599C22.9488 7.61595 15.918 12.0281 15.918 17.8455C15.918 23.6628 22.9488 28.075 37.4053 31.335C49.8192 34.1453 66.3466 35.6854 83.8615 35.6854C101.376 35.6854 117.87 34.1397 130.318 31.335C144.774 28.075 151.799 23.6628 151.799 17.8455C151.799 12.0281 144.774 7.62157 130.318 4.35599C117.87 1.54567 101.371 0 83.8615 0ZM22.4522 17.8399C22.5764 17.4689 24.145 14.0066 38.816 10.6961C50.801 7.98693 66.7924 6.49748 83.8333 6.49748C100.874 6.49748 116.86 7.98693 128.845 10.6961C143.516 14.0066 145.113 17.4689 145.243 17.8399C145.113 18.2165 143.55 21.6787 128.845 24.9893C116.86 27.6928 100.874 29.1824 83.8333 29.1824C66.7924 29.1824 50.8067 27.6928 38.816 24.9893C24.145 21.6787 22.5482 18.2446 22.4522 17.8399Z" fill="black"/>
<path d="M86.4459 41.666C80.8798 41.666 75.5415 43.8681 71.6051 47.7881C67.6688 51.708 65.4566 57.0247 65.4551 62.5691C65.4566 68.1135 67.6688 73.4302 71.6051 77.3501C75.5415 81.2701 80.8798 83.4722 86.4459 83.4722C89.2026 83.4722 91.9323 82.9312 94.4791 81.88C97.0259 80.8288 99.3398 79.2881 101.289 77.3459C103.237 75.4037 104.783 73.0979 105.837 70.5605C106.891 68.0231 107.432 65.3038 107.431 62.5578C107.428 57.0159 105.216 51.702 101.281 47.7843C97.3454 43.8667 92.0095 41.666 86.4459 41.666ZM97.2121 65.1321C97.2121 71.4891 93.4709 75.2885 86.5248 75.2885C84.6742 75.3276 82.835 74.991 81.1192 74.2993C84.6063 72.7817 86.4459 69.5893 86.4459 65.1321V62.8839H75.6796V50.4791H77.22C77.7563 51.5147 78.5511 52.3955 79.5279 53.0365C80.2829 51.899 81.3587 51.0091 82.6201 50.4791H82.7499C83.2861 51.5147 84.0809 52.3955 85.0577 53.0365C85.7799 51.9497 86.7976 51.09 87.992 50.5578C89.2922 50.6624 90.5679 50.9697 91.7725 51.4684C88.2854 52.9859 86.4459 56.1841 86.4459 60.6356V62.8839H97.2121V65.1321Z" fill="#0091FF"/>
<path d="M83.8612 26.788C52.4259 26.788 26.2326 21.7293 20.398 15.0239C19.6607 15.7809 19.2272 16.7806 19.1792 17.8342C19.1792 25.8942 48.1374 32.4479 83.8612 32.4479C119.585 32.4479 148.538 25.9167 148.538 17.8342C148.49 16.7817 148.058 15.7826 147.324 15.0239C141.49 21.7293 115.297 26.788 83.8612 26.788Z" fill="#0091FF"/>
<path d="M83.8612 104.218C115.297 104.218 141.49 109.276 147.324 115.982C148.058 115.223 148.49 114.224 148.538 113.171C148.538 105.111 119.579 98.5576 83.8612 98.5576C48.1431 98.5576 19.1792 105.089 19.1792 113.171C19.2272 114.225 19.6607 115.225 20.398 115.982C26.2326 109.276 52.4146 104.218 83.8612 104.218Z" fill="#0091FF"/>
<path d="M65.9575 126.099C71.651 126.464 77.6604 126.661 83.8843 126.661C92.0323 126.661 99.8249 126.318 107.019 125.7C104.198 118.708 96.112 113.66 86.5759 113.66C76.8197 113.666 68.6096 118.904 65.9575 126.099Z" fill="#FF5628"/>
<path d="M83.8616 4.32227C77.7675 4.32227 71.8709 4.51337 66.2847 4.88433C69.2696 11.6291 77.2089 16.4573 86.5362 16.4573C95.683 16.4573 103.464 11.8147 106.607 5.26663C99.5314 4.66522 91.8686 4.32227 83.8616 4.32227Z" fill="#E44BBE"/>
<path d="M87.0723 45.3979C97.2291 45.3979 102.212 54.3235 103.018 60.9671" stroke="#F1F2F2" stroke-width="4.34" stroke-miterlimit="10" stroke-linecap="round"/>
<path d="M103.481 66.5988C104.379 66.5988 105.106 65.8741 105.106 64.9801C105.106 64.0861 104.379 63.3613 103.481 63.3613C102.584 63.3613 101.856 64.0861 101.856 64.9801C101.856 65.8741 102.584 66.5988 103.481 66.5988Z" fill="white"/>
</g>
<defs>
<clipPath id="clip0_5708_67691">
<rect width="163" height="131" fill="white"/>
</clipPath>
</defs>
</svg>
