<svg width="163" height="131" viewBox="0 0 163 131" fill="none" xmlns="http://www.w3.org/2000/svg">
<g clip-path="url(#clip0_832_12200)">
<path d="M100.084 49.2085H72.4182V76.7664H100.084V49.2085Z" fill="black" stroke="#0091FF" stroke-width="1.74" stroke-miterlimit="10"/>
<path d="M83.8613 127.751C119.584 127.751 148.543 121.218 148.543 113.16C148.543 105.102 119.584 98.5688 83.8613 98.5688C48.1384 98.5688 19.1793 105.102 19.1793 113.16C19.1793 121.218 48.1384 127.751 83.8613 127.751Z" fill="black"/>
<path d="M83.8615 129.921C66.4256 129.921 50.0054 128.386 37.6423 125.593C23.9475 122.507 17.0071 118.326 17.0071 113.166C17.0071 108.006 23.9475 103.824 37.6423 100.739C50.0111 97.9282 66.42 96.4106 83.8615 96.4106C101.303 96.4106 117.718 97.945 130.075 100.739C143.77 103.824 150.716 108.006 150.716 113.166C150.716 118.326 143.77 122.507 130.075 125.593C117.706 128.386 101.297 129.921 83.8615 129.921ZM83.8615 100.739C66.7416 100.739 50.6657 102.239 38.6073 104.96C21.5495 108.804 21.3576 112.992 21.3576 113.166C21.3576 113.34 21.5495 117.522 38.6073 121.372C50.6657 124.092 66.7416 125.587 83.8615 125.587C100.981 125.587 117.052 124.092 129.116 121.372C146.168 117.522 146.365 113.34 146.365 113.166C146.365 112.992 146.168 108.804 129.116 104.96C117.052 102.239 100.981 100.739 83.8615 100.739Z" fill="#0091FF"/>
<path d="M83.8615 97.4895C101.213 97.4895 117.543 99.0184 129.838 101.789C138.866 103.83 149.627 107.455 149.627 113.166C149.627 118.876 138.866 122.501 129.838 124.536C117.543 127.313 101.213 128.836 83.8615 128.836C66.5102 128.836 50.1747 127.313 37.8849 124.536C28.8567 122.501 18.0961 118.876 18.0961 113.166C18.0961 107.455 28.8567 103.83 37.8849 101.789C50.1747 99.0184 66.5046 97.4895 83.8615 97.4895ZM83.8615 126.672C101.06 126.672 117.215 125.166 129.358 122.428C146.145 118.64 147.454 114.38 147.454 113.166C147.454 111.951 146.145 107.691 129.358 103.903C117.215 101.166 101.06 99.6592 83.8615 99.6592C66.6626 99.6592 50.5076 101.166 38.3646 103.903C21.5719 107.691 20.2685 111.951 20.2685 113.166C20.2685 114.38 21.5719 118.64 38.3646 122.428C50.5076 125.166 66.6626 126.672 83.8615 126.672ZM83.8615 95.3257C66.3692 95.3257 49.8474 96.8714 37.4053 99.6817C22.9488 102.942 15.918 107.348 15.918 113.171C15.918 118.994 22.9488 123.395 37.4053 126.661C49.8192 129.471 66.3466 131.017 83.8615 131.017C101.376 131.017 117.87 129.471 130.318 126.661C144.774 123.401 151.799 118.989 151.799 113.171C151.799 107.354 144.774 102.947 130.318 99.6817C117.87 96.8714 101.371 95.3257 83.8615 95.3257ZM22.4522 113.143C22.5764 112.772 24.145 109.304 38.816 105.994C50.8067 103.29 66.7924 101.801 83.8333 101.801C100.874 101.801 116.86 103.29 128.845 105.994C143.516 109.304 145.113 112.772 145.243 113.143C145.113 113.514 143.55 116.982 128.845 120.292C116.86 122.996 100.874 124.485 83.8333 124.485C66.7924 124.485 50.801 122.996 38.816 120.292C24.145 116.982 22.5482 113.514 22.4522 113.143Z" fill="black"/>
<path d="M83.8613 32.4313C119.584 32.4313 148.543 25.8986 148.543 17.8402C148.543 9.7817 119.584 3.24902 83.8613 3.24902C48.1384 3.24902 19.1793 9.7817 19.1793 17.8402C19.1793 25.8986 48.1384 32.4313 83.8613 32.4313Z" fill="black"/>
<path d="M83.8615 34.6008C66.4256 34.6008 50.0054 33.0608 37.6423 30.273C23.9475 27.1816 17.0071 22.9998 17.0071 17.8401C17.0071 12.6804 23.9475 8.5043 37.6423 5.41295C50.0111 2.60264 66.42 1.08496 83.8615 1.08496C101.303 1.08496 117.718 2.62512 130.075 5.41295C143.77 8.5043 150.716 12.686 150.716 17.8401C150.716 22.9942 143.77 27.1816 130.075 30.273C117.706 33.0608 101.297 34.6008 83.8615 34.6008ZM83.8615 5.41858C66.7416 5.41858 50.6713 6.91367 38.6073 9.63968C21.5495 13.4842 21.3576 17.6658 21.3576 17.8401C21.3576 18.0143 21.5495 22.2017 38.6073 26.0463C50.6657 28.7666 66.7416 30.2674 83.8615 30.2674C100.981 30.2674 117.052 28.7666 129.116 26.0463C146.168 22.2017 146.365 18.0199 146.365 17.8401C146.365 17.6602 146.168 13.4842 129.116 9.63968C117.052 6.91367 100.981 5.41858 83.8615 5.41858Z" fill="#0091FF"/>
<path d="M83.8615 2.16962C101.213 2.16962 117.543 3.69276 129.838 6.46935C138.866 8.50402 149.627 12.1349 149.627 17.8399C149.627 23.5448 138.866 27.1814 129.838 29.216C117.543 31.987 101.213 33.5159 83.8615 33.5159C66.5102 33.5159 50.1747 31.987 37.8849 29.216C28.8567 27.1814 18.0961 23.5504 18.0961 17.8399C18.0961 12.1293 28.8567 8.50402 37.8849 6.46935C50.1747 3.69276 66.5046 2.16962 83.8615 2.16962ZM83.8615 31.3519C101.06 31.3519 117.215 29.8399 129.358 27.1027C146.145 23.3144 147.454 19.0595 147.454 17.8399C147.454 16.6202 146.145 12.371 129.358 8.58271C117.215 5.83984 101.06 4.33348 83.8615 4.33348C66.6626 4.33348 50.5076 5.83984 38.3646 8.58271C21.5719 12.371 20.2685 16.6258 20.2685 17.8399C20.2685 19.0539 21.5719 23.3144 38.3646 27.1027C50.5076 29.8399 66.6626 31.3519 83.8615 31.3519ZM83.8615 0C66.3692 0 49.8474 1.55129 37.4053 4.35599C22.9488 7.61595 15.918 12.0281 15.918 17.8455C15.918 23.6628 22.9488 28.075 37.4053 31.335C49.8192 34.1453 66.3466 35.6854 83.8615 35.6854C101.376 35.6854 117.87 34.1397 130.318 31.335C144.774 28.075 151.799 23.6628 151.799 17.8455C151.799 12.0281 144.774 7.62157 130.318 4.35599C117.87 1.54567 101.371 0 83.8615 0ZM22.4522 17.8399C22.5764 17.4689 24.145 14.0066 38.816 10.6961C50.801 7.98693 66.7924 6.49748 83.8333 6.49748C100.874 6.49748 116.86 7.98693 128.845 10.6961C143.516 14.0066 145.113 17.4689 145.243 17.8399C145.113 18.2165 143.55 21.6787 128.845 24.9893C116.86 27.6928 100.874 29.1824 83.8333 29.1824C66.7924 29.1824 50.8067 27.6928 38.816 24.9893C24.145 21.6787 22.5482 18.2446 22.4522 17.8399Z" fill="black"/>
<path d="M86.4459 41.666C80.8798 41.666 75.5415 43.8681 71.6051 47.7881C67.6688 51.708 65.4566 57.0247 65.4551 62.5691C65.4566 68.1135 67.6688 73.4302 71.6051 77.3501C75.5415 81.2701 80.8798 83.4722 86.4459 83.4722C89.2026 83.4722 91.9323 82.9312 94.4791 81.88C97.0259 80.8288 99.3398 79.2881 101.289 77.3459C103.237 75.4037 104.783 73.0979 105.837 70.5605C106.891 68.0231 107.432 65.3038 107.431 62.5578C107.428 57.0159 105.216 51.702 101.281 47.7843C97.3454 43.8667 92.0095 41.666 86.4459 41.666ZM97.2121 65.1321C97.2121 71.4891 93.4709 75.2885 86.5248 75.2885C84.6742 75.3276 82.835 74.991 81.1192 74.2993C84.6063 72.7817 86.4459 69.5893 86.4459 65.1321V62.8839H75.6796V50.4791H77.22C77.7563 51.5147 78.5511 52.3955 79.5279 53.0365C80.2829 51.899 81.3587 51.0091 82.6201 50.4791H82.7499C83.2861 51.5147 84.0809 52.3955 85.0577 53.0365C85.7799 51.9497 86.7976 51.09 87.992 50.5578C89.2922 50.6624 90.5679 50.9697 91.7725 51.4684C88.2854 52.9859 86.4459 56.1841 86.4459 60.6356V62.8839H97.2121V65.1321Z" fill="#0091FF"/>
<path d="M83.8613 26.788C52.426 26.788 26.2327 21.7293 20.3982 15.0239C19.6609 15.7809 19.2273 16.7806 19.1793 17.8342C19.1793 25.8942 48.1375 32.4479 83.8613 32.4479C119.585 32.4479 148.538 25.9167 148.538 17.8342C148.49 16.7817 148.058 15.7826 147.324 15.0239C141.49 21.7293 115.297 26.788 83.8613 26.788Z" fill="#0091FF"/>
<path d="M83.8613 104.218C115.297 104.218 141.49 109.276 147.324 115.982C148.058 115.223 148.49 114.224 148.538 113.171C148.538 105.111 119.579 98.5576 83.8613 98.5576C48.1432 98.5576 19.1793 105.089 19.1793 113.171C19.2273 114.225 19.6609 115.225 20.3982 115.982C26.2327 109.276 52.4147 104.218 83.8613 104.218Z" fill="#0091FF"/>
<path d="M65.9574 126.099C71.6509 126.464 77.6603 126.661 83.8842 126.661C92.0322 126.661 99.8247 126.318 107.019 125.7C104.198 118.708 96.1119 113.66 86.5758 113.66C76.8196 113.666 68.6095 118.904 65.9574 126.099Z" fill="#FF5628"/>
<path d="M83.8615 4.32227C77.7674 4.32227 71.8708 4.51337 66.2845 4.88433C69.2695 11.6291 77.2088 16.4573 86.5361 16.4573C95.6829 16.4573 103.464 11.8147 106.607 5.26663C99.5312 4.66522 91.8685 4.32227 83.8615 4.32227Z" fill="#EC5B94"/>
<path d="M87.0724 45.3979C97.2292 45.3979 102.212 54.3235 103.019 60.9671" stroke="#F1F2F2" stroke-width="4.34" stroke-miterlimit="10" stroke-linecap="round"/>
<path d="M103.481 66.5988C104.379 66.5988 105.106 65.8741 105.106 64.9801C105.106 64.0861 104.379 63.3613 103.481 63.3613C102.584 63.3613 101.856 64.0861 101.856 64.9801C101.856 65.8741 102.584 66.5988 103.481 66.5988Z" fill="white"/>
<path d="M101.134 41.396C101.124 40.6415 101.258 39.8919 101.529 39.187C101.61 38.7526 101.745 38.3298 101.929 37.928C102.099 37.5427 102.311 37.177 102.561 36.8376C102.814 36.4947 103.102 36.1783 103.419 35.8934C104.722 34.7693 103.774 35.1121 105.23 33.8249C106.421 32.7964 106.359 32.3356 106.663 31.9759C107.301 31.2227 108.921 29.9243 109.53 29.2948C109.908 28.8901 110.602 27.8896 110.602 27.8896L111.776 29.0586L110.563 30.1435C110.223 30.6003 109.793 30.9829 109.299 31.2677C108.64 31.749 108.067 32.3381 107.606 33.01C106.562 34.314 105.349 35.7135 104.48 36.7196C104.112 37.2107 103.793 37.7359 103.526 38.2878C103.238 38.7993 102.719 39.2152 102.618 39.811C102.571 40.3263 102.626 40.8459 102.781 41.3398L101.134 41.396Z" fill="white"/>
<path d="M116.205 45.3979L114.213 45.5834C113.824 45.7013 113.429 45.797 113.029 45.8701C112.226 46.0132 111.406 46.0339 110.596 45.9318C110.172 45.8322 109.729 45.8322 109.304 45.9318C108.821 46.052 108.315 46.052 107.832 45.9318C106.246 45.6283 105.879 45.8812 105.371 45.7969C104.646 45.6344 103.96 45.3328 103.351 44.909C102.759 44.4815 102.265 43.9335 101.901 43.3014C101.671 42.9489 101.482 42.5718 101.337 42.1773C101.272 42.0032 101.219 41.8248 101.179 41.6433C101.145 41.5028 101.128 41.4184 101.128 41.4184L102.787 41.3623C102.763 41.7731 102.839 42.1836 103.007 42.5594C103.284 42.8967 103.521 43.2171 103.808 43.6218C104.028 43.8859 104.32 44.0811 104.649 44.1839C105.015 44.3091 105.393 44.3958 105.778 44.4424C106.592 44.5465 107.412 44.599 108.232 44.5998C109.056 44.5998 109.869 44.5998 110.529 44.5998C111.189 44.5998 111.776 44.4144 112.397 44.3581C113.017 44.3019 113.683 44.493 114.304 44.3581L115.997 43.7961L116.205 45.3979Z" fill="white"/>
<path d="M132.264 42.2279C131.627 42.4246 130.978 42.5763 130.334 42.7506C130.334 42.7506 129.877 42.9754 129.206 43.2171C128.444 43.5071 127.64 43.6703 126.825 43.7004C125.098 43.7285 126.052 44.0714 124.116 44.1388C122.542 44.1388 122.294 44.5716 121.859 44.6559C120.9 44.8695 118.801 44.8133 117.949 44.9594C117.588 45.0254 117.232 45.1136 116.882 45.2236L116.228 45.3979L116.047 43.7511C116.612 43.7511 117.131 43.7004 117.672 43.661C118.222 43.5031 118.801 43.4705 119.365 43.5655C119.756 43.6067 120.151 43.5953 120.539 43.5318C120.956 43.4531 121.385 43.3407 121.775 43.2564C122.593 43.0653 123.467 42.908 124.297 42.7787C125.126 42.6494 125.911 42.4808 126.554 42.3797C127.167 42.2367 127.769 42.0488 128.354 41.8176C128.963 41.6321 129.646 41.7389 130.239 41.4972C130.831 41.2555 131.299 40.9351 131.819 40.6372L132.264 42.2279Z" fill="white"/>
<path d="M147.691 36.888L145.835 37.6075C145.494 37.8153 145.142 38.0029 144.78 38.1696C144.068 38.5325 143.308 38.7935 142.522 38.9451C140.83 39.2149 141.8 39.4004 139.899 39.732C138.358 40.0018 138.172 40.4458 137.726 40.5863C136.795 40.8955 134.747 41.2552 133.912 41.4913C133.359 41.6966 132.818 41.9331 132.292 42.1995L131.841 40.6088L133.432 40.2548C133.955 40.0236 134.519 39.9011 135.091 39.895C135.9 39.7893 136.687 39.5619 137.427 39.2206C138.996 38.6023 140.813 38.0627 142.065 37.6749C142.669 37.4894 143.194 37.1129 143.758 36.8824C144.323 36.652 145.039 36.6576 145.598 36.3204L147.087 35.2974L147.691 36.888Z" fill="white"/>
<path d="M162.808 30.9417L160.952 31.633C160.952 31.633 160.528 31.9028 159.902 32.1951C159.19 32.5636 158.431 32.8322 157.645 32.9932C155.952 33.2911 156.94 33.4653 155.066 33.8644C153.543 34.1904 153.374 34.6513 152.956 34.8255C152.059 35.2021 150.039 35.6799 149.237 36.0115C148.709 36.2698 148.194 36.5569 147.697 36.8715L147.088 35.3315L148.645 34.8255C149.147 34.5397 149.705 34.367 150.281 34.3197C151.084 34.1578 151.857 33.8734 152.572 33.4766C154.067 32.81 155.599 32.2282 157.16 31.7342C157.738 31.4877 158.303 31.212 158.853 30.908C159.417 30.6494 160.145 30.6888 160.703 30.3796L162.221 29.3735L162.808 30.9417Z" fill="white"/>
<path d="M144.819 37.8267L146.952 36.8319C148.128 36.019 149.417 35.3827 150.778 34.9434C152.73 34.4151 151.596 34.3812 153.763 33.718C155.529 33.1897 155.715 32.7007 156.212 32.4646C157.25 31.97 159.597 31.2225 160.489 30.7784C161.088 30.4386 161.667 30.0632 162.221 29.6543L163 31.1157C162.391 31.3855 161.781 31.6777 161.183 31.9025C160.606 32.2684 159.965 32.5221 159.293 32.6501C158.363 32.9224 157.472 33.3115 156.641 33.808C154.858 34.7242 152.804 35.5897 151.337 36.1799C150.642 36.4553 150.033 36.9162 149.362 37.2534C148.69 37.5906 147.889 37.6637 147.24 38.0627L145.547 39.3274L144.819 37.8267Z" fill="white"/>
<path d="M127.463 46.1678L129.573 45.1223C130.73 44.2817 132.009 43.6203 133.365 43.1607C135.306 42.5986 134.166 42.5649 136.333 41.8848C138.088 41.3227 138.268 40.8449 138.765 40.6033C139.803 40.103 142.15 39.3386 143.053 38.8889C143.617 38.6023 144.825 37.8042 144.825 37.8042L145.536 39.3049L143.73 40.0356C143.155 40.394 142.518 40.6437 141.851 40.7719C140.922 41.0449 140.032 41.438 139.205 41.941C137.433 42.8797 135.396 43.7677 133.94 44.3859C133.252 44.6726 132.648 45.1391 131.988 45.5101C131.328 45.881 130.521 45.9541 129.889 46.3644L128.196 47.6628L127.463 46.1678Z" fill="white"/>
<path d="M117.255 58.2128C116.82 58.1062 116.4 57.9496 116.002 57.7462C115.554 57.5202 115.167 57.1907 114.873 56.7851C114.745 56.6532 114.637 56.5037 114.552 56.341C114.309 55.9178 114.193 55.434 114.219 54.9471C114.264 54.3355 114.485 53.7499 114.857 53.2609C115.198 52.8057 115.628 52.4234 116.121 52.1368C116.617 51.8977 117.087 51.6096 117.526 51.2769C117.994 50.9305 118.524 50.6768 119.089 50.5294C120.827 49.9224 120.99 49.4052 121.481 49.1635C122.508 48.6351 124.81 47.7977 125.719 47.3312C126.322 46.9859 126.908 46.6107 127.474 46.207L128.213 47.6853L126.43 48.4609C125.861 48.8308 125.23 49.0955 124.568 49.2423C123.648 49.5451 122.772 49.9644 121.961 50.49C121.092 50.9846 120.161 51.4736 119.258 51.9177C118.455 52.27 117.688 52.6972 116.967 53.1936C116.455 53.5943 116.076 54.1386 115.878 54.7561C115.779 54.9985 115.718 55.2542 115.697 55.5148C115.688 55.654 115.711 55.7935 115.765 55.9222C115.818 56.051 115.902 56.1656 116.008 56.2568C116.528 56.531 117.112 56.6665 117.7 56.6502L117.255 58.2128Z" fill="white"/>
<path d="M136.491 60.7477L134.132 60.5734C132.698 60.6936 131.254 60.5854 129.855 60.253C127.908 59.6909 128.851 60.3261 126.656 59.7247C124.878 59.2188 124.455 59.5167 123.908 59.4437C122.779 59.2863 120.398 58.5782 119.393 58.4039C119.072 58.3533 118.553 58.3139 118.107 58.2858C117.661 58.2577 117.272 58.2128 117.272 58.2128L117.695 56.6108C118.231 56.7907 118.886 56.9256 119.512 57.083C120.186 57.1225 120.848 57.2845 121.464 57.5608C122.375 57.8676 123.325 58.0454 124.286 58.0891C126.272 58.3027 128.461 58.6512 130.019 58.9154C130.752 59.0334 131.514 58.9546 132.276 58.9996C133.037 59.0446 133.754 59.3875 134.533 59.3594L136.637 59.1009L136.491 60.7477Z" fill="white"/>
<path d="M120.505 62.3105C121.122 61.9847 121.771 61.721 122.441 61.5235C122.801 61.3245 123.179 61.159 123.569 61.029C124.34 60.7514 125.154 60.6143 125.973 60.6243C127.666 60.7086 126.769 60.3095 128.681 60.3938C130.222 60.4781 130.493 60.0903 130.939 60.0341C131.892 59.9273 133.924 60.0341 134.747 59.8711C135.09 59.804 135.426 59.7081 135.752 59.5844C136.085 59.4608 136.316 59.3428 136.316 59.3428L136.728 60.9446C136.164 61.0514 135.599 61.1133 135.035 61.1639C134.486 61.3253 133.906 61.3561 133.342 61.2537C132.534 61.1934 131.722 61.256 130.933 61.4393C129.291 61.6922 127.457 61.827 126.165 61.9619C125.564 62.0729 124.973 62.2327 124.399 62.4397C123.834 62.6027 123.14 62.4848 122.593 62.7658C122.12 63.0516 121.679 63.3869 121.278 63.7661L120.505 62.3105Z" fill="white"/>
<path d="M126.898 74.8277C126.334 74.4848 125.77 74.1588 125.205 73.7991C124.828 73.6569 124.462 73.486 124.111 73.2876C123.386 72.9058 122.733 72.4018 122.181 71.7981C121.929 71.4375 121.607 71.1316 121.233 70.8989C121.097 70.821 120.972 70.7266 120.86 70.6178C120.612 70.3808 120.396 70.1124 120.217 69.8196C119.755 69.1398 119.238 68.4989 118.671 67.903C118.324 67.2177 118.159 66.4554 118.191 65.6885C118.215 65.4663 118.256 65.2463 118.316 65.0308C118.374 64.8364 118.452 64.6482 118.547 64.4688C118.707 64.1823 118.896 63.913 119.111 63.665C119.367 63.3544 119.645 63.0614 119.941 62.7882C120.12 62.6227 120.309 62.4671 120.505 62.3218L121.295 63.7774C120.881 63.941 120.499 64.1749 120.166 64.4688C119.946 64.8397 119.766 65.0983 119.546 65.4692C119.269 65.9414 119.608 66.8014 119.98 67.3803C120.858 68.6257 121.887 69.7584 123.044 70.7527C123.535 71.1168 124.056 71.4383 124.602 71.7138C125.115 72.0511 125.487 72.6132 126.057 72.8717C126.627 73.1303 127.186 73.2258 127.75 73.4L126.898 74.8277Z" fill="white"/>
<path d="M141.405 81.8083L139.605 81.0382C138.435 80.7911 137.32 80.332 136.316 79.6837C134.945 78.6889 135.492 79.5095 133.935 78.4247C132.676 77.531 132.242 77.7166 131.818 77.5142C130.944 77.1039 129.291 75.8842 128.534 75.4851C128.049 75.2322 126.915 74.8276 126.915 74.8276L127.75 73.3999L129.087 74.2768C129.614 74.4735 130.092 74.7822 130.487 75.1816C131.115 75.679 131.823 76.0684 132.58 76.3339C134.098 76.9915 135.729 77.8458 136.891 78.4585C137.463 78.7025 138.049 78.9126 138.646 79.0879C139.21 79.324 139.696 79.8186 140.299 79.9873L142.06 80.2908L141.405 81.8083Z" fill="white"/>
<path d="M156.178 87.9572L154.395 87.1816C153.229 86.9514 152.112 86.5216 151.094 85.9114C149.694 84.9727 150.27 85.7709 148.667 84.7872C147.364 83.9666 146.941 84.1858 146.512 84.0171C145.62 83.663 143.871 82.6065 143.081 82.2861C142.526 82.1012 141.961 81.9473 141.388 81.8252L142.043 80.3076L143.482 81.0271C144.033 81.1697 144.544 81.4348 144.977 81.8027C145.666 82.2459 146.42 82.5797 147.212 82.7919C148.724 83.3471 150.207 83.9811 151.652 84.6916C152.217 84.967 152.849 85.0569 153.43 85.2537C154.011 85.4504 154.496 85.9675 155.123 86.1305L156.895 86.4453L156.178 87.9572Z" fill="white"/>
<path d="M138.968 79.6499L141.135 80.5211C142.519 80.8209 143.85 81.3249 145.084 82.0163C146.777 83.0674 146.049 82.2129 147.99 83.3371C149.57 84.2532 150.05 84.0453 150.558 84.242C151.624 84.658 153.752 85.8045 154.705 86.1417C155.32 86.3553 156.703 86.6252 156.703 86.6252L156.138 88.1821L154.35 87.4233C153.691 87.2621 153.069 86.9779 152.516 86.5858C151.683 86.1008 150.792 85.723 149.864 85.4617C147.985 84.8041 145.965 83.9104 144.543 83.2134C143.871 82.8987 143.126 82.7694 142.432 82.5108C141.738 82.2523 141.135 81.7183 140.407 81.5216L138.33 81.1338L138.968 79.6499Z" fill="white"/>
<path d="M120.601 74.0122C121.379 74.119 122.158 74.2484 122.931 74.3833C123.409 74.3909 123.885 74.4246 124.359 74.4844C124.771 74.535 125.239 74.608 125.713 74.7148C126.209 74.8328 126.692 74.9966 127.158 75.2038C128.98 76.1144 128.173 75.3106 130.199 76.328C131.824 77.1879 132.292 76.98 132.812 77.1711C133.895 77.5589 136.028 78.7279 136.976 79.0876C137.585 79.3181 138.968 79.6497 138.968 79.6497L138.347 81.1785L136.598 80.3692C135.947 80.1973 135.335 79.9056 134.792 79.5092C133.966 79.0277 133.077 78.6609 132.151 78.4188C130.267 77.8006 128.202 76.9969 126.774 76.4966C126.065 76.3245 125.345 76.2042 124.618 76.1368C123.879 76.0075 123.202 75.5748 122.457 75.5748C121.712 75.5748 121.064 75.6198 120.37 75.6648L120.601 74.0122Z" fill="white"/>
<path d="M112.34 84.5234C111.797 83.921 111.301 83.2783 110.856 82.6011C110.511 82.2331 110.208 81.8278 109.953 81.3927C109.368 80.4768 109.105 79.3937 109.203 78.3126C109.26 77.9058 109.355 77.505 109.485 77.1153C109.547 76.8568 109.609 76.7106 109.649 76.5533C109.709 76.3423 109.805 76.143 109.931 75.9632C110.21 75.5805 110.573 75.2654 110.992 75.0413C111.355 74.8417 111.732 74.6671 112.12 74.5187C112.419 74.3894 112.684 74.3051 112.848 74.2095C113.137 74.0595 113.439 73.9372 113.751 73.8442C114.564 73.726 115.388 73.7071 116.205 73.788C117.108 73.8498 117.972 73.979 118.463 74.0183C118.79 74.0183 119.315 74.0183 119.755 74.0183H120.562L120.33 75.654C119.715 75.536 119.094 75.4292 118.474 75.3393C117.821 75.3619 117.168 75.2842 116.538 75.1089C115.632 74.9387 114.697 74.9869 113.813 75.2494C112.932 75.418 112.107 75.8045 111.415 76.3735C111.141 76.6275 110.921 76.9332 110.767 77.2729C110.613 77.6125 110.528 77.9794 110.518 78.352C110.552 79.0155 110.745 79.6611 111.082 80.2348C111.37 80.8531 111.488 81.6119 111.979 82.1571C112.467 82.6249 112.986 83.0604 113.531 83.461L112.34 84.5234Z" fill="white"/>
<path d="M128.405 95.1575C127.682 94.8428 126.966 94.5224 126.255 94.1852C125.797 94.0559 125.346 93.9001 124.906 93.7186C124.012 93.3722 123.171 92.903 122.406 92.3247C120.843 91.032 121.447 92.0044 119.698 90.5374C118.31 89.3289 117.808 89.4132 117.351 89.0703C116.155 88.085 115.024 87.0243 113.965 85.8947C113.728 85.6643 113.31 85.3327 112.972 85.0573L112.351 84.5402L113.598 83.4497C113.971 83.9331 114.383 84.3996 114.8 84.8549C115.325 85.2472 115.782 85.7218 116.154 86.26C116.777 86.9711 117.513 87.5751 118.332 88.0475C119.963 89.1266 121.774 90.3295 123.095 91.1501C123.746 91.4933 124.416 91.7973 125.104 92.0606C125.775 92.3697 126.322 92.9486 127.033 93.1847C127.744 93.4207 128.399 93.4939 129.076 93.6456L128.405 95.1575Z" fill="white"/>
<path d="M53.7071 24.416C53.267 23.8202 52.8268 23.2244 52.3698 22.6455C51.3653 21.7427 50.4884 20.7085 49.7629 19.5711C48.8036 17.9242 49.0292 18.9809 47.8669 17.1879C46.902 15.7322 46.3829 15.7265 46.0218 15.3556C45.2713 14.5687 43.8606 12.7307 43.1384 12.0787C42.6343 11.6571 42.1047 11.2668 41.5527 10.9097L42.6813 9.68994C43.1158 10.1396 43.5559 10.5837 43.9791 11.039C44.507 11.4286 44.9487 11.9221 45.2769 12.489C45.8249 13.2369 46.4594 13.918 47.1672 14.5181C48.492 15.8224 49.7145 17.2261 50.8237 18.7167C51.2582 19.2788 51.8337 19.7397 52.3021 20.2849C52.7704 20.8301 53.013 21.572 53.5208 22.0891C54.0287 22.6062 54.5534 22.9827 55.0613 23.4436L53.7071 24.416Z" fill="white"/>
<path d="M60.7661 40.4009C60.7944 40.0642 60.7944 39.7258 60.7661 39.3892C60.7661 39.0351 60.7209 38.6865 60.6701 38.3324C60.6701 38.3324 60.5121 37.8153 60.2864 37.1015C60.0225 36.2818 59.8022 35.4488 59.6262 34.606C59.5896 34.1349 59.4343 33.6806 59.1748 33.2851C58.8871 32.8374 58.6755 32.3457 58.5485 31.8294C57.9842 30.1994 57.4538 30.087 57.1886 29.6486C56.6243 28.7324 55.6086 26.6584 55.0274 25.8771C54.6143 25.3648 54.1716 24.8768 53.7014 24.4157L55.0444 23.4434C55.3829 23.9661 55.7214 24.4888 56.0487 25.0172C56.4882 25.5075 56.824 26.081 57.0362 26.7034C57.4272 27.5476 57.9097 28.3467 58.4751 29.0865C59.5176 30.652 60.3361 32.3546 60.9071 34.1451C61.1272 34.8364 61.4713 35.4941 61.697 36.2023C61.9228 36.9105 61.7761 37.7086 61.9341 38.4505C62.1705 39.141 62.3295 39.8553 62.408 40.5807L60.7661 40.4009Z" fill="white"/>
<path d="M47.1673 34.6733C47.6977 35.1736 48.245 35.6626 48.8037 36.1404C48.8037 36.1404 49.2889 36.4158 49.9322 36.8373C50.6821 37.3115 51.3866 37.8534 52.0369 38.4561C53.4137 39.7489 52.8833 38.8215 54.5253 40.1423C55.9022 41.199 56.3987 41.0079 56.8558 41.2271C57.4553 41.5504 58.0845 41.8157 58.7348 42.0195C59.0538 42.1086 59.3869 42.1373 59.7166 42.1039C59.9525 42.0771 60.1757 41.9834 60.3598 41.834C60.5821 41.6143 60.7199 41.3239 60.7492 41.0134C60.7725 40.8061 60.7725 40.5969 60.7492 40.3896L62.3968 40.5583C62.3134 41.3841 61.9374 42.1532 61.3361 42.7277C61.0271 43.0815 60.6113 43.326 60.1511 43.4247C59.7454 43.5138 59.3235 43.4964 58.9267 43.3742C57.9651 43.119 57.0224 42.7978 56.1053 42.413C54.3843 41.6544 52.7592 40.6961 51.2639 39.5578C50.6996 39.1194 50.0055 38.8271 49.4187 38.4336C48.8318 38.0402 48.4143 37.3094 47.8105 36.9328C47.2068 36.5563 46.6143 36.2472 46.0219 35.8819L47.1673 34.6733Z" fill="white"/>
<path d="M54.1921 48.9725C54.7114 48.6978 55.1125 48.2443 55.3207 47.6966C55.3256 47.6086 55.3256 47.5205 55.3207 47.4325C55.3041 47.2018 55.2547 46.9746 55.174 46.7579C55.0514 46.4152 54.9062 46.0811 54.7395 45.7575C54.5256 45.3556 54.3372 44.9406 54.1752 44.5153C54.0446 44.0528 53.8069 43.6274 53.4812 43.2731C53.115 42.8761 52.8192 42.42 52.6065 41.9242C51.7658 40.401 51.2185 40.3842 50.8799 40.002C50.5413 39.6198 49.994 38.9397 49.4466 38.3158C48.9849 37.7718 48.4831 37.2625 47.9457 36.7925C47.6217 36.5473 47.2804 36.3257 46.9244 36.1293L46.2642 35.7753L47.2347 34.4375C47.7369 34.8478 48.2279 35.2637 48.7018 35.6965C49.2713 36.0614 49.753 36.547 50.1125 37.1186C50.6934 37.8684 51.3391 38.5661 52.0423 39.2038C53.3521 40.5937 54.4646 42.1558 55.3489 43.8464C55.6761 44.4984 56.2066 45.0267 56.5226 45.7911C56.679 46.1973 56.7369 46.6344 56.6918 47.067C56.6455 47.5074 56.5489 47.9412 56.404 48.3598C56.1823 49.1707 55.7034 49.8883 55.0386 50.4057L54.1921 48.9725Z" fill="white"/>
<path d="M36.6154 45.9824L38.8273 46.4995C40.2052 46.5734 41.5637 46.8558 42.8562 47.3369C44.6506 48.1013 43.8211 47.3763 45.8581 48.18C47.5114 48.8377 47.9459 48.5623 48.465 48.6804C48.9841 48.7984 49.8418 49.085 50.6261 49.3154C51.2727 49.5347 51.952 49.6431 52.635 49.6358C52.9994 49.603 53.3539 49.4999 53.6788 49.3323C53.8667 49.2294 54.0443 49.109 54.2093 48.9726L55.0387 50.4003C54.3606 50.7491 53.6123 50.9413 52.8494 50.9624C52.1292 51.0866 51.3881 50.9925 50.7221 50.6924C49.8331 50.3685 48.9119 50.1405 47.9741 50.0124C46.0725 49.6526 44.0242 49.085 42.5346 48.6578C41.8405 48.4555 41.1013 48.4498 40.3903 48.3093C39.6793 48.1688 39.0248 47.7473 38.2969 47.6574L36.2373 47.6011L36.6154 45.9824Z" fill="white"/>
<path d="M18.4854 41.7612L20.6973 42.2727C22.0771 42.3497 23.4373 42.6339 24.7318 43.1158C26.5262 43.8802 25.6967 43.1551 27.7281 43.9588C29.3814 44.6165 29.8159 44.3411 30.335 44.4592C31.424 44.7008 33.636 45.5327 34.6009 45.7407C35.2216 45.8756 36.5984 45.9767 36.5984 45.9767L36.2203 47.5843L34.4146 47.0614C33.7621 46.9927 33.1285 46.802 32.547 46.4994C31.6832 46.1458 30.7762 45.9077 29.8497 45.7912C27.9482 45.4315 25.8999 44.8695 24.4045 44.4423C23.7105 44.2399 22.9713 44.2286 22.2659 44.0937C21.5606 43.9588 20.8948 43.5317 20.1669 43.4418L18.1073 43.3855L18.4854 41.7612Z" fill="white"/>
<path d="M0.378084 37.5513L2.58997 38.0627C3.96832 38.1368 5.3271 38.4211 6.61885 38.9058C8.41322 39.6702 7.58378 38.9451 9.61514 39.7489C11.2684 40.4009 11.7086 40.1312 12.2277 40.2492C13.3111 40.4909 15.5286 41.3228 16.4879 41.5307C17.1086 41.6656 18.4854 41.7667 18.4854 41.7667L18.1073 43.3743L16.3074 42.8459C15.654 42.7815 15.0195 42.5906 14.4396 42.2838C13.5735 41.9313 12.6649 41.6932 11.7368 41.5756C9.83521 41.2159 7.75869 40.6539 6.2916 40.2267C5.59755 40.0244 4.85834 40.013 4.153 39.8725C3.44767 39.732 2.7875 39.3105 2.05959 39.2206L0 39.1699L0.378084 37.5513Z" fill="white"/>
<path d="M17.9439 43.8635L15.7715 43.2171C15.7715 43.2171 15.2072 43.1552 14.4172 42.9979C13.5138 42.8305 12.6344 42.553 11.799 42.1716C10.0385 41.3342 10.8341 42.093 8.83662 41.2049C7.21153 40.4967 6.76571 40.7553 6.25223 40.6428C5.17448 40.3674 2.98513 39.4738 2.02587 39.2433C1.36714 39.116 0.702374 39.0222 0.0340576 38.9623L0.445962 37.3604L2.24029 37.9224C2.89386 38.0051 3.52471 38.2152 4.09676 38.5407C4.95368 38.9188 5.85669 39.1833 6.78268 39.3276C8.60789 39.7555 10.4102 40.2752 12.1827 40.8845C12.8655 41.1206 13.6047 41.1712 14.31 41.3454C15.0153 41.5197 15.6473 41.9917 16.3696 42.1154L18.4292 42.2953L17.9439 43.8635Z" fill="white"/>
<path d="M35.4304 50.0013L33.3257 49.1582C33.3257 49.1582 32.7613 49.0459 31.9996 48.8267C31.1137 48.5873 30.2609 48.2398 29.4604 47.7924C27.7676 46.8313 28.5124 47.6462 26.5883 46.6177C25.014 45.8027 24.5513 46.0557 24.0491 45.8702C22.9939 45.5274 20.8666 44.5099 19.913 44.2401C19.2633 44.0818 18.6061 43.9562 17.9437 43.8636L18.429 42.2842L20.1951 42.9419C20.8472 43.0559 21.4692 43.3005 22.0234 43.6612C22.8589 44.0825 23.7442 44.398 24.6585 44.5999C26.4566 45.141 28.2219 45.7846 29.9457 46.5278C30.6115 46.8201 31.3451 46.9269 32.0335 47.163C32.7219 47.3991 33.3087 47.9161 34.0197 48.1016L36.0624 48.4725L35.4304 50.0013Z" fill="white"/>
<path d="M51.5742 58.4769C51.0593 57.9781 50.5065 57.5197 49.9209 57.1055C49.9209 57.1055 49.4187 56.8694 48.7303 56.5434C47.9201 56.1551 47.1459 55.6962 46.4168 55.172C44.8707 54.0086 45.497 54.9078 43.7139 53.66C42.2468 52.6707 41.7616 52.8507 41.2876 52.6259C40.2776 52.1706 38.2688 50.9396 37.3377 50.5743C36.7063 50.3546 36.0641 50.167 35.4136 50.0122L36.0456 48.4834L37.7384 49.304C38.3753 49.4843 38.9686 49.7923 39.4819 50.209C40.273 50.7139 41.1217 51.1233 42.0099 51.4286C43.7386 52.1696 45.4179 53.0201 47.0375 53.9748C47.6638 54.3457 48.3805 54.5368 49.035 54.9021C49.6896 55.2675 50.1635 55.8971 50.8293 56.2624C51.4865 56.5622 52.1186 56.9136 52.7197 57.3134L51.5742 58.4769Z" fill="white"/>
<path d="M41.5133 64.4967C42.2342 64.616 42.9614 64.693 43.6914 64.7272L45.0061 64.5811C45.881 64.4828 46.7609 64.4359 47.6413 64.4405C48.116 64.5009 48.5983 64.4369 49.0406 64.255C49.5383 64.0649 50.0609 63.9475 50.5924 63.9065C51.155 63.8644 51.6955 63.6701 52.1554 63.3444C52.4262 63.1308 52.5222 62.9454 52.7197 62.8161C52.9448 62.6695 53.1362 62.4769 53.2811 62.2512C53.426 62.0254 53.5212 61.7716 53.5604 61.5065C53.5617 60.8826 53.3642 60.2746 52.9961 59.7698C52.761 59.4568 52.4902 59.172 52.1892 58.9211C51.8845 58.6625 51.6249 58.477 51.6249 58.477L52.793 57.3022C53.2535 57.8033 53.6671 58.3452 54.0287 58.9211C54.5559 59.4897 54.8533 60.2324 54.8638 61.0063C54.8843 61.5847 54.7764 62.1604 54.5479 62.6925C54.299 63.2228 53.9254 63.6854 53.4588 64.0414C52.5897 64.6559 51.6052 65.0898 50.5641 65.3173C49.6835 65.5499 48.7852 65.7097 47.8782 65.7951C47.139 65.8625 46.4168 66.0929 45.6663 66.1491C44.9158 66.2053 44.1597 65.93 43.4092 65.9693C42.6588 66.0087 42.0042 66.121 41.2876 66.1491L41.5133 64.4967Z" fill="white"/>
<path d="M56.2913 69.2349C55.7803 68.8853 55.249 68.5663 54.7001 68.2794C54.7001 68.2794 54.2374 68.1559 53.6223 67.9535C52.9021 67.7335 52.2018 67.4533 51.5289 67.116C51.1968 66.8844 50.8054 66.7517 50.4004 66.7337C49.9386 66.7095 49.486 66.595 49.0686 66.3966C47.658 65.8964 47.2912 66.256 46.8568 66.2054C45.9314 66.1099 43.9621 65.7109 43.1157 65.7165C42.5475 65.7493 41.982 65.8187 41.4229 65.9244V64.272L43.0479 64.39C43.6195 64.3232 44.1987 64.3886 44.7407 64.5811C45.5317 64.7677 46.3433 64.8526 47.1558 64.834C48.7987 64.9288 50.4185 65.264 51.9633 65.8289C52.5615 66.0369 53.2104 66.1042 53.8198 66.3178C54.4292 66.5314 54.9032 67.0654 55.5126 67.2902C56.1112 67.4388 56.6993 67.6266 57.2731 67.8522L56.2913 69.2349Z" fill="white"/>
<path d="M60.6362 82.4657L60.8675 81.5665C60.9409 81.2686 60.9917 80.9594 61.0538 80.6615C61.0538 80.6615 61.0538 80.5434 61.0538 80.3411C61.0538 80.1387 61.0538 79.869 61.0538 79.543C61.0263 78.8115 61.0507 78.079 61.1271 77.351C61.2264 76.9601 61.1947 76.5475 61.0369 76.1762C60.8813 75.762 60.7936 75.3255 60.7772 74.8835C60.7295 74.5951 60.6577 74.3113 60.5628 74.0347C60.4848 73.8601 60.3884 73.6944 60.2751 73.5402C60.0945 73.2929 59.9309 73.1805 59.818 72.9781C59.5979 72.5959 59.2537 71.9833 58.887 71.41C58.5688 70.91 58.1897 70.4513 57.7584 70.0442C57.4887 69.8307 57.1996 69.6426 56.8951 69.4821C56.7119 69.3807 56.5235 69.2888 56.3308 69.2067L57.2732 67.8521C57.7234 68.1996 58.1513 68.575 58.5541 68.9762C59.0581 69.3066 59.4604 69.7697 59.7164 70.314C60.0211 70.9547 60.6814 71.6966 61.1215 72.4104C61.9914 73.8655 62.4622 75.5227 62.487 77.2161C62.487 77.5365 62.5434 77.8568 62.5829 78.1772C62.6401 78.4962 62.6665 78.8199 62.6619 79.1439C62.6516 79.4745 62.5867 79.8011 62.47 80.1107C62.3742 80.4184 62.308 80.7346 62.2726 81.0549C62.3064 81.6708 62.3064 82.2882 62.2726 82.9041L60.6362 82.4657Z" fill="white"/>
<path d="M51.6699 94.9605C52.1326 94.5164 52.584 94.0612 53.0298 93.6059C53.2353 93.2769 53.4595 92.9597 53.7013 92.6561C54.1584 92.0296 54.693 91.4631 55.2925 90.9699C56.6016 89.9526 55.6649 90.2449 57.0643 89.0252C57.6375 88.5289 58.0662 87.8883 58.3056 87.1704C58.4354 86.9849 58.6104 86.7544 58.7966 86.4903C58.9828 86.2261 59.2029 85.9282 59.3947 85.6584C59.5991 85.3827 59.7875 85.0956 59.959 84.7985C60.0962 84.5731 60.2133 84.3361 60.3088 84.0903C60.4766 83.5613 60.5919 83.0172 60.653 82.4658L62.2386 82.9324C62.0355 83.4607 61.8323 83.9834 61.5784 84.4893C61.5146 84.776 61.4061 85.051 61.2568 85.3043C61.1154 85.5633 60.9388 85.8016 60.732 86.0125C60.2299 86.6673 59.7809 87.3608 59.3891 88.0865C58.4916 89.4355 57.4696 90.6981 56.3364 91.8579C55.9075 92.3075 55.6028 92.8753 55.2078 93.353C54.8128 93.8308 54.1583 94.1062 53.7972 94.6233C53.436 95.1404 53.1709 95.6462 52.8492 96.1465L51.6699 94.9605Z" fill="white"/>
<path d="M39.589 105.275L41.0787 104.015C41.8142 103.087 42.7127 102.298 43.7307 101.689C45.2204 100.907 44.2442 101.031 45.8806 100.109C47.2066 99.3504 47.2066 98.8727 47.5734 98.5804C48.2957 97.9621 50.011 96.8942 50.6148 96.3321C51.0063 95.9189 51.3664 95.4774 51.6925 95.0112L52.821 96.1972C52.3978 96.5457 51.9859 96.8997 51.5571 97.237C51.1966 97.6796 50.7339 98.0287 50.2085 98.2543C49.5148 98.6667 48.884 99.1758 48.3351 99.7663C47.1423 100.837 45.8875 101.838 44.5771 102.762C44.1094 103.168 43.6631 103.598 43.2398 104.049C42.7771 104.471 42.1113 104.656 41.705 105.128L40.6611 106.55L39.589 105.275Z" fill="white"/>
<path d="M54.7905 96.0059C54.1867 96.3881 53.5773 96.7704 52.9848 97.1694C52.9848 97.1694 52.5955 97.546 52.0087 98.0238C51.3478 98.5855 50.6246 99.0701 49.8531 99.4682C48.1603 100.278 49.2437 100.143 47.4099 101.154C45.9202 101.964 45.8694 102.47 45.4688 102.779C44.6336 103.442 42.6474 104.532 41.8913 105.1C41.397 105.508 40.9243 105.942 40.475 106.398L39.5101 105.05L41.0111 104.094C41.4654 103.666 42.0004 103.331 42.5854 103.11C43.3772 102.705 44.1053 102.186 44.7466 101.57C46.1225 100.43 47.5618 99.3681 49.0576 98.3891C49.6218 98.0181 50.1127 97.4785 50.6714 97.0682C51.23 96.6579 51.9692 96.5062 52.4996 96.0228L53.9103 94.6289L54.7905 96.0059Z" fill="white"/>
<path d="M70.5278 89.6773C69.8482 89.6183 69.1648 89.6183 68.4852 89.6773L67.2889 89.9978C66.4946 90.228 65.6884 90.4156 64.8738 90.5598C64.4196 90.5805 63.9801 90.7264 63.6042 90.9814C63.1781 91.2558 62.7117 91.4624 62.2218 91.5939C60.6362 92.156 60.529 92.6732 60.0776 92.9261C59.1635 93.4544 57.0813 94.3143 56.2857 94.8145C55.7663 95.1829 55.2671 95.5788 54.7904 96.0005L53.9102 94.601L55.4957 93.741C55.9975 93.351 56.5733 93.0661 57.1885 92.9036C58.0237 92.5849 58.813 92.1578 59.5359 91.6333C60.3315 91.1443 61.1497 90.6553 62.013 90.2281C62.7947 89.8422 63.6083 89.5245 64.445 89.2783C65.1221 89.0759 65.7711 88.7162 66.4708 88.5588C67.1705 88.4015 67.9378 88.5588 68.6432 88.4183C69.3129 88.2349 69.9958 88.1034 70.6858 88.0249L70.5278 89.6773Z" fill="white"/>
<path d="M81.7568 101.155C81.469 100.497 81.1924 99.845 80.8765 99.2042C80.8765 99.2042 80.5605 98.7602 80.1655 98.1307C79.7078 97.4186 79.3167 96.666 78.9975 95.8825C78.882 95.439 78.648 95.0349 78.3204 94.7133C77.9746 94.3436 77.6856 93.9251 77.4627 93.4712C76.5994 92.0773 76.0407 92.1672 75.6965 91.8637C75.5103 91.7007 75.2564 91.5152 74.9968 91.3016C74.7373 91.088 74.4326 90.8576 74.094 90.6496C73.55 90.2853 72.9548 90.0031 72.3279 89.8122C71.9574 89.7302 71.5788 89.6906 71.1993 89.6942H70.7141C70.6464 89.6898 70.5785 89.6898 70.5109 89.6942L70.6576 88.0474C71.2979 88.143 71.9299 88.2877 72.5479 88.4802C72.8867 88.5229 73.2163 88.6196 73.5241 88.7667C73.6808 88.8325 73.8334 88.9077 73.9811 88.9916C74.1165 89.0871 74.252 89.1883 74.3818 89.3008C75.0025 89.7897 75.973 90.3292 76.7066 90.8969C78.1374 92.0795 79.3106 93.5408 80.1542 95.1912C80.4815 95.8094 80.9612 96.3152 81.2828 96.9503C81.6044 97.5855 81.6891 98.3218 82.0671 98.9176C82.4452 99.5134 82.8571 99.9743 83.2408 100.514L81.7568 101.155Z" fill="white"/>
<path d="M83.3084 88.2888C82.9033 88.5332 82.5551 88.8609 82.2871 89.2499C82.2871 89.2499 82.1686 89.5983 82.0501 90.0817C81.9316 90.5651 81.83 91.2059 81.6551 91.8298C81.5143 92.1497 81.4982 92.5103 81.61 92.8414C81.7199 93.2188 81.7563 93.6138 81.7172 94.0049C81.7349 94.7003 81.8943 95.3849 82.1855 96.0171C82.2984 96.8827 82.1855 98.6306 82.4169 99.3164C82.5059 99.6009 82.631 99.8729 82.7893 100.126C82.9416 100.39 83.0827 100.587 83.0827 100.587L81.5592 101.239C81.3917 100.75 81.256 100.25 81.1529 99.7435C80.9423 99.253 80.8796 98.712 80.9723 98.1866C81.0242 97.4746 80.9594 96.759 80.7805 96.0678C80.7128 95.7193 80.6451 95.3651 80.5774 95.0054C80.504 94.6738 80.4137 94.2803 80.3573 93.8813C80.2485 93.1783 80.2277 92.4647 80.2952 91.7566C80.2973 91.1567 80.3407 90.5577 80.425 89.9637C80.583 89.3454 81.0965 88.8957 81.3899 88.3618C81.6413 87.7954 82.0017 87.2837 82.4507 86.8555L83.3084 88.2888Z" fill="white"/>
<path d="M94.6163 93.4318C94.1311 93.0777 93.674 92.6955 93.2338 92.3077C92.9217 92.142 92.6218 91.9541 92.3367 91.7456C91.7729 91.3424 91.2711 90.8596 90.847 90.3124C90.4181 89.7503 90.2489 89.6605 90.0683 89.5818C89.7093 89.4044 89.3906 89.1557 89.1316 88.8511C88.8426 88.537 88.4649 88.3174 88.0482 88.2215C87.7774 88.1765 87.6081 88.2216 87.4332 88.1597C86.944 87.9762 86.4448 87.8204 85.9379 87.6932C85.4511 87.5696 84.9437 87.5486 84.4482 87.6314C84.1766 87.6999 83.9203 87.818 83.6921 87.9798C83.592 88.0423 83.4991 88.1159 83.4156 88.1991L83.3084 88.2946L82.4507 86.8782C82.9613 86.6186 83.5097 86.4403 84.0758 86.3499C84.622 86.149 85.2223 86.149 85.7686 86.3499C86.3949 86.5747 87.2865 86.6534 88.0257 86.8726C88.7957 87.1057 89.5207 87.4667 90.1699 87.9405C90.7351 88.3477 91.2672 88.7988 91.7611 89.2895C92.1561 89.6829 92.6696 89.9359 93.0928 90.29C93.516 90.6441 93.7417 91.2173 94.2213 91.504C94.7009 91.7906 95.1636 91.9312 95.632 92.1054L94.6163 93.4318Z" fill="white"/>
</g>
<defs>
<clipPath id="clip0_832_12200">
<rect width="163" height="131" fill="white"/>
</clipPath>
</defs>
</svg>
