<?xml version="1.0" encoding="UTF-8"?><svg xmlns="http://www.w3.org/2000/svg" viewBox="0 0 307.8 218.3"><defs><style>.e{fill:none;}.f{fill:#003dff;}.g{fill:#0091ff;}.h{fill:#ff00c7;}.i{fill:#ff4300;}.j{fill:#ff92da;}</style></defs><g id="a"/><g id="b"><g id="c"><rect class="e" width="307.8" height="218.3"/></g><g id="d"><path class="f" d="M227.47,110.06c.25-20.9-8.47-41.15-24.03-55.32-2.22-2.02-4.59-3.92-7.08-5.68-3.99-2.82-8.33-5.27-12.98-7.31-37.22-16.27-80.59,.71-96.86,37.93-4.07,9.31-6.06,18.99-6.17,28.55-.18,14.93,4.22,29.53,12.42,41.81,.33,.49,.66,.98,1,1.46,1.36,1.94,2.82,3.81,4.37,5.62,.78,.9,1.57,1.79,2.4,2.65,6.57,6.94,14.61,12.7,23.92,16.77,.76,.33,1.51,.64,2.27,.95,.2,.08,.39,.15,.59,.23,.68,.26,1.36,.52,2.05,.76,.09,.03,.17,.06,.26,.1,.76,.27,1.53,.52,2.3,.76,.18,.06,.36,.11,.55,.17,.66,.2,1.33,.4,2,.58,.12,.03,.25,.07,.37,.11,.78,.21,1.56,.41,2.34,.59,.15,.03,.29,.07,.44,.1,.69,.16,1.37,.3,2.06,.44,.13,.03,.27,.05,.4,.08,.8,.15,1.6,.3,2.41,.42,.08,.01,.16,.02,.24,.04,.74,.11,1.48,.22,2.22,.31,.12,.02,.25,.03,.37,.05,1.64,.19,3.28,.33,4.91,.41,.1,0,.2,.01,.31,.02,1.66,.08,3.32,.1,4.97,.06,.07,0,.14,0,.22,0,1.68-.04,3.35-.14,5.02-.3,.04,0,.07,0,.11-.01,1.69-.16,3.38-.38,5.05-.66,.46-.08,.91-.16,1.34-.24h0c9.6-1.76,18.77-5.43,26.94-10.77v-.02c7.95-5.19,14.95-11.94,20.5-20.07,.02-.03,.05-.07,.07-.1,.49-.73,.98-1.46,1.45-2.21l.02-.03c.43-.68,.85-1.38,1.25-2.08,.08-.13,.15-.26,.23-.39,.41-.72,.82-1.45,1.21-2.19,.02-.05,.05-.09,.07-.14,.36-.68,.7-1.36,1.04-2.05,.09-.19,.18-.37,.27-.56,.35-.74,.7-1.48,1.03-2.24h0c3.43-7.86,5.38-15.99,5.98-24.07,.11-1.5,.18-2.99,.2-4.49Z"/><path class="j" d="M204.89,59.68c-3.18-5.18-7.53-9.6-12.53-13.24-2.85-1.74-5.85-3.32-9-4.69-37.22-16.27-80.59,.71-96.86,37.93-13.42,30.69-4.23,65.55,20.27,85.97,4.14,3.11,8.76,5.86,13.87,8.23,8.13,3.78,17.53,4.77,26.27,2.77,2.53-.58,5.27-1.62,6.41-3.95,1.27-2.61,.02-5.72-1.42-8.24-4.11-7.22-9.78-13.42-14.34-20.37-7.86-11.98-12.23-25.94-14.93-40.02-2.34-12.18-3.21-25.79,3.8-36.02,1.11-1.61,2.42-3.13,4.08-4.16,5.82-3.59,13.88,.25,17.34,6.15,3.46,5.9,3.62,13.08,3.93,19.92,.85,18.58,3.63,37.46,12.03,54.07,2.64,5.22,5.89,10.26,10.4,13.98,4.51,3.72,10.44,6.02,16.24,5.21,9.44-1.33,18.96-9.91,21.76-19.02,10.86-35.31-5.99-61.36-7.12-68.05-.86-5.08,4.33-9.04-.21-16.45Z"/><path class="i" d="M121.09,44.19c-20.25,11.12-33.75,29.43-38.11,52.12s2.83,47.54,19.43,63.61c3.92,3.79,8.39,7.14,13.51,9.03,5.12,1.89,10.95,2.22,15.99,.11,1.1-.46,2.19-1.06,2.91-2.02,1.13-1.51,1.12-3.59,.81-5.45-.63-3.83-2.26-7.41-3.95-10.9-6.39-13.15-11.07-25.88-14.43-40.11s-.67-35.77,7.5-43.94c9.9-9.9,25.71-7.83,29.3,17.75,2.29,16.35,21.8,76.89,46.39,57.03,11.5-9.29,14.36-19.24,9.58-41.62-5.19-24.31-16.44-27.88-14.65-29.84,3.08-3.36,6.3,6.6,7.54-1.77,.29-1.97-.08-12.18-13.65-21.22-6.41-4.27-15.53-8.41-23.14-9.6-13.95-2.18-29.78-1.57-45.02,6.8Z"/><path class="g" d="M119.59,46.32c-14.27,8.72-25.43,22.43-31.06,38.18s-5.69,33.43-.18,49.22c3.12,8.94,8.15,17.46,15.62,23.28,2.98,2.32,6.87,4.24,10.42,2.97,3.14-1.12,5.01-4.5,5.34-7.82s-.58-6.61-1.47-9.82c-3.71-13.41-7.23-27.13-6.7-41.04,.29-7.65,1.81-15.25,4.48-22.42,2.27-6.09,5.51-12.03,10.57-16.11,5.06-4.08,12.22-5.99,18.25-3.55,5,2.02,8.54,6.68,10.57,11.68s2.76,10.41,3.72,15.72c1.2,6.6,2.81,13.22,5.95,19.15s7.96,11.18,14.16,13.75,13.85,2.08,19.06-2.15c6.89-5.6,7.89-15.92,5.79-24.55-1.28-5.26-3.49-10.28-6.37-14.87-3.42-5.44-7.74-10.25-12.24-14.84-1.34-1.37-2.81-3.3-1.93-5.01,.98-1.9,3.98-1.44,5.5,.05s2.29,3.64,3.83,5.11c1.54,1.47,4.58,1.82,5.47-.12,.28-.62,.27-1.33,.19-2.01-.55-4.57-3.95-8.28-7.55-11.15-3.7-2.95-7.8-5.39-12.15-7.24-18.42-7.82-41.3-7.41-59.29,3.58Z"/><path class="f" d="M120.43,48.03c-21.89,14-34.94,40.73-32.52,66.6,.62,6.59,2.55,13.7,7.98,17.5,.69,.48,1.48,.92,2.32,.89,1.95-.06,2.94-2.32,3.41-4.21,2.87-11.65,3.23-23.77,5.46-35.56,2.23-11.79,6.71-23.78,15.91-31.48,6.29-5.26,15.14-8.13,22.89-5.45,7.39,2.55,12.31,9.37,16.74,15.81l8.51,12.36c2.43,3.53,5.02,7.21,8.84,9.16s9.25,1.48,11.51-2.16c1.7-2.74,1.15-6.3,.17-9.38-1.54-4.84-3.99-9.4-7.19-13.35-1.88-2.33-4.08-4.57-4.83-7.47s.75-6.65,3.73-6.97c.71-.08,1.5,.03,2.07-.4,1-.74,.52-2.32-.15-3.36-5.74-8.93-17.7-11.2-28.31-11.58-13.9-.49-27.23,3.11-36.55,9.07Z"/><path class="j" d="M220.44,77.8c-.79-1.44-1.68-2.83-2.69-4.15-.55-.71-1.15-1.42-1.95-1.83-.8-.41-1.84-.46-2.55,.09-.48,.37-.74,.96-.89,1.54-.45,1.78,0,3.65,.47,5.43,2.84,10.77,7.81,21.15,8.64,32.26,1.12,14.96-1.84,29.4-3.53,33.54,.32-.36,.62-.73,.92-1.09,.86-1.62,1.68-3.28,2.43-4.99,8.85-20.23,7.86-42.28-.85-60.8Z"/><path class="j" d="M126.35,46.27c-8.09,5.38-15.63,11.81-21.16,19.8-5.53,7.99-8.96,17.66-8.41,27.36,.12,2.07,.92,4.65,2.98,4.83,2.07,.19,3.31-2.21,3.83-4.23,1.34-5.19,1.79-10.6,3.54-15.67,1.7-4.94,4.58-9.37,7.43-13.75,1.81-2.78,3.65-5.59,6.11-7.81,3.24-2.91,7.43-4.64,11.72-5.39,4.8-.84,9.86-.48,14.36,1.41,5.66,2.39,10.07,7.01,13.86,11.85,2.55,3.26,4.93,6.7,8.02,9.45s7.08,4.78,11.21,4.54c.95-.06,1.96-.27,2.62-.96,1.26-1.33,.53-3.52-.42-5.09-4.37-7.25-11.69-12.19-19.09-16.3-1.4-.78-2.87-1.58-3.8-2.9s-1.13-3.3,0-4.43c.89-.89,2.25-1.01,3.47-1.29s2.58-1.02,2.68-2.27c.05-.64-.25-1.26-.64-1.76-1.47-1.86-4.04-2.37-6.39-2.62-11.37-1.21-23.62-.3-31.91,5.21Z"/><path class="h" d="M161.97,160.1c-10.82-19.98-13.81-43.14-18.94-65.3-.81-3.49-1.97-7.37-5.13-9.06-.7-.37-1.51-.61-2.27-.43-.77,.19-1.38,.79-1.88,1.4-3.51,4.32-3.76,10.39-3.22,15.93,1.89,19.53,11.61,37.9,25.47,51.78,1.94,1.94,3.96,3.8,5.98,5.67Z"/></g></g></svg>