<?xml version="1.0" encoding="UTF-8"?><svg xmlns="http://www.w3.org/2000/svg" viewBox="0 0 307.8 283.57"><defs><style>.h,.i,.j{fill:none;}.i{stroke-width:.41px;}.i,.j{stroke:#000;stroke-miterlimit:10;}.k{fill:#003dff;}.l{fill:#0091ff;}.m{fill:#edeeee;}.n{fill:#f1f2f2;}.o{fill:#ff00c7;}.p{fill:#ff4300;}.q{fill:#ff92da;}.r{fill:#b9b9b9;}.s{fill:#2d2d2d;}.j{stroke-width:.57px;}</style></defs><g id="a"/><g id="b"><g id="c"><rect class="h" width="307.8" height="283.57"/><rect class="h" y="32.64" width="307.8" height="218.3"/></g><g id="d"><path class="k" d="M227.47,142.7c.25-20.9-8.47-41.15-24.03-55.32-2.22-2.02-4.59-3.92-7.08-5.68-3.99-2.82-8.33-5.27-12.98-7.31-37.22-16.27-80.59,.71-96.86,37.93-4.07,9.31-6.06,18.99-6.17,28.55-.18,14.93,4.22,29.53,12.42,41.81,.33,.49,.66,.98,1,1.46,1.36,1.94,2.82,3.81,4.37,5.62,.78,.9,1.57,1.79,2.4,2.65,6.57,6.94,14.61,12.7,23.92,16.77,.76,.33,1.51,.64,2.27,.95,.2,.08,.39,.15,.59,.23,.68,.26,1.36,.52,2.05,.76,.09,.03,.17,.06,.26,.1,.76,.27,1.53,.52,2.3,.76,.18,.06,.36,.11,.55,.17,.66,.2,1.33,.4,2,.58,.12,.03,.25,.07,.37,.11,.78,.21,1.56,.41,2.34,.59,.15,.03,.29,.07,.44,.1,.69,.16,1.37,.3,2.06,.44,.13,.03,.27,.05,.4,.08,.8,.15,1.6,.3,2.41,.42,.08,.01,.16,.02,.24,.04,.74,.11,1.48,.22,2.22,.31,.12,.02,.25,.03,.37,.05,1.64,.19,3.28,.33,4.91,.41,.1,0,.2,.01,.31,.02,1.66,.08,3.32,.1,4.97,.06,.07,0,.14,0,.22,0,1.68-.04,3.35-.14,5.02-.3,.04,0,.07,0,.11-.01,1.69-.16,3.38-.38,5.05-.66,.46-.08,.91-.16,1.34-.24h0c9.6-1.76,18.77-5.43,26.94-10.77v-.02c7.95-5.19,14.95-11.94,20.5-20.07,.02-.03,.05-.07,.07-.1,.49-.73,.98-1.46,1.45-2.21l.02-.03c.43-.68,.85-1.38,1.25-2.08,.08-.13,.15-.26,.23-.39,.41-.72,.82-1.45,1.21-2.19,.02-.05,.05-.09,.07-.14,.36-.68,.7-1.36,1.04-2.05,.09-.19,.18-.37,.27-.56,.35-.74,.7-1.48,1.03-2.24h0c3.43-7.86,5.38-15.99,5.98-24.07,.11-1.5,.18-2.99,.2-4.49Z"/><path class="q" d="M204.89,92.32c-3.18-5.18-7.53-9.6-12.53-13.24-2.85-1.74-5.85-3.32-9-4.69-37.22-16.27-80.59,.71-96.86,37.93-13.42,30.69-4.23,65.55,20.27,85.97,4.14,3.11,8.76,5.86,13.87,8.23,8.13,3.78,17.53,4.77,26.27,2.77,2.53-.58,5.27-1.62,6.41-3.95,1.27-2.61,.02-5.72-1.42-8.24-4.11-7.22-9.78-13.42-14.34-20.37-7.86-11.98-12.23-25.94-14.93-40.02-2.34-12.18-3.21-25.79,3.8-36.02,1.11-1.61,2.42-3.13,4.08-4.16,5.82-3.59,13.88,.25,17.34,6.15,3.46,5.9,3.62,13.08,3.93,19.92,.85,18.58,3.63,37.46,12.03,54.07,2.64,5.22,5.89,10.26,10.4,13.98,4.51,3.72,10.44,6.02,16.24,5.21,9.44-1.33,18.96-9.91,21.76-19.02,10.86-35.31-5.99-61.36-7.12-68.05-.86-5.08,4.33-9.04-.21-16.45Z"/><path class="p" d="M121.09,76.83c-20.25,11.12-33.75,29.43-38.11,52.12s2.83,47.54,19.43,63.61c3.92,3.79,8.39,7.14,13.51,9.03,5.12,1.89,10.95,2.22,15.99,.11,1.1-.46,2.19-1.06,2.91-2.02,1.13-1.51,1.12-3.59,.81-5.45-.63-3.83-2.26-7.41-3.95-10.9-6.39-13.15-11.07-25.88-14.43-40.11s-.67-35.77,7.5-43.94c9.9-9.9,25.71-7.83,29.3,17.75,2.29,16.35,21.8,76.89,46.39,57.03,11.5-9.29,14.36-19.24,9.58-41.62-5.19-24.31-16.44-27.88-14.65-29.84,3.08-3.36,6.3,6.6,7.54-1.77,.29-1.97-.08-12.18-13.65-21.22-6.41-4.27-15.53-8.41-23.14-9.6-13.95-2.18-29.78-1.57-45.02,6.8Z"/><path class="l" d="M119.59,78.95c-14.27,8.72-25.43,22.43-31.06,38.18s-5.69,33.43-.18,49.22c3.12,8.94,8.15,17.46,15.62,23.28,2.98,2.32,6.87,4.24,10.42,2.97,3.14-1.12,5.01-4.5,5.34-7.82s-.58-6.61-1.47-9.82c-3.71-13.41-7.23-27.13-6.7-41.04,.29-7.65,1.81-15.25,4.48-22.42,2.27-6.09,5.51-12.03,10.57-16.11,5.06-4.08,12.22-5.99,18.25-3.55,5,2.02,8.54,6.68,10.57,11.68s2.76,10.41,3.72,15.72c1.2,6.6,2.81,13.22,5.95,19.15s7.96,11.18,14.16,13.75,13.85,2.08,19.06-2.15c6.89-5.6,7.89-15.92,5.79-24.55-1.28-5.26-3.49-10.28-6.37-14.87-3.42-5.44-7.74-10.25-12.24-14.84-1.34-1.37-2.81-3.3-1.93-5.01,.98-1.9,3.98-1.44,5.5,.05s2.29,3.64,3.83,5.11c1.54,1.47,4.58,1.82,5.47-.12,.28-.62,.27-1.33,.19-2.01-.55-4.57-3.95-8.28-7.55-11.15-3.7-2.95-7.8-5.39-12.15-7.24-18.42-7.82-41.3-7.41-59.29,3.58Z"/><path class="k" d="M120.43,80.66c-21.89,14-34.94,40.73-32.52,66.6,.62,6.59,2.55,13.7,7.98,17.5,.69,.48,1.48,.92,2.32,.89,1.95-.06,2.94-2.32,3.41-4.21,2.87-11.65,3.23-23.77,5.46-35.56,2.23-11.79,6.71-23.78,15.91-31.48,6.29-5.26,15.14-8.13,22.89-5.45,7.39,2.55,12.31,9.37,16.74,15.81l8.51,12.36c2.43,3.53,5.02,7.21,8.84,9.16s9.25,1.48,11.51-2.16c1.7-2.74,1.15-6.3,.17-9.38-1.54-4.84-3.99-9.4-7.19-13.35-1.88-2.33-4.08-4.57-4.83-7.47s.75-6.65,3.73-6.97c.71-.08,1.5,.03,2.07-.4,1-.74,.52-2.32-.15-3.36-5.74-8.93-17.7-11.2-28.31-11.58-13.9-.49-27.23,3.11-36.55,9.07Z"/><path class="q" d="M220.44,110.44c-.79-1.44-1.68-2.83-2.69-4.15-.55-.71-1.15-1.42-1.95-1.83-.8-.41-1.84-.46-2.55,.09-.48,.37-.74,.96-.89,1.54-.45,1.78,0,3.65,.47,5.43,2.84,10.77,7.81,21.15,8.64,32.26,1.12,14.96-1.84,29.4-3.53,33.54,.32-.36,.62-.73,.92-1.09,.86-1.62,1.68-3.28,2.43-4.99,8.85-20.23,7.86-42.28-.85-60.8Z"/><path class="q" d="M126.35,78.91c-8.09,5.38-15.63,11.81-21.16,19.8-5.53,7.99-8.96,17.66-8.41,27.36,.12,2.07,.92,4.65,2.98,4.83,2.07,.19,3.31-2.21,3.83-4.23,1.34-5.19,1.79-10.6,3.54-15.67,1.7-4.94,4.58-9.37,7.43-13.75,1.81-2.78,3.65-5.59,6.11-7.81,3.24-2.91,7.43-4.64,11.72-5.39,4.8-.84,9.86-.48,14.36,1.41,5.66,2.39,10.07,7.01,13.86,11.85,2.55,3.26,4.93,6.7,8.02,9.45s7.08,4.78,11.21,4.54c.95-.06,1.96-.27,2.62-.96,1.26-1.33,.53-3.52-.42-5.09-4.37-7.25-11.69-12.19-19.09-16.3-1.4-.78-2.87-1.58-3.8-2.9s-1.13-3.3,0-4.43c.89-.89,2.25-1.01,3.47-1.29s2.58-1.02,2.68-2.27c.05-.64-.25-1.26-.64-1.76-1.47-1.86-4.04-2.37-6.39-2.62-11.37-1.21-23.62-.3-31.91,5.21Z"/><path class="o" d="M161.97,192.74c-10.82-19.98-13.81-43.14-18.94-65.3-.81-3.49-1.97-7.37-5.13-9.06-.7-.37-1.51-.61-2.27-.43-.77,.19-1.38,.79-1.88,1.4-3.51,4.32-3.76,10.39-3.22,15.93,1.89,19.53,11.61,37.9,25.47,51.78,1.94,1.94,3.96,3.8,5.98,5.67Z"/></g><g id="e"><path class="m" d="M164.07,222.8c-.62,4.54-1.17,6.56,.03,7.8,1.46,1.5,4.79,.07,8.64-1.08-4.28,2.11-7.08,2.83-7.48,4.58s1.46,4.76,2.5,7.83c-1.36-2.6-3.38-6.13-5.49-6.33s-6.08,3.73-7.86,4.96c1.84-1.9,5.29-4.75,4.69-7.5-.51-2.32-2.46-2.09-5.19-4.38,2.43,1.14,5.39,2.87,6.81,2.09,1.61-.88,2.22-3.97,3.36-7.98Z"/><path class="m" d="M248.1,89.49c-1.13,8.2-2.12,11.83,.05,14.07,2.64,2.72,8.65,.13,15.59-1.96-7.73,3.81-12.77,5.11-13.5,8.27s2.63,8.59,4.51,14.14c-2.46-4.7-6.09-11.07-9.92-11.42s-10.98,6.74-14.2,8.96c3.31-3.43,9.55-8.57,8.46-13.53-.92-4.18-4.45-3.78-9.36-7.91,4.38,2.06,9.74,5.17,12.3,3.78,2.9-1.58,4.02-7.17,6.06-14.4Z"/><circle class="m" cx="286" cy="74.97" r="3.8"/><circle class="m" cx="203.33" cy="59.03" r="3.8"/></g><g id="f"><g><circle class="m" cx="33.63" cy="178.32" r="30.11"/><g><ellipse class="m" cx="16.72" cy="176.11" rx="18.2" ry="13.04" transform="translate(-159.09 156.5) rotate(-78.21)"/><ellipse class="s" cx="15.62" cy="176.11" rx="15.29" ry="10.96" transform="translate(-159.97 155.42) rotate(-78.21)"/><ellipse class="m" cx="13.8" cy="175.73" rx="11.94" ry="8.56" transform="translate(-161.04 153.34) rotate(-78.21)"/><ellipse class="r" cx="13.32" cy="175.73" rx="8.86" ry="6.35" transform="translate(-161.43 152.87) rotate(-78.21)"/><ellipse class="s" cx="15.62" cy="176.11" rx="4.51" ry="3.23" transform="translate(-159.97 155.42) rotate(-78.21)"/></g><ellipse class="m" cx="42.52" cy="166.81" rx="14.42" ry="19.9" transform="translate(-98.53 68.12) rotate(-40.72)"/><ellipse class="s" cx="41.48" cy="168.1" rx="11.99" ry="15.82" transform="translate(-99.62 67.75) rotate(-40.72)"/><ellipse class="r" cx="40.98" cy="168.54" rx="9.33" ry="11.57" transform="translate(-100.03 67.53) rotate(-40.72)"/><ellipse class="m" cx="39.73" cy="169.6" rx="6.66" ry="8.26" transform="translate(-101.02 66.98) rotate(-40.72)"/><ellipse class="s" cx="38.04" cy="171.06" rx="3.96" ry="5.47" transform="translate(-102.38 66.23) rotate(-40.72)"/><g><ellipse class="m" cx="33.32" cy="193.9" rx="17.35" ry="9.29" transform="translate(-61.8 21.68) rotate(-19.16)"/><ellipse class="s" cx="32.06" cy="193.1" rx="13.52" ry="7.27" transform="translate(-61.61 21.22) rotate(-19.16)"/><ellipse class="r" cx="31.88" cy="192.57" rx="9.89" ry="6.1" transform="translate(-61.44 21.13) rotate(-19.16)"/><ellipse class="m" cx="31.27" cy="190.82" rx="7.09" ry="3.83" transform="translate(-60.9 20.84) rotate(-19.16)"/><ellipse class="s" cx="30.97" cy="189.95" rx="4.53" ry="2.44" transform="translate(-60.63 20.69) rotate(-19.16)"/></g><g><ellipse class="m" cx="53.34" cy="192.14" rx="11.61" ry="6.44" transform="translate(-143.65 161.19) rotate(-65.56)"/><ellipse class="s" cx="53.89" cy="192.23" rx="9.76" ry="5.42" transform="translate(-143.41 161.74) rotate(-65.56)"/><ellipse class="m" cx="54.72" cy="192.61" rx="7.62" ry="4.23" transform="translate(-143.26 162.73) rotate(-65.56)"/><ellipse class="r" cx="54.96" cy="192.64" rx="5.65" ry="3.14" transform="translate(-143.16 162.97) rotate(-65.56)"/><ellipse class="s" cx="53.89" cy="192.23" rx="2.88" ry="1.6" transform="translate(-143.41 161.74) rotate(-65.56)"/></g></g></g><g id="g"><g><g><path class="l" d="M246.29,146.86l-21.07,6.4-21.07,6.4c-11.29,3.43-51.34,25.81-50.1,29.89s46.97,.4,58.26-3.03l21.07-6.4,21.07-6.4c11.29-3.43,51.34-25.81,50.1-29.89s-46.97-.4-58.26,3.03Z"/><path class="l" d="M241.7,138.59c-.62-2.03-12.96-3.38-15.84-2.5l-5.37,1.63-5.37,1.63c-2.88,.87-12.39,8.86-11.77,10.89h0l38.34-11.65h0Z"/><path class="k" d="M154.36,189.84c-.09-.29-.17-.58-.25-.86-.08,.22-.1,.42-.05,.58,1.24,4.08,46.97,.4,58.26-3.03l21.07-6.4,21.07-6.4c11.29-3.43,51.34-25.81,50.1-29.89,0,0-40.22,6.23-78.04,17.72-35.89,9.78-72.46,28.01-72.15,28.29Z"/><path class="l" d="M233.57,139.84l-11.37,3.46-11.92,3.62c-9.17,2.79-22.67,14.47-21.75,17.5h0l.89,2.93,73.39-22.3-.89-2.93h0c-.92-3.03-19.46-4.98-28.35-2.27Z"/><path class="k" d="M206.3,186.89l.41,1.34h0c.86,2.83,18.04,4.7,22.04,3.48h0c5.17-.78,10.21-2.31,14.94-4.54h0c4-1.22,17.23-12.32,16.37-15.15h0l-.41-1.34-53.35,16.21Z"/></g><g><path d="M269.03,152.17c-.98,.28-.65,1.74,.35,1.58,5.16-.81,12.43-3.19,12.8-1.25,1,5.33-25.64,7.27-35.15,10.75-1.04,.38-.62,1.93,.46,1.74,4.91-.9,11.34-3.68,11.63-1.36,.24,1.9-9.04,1.55-8.83,3.85,.16,1.81,8.33-2.02,6.71,2.36-1.28,3.44-5.15,10.13-14.54,14.23-5.66,2.47-12.93,3.17-12.45,4.41,.54,1.39,13.48-.41,21.9-7.55,4.71-3.99,6.78-7.72,7.35-9.43,.29-.88,.36-1.89,.99-2.57,.39-.42,.95-.65,1.48-.87,8.94-3.63,13.33-5.34,21.84-9.89,6.04-3.23,13.92-8.81,17.82-12.7-4.37,.4-23.01,4.05-32.36,6.7Z"/><path d="M168.12,180.67c7.74-5.95,16.31-10.72,24.84-15.47,.76-.42,1.56-.85,2.42-.84-1.14,1.17-2.21,2.41-3.2,3.7-.44,.56-.87,1.33-.5,1.94,.46,.74,1.6,.47,2.34,.01,1.38-.84,2.55-2.02,3.4-3.39,.96-1.55,1.55-3.42,2.99-4.54,1.42-1.11,3.34-1.24,5.14-1.33l-.28,1.28c.56,.13,1.09-.36,1.35-.88s.39-1.11,.78-1.54c.25-.27,.59-.45,.92-.61,2.57-1.29,5.23-2.41,7.95-3.35,.27,.63-.52,1.14-1.1,1.48-3.3,1.91-3.68,6.62-6.37,9.32-.24,.24-.53,.47-.87,.44-.84-.08-.68-1.47-1.32-2.03-.47-.41-1.25-.2-1.7,.23s-.7,1.04-1.06,1.56c-.69,1-1.82,1.69-3.02,1.85l.22-1.75c-.77,.05-1.1,.96-1.52,1.59-.66,.99-1.82,1.51-2.92,1.95-2.87,1.16-5.81,2.15-8.79,2.97l1.06-2.37c.1-.22,.19-.48,.06-.68-.2-.32-.7-.15-1.02,.06l-8.18,5.25c-4.39,2.82-8.96,5.71-14.12,6.51,.41-.36,1.06-.28,2.5-1.39Z"/><path d="M197.36,160.56c-1.4,.71,2.19-4.73,5.99-8.08,2.57-2.27,5.85-3.79,8.34-4.92,.22-.1,.42,.2,.23,.35-2.17,1.73-3.45,3.34-4.63,5.37-.82,1.41-.67,2.84-1.85,3.97-.87,.83-3.5,.98-8.08,3.31Z"/><path d="M206.53,148.04c1.57-2.15,3.54-3.97,5.56-5.7,.59-.51,1.19-1.02,1.86-1.41,.83-.49,1.74-.8,2.65-1.1,1.83-.62,3.69-1.24,5.62-1.31,.09,.59-.88,.78-1.07,1.34-.02,.07-.03,.15,0,.21,.05,.07,.14,.08,.23,.09,.4,.03,.8,.04,1.2,.04-.25,.07-.25,.47-.04,.63s.5,.13,.76,.11l4.22-.46c-.05,.26-.33,.38-.58,.47-6.85,2.46-14.06,4-20.43,7.1Z"/><path d="M209.31,156.65c1.3-3.42,3.28-6.59,5.05-8.71,.91-1.1,3.32-2.55,4.71-2.9-1.33,1.16-2.54,2.6-3.39,4.11-.91,1.59-1.32,5.31-1.48,5.59-.18,.32-3.18,1.53-4.88,1.91Z"/><path d="M221.84,142.92c2.26,.24,7.21-.25,9.56,2.35,1.72,1.91,1.25,4.35,1.54,4.48,.23,.1,7.27-1.63,10.1-2.25-2.69-.59-7.72-.79-9.64-2.3-2.12-1.67-2.05-4.15-2.47-4.44-.71-.49-7.56,1.88-9.09,2.16Z"/><path d="M236.44,149.25c-1.51,.66-2.16,1.39-2.11,2.21,.11,1.81,10.56,4.56,16.01,3.53-4.68,1.06-8.9,3.09-14.1,3.88-6.38,1.45,2.29-1.44,1.71-3.34-.41-1.36-9.44-4.93-15.33-2.75,4.49-1.3,9.83-2.53,13.81-3.54Z"/><path d="M198.34,181.68c-.76-1.71,3.27-4.17,7.7-6.38,.84-.42,.3-1.69-.58-1.38-11.46,3.96-20.23,8.7-25.74,10.18-.54,.14-1.13-.12-1.31-.64-.17-.5,.14-.78,.43-1.03,1.4-1.18,2.93-2.2,4.57-3.02-6.5,2.19-15.11,5.34-22.25,8.31-.03,.01-3.44,1.2-6.42,2.49,5.11,2.61,36.83,.34,52.01-2.42,.36-.37,.8-.77,1.37-1.2,.21-.13,.4-.26,.56-.42,.5-.36,.8-.63,.94-.84,8.94-7.79,16.45-8.51,28.8-14.04-21.78,4.39-37.58,15.98-40.07,10.39Z"/></g><path class="j" d="M154.06,189.56s36.57-18.22,72.46-28.01c37.82-11.49,78.04-17.72,78.04-17.72"/><path class="j" d="M189,165.98s17.84-8.89,35.34-13.66c18.44-5.6,38.06-8.64,38.06-8.64"/><path class="i" d="M203.36,150.24s20.37-10.02,38.34-11.65"/><path class="m" d="M223.29,138.5c2.02-1.66,4.88-1.75,7.49-1.54,1.47,.11,2.93,.29,4.38,.54,.48,.08,1.09,.34,1.01,.82-.99,.64-2.3,.31-3.4-.1s-2.32-.87-3.42-.46c-.25,.1-.49,.24-.75,.29-.39,.08-.79-.04-1.18-.11-1.43-.27-2.96,0-4.12,.56Z"/><path class="m" d="M217.77,139.43c-1.91,.83-3.02,1.73-4.37,2.84-1.9,1.56-2.64,3.7-1.83,3.45,3.04-.92-.37-.14,1.08-1.96,1.37-1.72,2.78-2.98,5.12-4.33Z"/><path class="m" d="M225.39,147.35c-8.83,2.93-18.26,4.13-26.66,8.13-2.59,1.23-5.17,2.84-6.54,5.35-.15,.27-.29,.6-.15,.89,.16,.35,.66,.42,1,.25s.58-.5,.81-.81c3-3.99,8.06-5.74,12.8-7.28,6.49-2.1,12.99-4.21,18.74-6.53Z"/><path class="m" d="M220.16,157.94l-25.93,7.84c-2.6,.79-5.41,1.72-6.9,3.99-.22,.33-.35,.87,.01,1.03,.22,.1,.47-.04,.67-.17,4.83-3.11,10.37-4.91,15.83-6.68,5.1-1.65,10.2-3.3,16.31-6.01Z"/><path class="m" d="M251.99,169.98c-1.92,.53-3.93,1.78-5.34,3.31-.26,.28-.5,.58-.61,.87s-.07,.58,.19,.67c.16,.05,.38,.02,.6-.03,1.06-.25,2.12-.94,3.19-1.42s2.35-.71,2.71-.08c.24,.42-.03,1.1-.41,1.72-.82,1.33-2.08,2.58-3.31,3.79,1.38-1,2.66-2.12,3.8-3.31,1.21-1.26,2.3-2.68,2.55-3.97s-.62-2.3-3.37-1.54Z"/><path class="m" d="M255.67,146.1c3.41-.43,8.21-.94,12.2-.97,4.43-.03,7.12-.29,7.54,1.39,.43,1.71-7.05,3.4-7.38,2.92-.5-.74,1.76-1.5,1.32-2.15-.63-.92-5.27,.91-5.74,.39-.29-.33,.54-.77-.08-1.12-.65-.37-5.79,.17-7.77,.17-1.69,0-.88-.53-.09-.63Z"/><path class="m" d="M237.74,140.81c5.07-.72,10.38-1.29,15.18,.49,.35,.13,.71,.28,.96,.57s.32,.75,.07,1.03c-.13,.15-.32,.22-.51,.29-2.29,.82-4.75,1.19-7.18,1.08-.29-.01-.69-.18-.6-.46,.04-.11,.15-.18,.26-.24,.47-.25,.96-.45,1.46-.6,.53-.16,1.23-.48,1.1-1.02-.09-.36-.53-.51-.9-.54-1.32-.1-2.61,.52-3.92,.39-.2-.02-.45-.11-.46-.31,0-.1,.06-.2,.05-.3-.01-.21-.29-.28-.51-.29-1.73-.03-3.47,.46-5.17,.15-.06-.01-.13-.03-.15-.09s.1-.12,.32-.15Z"/><path class="m" d="M228.47,188.94c-3.57,.86-7.34,.87-10.92,.03-1.37-.32-2.73-.78-3.85-1.62-.24-.18-.48-.4-.51-.7-.07-.58,.68-.9,1.27-.87,1.31,.08,2.42,.92,3.59,1.5,2.35,1.15,5.09,1.24,7.69,.97,.96-.1,2.08-.19,2.73,.68Z"/><path class="m" d="M208.44,169.28c-10.23,2.93-20.25,6.58-29.96,10.92-.67,.3-1.37,.63-1.76,1.25s-.27,1.61,.41,1.88c.45,.18,.96,0,1.4-.21,2.05-.93,3.96-2.14,5.9-3.28,7.48-4.38,15.62-7.61,24.02-10.57Z"/></g><g><path class="n" d="M50.85,126.1l-1.86,1.46s-1.57,1.82-3.3,2.72c-1.8,.94-.65,.76-2.64,1.87-1.61,.9-1.67,1.45-2.1,1.79-.9,.72-3.03,1.96-3.82,2.61-.51,.41-1.48,1.47-1.48,1.47l-1.11-1.41,1.6-1.12c.48-.49,1.05-.87,1.68-1.13,.76-.31,1.61-1.11,2.33-1.73,1.53-1.31,3.33-2.62,4.64-3.53,.62-.43,1.1-1.03,1.67-1.51,.58-.49,1.36-.73,1.89-1.27l1.37-1.65,1.11,1.4Z"/><path class="n" d="M65.89,113.94l-1.81,1.53s-1.52,1.87-3.24,2.8c-1.78,.98-.64,.77-2.62,1.91-1.6,.93-1.65,1.46-2.08,1.81-.9,.73-3.02,1.98-3.81,2.63-.51,.42-1.48,1.48-1.48,1.48l-1.11-1.4,1.6-1.12c.48-.49,1.05-.87,1.68-1.14,.76-.32,1.6-1.11,2.32-1.74,1.52-1.32,3.31-2.65,4.59-3.58,.61-.44,1.08-1.04,1.64-1.54,.57-.5,1.34-.76,1.85-1.32l1.3-1.69,1.16,1.36Z"/><path class="n" d="M73.15,99.24c.81,.21,1.65,.43,2.46,1.04,0,0,.17,.09,.44,.32,.26,.23,.66,.75,.71,1.46,.06,.7-.21,1.35-.53,1.85-.35,.52-.69,.84-1.07,1.19-.78,.69-.93,.87-1.08,1.13-.15,.24-.31,.54-1.24,1.23-1.48,1.14-1.51,1.64-1.9,2.05-.84,.82-2.88,2.21-3.65,2.9-.48,.45-1.42,1.54-1.42,1.54l-1.16-1.36,1.54-1.18c.45-.51,.99-.92,1.61-1.22,.72-.37,1.52-1.21,2.16-1.9,1.4-1.42,2.95-2.97,4-4.12,.24-.27,.46-.58,.64-.89,.17-.29,.27-.59,.34-.84,.07-.25,.13-.42,.1-.63-.03-.21-.21-.47-.5-.6-.58-.17-1.22-.23-1.88-.23l.41-1.74Z"/><path class="n" d="M53.65,99.19l2.36-.17s2.33-.62,4.28-.35c2.02,.28,.98-.25,3.26,.04,1.84,.25,2.22-.13,2.78-.14,1.17-.02,3.63,.43,4.66,.56,.66,.03,2.16,.11,2.16,.11l-.41,1.74c-.57-.17-1.18-.31-1.8-.42-.66,0-1.32-.1-1.95-.32-.76-.27-1.91-.2-2.86-.17-1.99,.07-4.21,.07-5.79,.05-.75,0-1.49,.2-2.23,.27-.75,.07-1.53-.18-2.27-.03l-2.05,.6-.13-1.78Z"/><path class="n" d="M34.43,100.65c.77-.02,1.55-.06,2.33-.1,0,0,2.3-.6,4.24-.41,2.02,.2,.96-.27,3.23-.11,1.84,.13,2.19-.3,2.73-.35,1.15-.11,3.61,.02,4.63-.08,.66-.06,2.05-.4,2.05-.4l.13,1.78-1.95,.04c-.67,.14-1.36,.15-2.03,.02-.8-.15-1.95,.04-2.89,.16-1.99,.26-4.23,.37-5.81,.4-.75,.02-1.49,.25-2.24,.32-.76,.08-1.54-.16-2.29-.03-.69,.19-1.39,.37-2.1,.54l-.05-1.79Z"/><path class="n" d="M51.96,98.22l-2.13,.44s-2.02,.89-3.82,.92c-1.87,.04-.84,.39-2.94,.5-1.7,.1-1.95,.57-2.44,.69-1.03,.26-3.29,.45-4.2,.71-.59,.16-1.79,.7-1.79,.7l-.44-1.73,1.77-.33c.59-.23,1.22-.34,1.85-.3,.76,.04,1.78-.3,2.62-.55,1.79-.51,3.82-.88,5.26-1.11,.69-.1,1.33-.42,2-.59,.68-.18,1.43-.03,2.09-.26l1.8-.83,.36,1.75Z"/><path class="n" d="M69.45,94.98l-2.14,.38s-2.06,.83-3.86,.79c-1.87-.04-.86,.35-2.96,.38-1.71,.03-1.97,.48-2.47,.57-1.04,.21-3.31,.3-4.23,.5-.59,.13-1.82,.62-1.82,.62l-.36-1.75,1.79-.25c.6-.2,1.23-.28,1.86-.21,.76,.08,1.79-.22,2.65-.42,1.81-.43,3.85-.71,5.3-.88,.69-.08,1.34-.37,2.02-.51,.69-.15,1.43,.02,2.09-.19l1.82-.78,.31,1.76Z"/><path class="n" d="M84.39,86.76c.16,.81,.2,1.66-.08,2.54-.01,0,0,.19-.12,.47-.09,.29-.29,.68-.6,1.06-.62,.76-1.64,1.33-2.57,1.53-1.93,.33-.84,.55-2.99,.81-1.73,.15-1.98,.59-2.48,.71-1.05,.24-3.33,.34-4.26,.52-.6,.12-1.84,.58-1.84,.58l-.31-1.76,1.78-.21c.6-.2,1.23-.26,1.86-.2,.75,.08,1.78-.22,2.62-.45,1.78-.47,3.75-.9,5.07-1.36,.62-.23,1.14-.66,1.57-1.05,.42-.36,1.02-.65,1.06-1.25-.03-.57-.21-1.1-.46-1.59l1.75-.36Z"/><path class="n" d="M72.89,72.82l1.64,1.45s1.94,1.12,2.98,2.63c1.06,1.57,.81,.5,2.01,2.26,.95,1.45,1.45,1.48,1.79,1.87,.35,.42,.81,1.15,1.22,1.89,.41,.74,.73,1.51,.96,1.95,.14,.29,.4,.72,.58,1.13,.1,.2,.18,.38,.23,.52l.09,.23-1.75,.36c-.05-.49-.22-1.01-.4-1.52-.33-.48-.56-1.01-.73-1.6-.18-.71-.89-1.5-1.47-2.13-1.23-1.36-2.58-2.85-3.55-3.93-.46-.51-1.08-.86-1.6-1.3-.53-.45-.84-1.14-1.43-1.53l-1.74-.93,1.17-1.35Z"/><path class="n" d="M59.1,61.51l1.7,1.36s1.98,1,3.14,2.39c1.2,1.44,.83,.42,2.22,2,1.13,1.28,1.64,1.2,2.04,1.52,.83,.67,2.35,2.37,3.08,2.98,.47,.38,1.61,1.07,1.61,1.07l-1.17,1.35-1.28-1.25c-.53-.34-.98-.79-1.33-1.31-.41-.64-1.3-1.24-2-1.77-1.48-1.11-3.03-2.47-4.1-3.45-.51-.47-1.16-.77-1.71-1.18-.56-.42-.92-1.09-1.53-1.45l-1.79-.86,1.12-1.4Z"/><path class="n" d="M73.82,70.3l-1.87-.96s-.52-.14-1.21-.41c-.69-.26-1.56-.66-2.25-1.2-1.44-1.12-.87-.22-2.53-1.4-1.35-.96-1.82-.75-2.27-.95-.93-.44-2.77-1.64-3.61-2.01-.54-.24-1.78-.55-1.78-.55l.74-1.63,1.54,.83c.59,.18,1.13,.48,1.59,.89,.55,.5,1.53,.84,2.32,1.17,1.66,.7,3.44,1.62,4.66,2.34,.58,.34,1.26,.48,1.88,.75,.62,.27,1.09,.86,1.74,1.07l1.88,.45-.82,1.59Z"/><path class="n" d="M89.56,77.96c-.81-.11-1.54-.34-2.23-.61,0,0-.56-.1-1.28-.36-.72-.27-1.6-.68-2.28-1.25-1.41-1.17-.87-.25-2.48-1.51-1.3-1.03-1.78-.84-2.22-1.07-.91-.48-2.67-1.8-3.49-2.21-.52-.26-1.75-.64-1.75-.64l.82-1.59,1.5,.91c.58,.21,1.1,.54,1.54,.98,.52,.53,1.48,.93,2.25,1.3,1.62,.78,3.33,1.81,4.53,2.55,.57,.35,1.24,.51,1.84,.77,.6,.28,1.09,.8,1.73,.97l.9,.06c.29,0,.56-.05,.82-.07l-.18,1.78Z"/><path class="n" d="M100.39,64.51l-.84,1.95s-.45,2.14-1.55,3.54c-1.18,1.43-.21,.9-1.55,2.51-1.09,1.28-1.01,1.76-1.28,2.19-.35,.43-.89,1.07-1.59,1.59-.66,.55-1.47,.94-1.94,1.12-.14,.08-.34,.15-.57,.22-.22,.06-.46,.19-.69,.2-.45,.06-.84,.13-.83,.11l.18-1.78,.65,.06c.21-.05,.43-.04,.65-.11,.43-.25,.83-.48,1.35-.66,.3-.15,.62-.4,.9-.72,.27-.35,.53-.71,.75-1.05,.95-1.45,1.93-3.16,2.66-4.36,.33-.58,.47-1.25,.73-1.86,.25-.62,.8-1.11,.99-1.77l.32-1.89,1.65,.69Z"/><path class="n" d="M106.25,48.2l-.65,2.01s-.22,2.15-1.12,3.67c-.93,1.57-.1,.9-1.1,2.69-.81,1.45-.57,1.89-.74,2.36-.34,.98-1.44,2.9-1.78,3.76-.21,.55-.48,1.82-.48,1.82l-1.65-.69,.76-1.56c.15-.59,.42-1.14,.8-1.62,.46-.58,.74-1.57,.99-2.39,.54-1.71,1.28-3.56,1.82-4.86,.26-.62,.31-1.31,.5-1.95,.19-.65,.69-1.2,.8-1.87l.15-1.92,1.7,.54Z"/></g><g><path class="n" d="M289.11,180.13l1.44-.35s1.37-.63,2.6-.67c1.28-.04,.58-.26,2-.35,1.16-.07,1.33-.37,1.67-.45,.71-.16,2.25-.28,2.88-.43,.4-.1,1.24-.44,1.24-.44l.25,1.14-1.21,.19c-.4,.15-.83,.21-1.26,.18-.51-.03-1.21,.19-1.79,.34-1.22,.33-2.6,.58-3.58,.75-.46,.08-.9,.29-1.35,.41-.46,.13-.97,.04-1.41,.22l-1.21,.59-.28-1.14Z"/><path class="n" d="M277.42,183.5l1.41-.46s1.32-.74,2.55-.87c1.27-.13,.56-.31,1.98-.48,1.16-.14,1.32-.45,1.65-.54,.7-.2,2.24-.38,2.86-.55,.4-.11,1.23-.47,1.23-.47l.28,1.14-1.2,.22c-.4,.16-.82,.23-1.25,.22-.52-.02-1.2,.23-1.77,.42-1.2,.39-2.55,.73-3.52,.96-.46,.11-.87,.36-1.32,.51-.45,.16-.96,.12-1.39,.32l-1.16,.68-.37-1.11Z"/><path class="n" d="M268.95,190.3c-.22-.29-.82-.79-.87-1.51,0,.03-.18-.58,.16-1.22,.31-.64,.94-1.14,1.56-1.37,.65-.23,.78-.31,.94-.42,.15-.1,.36-.23,1.06-.35,1.15-.2,1.29-.52,1.61-.63,.69-.24,2.21-.53,2.82-.74,.39-.14,1.19-.56,1.19-.56l.37,1.11-1.18,.31c-.39,.19-.81,.29-1.23,.31-.51,.02-1.18,.31-1.74,.53-.59,.23-1.22,.45-1.82,.64-.58,.18-1.1,.4-1.52,.61-.4,.2-.69,.56-.92,.87-.22,.29-.56,.57-.4,.91,.19,.3,.45,.39,.88,.75l-.9,.75Z"/><path class="n" d="M276.75,199.6l-.97-1.13s-1.19-.93-1.79-2.01c-.62-1.12-.5-.39-1.23-1.62-.59-1-.94-1.02-1.17-1.28-.47-.56-1.28-1.87-1.69-2.37-.27-.32-.95-.9-.95-.9l.9-.75,.72,.99c.31,.29,.56,.65,.73,1.04,.2,.47,.72,.99,1.12,1.44,.85,.93,1.71,2.04,2.3,2.84,.28,.38,.67,.66,.99,1.01,.32,.35,.48,.84,.84,1.16l1.08,.81-.89,.76Z"/><path class="n" d="M284.83,208.67l-1.01-1.09s-1.22-.89-1.86-1.94c-.66-1.09-.51-.37-1.28-1.58-.62-.98-.97-.99-1.21-1.25-.48-.54-1.32-1.84-1.76-2.32-.27-.31-.97-.88-.97-.88l.89-.76,.74,.97c.32,.28,.58,.63,.76,1.02,.22,.47,.74,.97,1.16,1.4,.88,.9,1.76,1.99,2.39,2.77,.29,.37,.69,.64,1.02,.98,.33,.34,.51,.82,.88,1.13l1.11,.76-.86,.8Z"/><path class="n" d="M293.46,217.25l-1.1-1.01s-1.31-.78-2.01-1.81c-.73-1.05-.55-.33-1.38-1.5-.68-.95-1.03-.94-1.27-1.18-.51-.52-1.41-1.78-1.86-2.24-.29-.29-1.01-.85-1.01-.85l.86-.8,.78,.94c.33,.27,.61,.6,.8,.98,.24,.46,.78,.94,1.22,1.35,.93,.85,1.86,1.89,2.54,2.62,.32,.35,.73,.59,1.08,.91,.35,.31,.58,.77,.97,1.04l1.16,.66-.78,.88Z"/><path class="n" d="M283.96,209.22l1.24,.88s1.41,.63,2.29,1.54c.91,.94,.59,.26,1.64,1.29,.85,.84,1.2,.77,1.49,.97,.61,.43,1.76,1.52,2.3,1.9,.35,.24,1.18,.65,1.18,.65l-.69,.95-.98-.79c-.39-.21-.73-.5-1-.84-.33-.41-.97-.8-1.49-1.13-1.08-.71-2.22-1.59-3.02-2.23-.38-.3-.84-.49-1.24-.76-.41-.27-.69-.71-1.13-.94l-1.27-.54,.67-.96Z"/><path class="n" d="M273.59,202.3l1.29,.81s1.45,.56,2.36,1.44c.94,.91,.6,.24,1.68,1.24,.87,.82,1.22,.74,1.51,.94,.62,.42,1.79,1.49,2.34,1.86,.35,.24,1.19,.64,1.19,.64l-.67,.96-.98-.78c-.39-.2-.73-.48-1.01-.82-.33-.41-.99-.78-1.51-1.1-1.1-.68-2.26-1.52-3.08-2.13-.39-.29-.85-.46-1.27-.7-.42-.25-.73-.67-1.17-.88l-1.3-.47,.62-.99Z"/><path class="n" d="M262.26,196.93c.51,.08,1.02,.18,1.53,.3,0,0,.4,.01,.94,.12,.54,.11,1.24,.31,1.8,.69,1.12,.82,.68,.2,1.83,1.13,.92,.76,1.26,.66,1.57,.84,.65,.38,1.88,1.38,2.45,1.72,.37,.22,1.22,.57,1.22,.57l-.62,.99-1.03-.72c-.4-.18-.76-.44-1.06-.76-.36-.39-1.03-.72-1.57-1.01-.57-.31-1.16-.66-1.71-1-.27-.17-.54-.34-.79-.5-.25-.14-.46-.29-.69-.39-.41-.22-.9-.27-1.35-.39-.46-.13-.87-.43-1.35-.48-.45,0-.9,0-1.35,.04l.19-1.16Z"/><path class="n" d="M252.93,202.98c.01-.26,.04-.52,.08-.81,.04-.27,.1-.51,.16-.76,0,0,0-.39,.12-.95,.11-.55,.37-1.29,.86-1.82,.5-.53,.63-.64,.74-.82,.07-.08,.12-.17,.27-.28,.17-.1,.42-.3,.83-.37,.65-.15,1-.22,1.26-.3,.26-.08,.41-.18,.59-.19,.79-.11,2.4,.17,3.06,.24,.43,.03,1.37,.02,1.37,.02l-.19,1.16c-.4-.1-.8-.16-1.2-.24-.43,.02-.85-.05-1.26-.18-.49-.17-1.22-.09-1.8,0-.6,.1-1.24,.22-1.74,.46-.11,.07-.22,.14-.33,.2-.11,.09-.22,.18-.31,.27-.2,.18-.36,.38-.5,.57-.27,.36-.35,.82-.48,1.26-.13,.44-.43,.85-.47,1.34,0,.49,.03,.85,.11,1.3l-1.17-.08Z"/><path class="n" d="M252.93,215.47l-.02-1.52s-.32-1.51-.11-2.76c.23-1.29-.14-.63,.08-2.09,.18-1.18-.08-1.42-.08-1.78-.01-.75,.22-2.32,.23-2.98,0-.42-.1-1.36-.1-1.36l1.17,.08c-.06,.39-.09,.81-.13,1.22,.05,.44,0,.87-.12,1.29-.15,.5-.09,1.25-.06,1.86,.06,1.29,.02,2.73-.03,3.75-.02,.48,.1,.96,.12,1.45,.02,.49-.16,.98-.09,1.47l.32,1.34-1.17,.02Z"/><path class="n" d="M253.17,227.91l-.03-1.52s-.33-1.51-.12-2.75c.22-1.29-.14-.63,.06-2.08,.16-1.18-.1-1.42-.11-1.77-.02-.75,.17-2.32,.15-2.98-.01-.42-.18-1.33-.18-1.33l1.17-.02-.05,1.26c.06,.44,.04,.88-.07,1.31-.14,.51-.06,1.26-.02,1.87,.08,1.29,.05,2.73,.01,3.75-.02,.48,.1,.96,.13,1.45,.03,.49-.16,.98-.09,1.47l.32,1.34-1.17,.02Z"/><path class="n" d="M253.34,240.35v-1.52s-.33-1.51-.11-2.75c.22-1.29-.14-.63,.07-2.08,.17-1.18-.09-1.42-.1-1.77-.02-.74,.17-2.32,.15-2.98-.01-.42-.18-1.33-.18-1.33l1.17-.02-.05,1.26c.06,.44,.04,.88-.07,1.31-.14,.51-.06,1.26-.02,1.87,.08,1.29,.04,2.73,0,3.75-.02,.48,.09,.97,.12,1.45,.02,.49-.17,.98-.1,1.47l.3,1.35h-1.17Z"/><path class="n" d="M252.92,252.57c.11-.35,.17-.87,.21-1.36,0,0-.03-.37-.05-.9,0-.53,0-1.21,.13-1.82,.27-1.27-.1-.63,.15-2.07,.21-1.17-.06-1.42-.06-1.77,0-.74,.22-2.31,.21-2.97,0-.42-.17-1.33-.17-1.33h1.17l-.07,1.25c.06,.44,.03,.88-.1,1.31-.14,.51-.08,1.26-.06,1.87,.05,1.3-.03,2.74-.12,3.76-.05,.48,.05,.97,.04,1.46-.01,.5-.23,.97-.22,1.47,.05,.48,.11,.92,.02,1.54l-1.09-.43Z"/><path class="n" d="M252.48,239.83l.13,1.58s.43,1.55,.31,2.85c-.12,1.36,.19,.65,.1,2.17-.07,1.24,.21,1.46,.26,1.83,.09,.77,.05,2.41,.17,3.08,.03,.21,.12,.57,.22,.78l.17,.4-1.04,.54c-.13-.52-.25-1.08-.27-1.49-.12-.45-.16-.93-.09-1.38,.08-.55-.07-1.31-.16-1.95-.19-1.34-.28-2.84-.31-3.91-.02-.5-.17-1-.23-1.5-.06-.51,.09-1.03-.02-1.53l-.41-1.38,1.17-.1Z"/><path class="n" d="M251.49,226.89l.12,1.58s.41,1.55,.28,2.86c-.14,1.35,.18,.65,.06,2.17-.09,1.24,.19,1.47,.22,1.84,.07,.77-.03,2.42,.04,3.11,.04,.44,.27,1.38,.27,1.38l-1.17,.1-.03-1.31c-.09-.45-.1-.91-.01-1.37,.1-.54-.02-1.31-.1-1.95-.16-1.34-.22-2.84-.24-3.91,0-.5-.16-1-.21-1.5-.06-.51,.1-1.03,0-1.53l-.4-1.38,1.17-.09Z"/><path class="n" d="M250.54,213.95l.12,1.58s.42,1.56,.28,2.86c-.14,1.35,.18,.65,.06,2.17-.1,1.24,.18,1.47,.21,1.84,.06,.77-.04,2.42,.02,3.11,.04,.44,.26,1.38,.26,1.38l-1.17,.09-.02-1.31c-.09-.45-.09-.91,0-1.36,.11-.54-.02-1.31-.09-1.95-.15-1.34-.21-2.84-.23-3.91,0-.5-.16-1-.21-1.5-.06-.51,.1-1.03,0-1.53l-.4-1.38,1.17-.09Z"/><path class="n" d="M246.51,201.73c.48,.31,.92,.67,1.31,1.08,0,0,.36,.25,.76,.7,.4,.45,.82,1.13,.97,1.82,.16,.71,.21,.87,.3,1.05,.06,.18,.15,.44,.12,1.22-.06,1.25,.22,1.48,.25,1.85,.07,.78,0,2.43,.05,3.11,.04,.44,.27,1.38,.27,1.38l-1.17,.09-.03-1.31c-.09-.45-.09-.91,0-1.36,.1-.54-.03-1.31-.11-1.94-.08-.67-.16-1.37-.21-2.04-.05-.62-.17-1.21-.36-1.69-.16-.46-.49-.83-.76-1.21-.27-.39-.43-.88-.83-1.18-.39-.24-.78-.44-1.2-.59l.64-.98Z"/><path class="n" d="M233.7,203.08c.45-.29,.93-.56,1.41-.81,0,0,.32-.26,.83-.54,.51-.28,1.21-.58,1.89-.65,.7-.09,.86-.14,1.04-.22,.18-.08,.39-.16,1.18-.18,1.27,.03,1.52-.21,1.91-.22,.41,0,1.05,.07,1.65,.23,.61,.15,1.18,.38,1.51,.52,.22,.07,.57,.19,.86,.31,.29,.11,.53,.22,.53,.22l-.64,.98c-.32-.24-.66-.44-1.02-.61-.41-.11-.79-.25-1.18-.45-.46-.24-1.22-.25-1.84-.21-1.3,.08-2.74,.29-3.74,.55-.48,.12-.9,.39-1.34,.6-.45,.2-.98,.25-1.39,.54-.36,.3-.7,.62-1.03,.95l-.63-.99Z"/><path class="n" d="M223.49,211.18l1.23-1.01s1.03-1.24,2.18-1.87c1.19-.66,.43-.52,1.74-1.3,1.07-.63,1.1-.99,1.38-1.23,.6-.5,2.03-1.36,2.6-1.76,.35-.27,1.09-.93,1.09-.93l.63,.99c-.37,.2-.74,.42-1.1,.65-.33,.3-.71,.55-1.13,.72-.5,.21-1.07,.74-1.54,1.17-1.01,.9-2.2,1.81-3.06,2.44-.41,.3-.73,.7-1.1,1.04-.38,.34-.9,.51-1.25,.88l-.9,1.12-.74-.91Z"/><path class="n" d="M213.46,219.41l1.23-1.01s1.03-1.24,2.18-1.87c1.19-.66,.43-.52,1.74-1.3,1.07-.63,1.1-.99,1.38-1.23,.6-.5,2-1.37,2.53-1.81,.34-.29,.98-1.01,.98-1.01l.74,.91-1.06,.77c-.32,.33-.7,.6-1.11,.79-.5,.22-1.06,.77-1.54,1.19-1.01,.9-2.2,1.81-3.06,2.44-.41,.3-.73,.7-1.1,1.04-.38,.34-.9,.51-1.25,.88l-.9,1.12-.74-.91Z"/><path class="n" d="M203.42,227.65l1.23-1.01s1.03-1.24,2.18-1.87c1.19-.66,.43-.52,1.74-1.3,1.07-.63,1.1-.99,1.38-1.23,.6-.5,2-1.37,2.53-1.81,.34-.29,.98-1.01,.98-1.01l.74,.91-1.06,.77c-.32,.33-.7,.6-1.11,.79-.5,.22-1.06,.77-1.54,1.2-1.01,.9-2.2,1.81-3.06,2.44-.41,.3-.73,.7-1.1,1.04-.38,.34-.9,.51-1.25,.88l-.9,1.12-.74-.91Z"/></g></g></g></svg>