<svg width="258" height="195" viewBox="0 0 258 195" fill="none" xmlns="http://www.w3.org/2000/svg">
<path fill-rule="evenodd" clip-rule="evenodd" d="M9.32589 129.405C6.96771 123.092 5.27913 116.448 4.34797 109.557C6.79539 101.752 14.0041 96.0263 22.6187 95.8683C33.3988 95.6707 42.2983 104.266 42.4963 115.066C42.6943 125.866 34.1158 134.782 23.3358 134.98C17.8942 135.079 12.9318 132.939 9.32589 129.405ZM40.9445 171.34C31.5175 164.356 23.4595 155.615 17.2611 145.592C20.0135 138.348 26.9458 133.143 35.1547 132.992C45.9348 132.794 54.8343 141.39 55.0323 152.19C55.198 161.228 49.2177 168.946 40.9445 171.34ZM74.4515 186.951C69.0345 185.663 63.7992 183.897 58.7938 181.699C55.1355 178.219 52.8174 173.328 52.7174 167.875C52.5194 157.075 61.0979 148.159 71.878 147.961C82.658 147.764 91.5575 156.359 91.7555 167.159C91.942 177.332 84.3428 185.832 74.4515 186.951ZM91.9915 102.164C102.772 101.967 111.35 93.0511 111.152 82.2507C110.954 71.4504 102.055 62.8553 91.2745 63.0529C80.4944 63.2505 71.916 72.1661 72.114 82.9664C72.312 93.7667 81.2115 102.362 91.9915 102.164ZM67.88 85.0483C68.078 95.8486 59.4996 104.764 48.7195 104.962C37.9394 105.159 29.0399 96.5643 28.8419 85.764C28.6439 74.9637 37.2224 66.0481 48.0024 65.8504C58.7825 65.6528 67.682 74.248 67.88 85.0483ZM86.756 126.949C86.954 137.749 78.3755 146.665 67.5955 146.862C56.8154 147.06 47.9159 138.465 47.7179 127.664C47.5199 116.864 56.0984 107.949 66.8784 107.751C77.6585 107.553 86.558 116.148 86.756 126.949Z" fill="#EC5B94"/>
<path fill-rule="evenodd" clip-rule="evenodd" d="M252.932 79.5985C246.157 81.9395 242.657 87.6167 242.806 95.7036L242.875 99.4572L254.727 99.2399C254.74 98.2478 254.738 97.2522 254.719 96.2532C254.615 90.5593 254.005 84.9936 252.932 79.5985ZM252.539 118.231C252.441 118.279 252.341 118.325 252.241 118.371C252.323 118.403 252.405 118.435 252.487 118.466C252.504 118.388 252.522 118.309 252.539 118.231ZM245.667 138.216L243.51 140.458L240.811 137.851C235.464 132.687 233.744 126.775 235.946 120.83C233.956 121.697 232.114 122.87 230.485 124.305C229.749 126.354 229.608 128.569 230.077 130.694C228.181 131.119 226.208 131.051 224.345 130.498L224.184 130.705C223.363 132.827 223.189 135.146 223.685 137.368C221.789 137.792 219.816 137.725 217.953 137.171L216.18 139.013L228.378 150.793L231.076 153.4L242.557 141.467L243.51 140.477L244.205 141.148C244.709 140.18 245.196 139.203 245.667 138.216ZM229.695 161.692C228.823 159.325 227.311 157.012 225.179 154.801L222.566 152.086L209.726 164.559L207.113 161.864C201.947 156.521 200.42 150.566 202.827 144.686C202.474 144.825 202.125 144.975 201.781 145.133L194.535 129.848L197.923 128.239C204.632 125.023 210.768 125.523 215.534 129.687C215.434 127.515 214.992 125.373 214.223 123.339C212.571 121.924 210.55 121.009 208.397 120.703C208.667 118.775 209.425 116.949 210.601 115.4L210.51 115.207C208.812 113.696 206.707 112.72 204.459 112.4C204.73 110.473 205.488 108.647 206.663 107.097L205.562 104.782L190.257 112.057L186.869 113.666L193.94 128.643L194.516 129.868L191.137 131.477C184.419 134.693 178.293 134.193 173.517 130.029C173.696 133.106 174.501 136.114 175.884 138.867C180.536 148.694 188.189 151.847 197.086 148.408C196.416 150.312 196.256 152.362 196.625 154.352C194.715 154.718 192.742 154.584 190.899 153.961L190.747 154.109C189.855 156.205 189.604 158.518 190.024 160.757C188.113 161.122 186.141 160.987 184.298 160.366L182.466 162.15L194.263 174.347L196.866 177.042L208.743 165.501L209.697 164.56L212.3 167.255C214.218 169.235 215.633 171.299 216.533 173.412C221.284 169.924 225.691 165.997 229.695 161.692ZM191.177 106.135C200.191 98.9074 201.087 90.0486 194.478 81.7553L192.143 78.8118L178.152 89.9924L175.817 87.0585C171.187 81.3068 170.24 75.2055 173.196 69.5968C171.109 70.192 169.13 71.1148 167.333 72.3308C166.337 74.264 165.908 76.4409 166.098 78.6083C164.162 78.7812 162.214 78.4553 160.44 77.6615L160.277 77.8006C159.191 79.7996 158.719 82.0759 158.921 84.343C156.985 84.5177 155.037 84.1916 153.263 83.3961L151.263 84.999L161.837 98.2681L164.172 101.202L177.1 90.858L178.153 90.0216L180.498 92.9552C185.129 98.7555 186.066 104.857 183.12 110.466C186.069 109.58 188.81 108.107 191.177 106.135ZM223.755 120.547C235.296 120.335 241.391 113.862 241.196 103.243L241.186 99.4879L223.297 99.8159L223.228 96.0623C223.092 88.6231 226.022 83.2192 231.8 80.5841C229.784 79.7844 227.655 79.3081 225.492 79.1725C223.529 80.0975 221.871 81.5658 220.715 83.4041C219.057 82.3676 217.694 80.9222 216.754 79.2062L216.55 79.21C214.466 80.1267 212.702 81.646 211.484 83.5733C209.826 82.5379 208.462 81.0922 207.523 79.3755L204.961 79.4224L205.341 100.145L223.239 99.8169L223.308 103.571C223.444 111.019 220.514 116.414 214.737 119.058C217.611 120.161 220.679 120.668 223.755 120.547ZM186.664 172.395C186.237 183.006 179.775 189.058 168.233 188.647C165.157 188.587 162.125 187.901 159.321 186.631C165.221 184.325 168.485 179.109 168.756 171.672L168.901 167.925L167.56 167.871L151.042 167.202L151.187 163.454L151.847 146.486L154.402 146.585C155.221 148.351 156.479 149.876 158.057 151.013C159.387 149.163 161.232 147.749 163.361 146.946L163.575 146.943C164.393 148.705 165.652 150.227 167.229 151.36C168.493 149.579 170.24 148.196 172.263 147.377C174.415 147.644 176.513 148.246 178.48 149.16C172.58 151.456 169.317 156.682 169.045 164.119L168.891 167.866L186.769 168.589L186.664 172.395Z" fill="#FF5628"/>
<path d="M130.224 9.84934C112.24 16.2493 96.6463 28.0195 85.546 43.5734C74.4457 59.1274 68.3721 77.7173 68.1439 96.8373C67.9156 115.957 73.5437 134.688 84.2694 150.505C94.9952 166.322 110.303 178.465 128.129 185.296C146.114 178.896 161.707 167.126 172.807 151.572C183.908 136.018 189.981 117.428 190.209 98.3084C190.438 79.1884 184.81 60.4575 174.084 44.6405C163.358 28.8235 148.05 16.6809 130.224 9.84934Z" fill="black"/>
<path d="M101.458 106.914C97.8251 108.226 94.6626 110.587 92.37 113.7C90.0775 116.813 88.7579 120.538 88.5783 124.402C88.3986 128.267 89.3669 132.098 91.3607 135.411C93.3544 138.724 96.2841 141.371 99.7792 143.016C103.274 144.661 107.178 145.231 110.996 144.653C114.814 144.076 118.375 142.376 121.229 139.771C124.083 137.165 126.102 133.77 127.03 130.015C127.958 126.259 127.753 122.312 126.442 118.674C124.684 113.795 121.065 109.816 116.38 107.611C111.695 105.406 106.327 105.155 101.458 106.914ZM118.28 124.173C120.325 129.768 118.213 134.301 112.137 136.494C110.528 137.108 108.813 137.391 107.093 137.326C109.66 134.886 110.258 131.49 108.856 127.566L108.141 125.634L107.437 125.89L98.7562 129.035L98.0582 126.976L94.8456 118.037L96.1959 117.545C96.9916 118.287 97.964 118.812 99.0201 119.069C99.3195 117.833 99.9741 116.712 100.903 115.844L101.019 115.842C101.815 116.584 102.788 117.109 103.844 117.366C104.132 116.181 104.752 115.103 105.631 114.259C106.802 113.941 108.015 113.81 109.227 113.872C106.65 116.303 106.052 119.699 107.464 123.632L108.169 125.565L117.593 122.172L118.28 124.173Z" fill="#0091FF"/>
<path d="M83.5 64.8111C79.985 66.4125 77.023 69.0223 74.9887 72.3105C72.9543 75.5987 71.9391 79.4176 72.0713 83.2841C72.2035 87.1505 73.4772 90.891 75.7313 94.0323C77.9855 97.1736 81.1188 99.5747 84.735 100.932C88.3512 102.289 92.2879 102.541 96.047 101.657C99.8062 100.772 103.219 98.7905 105.854 95.9625C108.489 93.1345 110.227 89.587 110.849 85.7689C111.472 81.9507 110.95 78.0334 109.35 74.5123C107.205 69.7924 103.277 66.119 98.4293 64.2998C93.5819 62.4806 88.2119 62.6645 83.5 64.8111ZM101.694 80.6352C104.153 86.0473 102.462 90.7281 96.578 93.3749C95.0248 94.1177 93.3391 94.5422 91.6199 94.6233C93.9795 91.9828 94.3048 88.543 92.575 84.7518L91.7143 82.822L91.021 83.1363L82.5957 86.9775L81.7253 85.0479L77.7988 76.3651L79.0987 75.7673C79.9525 76.4375 80.9633 76.8778 82.0349 77.0462C82.2358 75.7882 82.8019 74.6174 83.6626 73.6797L83.7694 73.6778C84.6226 74.3511 85.6334 74.7947 86.7058 74.9664C86.8966 73.7612 87.4247 72.635 88.2289 71.7186C89.3732 71.3078 90.5746 71.079 91.7896 71.0405C89.4204 73.6812 89.0949 77.1113 90.8247 80.9025L91.695 82.8321L100.804 78.6768L101.694 80.6352Z" fill="#0091FF"/>
<path d="M145.837 121.1C142.813 123.504 140.568 126.754 139.387 130.436C138.206 134.119 138.141 138.07 139.201 141.79C140.262 145.51 142.399 148.831 145.343 151.334C148.287 153.837 151.906 155.409 155.741 155.852C159.577 156.294 163.458 155.587 166.892 153.82C170.327 152.053 173.161 149.305 175.037 145.924C176.913 142.543 177.746 138.681 177.431 134.825C177.115 130.97 175.666 127.295 173.266 124.264C170.046 120.203 165.348 117.588 160.205 116.995C155.062 116.401 149.894 117.878 145.837 121.1ZM167.302 132.068C170.989 136.719 170.478 141.67 165.416 145.722C164.088 146.817 162.555 147.636 160.907 148.129C162.568 144.996 162.049 141.581 159.465 138.321L158.162 136.672L157.569 137.149L150.315 142.915L149.013 141.265L143.119 133.825L144.238 132.929C145.23 133.378 146.32 133.563 147.404 133.464C147.295 132.194 147.562 130.921 148.172 129.802L148.267 129.732C149.261 130.174 150.35 130.355 151.433 130.258C151.326 129.044 151.566 127.825 152.126 126.743C153.138 126.069 154.249 125.556 155.418 125.224C153.757 128.357 154.266 131.772 156.851 135.032L158.162 136.672L166 130.438L167.302 132.068Z" fill="#0091FF"/>
<path d="M145.616 156.172C144.287 152.54 141.913 149.384 138.793 147.104C135.674 144.824 131.95 143.521 128.092 143.362C124.234 143.202 120.416 144.192 117.12 146.206C113.824 148.221 111.198 151.169 109.574 154.679C107.951 158.189 107.403 162.102 107.999 165.924C108.595 169.746 110.31 173.305 112.925 176.151C115.54 178.997 118.939 181.002 122.692 181.913C126.444 182.824 130.382 182.599 134.007 181.268C136.415 180.384 138.624 179.034 140.51 177.294C142.396 175.554 143.922 173.459 145 171.129C146.078 168.799 146.687 166.278 146.793 163.712C146.899 161.146 146.499 158.583 145.616 156.172ZM128.451 173.16C122.876 175.207 118.343 173.17 116.115 167.092C115.489 165.484 115.197 163.765 115.256 162.04C117.701 164.602 121.139 165.181 124.996 163.739L126.925 163.022L126.659 162.307L123.471 153.611L125.399 152.885L134.301 149.609L134.801 150.962C134.063 151.761 133.545 152.739 133.3 153.8C134.539 154.094 135.663 154.751 136.529 155.687L136.531 155.794C135.799 156.601 135.283 157.581 135.03 158.642C136.215 158.921 137.297 159.532 138.15 160.404C138.474 161.576 138.611 162.791 138.555 164.006C136.11 161.443 132.672 160.874 128.815 162.307L126.886 163.033L130.341 172.444L128.451 173.16Z" fill="#0091FF"/>
<path d="M156.719 74.879C153.701 77.2911 151.464 80.5458 150.292 84.2315C149.12 87.9172 149.065 91.8684 150.135 95.5855C151.204 99.3025 153.35 102.618 156.3 105.114C159.25 107.61 162.873 109.173 166.71 109.606C170.547 110.039 174.425 109.322 177.855 107.546C181.286 105.771 184.113 103.016 185.981 99.6305C187.848 96.2449 188.671 92.3805 188.347 88.5259C188.022 84.6713 186.564 80.9996 184.156 77.9752C182.559 75.9647 180.582 74.2894 178.338 73.0454C176.094 71.8014 173.627 71.0131 171.078 70.7255C168.53 70.4379 165.949 70.6567 163.486 71.3694C161.022 72.0821 158.722 73.2747 156.719 74.879ZM178.212 85.7982C181.909 90.4386 181.407 95.3991 176.355 99.4509C175.031 100.555 173.497 101.377 171.846 101.868C173.497 98.7348 172.978 95.3202 170.384 92.0701L169.082 90.4208L168.489 90.8986L161.245 96.6734L159.943 95.0339L153.981 87.6043L155.101 86.7082C156.094 87.15 157.183 87.3309 158.266 87.2339C158.157 85.9641 158.424 84.6903 159.034 83.5719L159.12 83.4925C160.128 83.9265 161.232 84.0906 162.323 83.9688C162.217 82.7521 162.457 81.5301 163.016 80.4445C164.024 79.7699 165.132 79.2573 166.299 78.9251C164.647 82.0585 165.166 85.4634 167.76 88.7233L169.072 90.3626L176.899 84.1102L178.212 85.7982Z" fill="#0091FF"/>
<path d="M142.493 78.4959C139.542 76.0013 135.919 74.4394 132.082 74.0077C128.245 73.5759 124.367 74.2938 120.937 76.0704C117.507 77.847 114.681 80.6026 112.814 83.9888C110.948 87.375 110.126 91.2396 110.452 95.0941C110.778 98.9486 112.237 102.62 114.645 105.643C117.054 108.667 120.303 110.907 123.982 112.081C127.661 113.255 131.605 113.309 135.314 112.238C139.024 111.166 142.333 109.016 144.824 106.06C146.477 104.097 147.729 101.827 148.507 99.3793C149.285 96.9317 149.573 94.3544 149.357 91.7948C149.141 89.2351 148.423 86.7432 147.245 84.4614C146.068 82.1796 144.453 80.1525 142.493 78.4959ZM136.006 101.747C132.206 106.292 127.234 106.772 122.302 102.592C120.957 101.506 119.848 100.156 119.045 98.6242C122.442 99.6417 125.674 98.5027 128.353 95.2824L129.712 93.6719L129.13 93.1864L122.059 87.1974L123.408 85.5968L129.528 78.3348L130.623 79.2874C130.382 80.3514 130.419 81.4599 130.731 82.5053C131.949 82.1461 133.247 82.1561 134.46 82.5342L134.558 82.6102C134.301 83.6703 134.321 84.7791 134.617 85.829C135.787 85.4869 137.029 85.4844 138.2 85.8217C139.054 86.6658 139.772 87.637 140.33 88.7009C136.943 87.6833 133.701 88.8225 131.022 92.0525L129.673 93.6531L137.326 100.128L136.006 101.747Z" fill="#0091FF"/>
<path d="M145.855 177.656L143.857 178.85C143.857 178.85 143.408 179.237 142.747 179.716C141.985 180.283 141.128 180.708 140.216 180.969C138.284 181.52 139.431 181.577 137.327 182.248C136.459 182.529 135.649 182.962 134.932 183.527C133.872 183.965 131.524 184.562 130.589 184.93C130.001 185.184 128.782 185.935 128.782 185.935L128.178 184.264L129.973 183.667C130.552 183.346 131.189 183.146 131.846 183.078C132.769 182.882 133.659 182.554 134.489 182.105C136.21 181.188 138.174 180.287 139.6 179.687C140.256 179.363 140.882 178.984 141.473 178.553C142.149 178.254 142.807 177.917 143.445 177.544L144.962 176.125L145.855 177.656Z" fill="black"/>
<path d="M160.974 166.124C160.411 166.66 159.878 167.214 159.285 167.721C158.378 168.809 157.304 169.745 156.103 170.493C154.353 171.44 155.496 171.293 153.535 172.369C152.709 172.767 151.975 173.334 151.381 174.033C150.422 174.683 148.326 175.831 147.472 176.372C146.91 176.756 146.37 177.172 145.854 177.617L144.923 176.097L146.606 175.23C147.118 174.804 147.695 174.465 148.316 174.226C149.166 173.823 149.955 173.301 150.657 172.675C151.432 172.077 152.266 171.488 153.082 170.938C153.897 170.388 154.585 169.772 155.207 169.323C155.83 168.874 156.248 168.331 156.791 167.806C157.335 167.28 158.098 167.072 158.603 166.537L159.765 164.794L160.974 166.124Z" fill="black"/>
<path d="M173.529 151.856L172.126 153.711C171.485 154.973 170.647 156.124 169.645 157.122C168.076 158.377 169.156 157.987 167.415 159.42C166.7 159.991 166.114 160.708 165.696 161.523C164.985 162.431 162.991 163.83 162.285 164.504C161.827 164.96 160.974 166.094 160.974 166.094L159.766 164.794L161.199 163.561C161.615 163.044 162.133 162.617 162.72 162.308C163.113 162.078 163.471 161.793 163.782 161.461C164.106 161.095 164.419 160.681 164.733 160.325C165.967 158.804 167.473 157.259 168.54 156.15C169.005 155.597 169.323 154.91 169.739 154.319C170.156 153.728 170.847 153.326 171.214 152.667L172.082 150.784L173.529 151.856Z" fill="black"/>
<path d="M182.896 135.303L181.964 137.422C181.851 137.882 181.713 138.336 181.552 138.781C181.206 139.664 180.733 140.492 180.151 141.239C178.897 142.789 179.858 142.217 178.501 143.964C177.953 144.692 177.519 145.501 177.215 146.361C176.602 147.345 175.024 149.164 174.486 150.02C174.316 150.295 174.092 150.757 173.905 151.149C173.718 151.542 173.539 151.846 173.539 151.846L172.092 150.813C172.521 150.348 172.871 149.826 173.25 149.313C173.533 148.717 173.937 148.186 174.435 147.754C175.072 147.057 175.61 146.275 176.033 145.429C176.561 144.602 176.972 143.68 177.51 142.834C178.048 141.988 178.451 141.192 178.876 140.542C179.22 139.904 179.532 139.249 179.81 138.58C180.222 137.955 180.584 137.297 180.891 136.614L181.32 134.573L182.896 135.303Z" fill="black"/>
<path d="M188.827 117.228C188.688 117.992 188.511 118.748 188.296 119.494C188.189 120.902 187.861 122.284 187.323 123.588C186.443 125.384 187.341 124.609 186.251 126.594C185.8 127.394 185.525 128.281 185.445 129.197C185.057 130.274 183.999 132.433 183.579 133.336C183.327 133.924 182.964 135.293 182.964 135.293L181.349 134.563L182.211 132.884C182.432 132.256 182.749 131.667 183.15 131.135C183.611 130.312 183.954 129.429 184.17 128.51C184.738 126.641 185.593 124.593 186.014 123.155C186.244 122.47 186.269 121.711 186.431 121.007C186.712 120.322 186.959 119.623 187.169 118.912C187.223 118.223 187.233 117.53 187.199 116.839L188.827 117.228Z" fill="black"/>
<path d="M190.908 98.3185L190.854 100.644C190.932 101.11 190.983 101.58 191.006 102.052C191.057 102.504 191.066 102.96 191.031 103.414C190.984 103.903 190.892 104.386 190.756 104.858C190.19 106.814 190.842 105.829 190.27 108.019C190.024 108.903 189.968 109.829 190.107 110.736C189.914 111.868 189.15 114.178 188.984 115.163C188.9 115.848 188.855 116.538 188.847 117.228L187.112 116.851L187.563 115.014C187.598 114.351 187.768 113.703 188.063 113.108C188.393 112.225 188.589 111.296 188.643 110.354C188.753 108.407 189.063 106.251 189.307 104.729C189.384 104.002 189.394 103.269 189.335 102.54C189.321 101.801 189.638 101.075 189.557 100.337L189.15 98.2923L190.908 98.3185Z" fill="black"/>
<path d="M189.26 79.37C189.41 80.126 189.608 80.8811 189.69 81.6578C190.131 83.0004 190.354 84.4054 190.349 85.8189C190.28 86.3233 190.319 86.8366 190.464 87.3246C190.645 87.8665 190.676 88.4477 190.553 89.0058C190.448 89.918 190.541 90.8421 190.826 91.7148C190.836 92.2886 190.853 93.1735 190.801 94.0402C190.749 94.9069 190.735 95.7632 190.715 96.2694C190.743 96.9553 190.808 97.6393 190.908 98.3184L189.131 98.2926L189.29 96.4025C189.235 95.7518 189.269 95.0967 189.391 94.4552C189.504 93.5206 189.487 92.5746 189.339 91.6448C189.234 90.674 189.176 89.6439 189.149 88.6619C189.121 87.6799 188.968 86.7683 188.925 86.0007C188.882 85.233 188.607 84.5668 188.487 83.8491C188.367 83.1315 188.557 82.3498 188.359 81.6336C188.162 80.9174 187.802 80.3598 187.528 79.7033L189.26 79.37Z" fill="black"/>
<path d="M183.838 61.1327L184.654 63.3064C185.393 64.5168 185.926 65.8416 186.231 67.2269C186.443 69.2269 186.694 68.1036 186.987 70.3356C187.092 71.2466 187.393 72.124 187.869 72.907C187.952 73.1779 188.036 73.5362 188.121 73.9335L188.28 75.2049C188.384 76.0688 188.487 76.9229 188.593 77.4171C188.699 77.9112 189.259 79.3504 189.259 79.3504L187.508 79.6841L187.231 77.8117C187.008 77.1904 186.917 76.5296 186.962 75.8711C186.946 74.9237 186.745 73.9887 186.368 73.1193C185.732 71.2633 185.199 69.1622 184.851 67.6608C184.591 66.976 184.287 66.3089 183.94 65.6639C183.656 64.9784 183.67 64.1902 183.328 63.535L182.19 61.8049L183.838 61.1327Z" fill="black"/>
<path d="M174.793 44.4013L176.071 46.3234C176.396 46.662 176.704 47.0167 176.993 47.3863C177.587 48.1263 178.049 48.9636 178.359 49.8612C178.996 51.7951 179.004 50.6179 179.781 52.7534C179.972 53.3358 180.258 53.8827 180.626 54.3722C180.812 54.6062 180.985 54.8498 181.145 55.102C181.639 56.1435 182.352 58.4553 182.786 59.3618C182.983 59.739 183.2 60.1052 183.437 60.4588C183.667 60.8242 183.838 61.1421 183.838 61.1421L182.19 61.8241C182.003 61.2206 181.784 60.6272 181.536 60.0462C181.187 59.486 180.951 58.8623 180.842 58.2106C180.598 57.2956 180.222 56.4211 179.727 55.6144C178.802 53.8998 177.719 52.013 177.091 50.614C176.73 49.9784 176.327 49.3683 175.883 48.7879C175.454 48.1927 175.295 47.4174 174.809 46.8621L173.316 45.4206L174.793 44.4013Z" fill="black"/>
<path d="M162.602 29.8102L164.272 31.4041C164.669 31.6565 165.036 31.9533 165.366 32.2887C166.086 32.9285 166.717 33.663 167.241 34.4722C168.243 36.1854 168.038 35.0704 169.228 36.9552C169.646 37.7716 170.232 38.4902 170.947 39.0638C171.654 40.0236 172.876 42.0537 173.464 42.9087C173.88 43.4546 174.324 43.9789 174.794 44.4797L173.317 45.4795L172.374 43.8334C171.93 43.3461 171.572 42.7869 171.315 42.1796C170.876 41.342 170.319 40.5724 169.661 39.8948C169.016 39.1576 168.438 38.3122 167.793 37.5749C167.148 36.8377 166.572 36.109 166.095 35.5049C165.618 34.9008 165.029 34.5517 164.533 33.9771C164.037 33.4026 163.752 32.6879 163.132 32.2616L161.353 31.0879L162.602 29.8102Z" fill="black"/>
<path d="M147.762 17.9421C148.439 18.3286 149.095 18.7518 149.727 19.2096C151.007 19.8141 152.182 20.6202 153.208 21.5971C154.574 23.0507 154.186 21.9683 155.634 23.6636C156.227 24.3624 156.963 24.926 157.791 25.3166C158.235 25.6781 158.857 26.2698 159.471 26.9298C160.085 27.5897 160.612 28.2318 160.987 28.5654C161.362 28.899 162.621 29.8098 162.621 29.8098L161.353 31.0879L160.075 29.6911C159.543 29.2945 159.098 28.7928 158.767 28.217C158.155 27.4854 157.444 26.8435 156.654 26.3102C155.098 25.1325 153.537 23.6339 152.296 22.7131C151.697 22.2936 151.074 21.9088 150.43 21.5605C149.821 21.1534 149.391 20.4803 148.744 20.1226C148.096 19.7648 147.443 19.6308 146.789 19.3997L147.762 17.9421Z" fill="black"/>
<path d="M130.854 9.28291L132.988 10.2166C134.365 10.5306 135.685 11.0577 136.901 11.7791C138.486 13.0049 137.877 12.053 139.668 13.382C140.398 13.931 141.236 14.32 142.126 14.5237C142.381 14.6553 142.695 14.8343 143.039 15.0518L144.072 15.811C144.771 16.3332 145.45 16.8461 145.892 17.1006C146.497 17.4224 147.118 17.7129 147.753 17.9712L146.809 19.4671L145.255 18.3769C144.636 18.0964 144.08 17.6929 143.622 17.1909C142.927 16.5499 142.113 16.0524 141.226 15.727C139.443 14.9037 137.57 13.8485 136.235 13.0559C135.557 12.7793 134.866 12.5387 134.163 12.3351C133.479 12.0753 132.915 11.5117 132.202 11.3107L130.176 10.9296L130.854 9.28291Z" fill="black"/>
<path d="M112.499 17.5282L114.478 16.3344C114.478 16.3344 114.927 15.9467 115.588 15.4677C116.349 14.9006 117.206 14.4763 118.119 14.2151C120.05 13.6641 118.904 13.6073 121.008 12.9364C121.875 12.6552 122.686 12.2221 123.402 11.6571C124.462 11.2194 126.811 10.6219 127.736 10.2547C128.333 10.0006 129.553 9.24865 129.553 9.24865L130.156 10.9205L128.361 11.5176C127.783 11.8381 127.146 12.0384 126.488 12.1064C125.563 12.318 124.674 12.6619 123.847 13.1276C122.125 14.0443 120.161 14.9461 118.735 15.5462C118.062 15.8653 117.419 16.245 116.814 16.6806C116.157 16.9844 115.515 17.3208 114.891 17.6887L113.373 19.1173L112.499 17.5282Z" fill="black"/>
<path d="M97.379 29.0213C97.9421 28.4857 98.4756 27.9311 99.0586 27.4243C99.9681 26.3391 101.042 25.4037 102.241 24.652C103.999 23.647 102.857 23.8527 104.818 22.7759C105.643 22.3752 106.376 21.8088 106.973 21.1119C107.932 20.4621 110.027 19.3147 110.872 18.7739C111.438 18.3908 111.982 17.9748 112.499 17.5281L113.43 19.048L111.747 19.9154C111.236 20.3414 110.658 20.6805 110.037 20.9196C109.187 21.3219 108.399 21.8441 107.697 22.4703C106.921 23.0681 106.077 23.6575 105.272 24.2073C104.466 24.7571 103.769 25.373 103.146 25.8222C102.523 26.2713 102.106 26.814 101.562 27.3395C101.018 27.8651 100.255 28.0736 99.7503 28.6082L98.5879 30.3513L97.379 29.0213Z" fill="black"/>
<path d="M84.8728 43.297L86.2758 41.4425C86.9185 40.1787 87.7558 39.0243 88.757 38.0215C90.3265 36.7768 89.2462 37.1663 90.987 35.7336C91.7027 35.1628 92.2886 34.4457 92.7058 33.6301C93.4077 32.7223 95.4113 31.3237 96.1175 30.6492C96.5752 30.1934 97.4282 29.0591 97.4282 29.0591L98.6366 30.3599L97.2028 31.5924C96.7842 32.1075 96.2671 32.5337 95.682 32.8459C95.2889 33.0751 94.9311 33.3601 94.6197 33.6923C94.2963 34.0581 93.9835 34.4724 93.6696 34.8284C92.4353 36.349 90.9295 37.8942 89.8624 39.0032C89.3871 39.5567 89.0793 40.2432 88.6629 40.8345C88.2465 41.4258 87.5548 41.8276 87.1882 42.4861L86.3198 44.3697L84.8728 43.297Z" fill="black"/>
<path d="M75.4667 59.8417L76.3988 57.7234C76.5119 57.2632 76.6495 56.8093 76.8108 56.3637C77.1535 55.4793 77.6259 54.651 78.2124 53.9061C79.4656 52.3559 78.5052 52.928 79.8616 51.1813C80.4098 50.4527 80.8436 49.6443 81.1478 48.7842C81.7609 47.8002 83.3393 45.9814 83.8771 45.1252C84.0468 44.8497 84.2714 44.3884 84.4583 43.9959C84.6453 43.6034 84.8242 43.2985 84.8242 43.2985L86.2705 44.3323C85.8599 44.8091 85.4736 45.3065 85.1132 45.8224C84.8468 46.4181 84.4598 46.9518 83.9768 47.3899C83.3391 48.087 82.8012 48.8695 82.3786 49.715C81.85 50.5418 81.4397 51.4637 80.9018 52.3101C80.3639 53.1566 79.9609 53.9519 79.5359 54.6017C79.1915 55.2398 78.8795 55.8948 78.601 56.5644C78.1869 57.1883 77.8255 57.8457 77.5204 58.5297L77.0918 60.5706L75.4667 59.8417Z" fill="black"/>
<path d="M69.5251 77.8877C69.6632 77.1235 69.8405 76.367 70.0565 75.6211C70.1731 74.2088 70.5114 72.8238 71.059 71.5172C71.9389 69.7306 71.0411 70.5447 72.1303 68.5209C72.582 67.7213 72.8571 66.8338 72.937 65.9185C73.3251 64.8414 74.3827 62.6819 74.803 61.7793C75.0542 61.1813 75.4177 59.8225 75.4177 59.8225L77.0331 60.5516L76.1609 62.231C75.944 62.8608 75.627 63.4513 75.222 63.9797C74.7611 64.8028 74.4178 65.6867 74.2022 66.6054C73.6344 68.4738 72.7778 70.474 72.3584 71.9603C72.1283 72.6454 72.1033 73.4046 71.9415 74.108C71.6596 74.7932 71.4132 75.4926 71.2031 76.2032C71.1492 76.8927 71.1391 77.585 71.1732 78.2758L69.5251 77.8877Z" fill="black"/>
<path d="M67.4063 96.8274L67.4511 94.5017C67.4511 94.5017 67.353 93.9198 67.299 93.094C67.2526 92.6417 67.2443 92.1863 67.2741 91.7326C67.3205 91.2435 67.4124 90.7598 67.5486 90.2878C68.1147 88.3319 67.4628 89.3166 68.0344 87.1272C68.2804 86.2434 68.3363 85.3172 68.1982 84.4102C68.391 83.2782 69.106 80.9694 69.321 79.983C69.4044 79.2977 69.4501 78.6084 69.4579 77.9182L71.1931 78.2949L70.7413 80.132C70.7134 80.8113 70.5437 81.4772 70.2431 82.0867C69.9123 82.9701 69.7166 83.8985 69.6625 84.8405C69.5525 86.7881 69.2425 88.9435 68.9985 90.4655C68.9164 91.1925 68.907 91.9259 68.9707 92.6548C68.9843 93.3938 68.6674 94.1195 68.7489 94.8573L69.1554 96.9023L67.4063 96.8274Z" fill="black"/>
<path d="M69.0937 115.775C68.9439 115.019 68.7456 114.264 68.6634 113.487C68.2221 112.144 67.9997 110.739 68.0045 109.326C68.0784 108.821 68.0357 108.306 67.8798 107.82C67.7254 107.272 67.7148 106.692 67.849 106.138C67.9542 105.226 67.8611 104.302 67.576 103.429C67.5655 102.855 67.5493 101.97 67.6013 101.104C67.6534 100.237 67.6668 99.3807 67.6867 98.8745C67.6585 98.1885 67.5941 97.5046 67.4938 96.8255L69.2711 96.8513L69.1115 98.7413C69.146 99.0643 69.152 99.3897 69.1294 99.7138C69.1217 100.042 69.0788 100.369 69.0016 100.689C68.8883 101.627 68.9057 102.576 69.0533 103.509C69.1585 104.48 69.2162 105.51 69.2439 106.492C69.2716 107.474 69.4252 108.434 69.4675 109.153C69.5098 109.872 69.785 110.587 69.905 111.305C70.025 112.022 69.8354 112.804 70.033 113.52C70.2306 114.236 70.5904 114.794 70.8646 115.45L69.0937 115.775Z" fill="black"/>
<path d="M74.5157 134.012L73.6991 131.839C72.9598 130.628 72.4238 129.303 72.1126 127.918C71.9109 125.918 71.6596 127.041 71.3662 124.809C71.2615 123.898 70.9605 123.021 70.4841 122.238C70.4014 121.967 70.3172 121.609 70.2322 121.212C70.1473 120.814 70.1295 120.377 70.073 119.94C69.9698 119.076 69.8667 118.222 69.7606 117.728C69.6544 117.234 69.094 115.795 69.094 115.795L70.8453 115.461L71.1224 117.333C71.3451 117.955 71.4365 118.615 71.391 119.274C71.407 120.221 71.6089 121.156 71.9852 122.026C72.6212 123.882 73.1549 125.983 73.5028 127.484C73.7643 128.168 74.0684 128.835 74.4133 129.481C74.6977 130.167 74.683 130.955 75.0251 131.61L76.1637 133.34L74.5157 134.012Z" fill="black"/>
<path d="M83.561 150.743L82.2829 148.821C81.9565 148.481 81.6485 148.122 81.3603 147.749C80.7644 147.013 80.3022 146.179 79.9946 145.283C79.3572 143.35 79.3496 144.527 78.5726 142.391C78.3774 141.811 78.0921 141.264 77.7273 140.773C77.542 140.538 77.369 140.295 77.209 140.043C76.7142 139.001 76.0019 136.689 75.5677 135.783C75.3706 135.406 75.1532 135.04 74.9165 134.686C74.6865 134.32 74.5156 134.003 74.5156 134.003L76.1634 133.321C76.3592 133.941 76.5875 134.55 76.8474 135.147C77.197 135.707 77.4328 136.331 77.5413 136.982C77.7857 137.897 78.1615 138.772 78.6569 139.578C79.5816 141.293 80.6648 143.18 81.2925 144.579C81.6532 145.214 82.0569 145.824 82.5008 146.405C82.9292 147 83.089 147.775 83.575 148.331L85.0675 149.772L83.561 150.743Z" fill="black"/>
<path d="M95.7515 165.335L94.0809 163.712C93.684 163.46 93.317 163.163 92.987 162.828C92.2858 162.193 91.6718 161.469 91.1609 160.673C90.1586 158.959 90.3635 160.074 89.1735 158.19C88.7383 157.385 88.1439 156.677 87.4265 156.111C86.7207 155.209 85.498 153.13 84.9102 152.314C84.4938 151.768 84.0499 151.244 83.5803 150.743L85.0572 149.744L86.0001 151.39C86.444 151.877 86.8023 152.436 87.0596 153.043C87.4978 153.881 88.0548 154.651 88.7133 155.328C89.3577 156.056 89.9365 156.911 90.5812 157.648C91.2258 158.385 91.8023 159.114 92.2794 159.718C92.7565 160.322 93.3455 160.671 93.8415 161.246C94.3375 161.821 94.6225 162.535 95.2323 162.962L97.0098 164.058L95.7515 165.335Z" fill="black"/>
<path d="M110.63 177.202C109.953 176.816 109.297 176.393 108.665 175.935C107.385 175.33 106.21 174.524 105.184 173.547C103.818 172.094 104.207 173.176 102.758 171.481C102.165 170.782 101.43 170.218 100.601 169.828C100.158 169.466 99.5351 168.874 98.921 168.215C98.3069 167.555 97.7806 166.912 97.4055 166.579C97.0304 166.245 95.7709 165.335 95.7709 165.335L97.0097 164.057L98.2878 165.454C98.82 165.85 99.2654 166.352 99.5965 166.928C100.206 167.662 100.917 168.304 101.709 168.835C103.265 170.012 104.827 171.511 106.067 172.432C106.665 172.849 107.284 173.234 107.923 173.585C108.542 173.991 108.972 174.665 109.619 175.013C110.258 175.29 110.911 175.534 111.575 175.745L110.63 177.202Z" fill="black"/>
<path d="M127.499 185.862L125.365 184.929C123.988 184.615 122.668 184.088 121.453 183.366C119.857 182.141 120.477 183.092 118.685 181.763C117.955 181.214 117.118 180.825 116.227 180.622C115.973 180.49 115.659 180.311 115.315 180.094L114.33 179.333C113.631 178.811 112.942 178.299 112.51 178.044C111.902 177.721 111.278 177.431 110.64 177.173L111.583 175.678L113.137 176.758C113.737 177.039 114.278 177.432 114.731 177.916C115.426 178.557 116.24 179.054 117.127 179.379C118.899 180.203 120.783 181.258 122.118 182.051C122.795 182.327 123.487 182.568 124.19 182.771C124.874 183.031 125.438 183.595 126.15 183.796L128.177 184.177L127.499 185.862Z" fill="black"/>
<path d="M187.773 114.796C187.953 114.024 188.036 113.235 188.167 112.464C188.167 112.464 188.156 111.861 188.219 111.023C188.211 110.615 188.299 110.137 188.378 109.649C188.441 109.158 188.539 108.671 188.672 108.194C189.257 106.238 188.586 107.223 189.176 104.984C189.381 104.073 189.397 103.129 189.222 102.211C189.211 101.628 189.409 100.729 189.489 99.8425C189.57 98.9558 189.661 98.0884 189.661 97.5728C189.649 96.9115 189.429 95.4856 189.429 95.4856L191.205 95.4531L191.086 97.4494C191.168 98.1421 191.112 98.8441 190.92 99.5147C190.749 100.479 190.68 101.458 190.712 102.437C190.731 103.458 190.653 104.549 190.526 105.563C190.399 106.577 190.242 107.514 190.111 108.343C189.981 109.172 190.139 109.879 189.979 110.641C189.818 111.403 189.472 112.129 189.438 112.908C189.403 113.686 189.532 114.365 189.478 115.096L187.773 114.796Z" fill="#F1F2F2"/>
<path d="M182.122 133.333C182.419 132.598 182.775 131.892 183.053 131.137C183.136 130.666 183.244 130.2 183.377 129.74C183.629 128.815 183.984 127.921 184.435 127.075C185.373 125.278 184.553 126.1 185.564 124.029C185.99 123.195 186.209 122.27 186.203 121.333C186.348 120.766 186.653 119.914 186.958 119.081C187.212 118.364 187.426 117.632 187.598 116.891C187.722 116.237 187.793 114.796 187.793 114.796L189.537 115.133L189.009 117.088C188.947 117.771 188.755 118.435 188.443 119.044C188.037 119.951 187.754 120.908 187.602 121.891C187.495 122.389 187.368 122.868 187.242 123.415C187.116 123.962 186.92 124.393 186.755 124.912C186.423 125.891 186.09 126.802 185.832 127.555C185.574 128.309 185.432 129.032 185.193 129.756C184.954 130.48 184.402 131.113 184.261 131.874C184.119 132.635 183.986 133.299 183.844 134.012L182.122 133.333Z" fill="#F1F2F2"/>
<path d="M172.753 150.286L174.086 148.316L174.254 147.943C174.376 147.717 174.535 147.393 174.712 147.02C175.129 146.158 175.656 145.353 176.28 144.628C177.651 143.104 176.612 143.649 178.026 141.882C178.622 141.16 179.036 140.305 179.233 139.389C179.719 138.339 181.118 136.3 181.518 135.339C181.769 134.722 182.122 133.324 182.122 133.324L183.756 134.014L182.867 135.801C182.675 136.476 182.331 137.098 181.861 137.619C181.29 138.428 180.83 139.31 180.491 140.241C180.063 141.222 179.555 142.116 179.008 143.011C178.552 143.827 178.055 144.619 177.518 145.383C177.083 146.014 176.824 146.758 176.448 147.416C176.072 148.075 175.411 148.593 175.045 149.271L174.208 151.29L172.753 150.286Z" fill="#F1F2F2"/>
<path d="M160.079 164.924C160.671 164.398 161.204 163.814 161.776 163.269C162.051 162.876 162.345 162.497 162.659 162.134C163.274 161.413 163.954 160.749 164.69 160.151C166.299 158.915 165.228 159.314 166.978 157.843C167.686 157.236 168.258 156.486 168.657 155.643C169.427 154.782 171.113 152.981 171.739 152.162C172.125 151.577 172.464 150.963 172.753 150.324L174.209 151.338C173.801 151.871 173.403 152.404 172.966 152.898C172.62 153.507 172.154 154.038 171.596 154.46C170.889 155.156 170.253 155.921 169.696 156.742C169.07 157.551 168.377 158.381 167.702 159.162C167.026 159.943 166.31 160.588 165.728 161.144C165.146 161.699 164.78 162.377 164.275 162.931C163.771 163.485 162.981 163.83 162.507 164.442C162.032 165.054 161.714 165.673 161.278 166.255L160.079 164.924Z" fill="#F1F2F2"/>
<path d="M144.602 176.599C145.274 176.178 145.966 175.796 146.618 175.366C147.657 174.366 148.84 173.528 150.126 172.879C151.945 171.99 150.802 172.137 152.822 171.079C153.657 170.652 154.378 170.032 154.925 169.27C155.365 168.902 156.113 168.392 156.841 167.892C157.467 167.462 158.068 166.996 158.641 166.497C159.131 165.998 159.595 165.473 160.03 164.925L161.238 166.226L159.688 167.47C159.231 167.999 158.675 168.432 158.051 168.746C157.197 169.245 156.411 169.854 155.715 170.559C155.333 170.897 154.932 171.244 154.52 171.554C154.108 171.863 153.677 172.172 153.255 172.472C152.421 173.071 151.606 173.611 150.934 174.051C150.263 174.491 149.739 175.046 149.125 175.466C148.512 175.885 147.69 176.095 147.097 176.602L145.503 178.09L144.602 176.599Z" fill="#F1F2F2"/>
<path d="M127.12 184.809L129.349 184.009L129.704 183.818L130.618 183.344C131.463 182.894 132.36 182.551 133.289 182.322C135.291 181.887 134.123 181.772 136.306 181.129C137.207 180.884 138.041 180.44 138.748 179.829C139.758 179.266 142.092 178.425 142.975 177.884C143.554 177.49 144.11 177.064 144.641 176.608L145.553 178.129L143.793 179.056C143.227 179.492 142.568 179.791 141.867 179.928C140.932 180.25 140.045 180.698 139.231 181.26C138.327 181.743 137.306 182.2 136.411 182.625L135.053 183.224L133.809 183.675C133.105 183.974 132.417 184.311 131.749 184.685C131.047 185.019 130.212 185.005 129.528 185.348L127.666 186.501L127.12 184.809Z" fill="#F1F2F2"/>
<path d="M108.277 189.191L110.62 188.847C111.985 188.401 113.398 188.12 114.829 188.011C116.867 187.973 115.793 187.672 118.033 187.495C118.963 187.423 119.867 187.158 120.689 186.717C121.82 186.462 124.229 186 125.223 185.661C125.889 185.419 126.533 185.12 127.149 184.769L127.733 186.461C127.096 186.648 126.458 186.835 125.801 186.983C125.163 187.266 124.477 187.424 123.78 187.448C122.791 187.588 121.819 187.831 120.881 188.172C119.915 188.462 118.852 188.725 117.846 188.957C116.841 189.19 115.91 189.285 115.078 189.407C114.245 189.529 113.61 189.833 112.855 190.002C112.081 190.017 111.307 190.07 110.538 190.161L108.484 190.919L108.277 189.191Z" fill="#F1F2F2"/>
<path d="M88.9327 189.546C89.7204 189.61 90.5073 189.634 91.2947 189.688C91.2947 189.688 91.8953 189.609 92.7298 189.584C93.6852 189.555 94.6412 189.609 95.5873 189.745C97.5361 190.118 96.5551 189.572 98.8333 189.909C99.7574 190.022 100.695 189.942 101.586 189.674C102.741 189.653 105.21 189.754 106.236 189.589C106.566 189.583 107.078 189.437 107.503 189.342C107.929 189.247 108.276 189.143 108.276 189.143L108.493 190.909C107.833 190.922 107.163 190.934 106.553 190.994C105.869 191.137 105.164 191.15 104.476 191.032C103.506 190.951 102.53 190.969 101.564 191.085C100.546 191.172 99.4597 191.24 98.44 191.23C97.4203 191.219 96.323 191.21 95.5465 191.225C94.77 191.239 94.0149 191.36 93.2569 191.325C92.4989 191.29 91.7261 190.974 90.9503 191.027C90.1745 191.08 89.5077 191.248 88.7811 191.339L88.9327 189.546Z" fill="#F1F2F2"/>
<path d="M69.9414 185.857C70.6938 186.116 71.4552 186.335 72.216 186.526C72.216 186.526 72.8187 186.563 73.6368 186.704C74.5784 186.876 75.5027 187.133 76.3986 187.47C78.277 188.243 77.3693 187.453 79.5402 188.298C80.4176 188.618 81.356 188.733 82.2845 188.637C82.8589 188.723 83.737 188.951 84.5952 189.159C85.4534 189.367 86.3298 189.506 86.8356 189.555C87.5347 189.579 88.2345 189.566 88.9322 189.517L88.7802 191.29L86.8322 190.956C86.1355 190.971 85.443 190.844 84.7961 190.585C83.8445 190.302 82.8642 190.128 81.8738 190.064C79.8954 189.82 77.9398 189.417 76.026 188.858C75.2945 188.677 74.5074 188.643 73.7663 188.472C73.0253 188.301 72.3368 187.817 71.5677 187.705C70.7986 187.592 70.1193 187.615 69.3994 187.54L69.9414 185.857Z" fill="#F1F2F2"/>
<path d="M52.1414 178.295L54.2109 179.434C54.2109 179.434 54.7965 179.598 55.5692 179.905C56.4712 180.234 57.3252 180.683 58.1084 181.24C59.78 182.386 59.0833 181.455 61.0475 182.674C61.8256 183.191 62.7182 183.508 63.6472 183.599C64.7418 183.988 66.9096 185.193 67.9147 185.466C68.5928 185.635 69.279 185.769 69.9707 185.866L69.4584 187.578L67.5908 186.863C66.9018 186.746 66.249 186.472 65.6828 186.062C64.8181 185.575 63.8942 185.203 62.9341 184.955C61.9315 184.629 60.9513 184.237 59.9998 183.783C59.021 183.353 58.1786 182.95 57.4723 182.555C56.7659 182.159 56.0445 181.997 55.3495 181.689C54.6544 181.381 54.0698 180.74 53.3858 180.499L51.2962 179.857L52.1414 178.295Z" fill="#F1F2F2"/>
<path d="M36.2865 167.194L38.1007 168.708C38.5167 168.945 38.9201 169.204 39.3092 169.483C40.1329 169.994 40.8964 170.597 41.585 171.28C42.9719 172.782 42.458 171.76 44.1177 173.315C44.7872 173.965 45.5875 174.465 46.4651 174.78C47.4474 175.404 49.3595 176.955 50.2432 177.493C50.8804 177.795 51.5336 178.063 52.1998 178.294L51.335 179.846L49.6455 178.788C49.0111 178.497 48.4396 178.084 47.963 177.574C47.2083 176.932 46.3801 176.382 45.4959 175.936C43.7862 174.899 42.1609 173.729 40.6353 172.436C40.0533 171.94 39.3483 171.613 38.6703 171.178C37.9924 170.743 37.6774 169.98 36.9902 169.565L35.0295 168.54L36.2865 167.194Z" fill="#F1F2F2"/>
<path d="M23.084 153.029C23.5422 153.663 24.0199 154.296 24.5358 154.9C24.5358 154.9 24.9993 155.29 25.5243 155.854C26.1883 156.545 26.7871 157.296 27.3131 158.098C28.3742 159.839 28.1107 158.706 29.3595 160.619C29.8769 161.387 30.5506 162.038 31.3363 162.528C31.7515 162.929 32.3278 163.648 32.9031 164.309C33.4783 164.969 34.0921 165.61 34.477 165.953C34.8064 166.235 35.1516 166.498 35.511 166.741C35.7289 166.898 35.9552 167.044 36.1889 167.176L35.0193 168.521C34.5256 168.073 34.0891 167.565 33.6144 167.097C33.0444 166.695 32.5625 166.181 32.1983 165.586C31.5877 164.806 30.8978 164.092 30.1397 163.455C28.7001 162.098 27.3742 160.626 26.1752 159.052C25.6887 158.468 25.078 157.993 24.5721 157.409C24.0662 156.825 23.8092 156.041 23.2456 155.487C22.682 154.934 22.1212 154.535 21.5884 154.068L23.084 153.029Z" fill="#F1F2F2"/>
<path d="M13.0995 136.432L14.1097 138.573L14.339 138.9C14.4982 139.111 14.6977 139.399 14.9275 139.755C15.4659 140.549 15.8964 141.411 16.2076 142.319C16.8742 144.252 16.872 143.075 17.7267 145.209C18.047 146.092 18.5821 146.882 19.2835 147.505C19.942 148.466 20.9832 150.714 21.6483 151.509C22.1001 152.047 22.5795 152.561 23.0844 153.049L21.667 154.115L20.5683 152.443C20.0799 151.943 19.7133 151.338 19.4969 150.673C19.0852 149.769 18.5537 148.925 17.9168 148.163C17.3102 147.312 16.7558 146.426 16.2564 145.508C15.7545 144.613 15.2537 143.776 14.9294 143.033C14.6051 142.29 14.0999 141.744 13.7193 141.109C13.3387 140.474 13.2067 139.63 12.8063 138.976L11.483 137.23L13.0995 136.432Z" fill="#F1F2F2"/>
<path d="M6.77305 118.114L7.34931 120.419C7.54499 120.854 7.71843 121.299 7.86893 121.752C8.23153 122.64 8.48338 123.57 8.61876 124.52C8.86938 126.539 9.043 125.417 9.47242 127.656C9.63289 128.573 9.97938 129.448 10.4905 130.225C10.8987 131.307 11.5247 133.679 11.9694 134.634C12.2943 135.258 12.6622 135.859 13.0705 136.433L11.453 137.182C11.2087 136.564 10.9451 135.956 10.7102 135.328C10.3713 134.731 10.1485 134.075 10.0534 133.395C9.81619 132.435 9.4735 131.505 9.03161 130.622C8.28019 128.789 7.67102 126.901 7.20951 124.974C7.02107 124.228 6.63958 123.545 6.39326 122.82C6.14694 122.095 6.26732 121.246 5.97247 120.522L5.02444 118.594L6.77305 118.114Z" fill="#F1F2F2"/>
<path d="M4.40073 98.8781L4.51217 101.25C4.51217 101.25 4.64905 101.831 4.75174 102.665C4.88782 103.611 4.93462 104.568 4.89151 105.523C4.72494 107.559 5.16169 106.491 5.0677 108.778C5.05155 109.711 5.22376 110.638 5.57399 111.502C5.71168 112.658 5.89267 115.115 6.10533 116.123C6.20593 116.546 6.33027 116.962 6.47775 117.371C6.6213 117.787 6.77296 118.115 6.77296 118.115L5.04233 118.516C4.90421 117.867 4.83367 117.197 4.73491 116.576C4.51627 115.914 4.43085 115.214 4.48357 114.519C4.43728 113.538 4.29914 112.563 4.07097 111.608C3.87843 110.639 3.72204 109.523 3.59655 108.504C3.47107 107.485 3.47247 106.502 3.44797 105.695C3.42346 104.888 3.15809 104.183 3.09565 103.425C3.03322 102.668 3.2999 101.855 3.16952 101.099L2.62558 98.969L4.40073 98.8781Z" fill="#F1F2F2"/>
<path d="M6.06619 79.5669C5.88615 80.3387 5.80353 81.1281 5.66249 81.9089C5.66249 81.9089 5.67355 82.5118 5.62076 83.3396C5.5884 83.8005 5.53199 84.2594 5.45177 84.7143C5.39791 85.2072 5.2996 85.6941 5.15804 86.1691C4.58221 88.1252 5.2438 87.1403 4.65391 89.3885C4.44462 90.2964 4.43209 91.2387 4.61719 92.1518C4.62788 92.7353 4.43075 93.6338 4.34021 94.5207C4.24966 95.4076 4.16847 96.2748 4.17792 96.7902C4.21594 97.4894 4.29029 98.1861 4.40066 98.8776L2.62444 98.9102L2.75379 96.9623C2.67247 96.2696 2.7289 95.5676 2.91982 94.8969C3.08704 93.9324 3.15692 92.9534 3.1284 91.9748C3.13659 90.9271 3.19843 89.8805 3.31365 88.8391C3.44053 87.8154 3.58859 86.8886 3.71903 86.0593C3.84947 85.2301 3.7491 84.5218 3.86137 83.761C3.97365 83.0002 4.36811 82.2731 4.39268 81.4945C4.41724 80.7158 4.3077 80.0369 4.35256 79.3065L6.06619 79.5669Z" fill="#F1F2F2"/>
<path d="M11.7173 61.039C11.4102 61.7645 11.064 62.481 10.7864 63.2254C10.7864 63.2254 10.6808 63.8207 10.4625 64.6223C10.2164 65.5559 9.86827 66.4594 9.42442 67.3165C8.48643 69.1138 9.30637 68.2914 8.2959 70.3722C7.86807 71.2025 7.64838 72.1246 7.65579 73.059C7.51083 73.6259 7.19632 74.4779 6.90106 75.3199C6.64125 76.0357 6.42765 76.7674 6.26156 77.5106C6.13744 78.1549 6.06677 79.5959 6.06677 79.5959L4.32259 79.2583L4.84019 77.3032C4.90702 76.6206 5.10242 75.9569 5.41602 75.3472C5.82367 74.4418 6.10349 73.4839 6.2474 72.5012C6.36449 72.0029 6.48193 71.5241 6.61754 70.9769C6.75315 70.4296 6.92972 69.9984 7.09516 69.4895C7.42676 68.5107 7.7596 67.5999 8.01764 66.8462C8.27569 66.0924 8.42732 65.36 8.66649 64.6358C8.90566 63.9116 9.4572 63.2789 9.59878 62.5273C9.74035 61.7757 9.88335 61.1018 10.0157 60.3796L11.7173 61.039Z" fill="#F1F2F2"/>
<path d="M21.0868 44.0871L19.7442 46.0573L19.5763 46.43L19.1174 47.3528C18.6991 48.2172 18.1722 49.0245 17.5497 49.7551C16.189 51.2684 17.2181 50.7339 15.8133 52.4912C15.2225 53.2179 14.8063 54.0709 14.5968 54.9843C14.1112 56.0341 12.7116 58.0734 12.3118 59.0437C12.079 59.7045 11.8807 60.3771 11.7177 61.0585L10.0737 60.3591L11.0118 58.5715C11.2117 57.8975 11.5584 57.2765 12.0271 56.7532C12.5999 55.9452 13.0606 55.063 13.3966 54.1309C13.8253 53.1502 14.3334 52.2654 14.8704 51.3704C15.3243 50.5504 15.8218 49.7554 16.3608 48.989C16.8056 48.3582 17.0543 47.6241 17.4401 46.9556C17.826 46.287 18.4769 45.779 18.8431 45.101L19.6799 43.0818L21.0868 44.0871Z" fill="#F1F2F2"/>
<path d="M33.7609 29.4387C33.1688 29.9749 32.6258 30.549 32.063 31.0944C31.7884 31.4874 31.4939 31.8662 31.1808 32.2292C30.5652 32.9507 29.8851 33.6143 29.1491 34.212C27.5308 35.4479 28.6013 35.0489 26.8611 36.5205C26.1513 37.1253 25.579 37.8755 25.1829 38.7205C24.4122 39.581 22.7267 41.3823 22.1009 42.2011C21.7103 42.7866 21.3708 43.4047 21.0861 44.0486L19.6303 43.0247C20.0381 42.4919 20.4363 41.969 20.8737 41.4649C21.225 40.8603 21.6901 40.3298 22.2432 39.9028C22.9477 39.2081 23.584 38.4472 24.1434 37.6306C24.7595 36.8119 25.4531 35.9821 26.1282 35.2012C26.8032 34.4204 27.5293 33.7748 28.1017 33.2195C28.6741 32.6643 29.05 31.9862 29.5643 31.4417C30.0787 30.8973 30.8487 30.533 31.3329 29.9307C31.817 29.3285 32.1162 28.7004 32.552 28.1088L33.7609 29.4387Z" fill="#F1F2F2"/>
<path d="M49.1986 17.7745C48.5265 18.1857 47.8345 18.568 47.1726 19.0082C46.1426 20.0028 44.9699 20.8374 43.6935 21.4844C41.8747 22.3738 43.0177 22.2264 40.9981 23.2848C40.1669 23.7126 39.4493 24.3327 38.9049 25.0936C38.4553 25.4618 37.7073 25.9716 36.9883 26.4712C36.3645 26.9043 35.7637 27.3699 35.1885 27.866C34.7017 28.3224 33.8095 29.438 33.8095 29.438L32.5914 28.1374L34.0832 26.8941C34.5381 26.3635 35.0948 25.9299 35.7202 25.6189C36.5748 25.1197 37.3601 24.5101 38.056 23.8057C38.4382 23.4679 38.8396 23.1201 39.2417 22.8112C39.6439 22.5022 40.0944 22.1827 40.5161 21.8831C41.35 21.2939 42.1555 20.7441 42.8271 20.3038C43.4987 19.8635 44.0225 19.3091 44.6461 18.8989C45.2697 18.4886 46.0811 18.2597 46.6641 17.7529L48.2583 16.2645L49.1986 17.7745Z" fill="#F1F2F2"/>
<path d="M66.7094 9.55439L64.4812 10.354L64.1352 10.5452L63.173 11.02C62.3269 11.4744 61.426 11.8178 60.4925 12.0419C58.5003 12.4773 59.6676 12.5921 57.4753 13.2354C56.577 13.4793 55.7454 13.9235 55.0427 14.5348C54.0238 15.0982 51.6992 15.9385 50.8159 16.48C50.2389 16.8795 49.6829 17.3085 49.15 17.7654L48.2287 16.2356L49.9982 15.3082C50.5654 14.8742 51.2242 14.576 51.9241 14.4363C52.8621 14.1141 53.7521 13.6658 54.5698 13.1038C55.4736 12.6203 56.4944 12.1638 57.3896 11.7389L58.7478 11.1498L59.9921 10.6989C60.7059 10.4427 61.3482 9.99314 62.0514 9.68842C62.7546 9.3837 63.5796 9.36858 64.2724 9.02514L66.1356 7.91121L66.7094 9.55439Z" fill="#F1F2F2"/>
<path d="M85.5526 5.18178L83.2091 5.51657C81.8482 5.96313 80.4385 6.24373 79.0105 6.3523C76.9722 6.38967 78.0458 6.691 75.8062 6.86825C74.8747 6.93654 73.9689 7.20531 73.1505 7.65623C72.019 7.90072 69.6001 8.36335 68.6162 8.71213C67.9499 8.95318 67.3057 9.25139 66.6906 9.60346L66.1353 7.91131C66.7725 7.7148 67.4099 7.52802 68.0674 7.37978C68.7046 7.09514 69.3909 6.93719 70.0882 6.91471C71.0772 6.7751 72.049 6.53233 72.9877 6.19035C73.9533 5.90027 75.0263 5.63741 76.0223 5.41487C77.0182 5.19233 77.958 5.07782 78.7907 4.95555C79.6235 4.83328 80.2684 4.52963 81.0131 4.37006C81.7578 4.21049 82.5868 4.4093 83.3306 4.20111L85.385 3.45333L85.5526 5.18178Z" fill="#F1F2F2"/>
<path d="M104.897 4.82715C104.119 4.75387 103.322 4.72956 102.535 4.6759C102.535 4.6759 101.944 4.75483 101.11 4.77985C100.154 4.80899 99.1982 4.75491 98.2521 4.61824C96.3034 4.2454 97.2844 4.79162 95.0062 4.45401C94.0821 4.34017 93.1445 4.4203 92.253 4.68931C91.0883 4.71066 88.6299 4.60981 87.6038 4.77454C87.2737 4.78059 86.7618 4.92616 86.3267 5.02169C85.8915 5.11722 85.5537 5.23041 85.5537 5.23041L85.3369 3.46397C86.0066 3.45169 86.6666 3.43959 87.3353 3.36896C88.0157 3.22512 88.7174 3.21226 89.4027 3.33106C90.3887 3.41426 91.3807 3.39608 92.363 3.27679C93.3811 3.19976 94.4574 3.12166 95.4868 3.13197C96.5162 3.14228 97.4884 3.21201 98.2953 3.26531C99.1021 3.31861 99.817 3.12068 100.585 3.15524C101.352 3.1898 102.115 3.50655 102.891 3.45342C103.667 3.40029 104.334 3.23242 105.051 3.15118L104.897 4.82715Z" fill="#F1F2F2"/>
<path d="M123.888 8.50662C123.146 8.24786 122.384 8.03808 121.614 7.84792C121.614 7.84792 121.021 7.80043 120.193 7.65996C119.254 7.48728 118.333 7.2307 117.441 6.8933C115.553 6.12052 116.47 6.91109 114.299 6.06568C113.42 5.75213 112.483 5.63646 111.555 5.72688C110.98 5.64014 110.102 5.41304 109.234 5.20522C108.366 4.9974 107.509 4.85747 106.994 4.80855C106.295 4.7834 105.595 4.79624 104.897 4.84699L105.049 3.07377L106.997 3.39798C107.697 3.38333 108.393 3.5095 109.043 3.76904C109.994 4.05609 110.974 4.23073 111.965 4.28939C113.944 4.5313 115.9 4.93465 117.813 5.49542C118.555 5.68611 119.332 5.71077 120.083 5.89155C120.834 6.07234 121.503 6.54645 122.271 6.64909C123.04 6.75172 123.73 6.73909 124.45 6.82317L123.888 8.50662Z" fill="#F1F2F2"/>
<path d="M141.659 16.0789L139.58 14.9302C139.58 14.9302 139.004 14.7657 138.222 14.459C137.356 14.1197 136.536 13.674 135.78 13.1322C134.098 11.9762 134.805 12.9069 132.84 11.688C132.06 11.1692 131.163 10.8515 130.231 10.7631C129.146 10.3744 126.978 9.16902 125.973 8.89562C125.292 8.7268 124.602 8.59333 123.907 8.49575L124.43 6.79357L126.287 7.49881C126.992 7.61239 127.661 7.88631 128.244 8.29952C129.105 8.7861 130.026 9.15835 130.983 9.40689C131.94 9.73655 132.878 10.1221 133.791 10.5616C134.769 10.9912 135.612 11.394 136.318 11.7896C137.024 12.1852 137.746 12.3471 138.441 12.6554C139.136 12.9636 139.721 13.6047 140.405 13.8451L142.485 14.4879L141.659 16.0789Z" fill="#F1F2F2"/>
<path d="M157.553 27.1692L155.739 25.6558C155.323 25.4184 154.919 25.1596 154.53 24.8803C153.719 24.3714 152.972 23.7679 152.303 23.0826C150.916 21.5905 151.43 22.6025 149.77 21.0473C149.097 20.4017 148.298 19.9029 147.423 19.5825C146.44 18.9585 144.528 17.408 143.635 16.8699C142.999 16.5677 142.346 16.3036 141.679 16.0789L142.534 14.5165L144.223 15.575C144.859 15.8685 145.433 16.2805 145.915 16.7892C146.666 17.4321 147.491 17.982 148.373 18.427C150.061 19.4646 151.663 20.6355 153.165 21.9286C153.747 22.4238 154.462 22.7512 155.13 23.1864C155.798 23.6216 156.123 24.3841 156.81 24.7995L158.771 25.8239L157.553 27.1692Z" fill="#F1F2F2"/>
<path d="M170.756 41.3436C170.297 40.7003 169.761 40.0681 169.303 39.4247C168.94 39.1258 168.594 38.8074 168.266 38.471C167.602 37.78 167.003 37.029 166.477 36.2275C165.406 34.4962 165.67 35.6198 164.421 33.7069C163.903 32.9385 163.229 32.2879 162.444 31.7976C162.019 31.3968 161.453 30.6776 160.868 30.0171C160.283 29.3566 159.688 28.7158 159.303 28.3727C158.918 28.0295 158.624 27.8404 158.269 27.5842C157.915 27.3281 157.592 27.1492 157.592 27.1492L158.751 25.805C159.245 26.2628 159.74 26.7596 160.166 27.2284C160.729 27.6381 161.209 28.1508 161.582 28.7394C162.192 29.5172 162.878 30.2314 163.631 30.8711C165.068 32.2299 166.394 33.702 167.596 35.2732C168.082 35.8576 168.693 36.3425 169.189 36.9171C169.685 37.4917 169.962 38.294 170.525 38.8381C171.089 39.3823 171.64 39.7905 172.182 40.2572L170.756 41.3436Z" fill="#F1F2F2"/>
<path d="M180.74 57.9403L179.73 55.7896L179.491 55.4632C179.341 55.2617 179.132 54.9639 178.902 54.618C178.373 53.815 177.943 52.9508 177.622 52.0442C176.955 50.1109 176.967 51.2877 176.113 49.1535C175.793 48.2729 175.258 47.4867 174.556 46.8669C173.888 45.9064 172.847 43.6589 172.191 42.8538C171.783 42.3263 170.755 41.3237 170.755 41.3237L172.202 40.2661L173.262 41.9393C173.754 42.4372 174.125 43.0432 174.343 43.7093C174.755 44.6112 175.282 45.4551 175.913 46.2195C176.523 47.0696 177.081 47.9559 177.583 48.8737C178.075 49.7693 178.586 50.6063 178.901 51.3495C179.215 52.0928 179.73 52.6378 180.12 53.2727C180.511 53.9075 180.633 54.7516 181.034 55.4155L182.347 57.1521L180.74 57.9403Z" fill="#F1F2F2"/>
<path d="M187.066 76.2488L186.49 73.9442C186.49 73.9442 186.237 73.404 185.961 72.6115C185.606 71.7212 185.357 70.7918 185.221 69.8429C184.97 67.8242 184.796 68.946 184.357 66.707C184.197 65.7929 183.851 64.9217 183.339 64.1478C182.922 63.066 182.305 60.6843 181.86 59.7294C181.536 59.1076 181.168 58.5097 180.759 57.9403L182.367 57.1812C182.611 57.7993 182.875 58.4073 183.11 59.0353C183.447 59.633 183.67 60.2889 183.767 60.9688C184.002 61.9286 184.345 62.8588 184.788 63.7419C185.549 65.5757 186.161 67.4674 186.62 69.399C186.799 70.135 187.19 70.8185 187.437 71.5533C187.683 72.288 187.562 73.1171 187.848 73.8415L188.805 75.7694L187.066 76.2488Z" fill="#F1F2F2"/>
<path d="M189.429 95.4851L189.327 93.1134C189.327 93.1134 189.19 92.5323 189.088 91.7073C188.945 90.7425 188.895 89.7662 188.937 88.7918C189.104 86.7556 188.677 87.8238 188.771 85.5361C188.792 84.605 188.616 83.6799 188.255 82.8218C188.127 81.6665 187.936 79.2089 187.733 78.1913C187.659 77.8619 187.504 77.3686 187.361 76.9529C187.217 76.5373 187.065 76.1996 187.065 76.1996L188.796 75.7982C188.934 76.4474 189.005 77.1174 189.094 77.7383C189.315 78.4002 189.404 79.0994 189.355 79.7958C189.396 80.7773 189.535 81.7522 189.767 82.7065C189.95 83.6759 190.116 84.7915 190.232 85.8108C190.348 86.8301 190.356 87.8124 190.39 88.6192C190.425 89.426 190.68 90.1314 190.733 90.8989C190.786 91.6664 190.539 92.4589 190.669 93.225L191.203 95.3456L189.429 95.4851Z" fill="#F1F2F2"/>
<path d="M252.287 115.578C252.467 114.806 252.55 114.017 252.691 113.236C252.691 113.236 252.68 112.633 252.732 111.805C252.765 111.344 252.821 110.885 252.901 110.43C252.955 109.938 253.054 109.451 253.195 108.976C253.771 107.02 253.109 108.004 253.699 105.756C253.909 104.845 253.921 103.9 253.736 102.983C253.725 102.409 253.923 101.511 254.013 100.624C254.104 99.7372 254.185 98.8699 254.175 98.3546C254.137 97.6554 254.063 96.9586 253.953 96.2672L255.758 96.2341L255.629 98.182C255.71 98.8747 255.653 99.5766 255.463 100.247C255.295 101.212 255.225 102.191 255.254 103.169C255.246 104.217 255.184 105.264 255.069 106.305C254.942 107.329 254.794 108.256 254.663 109.085C254.533 109.914 254.633 110.622 254.521 111.383C254.409 112.144 254.014 112.871 253.99 113.65C253.965 114.428 254.075 115.107 254.03 115.838L252.287 115.578Z" fill="#F1F2F2"/>
<path d="M246.636 134.106C246.943 133.381 247.289 132.664 247.567 131.92C247.567 131.92 247.672 131.325 247.891 130.523C248.145 129.599 248.5 128.705 248.949 127.858C249.887 126.06 249.067 126.883 250.077 124.802C250.505 123.972 250.725 123.05 250.717 122.115C250.862 121.548 251.177 120.696 251.472 119.854C251.727 119.137 251.941 118.406 252.112 117.664C252.236 117.019 252.306 115.578 252.306 115.578L254.051 115.916L253.533 117.871C253.466 118.554 253.271 119.217 252.957 119.827C252.55 120.732 252.27 121.69 252.126 122.673C252.009 123.171 251.891 123.65 251.756 124.197C251.62 124.745 251.443 125.176 251.278 125.685C250.946 126.664 250.604 127.575 250.356 128.328C250.107 129.082 249.956 129.814 249.716 130.538C249.477 131.263 248.926 131.895 248.784 132.647C248.643 133.398 248.509 134.072 248.367 134.795L246.636 134.106Z" fill="#F1F2F2"/>
<path d="M237.267 151.059L238.609 149.089L238.777 148.726L239.226 147.803C239.652 146.94 240.182 146.133 240.804 145.4C242.165 143.887 241.135 144.422 242.54 142.664C243.131 141.938 243.547 141.085 243.757 140.171C244.242 139.121 245.642 137.082 246.042 136.112C246.275 135.451 246.473 134.778 246.636 134.097L248.27 134.797L247.381 136.583C247.188 137.258 246.844 137.88 246.375 138.401C245.802 139.209 245.341 140.092 245.005 141.024C244.576 141.956 244.069 142.889 243.532 143.784C243.078 144.604 242.58 145.399 242.041 146.166C241.596 146.796 241.348 147.531 240.962 148.199C240.576 148.868 239.925 149.376 239.559 150.054L238.722 152.073L237.267 151.059Z" fill="#F1F2F2"/>
<path d="M224.592 165.706C225.185 165.17 225.728 164.596 226.29 164.05C226.565 163.657 226.859 163.279 227.173 162.916C227.788 162.194 228.468 161.531 229.204 160.933C230.823 159.697 229.752 160.096 231.492 158.624C232.202 158.02 232.774 157.269 233.171 156.424C233.941 155.554 235.627 153.763 236.253 152.944C236.643 152.358 236.983 151.74 237.267 151.096L238.723 152.12C238.315 152.643 237.917 153.176 237.48 153.68C237.128 154.285 236.663 154.815 236.11 155.242C235.406 155.937 234.769 156.698 234.21 157.514C233.584 158.333 232.9 159.163 232.225 159.944C231.55 160.724 230.824 161.37 230.252 161.925C229.679 162.481 229.303 163.159 228.789 163.703C228.275 164.248 227.505 164.612 227.021 165.214C226.536 165.816 226.237 166.444 225.801 167.036L224.592 165.706Z" fill="#F1F2F2"/>
<path d="M209.155 177.371C209.827 176.96 210.519 176.578 211.181 176.138C212.217 175.141 213.396 174.306 214.679 173.661C216.498 172.772 215.355 172.919 217.375 171.861C218.209 171.434 218.93 170.814 219.478 170.052C219.927 169.683 220.675 169.174 221.394 168.674C222.018 168.241 222.619 167.775 223.194 167.279C223.671 166.823 224.573 165.707 224.573 165.707L225.791 167.008L224.231 168.252C223.776 168.783 223.22 169.217 222.594 169.527C221.74 170.027 220.954 170.636 220.259 171.341C219.876 171.679 219.475 172.026 219.063 172.335C218.651 172.645 218.22 172.964 217.799 173.263C216.965 173.853 216.159 174.402 215.478 174.843C214.796 175.283 214.292 175.837 213.668 176.248C213.045 176.658 212.233 176.887 211.65 177.394L210.056 178.882L209.155 177.371Z" fill="#F1F2F2"/>
<path d="M191.644 185.572L193.872 184.772L194.218 184.581L195.132 184.107C195.974 183.652 196.872 183.309 197.802 183.085C199.804 182.65 198.637 182.535 200.829 181.891C201.728 181.648 202.559 181.203 203.262 180.592C204.281 180.029 206.605 179.188 207.489 178.647C208.066 178.247 208.622 177.818 209.155 177.361L210.076 178.891L208.306 179.819C207.753 180.246 207.112 180.543 206.429 180.69C205.491 181.012 204.601 181.46 203.783 182.022C202.88 182.506 201.859 182.962 200.964 183.387L199.605 183.976L198.361 184.427C197.638 184.683 197.005 185.133 196.302 185.437C195.599 185.742 194.774 185.757 194.081 186.101L192.218 187.244L191.644 185.572Z" fill="#F1F2F2"/>
<path d="M172.8 189.964L175.144 189.629C176.505 189.183 177.915 188.902 179.343 188.793C181.381 188.756 180.307 188.455 182.547 188.277C183.478 188.209 184.384 187.94 185.203 187.489C186.334 187.245 188.753 186.782 189.738 186.482C190.403 186.239 191.047 185.941 191.663 185.591L192.238 187.273C191.601 187.469 190.963 187.656 190.306 187.804C189.669 188.089 188.982 188.247 188.285 188.269C187.296 188.411 186.325 188.653 185.386 188.994C184.42 189.284 183.357 189.547 182.361 189.769C181.365 189.992 180.425 190.106 179.592 190.228C178.759 190.351 178.114 190.654 177.37 190.814C176.625 190.974 175.796 190.775 175.052 190.983L173.037 191.749L172.8 189.964Z" fill="#F1F2F2"/>
<path d="M153.456 190.318C154.234 190.391 155.031 190.416 155.818 190.469C155.818 190.469 156.409 190.39 157.244 190.365C158.199 190.336 159.155 190.39 160.101 190.527C162.099 190.899 161.069 190.354 163.347 190.691C164.271 190.805 165.209 190.725 166.1 190.456C167.265 190.435 169.724 190.536 170.751 190.419C171.081 190.413 171.593 190.268 172.018 190.172C172.443 190.077 172.801 189.964 172.801 189.964L173.037 191.749C172.368 191.761 171.708 191.773 171.039 191.844C170.358 191.988 169.657 192.001 168.971 191.882C168.002 191.802 167.026 191.82 166.06 191.935C165.042 192.012 163.965 192.081 162.936 192.08C161.907 192.08 160.934 192 160.127 191.947C159.321 191.894 158.606 192.091 157.838 192.057C157.07 192.022 156.307 191.706 155.531 191.749C154.755 191.792 154.089 191.98 153.372 192.061L153.456 190.318Z" fill="#F1F2F2"/>
<path d="M134.465 186.62C135.207 186.879 135.969 187.089 136.729 187.279C136.729 187.279 137.332 187.326 138.15 187.467C139.092 187.638 140.017 187.895 140.912 188.233C142.8 189.006 141.883 188.216 144.054 189.061C144.933 189.374 145.87 189.49 146.798 189.4C147.373 189.486 148.251 189.714 149.119 189.921C149.986 190.129 150.843 190.269 151.359 190.318C152.058 190.343 152.758 190.33 153.456 190.28L153.304 192.053L151.356 191.729C150.656 191.743 149.96 191.617 149.31 191.358C148.359 191.071 147.379 190.896 146.388 190.837C144.409 190.595 142.453 190.192 140.54 189.631C139.798 189.441 139.021 189.416 138.27 189.235C137.519 189.054 136.85 188.58 136.081 188.478C135.313 188.375 134.623 188.388 133.903 188.303L134.465 186.62Z" fill="#F1F2F2"/>
<path d="M116.655 179.067L118.735 180.216C118.735 180.216 119.31 180.38 120.093 180.687C120.989 181.019 121.839 181.464 122.622 182.012C124.304 183.168 123.597 182.237 125.561 183.456C126.342 183.975 127.238 184.293 128.171 184.381C129.256 184.77 131.424 185.975 132.429 186.249C133.11 186.417 133.799 186.551 134.494 186.648L133.972 188.351L132.105 187.645C131.417 187.524 130.765 187.25 130.197 186.844C129.336 186.357 128.415 185.985 127.458 185.737C126.457 185.406 125.477 185.015 124.523 184.565C123.593 184.134 122.702 183.732 121.996 183.337C121.29 182.941 120.568 182.779 119.873 182.471C119.178 182.163 118.594 181.522 117.909 181.281L115.83 180.638L116.655 179.067Z" fill="#F1F2F2"/>
<path d="M100.8 167.976L102.615 169.49C103.031 169.727 103.434 169.986 103.823 170.265C104.634 170.774 105.382 171.378 106.05 172.063C107.437 173.555 106.923 172.543 108.583 174.098C109.256 174.744 110.055 175.243 110.93 175.563C111.913 176.187 113.825 177.737 114.718 178.276C115.354 178.578 116.008 178.842 116.675 179.067L115.82 180.629L114.13 179.57C113.493 179.28 112.918 178.867 112.438 178.356C111.688 177.713 110.863 177.163 109.981 176.718C108.293 175.681 106.69 174.51 105.188 173.217C104.606 172.722 103.891 172.394 103.223 171.959C102.555 171.524 102.23 170.761 101.543 170.346L99.5822 169.322L100.8 167.976Z" fill="#F1F2F2"/>
<path d="M87.5978 153.802C88.0562 154.445 88.5434 155.068 89.0505 155.721C89.3965 156.021 89.7265 156.34 90.039 156.675C90.703 157.366 91.3018 158.117 91.8278 158.919C92.8984 160.65 92.6351 159.526 93.8838 161.439C94.399 162.21 95.0731 162.861 95.8607 163.349C96.2856 163.749 96.8522 164.469 97.4372 165.129C98.0221 165.79 98.6164 166.43 99.0014 166.774C99.3864 167.117 99.6811 167.306 100.035 167.562C100.39 167.818 100.713 167.997 100.713 167.997L99.5436 169.341C99.0595 168.883 98.6134 168.386 98.1388 167.918C97.5758 167.508 97.0954 166.995 96.7227 166.407C96.1154 165.627 95.4287 164.912 94.6737 164.275C93.2369 162.916 91.9112 161.444 90.7093 159.873C90.2228 159.289 89.6119 158.804 89.1159 158.229C88.6199 157.655 88.3431 156.852 87.7797 156.308C87.2162 155.764 86.665 155.356 86.1225 154.889L87.5978 153.802Z" fill="#F1F2F2"/>
<path d="M77.6131 137.205L78.6235 139.355L78.8625 139.682C79.0118 139.883 79.2212 140.181 79.4411 140.527C79.9772 141.327 80.4106 142.192 80.7311 143.101C81.3977 145.034 81.3858 143.857 82.2405 145.991C82.5604 146.872 83.0956 147.658 83.7971 148.278C84.4556 149.239 85.5065 151.486 86.1621 152.291C86.5699 152.819 87.598 153.821 87.598 153.821L86.1808 154.898L85.0918 153.225C84.5991 152.727 84.229 152.121 84.0107 151.455C83.599 150.553 83.071 149.709 82.4403 148.945C81.8306 148.095 81.2729 147.208 80.7702 146.291C80.278 145.395 79.7675 144.558 79.4529 143.815C79.1383 143.072 78.6234 142.527 78.2331 141.892C77.8428 141.257 77.7205 140.413 77.3199 139.749L76.0064 138.012L77.6131 137.205Z" fill="#F1F2F2"/>
<path d="M71.2869 118.897L71.8631 121.201C72.0588 121.637 72.2322 122.081 72.3827 122.534C72.7453 123.423 72.9972 124.352 73.1326 125.303C73.3832 127.321 73.5568 126.2 73.9959 128.439C74.156 129.353 74.5025 130.224 75.0138 130.998C75.4317 132.08 76.0482 134.461 76.493 135.416C76.8171 136.038 77.1849 136.636 77.5938 137.205L75.9862 137.964C75.7419 137.346 75.4783 136.738 75.2435 136.11C74.9017 135.514 74.6786 134.858 74.5866 134.177C74.3509 133.217 74.0081 132.287 73.5648 131.404C72.8047 129.57 72.1921 127.678 71.7328 125.747C71.5543 125.011 71.1631 124.327 70.9166 123.592C70.6701 122.857 70.7908 122.028 70.5057 121.304L69.4994 119.377L71.2869 118.897Z" fill="#F1F2F2"/>
<path d="M68.9244 99.6598L69.0262 102.031C69.0262 102.031 69.163 102.613 69.2655 103.438C69.4097 104.402 69.4568 105.379 69.4064 106.353C69.2495 108.389 69.6766 107.321 69.5824 109.599C69.5604 110.533 69.7362 111.462 70.0984 112.323C70.2264 113.478 70.4073 115.936 70.6202 116.954C70.6942 117.283 70.8489 117.776 70.9924 118.192C71.136 118.608 71.2878 118.945 71.2878 118.945L69.5572 119.347C69.4191 118.697 69.3485 118.028 69.2498 117.407C69.036 116.743 68.9507 116.045 68.9984 115.349C68.9569 114.368 68.8187 113.393 68.5858 112.438C68.403 111.469 68.2369 110.353 68.1211 109.334C68.0053 108.315 67.997 107.332 67.9628 106.526C67.9286 105.719 67.673 105.014 67.6201 104.246C67.5671 103.478 67.8148 102.686 67.6842 101.92L67.1502 99.7994L68.9244 99.6598Z" fill="#F1F2F2"/>
<path d="M70.5801 80.3496C70.4001 81.1214 70.3175 81.9108 70.1763 82.6819C70.1763 82.6819 70.1873 83.2848 70.1347 84.1224C70.1422 84.5308 70.0539 85.0091 69.9754 85.4969C69.9122 85.9882 69.814 86.4744 69.6817 86.9517C69.0962 88.908 69.7675 87.9229 69.1774 90.1613C68.9674 91.0722 68.9516 92.0172 69.1311 92.9346C69.1418 93.518 68.9447 94.4166 68.8639 95.3033C68.783 96.19 68.6921 97.0574 68.6919 97.573C68.7321 98.2723 68.8097 98.9691 68.9243 99.6601L67.1481 99.6927L67.2669 97.6964C67.185 97.0037 67.2415 96.3016 67.4329 95.631C67.6038 94.667 67.6737 93.6876 67.6415 92.7089C67.6497 91.6644 67.7116 90.6211 67.8269 89.583C67.9547 88.6079 68.1115 87.6322 68.242 86.803C68.3724 85.9737 68.2138 85.2665 68.3746 84.5048C68.5354 83.7431 68.8814 83.0169 68.9156 82.2381C68.9499 81.4593 68.8208 80.771 68.8755 80.0501L70.5801 80.3496Z" fill="#F1F2F2"/>
<path d="M76.2312 61.812C75.9339 62.547 75.578 63.254 75.3005 64.0081C75.2172 64.4791 75.1091 64.9455 74.9766 65.4051C74.7246 66.3304 74.3697 67.2244 73.9186 68.0704C72.9806 69.8677 73.8005 69.0453 72.7898 71.1164C72.3635 71.9507 72.144 72.8756 72.1499 73.8129C72.005 74.3798 71.7002 75.2317 71.395 76.0641C71.1411 76.7818 70.9276 77.5132 70.7555 78.2548C70.6316 78.9089 70.5609 80.3498 70.5609 80.3498L68.8167 80.0122L69.344 78.057C69.4062 77.3747 69.5984 76.7108 69.9102 76.1011C70.3164 75.1943 70.5992 74.2371 70.7512 73.2549C70.8586 72.7568 70.9858 72.2778 71.1117 71.7308C71.2376 71.1837 71.4336 70.7521 71.5988 70.2335C71.9207 69.2549 72.2633 68.3439 72.5213 67.5902C72.7794 66.8364 72.9215 66.1139 73.1606 65.3897C73.3998 64.6655 73.9513 64.0328 74.0927 63.2715C74.2341 62.5101 74.3676 61.8462 74.5099 61.1335L76.2312 61.812Z" fill="#F1F2F2"/>
<path d="M85.6005 44.8596L84.2675 46.8296L84.0996 47.2023C83.9775 47.4283 83.8184 47.7522 83.6408 48.1251C83.2298 48.9832 82.7092 49.784 82.0921 50.5076C80.7219 52.0308 81.7605 51.4864 80.3462 53.2536C79.75 53.9755 79.3361 54.8305 79.1394 55.7466C78.6538 56.7963 77.2541 58.8356 76.8543 59.7962C76.6034 60.4137 76.2504 61.8112 76.2504 61.8112L74.6163 61.1213L75.4567 59.2966C75.6484 58.6214 75.9924 57.9993 76.4622 57.4785C77.033 56.6692 77.4935 55.7873 77.8317 54.8561C78.2604 53.8755 78.7683 52.981 79.3053 52.0859C79.7645 51.27 80.2652 50.4784 80.8056 49.7141C81.2407 49.0835 81.4989 48.3395 81.8752 47.6808C82.2515 47.0222 82.9898 46.5125 83.308 45.8647L84.1449 43.8454L85.6005 44.8596Z" fill="#F1F2F2"/>
<path d="M98.2748 30.2214C97.6825 30.7478 97.1495 31.3315 96.5769 31.877C96.5769 31.877 96.2364 32.3697 95.6947 33.0119C95.0766 33.7309 94.3967 34.3944 93.663 34.9947C92.0545 36.2304 93.1249 35.8314 91.3751 37.3031C90.6449 37.9289 90.0595 38.7064 89.6594 39.5817C88.8888 40.4421 87.2032 42.2434 86.5774 43.0623C86.1914 43.6472 85.8521 44.2617 85.5625 44.9L84.1069 43.8858C84.5146 43.353 84.9127 42.8205 85.3502 42.3261C85.7058 41.6988 86.1886 41.1531 86.7676 40.7242C87.4744 40.0281 88.1108 39.2638 88.6676 38.4423C89.2936 37.6331 89.9872 36.8033 90.6622 36.0224C91.3373 35.2416 92.0536 34.5962 92.6357 34.0407C93.2178 33.4853 93.5841 32.8074 94.0885 32.2534C94.5929 31.6994 95.3828 31.3542 95.857 30.7424C96.3313 30.1306 96.6501 29.5119 97.0763 28.9301L98.2748 30.2214Z" fill="#F1F2F2"/>
<path d="M113.712 18.5469C113.04 18.9677 112.348 19.3501 111.696 19.7803C110.657 20.7802 109.475 21.6184 108.188 22.2668C106.369 23.1562 107.512 23.0088 105.493 24.0672C104.658 24.4938 103.937 25.114 103.39 25.8762C102.95 26.2442 102.202 26.754 101.473 27.2537C100.846 27.6821 100.245 28.1479 99.6733 28.6486C99.1832 29.148 98.7197 29.6728 98.2845 30.2208L97.0664 28.9201L98.6262 27.6756C99.0831 27.1471 99.6393 26.7138 100.263 26.4004C101.118 25.9013 101.903 25.2916 102.599 24.5872C102.981 24.2494 103.383 23.9016 103.794 23.5925C104.206 23.2834 104.638 22.9739 105.059 22.6744C105.893 22.0754 106.708 21.5352 107.38 21.0949C108.052 20.6545 108.575 20.1002 109.189 19.6804C109.803 19.2606 110.624 19.051 111.207 18.5442L112.811 17.0556L113.712 18.5469Z" fill="#F1F2F2"/>
<path d="M131.233 10.3364L129.005 11.1361L128.649 11.3274L127.735 11.8013C126.891 12.2516 125.994 12.5948 125.064 12.8231C123.062 13.2489 124.23 13.3734 122.047 14.0165C121.147 14.2616 120.312 14.7057 119.605 15.3162C118.596 15.8794 116.262 16.7199 115.378 17.2614C114.8 17.6553 114.243 18.0812 113.712 18.537L112.801 17.0168L114.561 16.0896C115.126 15.6529 115.786 15.3543 116.486 15.2177C117.421 14.8954 118.308 14.4471 119.122 13.8853C120.026 13.4018 121.047 12.9454 121.942 12.5204L123.3 11.9216L124.545 11.4707C125.249 11.1712 125.936 10.8339 126.604 10.4602C127.306 10.1263 128.132 10.1404 128.825 9.79693L130.649 8.674L131.233 10.3364Z" fill="#F1F2F2"/>
<path d="M150.076 5.95402L147.733 6.29854C146.369 6.74464 144.956 7.02528 143.525 7.13444C141.486 7.17181 142.56 7.47314 140.32 7.65039C139.391 7.72263 138.486 7.98765 137.664 8.42865C136.533 8.68285 134.124 9.14531 133.13 9.48454C132.464 9.72656 131.82 10.0247 131.205 10.3759L130.649 8.67399C131.286 8.48721 131.924 8.30043 132.581 8.15219C133.219 7.86849 133.905 7.71058 134.602 7.68713C135.59 7.54216 136.561 7.29952 137.502 6.96276C138.467 6.67268 139.531 6.41 140.526 6.17774C141.522 5.94547 142.462 5.85042 143.305 5.72797C144.147 5.60552 144.773 5.30222 145.517 5.13293C146.295 5.11877 147.072 5.06557 147.845 4.97353L149.899 4.21603L150.076 5.95402Z" fill="#F1F2F2"/>
<path d="M169.421 5.5997C168.633 5.53632 167.846 5.50211 167.059 5.45818C167.059 5.45818 166.458 5.53728 165.623 5.56231C164.668 5.59076 163.712 5.53669 162.766 5.40069C160.769 5.02875 161.798 5.57407 159.52 5.23646C158.596 5.11794 157.657 5.19816 156.767 5.47176C155.612 5.49294 153.144 5.39227 152.117 5.50838C151.787 5.51443 151.275 5.66 150.849 5.75535C150.424 5.8507 150.076 5.95434 150.076 5.95434L149.859 4.18789C150.519 4.17579 151.189 4.16351 151.849 4.15141C152.533 4.00745 153.238 3.99453 153.926 4.11333C154.896 4.19413 155.872 4.17624 156.838 4.05995C157.807 3.97409 158.942 3.90465 159.962 3.91513C160.982 3.92562 161.963 3.99517 162.77 4.03875C163.577 4.08232 164.302 3.90366 165.06 3.93841C165.818 3.97315 166.59 4.28972 167.366 4.23659C168.142 4.18345 168.809 4.01558 169.535 3.92444L169.421 5.5997Z" fill="#F1F2F2"/>
<path d="M188.412 9.28835C187.659 9.02976 186.898 8.81026 186.137 8.61993C186.137 8.61993 185.535 8.58234 184.716 8.44169C183.774 8.27052 182.85 8.01397 181.955 7.67521C180.076 6.90225 180.984 7.693 178.813 6.84759C177.935 6.52826 176.997 6.41242 176.069 6.5088C175.494 6.42205 174.616 6.19495 173.748 5.98713C172.88 5.77931 172.023 5.63938 171.518 5.59028C170.818 5.56676 170.119 5.57959 169.421 5.62872L169.573 3.85551L171.521 4.18944C172.218 4.17483 172.91 4.30109 173.557 4.56068C174.509 4.84323 175.489 5.01777 176.479 5.08103C178.459 5.32038 180.415 5.72377 182.327 6.28705C183.059 6.46819 183.836 6.50258 184.587 6.67364C185.338 6.8447 186.016 7.32837 186.776 7.43118C187.535 7.53399 188.234 7.5309 188.954 7.60526L188.412 9.28835Z" fill="#F1F2F2"/>
<path d="M206.212 16.8509L204.142 15.7118C204.142 15.7118 203.557 15.5474 202.784 15.2406C201.884 14.9071 201.03 14.4585 200.245 13.9058C198.573 12.7594 199.27 13.6902 197.306 12.4714C196.528 11.9547 195.635 11.637 194.706 11.5462C193.612 11.1578 191.444 9.95236 190.439 9.67896C189.76 9.51041 189.074 9.37688 188.383 9.27891L188.895 7.56718L190.762 8.28197C191.451 8.39894 192.104 8.67322 192.671 9.08357C193.535 9.57007 194.459 9.94223 195.419 10.1908C196.422 10.5166 197.402 10.9081 198.353 11.3627C199.332 11.7922 200.175 12.195 200.881 12.5906C201.587 12.9862 202.309 13.1481 203.004 13.4564C203.699 13.7647 204.283 14.4057 204.968 14.6461L207.057 15.2887L206.212 16.8509Z" fill="#F1F2F2"/>
<path d="M222.067 27.9511L220.252 26.428C219.835 26.1965 219.432 25.9408 219.044 25.6622C218.235 25.1472 217.488 24.5408 216.817 23.8548C215.43 22.3627 215.944 23.3844 214.284 21.8292C213.615 21.1792 212.814 20.6798 211.937 20.3644C210.954 19.7404 209.042 18.1899 208.159 17.6516C207.521 17.3493 206.868 17.082 206.202 16.8509L207.067 15.2981L208.756 16.3566C209.389 16.6503 209.96 17.0625 210.439 17.5709C211.192 18.2107 212.016 18.7603 212.896 19.2087C214.587 20.2464 216.193 21.4172 217.699 22.7102C218.281 23.2053 218.986 23.5329 219.615 23.9688C220.244 24.4048 220.608 25.1666 221.295 25.582L223.256 26.6064L222.067 27.9511Z" fill="#F1F2F2"/>
<path d="M235.269 42.1162C234.811 41.4729 234.333 40.8493 233.817 40.246C233.817 40.246 233.354 39.8556 232.829 39.2913C232.165 38.6003 231.566 37.8493 231.04 37.0478C229.979 35.3066 230.243 36.4399 228.984 34.5272C228.469 33.7565 227.795 33.1054 227.007 32.6179C226.592 32.2169 226.016 31.4979 225.441 30.8373C224.865 30.1766 224.252 29.5361 223.867 29.193C223.537 28.9106 223.192 28.6474 222.833 28.4045C222.615 28.2474 222.388 28.1021 222.155 27.9695L223.324 26.6251C223.808 27.0734 224.255 27.5808 224.729 28.0488C225.299 28.4503 225.781 28.9646 226.145 29.5598C226.756 30.3398 227.446 31.0542 228.204 31.6913C229.643 33.0474 230.969 34.5197 232.168 36.0933C232.655 36.6778 233.266 37.153 233.771 37.7371C234.277 38.3212 234.534 39.1044 235.098 39.6583C235.662 40.2121 236.222 40.6104 236.755 41.087L235.269 42.1162Z" fill="#F1F2F2"/>
<path d="M245.254 58.7127L244.244 56.5717L244.014 56.2452C243.855 56.0341 243.656 55.7459 243.426 55.3902C242.889 54.5951 242.459 53.7331 242.146 52.8261C241.479 50.8928 241.481 52.0698 240.627 49.9357C240.306 49.0525 239.771 48.2632 239.07 47.6393C238.412 46.6786 237.37 44.4312 236.705 43.636C236.297 43.1084 235.269 42.0962 235.269 42.0962L236.686 41.0293L237.785 42.7018C238.274 43.2014 238.64 43.8072 238.857 44.472C239.268 45.376 239.8 46.2202 240.437 46.982C241.043 47.8323 241.598 48.7187 242.097 49.6364C242.599 50.5318 243.1 51.3689 243.414 52.1122C243.729 52.8555 244.254 53.4003 244.634 54.0354C245.015 54.6704 245.147 55.5143 245.547 56.1684L246.861 57.9148L245.254 58.7127Z" fill="#F1F2F2"/>
<path d="M251.58 77.0305L251.004 74.7259C250.808 74.2907 250.635 73.8459 250.484 73.393C250.122 72.5046 249.87 71.5748 249.735 70.6246C249.484 68.6059 249.31 69.7278 248.871 67.4887C248.713 66.5711 248.366 65.6964 247.853 64.9198C247.435 63.838 246.819 61.466 246.374 60.5112C246.049 59.8866 245.681 59.2855 245.273 58.7123L246.881 57.963C247.135 58.5809 247.399 59.1889 247.633 59.8169C247.972 60.414 248.195 61.0701 248.29 61.7503C248.527 62.7097 248.87 63.6398 249.312 64.5234C250.063 66.3562 250.673 68.2443 251.134 70.171C251.323 70.9165 251.704 71.6002 251.95 72.3253C252.197 73.0503 252.076 73.8988 252.371 74.6133L253.319 76.5414L251.58 77.0305Z" fill="#F1F2F2"/>
<path d="M253.953 96.2673L253.841 93.8958C253.841 93.8958 253.704 93.305 253.602 92.48C253.466 91.534 253.419 90.5774 253.462 89.6226C253.628 87.5865 253.192 88.6548 253.286 86.3671C253.308 85.4328 253.132 84.5044 252.77 83.6431C252.642 82.4879 252.461 80.0301 252.248 79.0223C252.149 78.5993 252.024 78.1825 251.876 77.7743C251.732 77.3586 251.58 77.0307 251.58 77.0307L253.311 76.6293C253.449 77.2785 253.52 77.9484 253.618 78.5692C253.837 79.2317 253.923 79.931 253.87 80.6268C253.916 81.6079 254.054 82.5824 254.282 83.5375C254.475 84.5068 254.631 85.6226 254.757 86.6417C254.882 87.6608 254.881 88.6433 254.905 89.4503C254.93 90.2572 255.195 90.9624 255.258 91.7201C255.32 92.4777 255.053 93.2899 255.184 94.0463L255.728 96.1764L253.953 96.2673Z" fill="#F1F2F2"/>
</svg>
