<svg opacity="0.3" width="112" height="133" viewBox="0 0 112 133" fill="none" xmlns="http://www.w3.org/2000/svg">
<path d="M117.235 65.8909L117.235 65.8892L117.226 57.669L117.224 56.1707H115.726H77.9937H77.9812V49.4504C77.9812 33.6148 84.4485 22.5419 96.5052 17.2802L99.7325 15.8717L96.4809 14.5203C91.943 12.6342 87.1383 11.4684 82.2407 11.065L81.8568 11.0334L81.5051 11.1907C77.3612 13.0442 73.7674 15.9216 71.0557 19.541C68.2532 17.4333 65.9548 14.7187 64.3373 11.5936L63.9178 10.7831H63.0052H62.5396H62.2367L61.9576 10.9006C57.5624 12.7509 53.7496 15.7372 50.9039 19.5408C48.1006 17.4333 45.8014 14.7187 44.1831 11.5933L43.7636 10.7831H42.8511H37.2493H35.7493V12.2831V57.6707V59.1707H37.2493H74.9812H74.9937V65.8909C74.9937 81.7271 68.5292 92.8026 56.4732 98.0611L53.2024 99.4877L56.5101 100.826C62.9522 103.434 69.8573 104.703 76.8054 104.558C89.726 104.555 99.8777 100.999 106.803 94.2682C113.737 87.5298 117.235 77.807 117.235 65.8909ZM34.8257 -5.85576C47.1581 -14.098 61.6576 -18.4982 76.4908 -18.5C86.3408 -18.5012 96.0944 -16.5622 105.195 -12.7937C114.295 -9.02512 122.564 -3.50079 129.53 3.46373C136.495 10.4282 142.021 18.6966 145.79 27.7966C149.56 36.8966 151.5 46.65 151.5 56.4999C151.5 71.3331 147.102 85.8332 138.861 98.1667C130.62 110.5 118.907 120.113 105.204 125.79C91.4996 131.467 76.42 132.953 61.8717 130.06C47.3234 127.166 33.9596 120.024 23.4703 109.536C12.981 99.0482 5.83722 85.6854 2.94228 71.1374C0.0473455 56.5895 1.53122 41.5098 7.20637 27.8052C12.8815 14.1005 22.4932 2.38646 34.8257 -5.85576Z" stroke="#0091FF" stroke-width="3"/>
</svg>
