<svg width="498" height="428" viewBox="0 0 498 428" fill="none" xmlns="http://www.w3.org/2000/svg">
<path d="M214.631 411.802C290.103 410.532 350.253 348.207 348.982 272.593C347.71 196.98 285.497 136.713 210.026 137.982C134.554 139.251 74.4035 201.577 75.6752 277.19C76.9469 352.803 139.16 413.071 214.631 411.802Z" fill="black"/>
<path d="M309.134 413.091C384.606 411.821 444.756 349.496 443.485 273.882C442.213 198.269 380 138.002 304.529 139.271C229.057 140.54 168.906 202.866 170.178 278.479C171.45 354.092 233.663 414.36 309.134 413.091Z" fill="black"/>
<path fill-rule="evenodd" clip-rule="evenodd" d="M84.7898 323.259C81.3487 314.005 78.8895 304.267 77.5406 294.169C81.1438 282.742 91.7155 274.373 104.334 274.16C120.126 273.895 133.143 286.505 133.409 302.326C133.675 318.148 121.089 331.189 105.298 331.454C97.3275 331.588 90.0639 328.442 84.7898 323.259ZM96.3771 346.986C100.425 336.381 110.591 328.771 122.616 328.569C138.408 328.303 151.425 340.914 151.691 356.735C151.914 369.974 143.137 381.267 131.013 384.756C117.219 374.503 105.435 361.682 96.3771 346.986ZM157.134 399.969C151.784 394.862 148.4 387.693 148.265 379.706C147.999 363.884 160.585 350.843 176.377 350.578C192.169 350.312 205.186 362.923 205.452 378.744C205.703 393.644 194.553 406.079 180.063 407.698C172.129 405.799 164.463 403.2 157.134 399.969ZM205.941 283.537C221.733 283.271 234.319 270.23 234.053 254.409C233.786 238.588 220.769 225.977 204.977 226.243C189.186 226.508 176.6 239.549 176.866 255.371C177.132 271.192 190.149 283.802 205.941 283.537ZM170.66 258.41C170.926 274.231 158.341 287.272 142.549 287.538C126.757 287.804 113.74 275.193 113.474 259.372C113.208 243.551 125.794 230.51 141.585 230.244C157.377 229.979 170.394 242.589 170.66 258.41ZM198.218 319.831C198.484 335.653 185.898 348.694 170.107 348.959C154.315 349.225 141.298 336.615 141.032 320.793C140.766 304.972 153.352 291.931 169.143 291.665C184.935 291.4 197.952 304.01 198.218 319.831Z" fill="#E44BBE"/>
<path fill-rule="evenodd" clip-rule="evenodd" d="M441.744 250.835C431.815 254.249 426.675 262.558 426.874 274.404L426.967 279.903L444.331 279.611C444.352 278.158 444.35 276.7 444.325 275.237C444.185 266.896 443.303 258.741 441.744 250.835ZM441.083 307.425C440.939 307.494 440.793 307.563 440.646 307.63C440.766 307.677 440.886 307.724 441.006 307.769C441.032 307.655 441.058 307.54 441.083 307.425ZM430.975 336.68L427.806 339.964L423.859 336.14C416.037 328.563 413.53 319.899 416.769 311.195C413.853 312.462 411.151 314.175 408.762 316.274C407.68 319.273 407.468 322.518 408.151 325.632C405.372 326.25 402.482 326.147 399.755 325.332L399.518 325.635C398.31 328.742 398.051 332.138 398.772 335.394C395.993 336.012 393.103 335.908 390.376 335.093L387.775 337.787L405.617 355.071L409.564 358.894L426.408 341.441L427.806 339.992L428.823 340.978C429.565 339.56 430.282 338.127 430.975 336.68ZM407.523 371.04C406.251 367.571 404.041 364.178 400.922 360.934L397.1 356.952L378.264 375.194L374.442 371.24C366.887 363.402 364.663 354.676 368.202 346.067C367.685 346.271 367.174 346.489 366.67 346.72L356.09 324.314L361.057 321.965C370.891 317.268 379.878 318.015 386.85 324.124C386.709 320.943 386.066 317.803 384.944 314.823C382.527 312.746 379.569 311.402 376.417 310.949C376.815 308.125 377.931 305.452 379.657 303.185L379.524 302.902C377.04 300.685 373.958 299.25 370.665 298.777C371.067 295.954 372.182 293.282 373.905 291.013L372.298 287.621L349.863 298.243L344.896 300.592L355.221 322.548L356.062 324.343L351.109 326.692C341.261 331.389 332.289 330.642 325.302 324.533C325.557 329.04 326.73 333.448 328.748 337.484C335.541 351.889 346.744 356.525 359.783 351.507C358.799 354.295 358.56 357.297 359.096 360.213C356.297 360.745 353.408 360.544 350.709 359.627L350.485 359.845C349.175 362.912 348.801 366.3 349.412 369.581C346.612 370.111 343.724 369.91 341.025 368.995L338.338 371.605L355.592 389.497L359.399 393.451L376.822 376.572L378.221 375.195L382.028 379.149C384.834 382.054 386.903 385.081 388.217 388.179C395.183 383.079 401.647 377.337 407.523 371.04ZM351.224 289.57C364.444 279.003 365.776 266.028 356.113 253.865L352.698 249.548L332.18 265.895L328.765 261.592C321.996 253.156 320.622 244.217 324.964 236.007C321.907 236.875 319.006 238.222 316.37 239.999C314.907 242.829 314.275 246.017 314.548 249.192C311.712 249.441 308.859 248.959 306.261 247.793L306.023 247.996C304.427 250.922 303.731 254.255 304.022 257.577C301.186 257.828 298.332 257.346 295.735 256.177L292.802 258.521L308.262 277.981L311.677 282.284L330.637 267.16L332.181 265.938L335.61 270.24C342.38 278.747 343.74 287.687 339.412 295.896C343.734 294.605 347.751 292.453 351.224 289.57ZM398.912 310.754C415.818 310.47 424.761 301 424.5 285.445L424.492 279.945L398.288 280.385L398.195 274.887C398.012 263.989 402.317 256.08 410.785 252.233C407.835 251.057 404.717 250.354 401.548 250.151C398.671 251.501 396.24 253.649 394.541 256.339C392.116 254.817 390.121 252.697 388.749 250.181L388.45 250.186C385.394 251.524 382.807 253.746 381.019 256.566C378.593 255.046 376.598 252.925 375.227 250.408L371.473 250.471L371.984 280.828L398.203 280.387L398.295 285.885C398.479 296.797 394.174 304.692 385.705 308.554C389.914 310.176 394.407 310.924 398.912 310.754ZM344.465 386.621C343.817 402.163 334.337 411.015 317.43 410.387C312.924 410.292 308.485 409.281 304.381 407.415C313.028 404.049 317.821 396.417 318.235 385.523L318.456 380.034L316.492 379.953L292.296 378.935L292.517 373.445L293.521 348.592L297.264 348.743C298.459 351.331 300.299 353.567 302.607 355.236C304.559 352.53 307.266 350.462 310.386 349.291L310.699 349.286C311.894 351.87 313.735 354.102 316.042 355.765C317.899 353.158 320.46 351.138 323.425 349.941C326.577 350.338 329.649 351.224 332.529 352.567C323.881 355.918 319.089 363.565 318.675 374.459L318.44 379.948L344.628 381.047L344.465 386.621Z" fill="#FF5628"/>
<path d="M261.309 147.036C234.95 156.371 212.082 173.578 195.787 196.337C179.493 219.097 170.555 246.315 170.178 274.322C169.801 302.33 178.004 329.78 193.68 352.973C209.357 376.167 231.753 393.988 257.851 404.034C284.21 394.699 307.078 377.492 323.373 354.733C339.667 331.973 348.605 304.755 348.982 276.748C349.359 248.74 341.156 221.29 325.48 198.097C309.803 174.903 287.406 157.082 261.309 147.036Z" fill="black"/>
<path d="M218.955 289.157C213.631 291.071 208.993 294.524 205.628 299.079C202.263 303.634 200.322 309.086 200.05 314.747C199.778 320.407 201.188 326.021 204.101 330.879C207.014 335.737 211.3 339.621 216.416 342.038C221.532 344.456 227.249 345.299 232.843 344.461C238.438 343.623 243.658 341.142 247.845 337.332C252.031 333.521 254.996 328.552 256.363 323.053C257.731 317.554 257.44 311.773 255.527 306.439C252.963 299.29 247.67 293.453 240.812 290.212C233.954 286.971 226.092 286.592 218.955 289.157ZM243.559 314.477C246.541 322.677 243.439 329.313 234.532 332.512C232.175 333.407 229.662 333.818 227.143 333.719C230.909 330.15 231.792 325.177 229.747 319.426L228.704 316.594L227.672 316.967L214.949 321.556L213.931 318.538L209.245 305.436L211.224 304.719C212.388 305.808 213.811 306.578 215.357 306.958C215.799 305.147 216.76 303.506 218.122 302.238L218.293 302.235C219.457 303.323 220.88 304.094 222.427 304.474C222.852 302.738 223.763 301.161 225.053 299.927C226.768 299.463 228.546 299.274 230.32 299.368C226.539 302.923 225.656 307.896 227.716 313.661L228.745 316.493L242.557 311.545L243.559 314.477Z" fill="#0091FF"/>
<path d="M192.743 227.443C187.591 229.781 183.246 233.597 180.259 238.41C177.271 243.222 175.776 248.813 175.961 254.478C176.146 260.142 178.003 265.624 181.298 270.23C184.594 274.837 189.178 278.361 194.472 280.357C199.766 282.353 205.532 282.731 211.041 281.444C216.55 280.156 221.553 277.261 225.419 273.125C229.285 268.988 231.839 263.795 232.759 258.203C233.679 252.612 232.923 246.872 230.587 241.711C227.456 234.792 221.71 229.403 214.613 226.727C207.517 224.051 199.65 224.309 192.743 227.443ZM219.36 250.663C222.949 258.596 220.462 265.449 211.837 269.313C209.56 270.398 207.09 271.016 204.572 271.131C208.034 267.269 208.518 262.23 205.992 256.673L204.736 253.844L203.72 254.303L191.369 259.911L190.099 257.083L184.366 244.355L186.272 243.482C187.521 244.466 189.001 245.113 190.57 245.362C190.867 243.52 191.699 241.806 192.962 240.434L193.118 240.432C194.366 241.42 195.846 242.072 197.417 242.326C197.699 240.561 198.475 238.912 199.655 237.572C201.332 236.973 203.093 236.64 204.872 236.586C201.396 240.449 200.912 245.473 203.437 251.031L204.708 253.859L218.06 247.792L219.36 250.663Z" fill="#0091FF"/>
<path d="M283.934 310.037C279.498 313.553 276.203 318.308 274.464 323.7C272.726 329.092 272.623 334.879 274.167 340.331C275.712 345.782 278.835 350.652 283.143 354.325C287.45 357.998 292.747 360.309 298.365 360.965C303.983 361.622 309.669 360.595 314.704 358.014C319.739 355.434 323.897 351.415 326.652 346.466C329.407 341.518 330.636 335.862 330.183 330.213C329.73 324.565 327.615 319.178 324.106 314.734C319.398 308.777 312.522 304.936 304.989 304.056C297.457 303.175 289.884 305.327 283.934 310.037ZM315.352 326.152C320.743 332.972 319.983 340.224 312.559 346.148C310.611 347.75 308.364 348.945 305.948 349.665C308.388 345.078 307.636 340.075 303.858 335.294L301.954 332.875L301.084 333.574L290.445 342.003L288.541 339.584L279.924 328.672L281.566 327.362C283.017 328.022 284.614 328.294 286.201 328.153C286.044 326.293 286.438 324.427 287.334 322.79L287.475 322.688C288.929 323.337 290.524 323.605 292.11 323.465C291.956 321.687 292.311 319.902 293.133 318.318C294.617 317.332 296.245 316.584 297.96 316.1C295.519 320.686 296.258 325.69 300.036 330.471L301.954 332.875L313.449 323.762L315.352 326.152Z" fill="#0091FF"/>
<path d="M283.531 361.413C281.592 356.089 278.121 351.462 273.557 348.114C268.993 344.767 263.54 342.851 257.89 342.609C252.239 342.366 246.643 343.808 241.81 346.751C236.978 349.695 233.125 354.008 230.739 359.146C228.353 364.283 227.541 370.014 228.406 375.614C229.271 381.214 231.774 386.432 235.599 390.606C239.424 394.781 244.398 397.726 249.893 399.069C255.388 400.411 261.157 400.091 266.47 398.149C269.998 396.859 273.238 394.886 276.005 392.342C278.772 389.798 281.011 386.733 282.595 383.321C284.179 379.91 285.077 376.219 285.238 372.46C285.399 368.701 284.819 364.947 283.531 361.413ZM258.349 386.259C250.178 389.246 243.543 386.252 240.293 377.344C239.379 374.987 238.954 372.468 239.044 369.941C242.621 373.699 247.656 374.555 253.309 372.451L256.136 371.406L255.749 370.358L251.097 357.612L253.924 356.553L266.97 351.774L267.701 353.756C266.617 354.925 265.857 356.358 265.495 357.911C267.31 358.345 268.955 359.309 270.221 360.682L270.223 360.838C269.15 362.02 268.391 363.454 268.018 365.008C269.754 365.42 271.338 366.317 272.584 367.596C273.056 369.312 273.254 371.093 273.171 372.872C269.595 369.114 264.56 368.272 258.906 370.362L256.079 371.421L261.119 385.215L258.349 386.259Z" fill="#0091FF"/>
<path d="M299.974 242.354C295.547 245.88 292.264 250.643 290.539 256.04C288.814 261.436 288.725 267.224 290.283 272.671C291.842 278.118 294.977 282.98 299.293 286.642C303.61 290.305 308.913 292.602 314.532 293.245C320.151 293.888 325.835 292.847 330.863 290.253C335.892 287.66 340.04 283.631 342.783 278.676C345.526 273.721 346.741 268.062 346.274 262.414C345.806 256.767 343.678 251.386 340.159 246.95C337.824 244.001 334.931 241.543 331.646 239.716C328.362 237.889 324.75 236.728 321.017 236.301C317.285 235.874 313.505 236.189 309.894 237.228C306.283 238.266 302.912 240.008 299.974 242.354ZM331.434 258.396C336.839 265.202 336.093 272.467 328.684 278.391C326.742 280.005 324.492 281.206 322.073 281.922C324.499 277.336 323.746 272.333 319.954 267.566L318.05 265.148L317.18 265.846L306.556 274.289L304.652 271.885L295.935 260.988L297.577 259.678C299.031 260.327 300.627 260.595 302.213 260.455C302.056 258.595 302.45 256.73 303.346 255.093L303.472 254.977C304.948 255.614 306.565 255.857 308.163 255.681C308.01 253.899 308.365 252.109 309.185 250.52C310.664 249.534 312.288 248.786 313.998 248.302C311.572 252.888 312.324 257.877 316.117 262.658L318.034 265.062L329.515 255.921L331.434 258.396Z" fill="#0091FF"/>
<path d="M323.957 242.591C324.461 242.382 324.935 242.106 325.366 241.77C325.579 241.606 325.839 241.514 326.108 241.51C326.377 241.505 326.64 241.588 326.859 241.745C327.264 242.151 327.09 242.838 326.886 243.369C325.517 246.555 323.077 249.432 322.936 252.897C322.922 253.026 322.955 253.157 323.027 253.266C323.231 253.504 323.61 253.256 323.79 252.953L327.579 247.39C328.634 245.833 330.056 244.113 331.908 244.296L330.03 249.343C329.785 250.017 329.703 251.03 330.388 251.19C330.603 251.232 330.825 251.192 331.012 251.079C331.971 250.564 332.147 249.194 333.032 248.566C333.344 248.365 333.701 248.245 334.071 248.219C334.441 248.193 334.812 248.261 335.149 248.416C335.83 248.74 336.428 249.218 336.893 249.812C339.157 252.428 340.567 255.677 340.932 259.12C341.297 262.581 341.068 266.079 340.253 269.462" stroke="#F1F2F2" stroke-width="0.9" stroke-miterlimit="10"/>
<path d="M183.124 238.991C177.176 248.096 177.731 256.579 181.023 259.516C184.315 262.453 190.219 258.321 189.852 260.194C189.315 262.925 179.957 263.78 181.42 266.221C182.694 268.422 197.985 259.217 199.42 261.643C200.636 263.746 188.255 267.531 190.258 272.456C190.998 274.225 193.141 274.759 195.094 275.053" stroke="#F1F2F2" stroke-width="0.9" stroke-miterlimit="10"/>
<path d="M280.453 322.962C282.654 319.296 285.371 315.968 288.521 313.08C291.092 310.264 294.541 308.408 298.303 307.815C300.502 307.45 302.992 306.681 304.513 308.309C305.299 309.426 306.004 310.6 306.62 311.821C308.079 314.048 310.842 315.084 313.374 315.982C314.504 316.377 315.96 316.68 316.698 315.741C316.927 315.363 317.028 314.921 316.988 314.48C316.947 314.04 316.766 313.624 316.472 313.294C315.871 312.64 315.187 312.067 314.438 311.59C312.623 310.196 311.308 308.166 309.299 307.06C307.916 306.374 306.4 306 304.857 305.966C299.153 305.626 293.528 307.433 289.084 311.033C285.343 314.304 282.392 318.383 280.453 322.962Z" fill="#F1F2F2"/>
<path d="M318.381 318.562L319.113 316.441C319.168 316.232 319.272 316.04 319.417 315.88C319.823 315.517 320.453 315.777 320.843 316.113C322.029 317.171 322.99 318.458 323.666 319.898C324.233 320.8 324.63 321.797 324.839 322.842C324.943 323.362 324.908 323.901 324.74 324.404C324.571 324.907 324.274 325.356 323.877 325.708C323.827 325.728 323.772 325.729 323.721 325.711C323.68 325.708 323.639 325.696 323.602 325.677C323.565 325.658 323.532 325.632 323.506 325.6C322.266 324.239 321.251 322.688 320.499 321.006C320.027 320.031 319.439 318.901 318.381 318.562Z" fill="#F1F2F2"/>
<path d="M211.823 299.78C216.3 296.1 221.646 293.635 227.348 292.622C233.087 291.648 238.981 292.937 243.792 296.221C244.487 296.688 245.054 297.319 245.445 298.06C245.638 298.422 245.716 298.835 245.67 299.243C245.624 299.651 245.454 300.035 245.185 300.344C244.331 301.171 242.916 300.753 241.854 300.201C238.77 298.628 235.96 296.438 232.643 295.425C229.336 294.541 225.852 294.57 222.561 295.51C218.853 296.583 215.257 298.013 211.823 299.78Z" fill="#F1F2F2"/>
<path d="M248.171 301.99L246.416 305.026C246.6 305.734 246.915 306.4 247.345 306.991C247.565 307.284 247.863 307.51 248.204 307.643C248.546 307.776 248.918 307.81 249.278 307.742C250.269 307.469 250.676 306.294 250.858 305.293C251.022 304.675 251.059 304.029 250.968 303.396C250.915 303.088 250.786 302.798 250.594 302.553C250.401 302.307 250.15 302.114 249.864 301.99C249.018 301.619 248.077 302.291 248.171 301.99Z" fill="#F1F2F2"/>
<path d="M279.128 247.62C274.81 243.96 269.507 241.664 263.887 241.023C258.268 240.382 252.585 241.425 247.557 244.02C242.529 246.614 238.382 250.645 235.641 255.601C232.899 260.557 231.686 266.216 232.155 271.863C232.624 277.51 234.754 282.891 238.275 287.326C241.796 291.76 246.551 295.049 251.937 296.777C257.324 298.504 263.101 298.593 268.538 297.031C273.974 295.469 278.826 292.328 282.481 288.003C284.908 285.131 286.746 281.809 287.891 278.225C289.035 274.641 289.464 270.866 289.153 267.116C288.842 263.366 287.796 259.715 286.076 256.369C284.356 253.024 281.995 250.051 279.128 247.62ZM269.574 281.665C263.997 288.314 256.712 289.006 249.498 282.872C247.53 281.28 245.909 279.299 244.735 277.053C249.71 278.551 254.446 276.89 258.378 272.179L260.372 269.822L259.521 269.11L249.176 260.321L251.156 257.98L260.136 247.356L261.739 248.754C261.382 250.312 261.434 251.935 261.889 253.467C263.675 252.944 265.575 252.962 267.351 253.518L267.495 253.63C267.116 255.182 267.143 256.806 267.575 258.345C269.288 257.846 271.108 257.845 272.823 258.342C274.072 259.58 275.122 261.005 275.937 262.564C270.977 261.066 266.226 262.728 262.295 267.453L260.315 269.795L271.511 279.296L269.574 281.665Z" fill="#0091FF"/>
<path d="M281.177 257.817C282.586 260.496 283.387 263.453 283.524 266.478C283.661 269.503 283.13 272.52 281.969 275.316C281.176 277.182 280.124 278.909 279.388 280.788C278.91 282.007 278.696 283.65 279.775 284.401C280.143 284.617 280.567 284.718 280.992 284.691C281.418 284.663 281.825 284.509 282.162 284.247C282.832 283.717 283.358 283.027 283.693 282.24C285.168 279.101 285.991 275.693 286.113 272.225C286.408 266.948 285.532 261.349 282.206 257.258C281.828 257.371 281.478 257.561 281.177 257.817Z" fill="#F1F2F2"/>
<path d="M271.082 290.119C267.517 291.802 263.529 292.372 259.636 291.757C255.743 291.142 252.124 289.369 249.249 286.668C248.413 285.687 247.412 284.86 246.292 284.224C246.1 284.121 245.881 284.08 245.665 284.106C245.112 284.215 245.039 284.986 245.148 285.54C245.483 286.878 246.108 288.127 246.979 289.196C247.85 290.265 248.946 291.128 250.188 291.725C252.674 292.896 255.359 293.585 258.101 293.758C260.6 294.1 263.136 294.058 265.622 293.631C268.074 293.105 270.472 291.939 271.082 290.119Z" fill="#F1F2F2"/>
<path d="M273.766 288.192C274.325 287.48 274.839 286.734 275.307 285.958C275.544 285.574 275.884 285.264 276.288 285.064C276.692 284.863 277.143 284.779 277.592 284.822C278.218 285.052 278.754 285.478 279.12 286.036C279.44 286.346 279.63 286.765 279.652 287.21C279.629 287.452 279.545 287.684 279.407 287.884C278.828 288.874 278.054 289.735 277.131 290.416C276.74 290.758 276.237 290.943 275.718 290.938C275.258 290.852 274.833 290.631 274.498 290.303C274.13 290.043 273.816 289.715 273.572 289.336C273.467 289.152 273.429 288.938 273.464 288.729C273.5 288.521 273.606 288.331 273.766 288.192Z" fill="#F1F2F2"/>
<path d="M236.117 274.493C235.291 267.667 235.74 263.1 238.034 258.245C238.988 256.115 240.233 254.128 241.732 252.341C241.855 252.204 242.025 252.118 242.207 252.097C242.39 252.077 242.574 252.124 242.725 252.23C242.875 252.336 242.982 252.494 243.024 252.673C243.067 252.853 243.042 253.041 242.955 253.204C240.195 258.209 236.805 269.751 239.521 269.705C241.583 269.67 241.38 262.692 243.103 258.588C243.188 258.443 243.319 258.33 243.475 258.266C243.631 258.203 243.803 258.193 243.965 258.237C244.127 258.281 244.271 258.377 244.373 258.511C244.475 258.645 244.531 258.808 244.532 258.977C244.216 262.174 244.787 264.829 247.217 266.412" stroke="#F1F2F2" stroke-width="0.9" stroke-miterlimit="10"/>
<path d="M288.293 353.666C281.313 349.594 283.891 345.618 286.502 346.13C289.584 346.719 290.646 351.518 290.569 352.858C290.958 351.427 292.946 348.729 294.023 349.338C294.712 349.725 293.931 351.505 293.806 352.505C295.765 350.605 300.265 346.697 301.539 347.174C302.813 347.651 298.217 352.63 295.754 354.994C296.587 354.638 299.414 352.738 300.443 353.889C301.066 354.577 298.488 356.872 298.285 357.502" stroke="#F1F2F2" stroke-width="0.9" stroke-miterlimit="10"/>
<path d="M301.953 359.079C305.516 356.169 309.041 353.189 312.526 350.138C312.624 350.065 312.722 349.935 312.663 349.822C312.604 349.709 312.407 349.827 312.522 349.925" stroke="#F1F2F2" stroke-width="0.9" stroke-miterlimit="10"/>
<path d="M305.186 359.309C311.061 355.639 316.636 351.51 321.861 346.959" stroke="#F1F2F2" stroke-width="0.9" stroke-miterlimit="10"/>
<path d="M297.602 251.756C299.284 248.445 301.709 245.571 304.688 243.36C307.667 241.149 311.117 239.661 314.768 239.013C315.563 238.828 316.393 238.858 317.173 239.101C317.556 239.237 317.88 239.5 318.093 239.846C318.306 240.193 318.394 240.602 318.343 241.005C310.454 242.258 303.18 246.029 297.602 251.756V251.756Z" fill="#F1F2F2"/>
<path d="M319.924 290.153L317.522 290.279C317.309 290.331 317.085 290.313 316.883 290.226C316.682 290.139 316.514 289.989 316.405 289.799C315.866 289.168 315.379 288.495 314.949 287.786C314.662 287.358 314.465 286.876 314.37 286.37C314.333 286.24 314.331 286.103 314.363 285.971C314.487 285.684 314.87 285.621 315.182 285.601C315.808 285.591 316.419 285.581 317.045 285.57C317.371 285.531 317.702 285.564 318.014 285.668C318.328 285.825 318.603 286.049 318.821 286.324C319.507 287.07 320.152 287.854 320.752 288.671C320.871 288.784 320.962 288.924 321.016 289.08C321.071 289.235 321.088 289.401 321.066 289.564C320.973 289.993 320.407 290.13 319.924 290.153Z" fill="#F1F2F2"/>
<path d="M314.658 290.027L312.276 286.263C312.161 286.054 312.003 285.872 311.812 285.729C311.578 285.595 311.31 285.53 311.041 285.543C310.86 285.499 310.671 285.497 310.49 285.537C310.308 285.577 310.138 285.658 309.992 285.774C309.864 285.936 309.802 286.141 309.817 286.347C309.845 286.744 309.969 287.128 310.177 287.466C310.3 287.83 310.509 288.159 310.786 288.424C311.063 288.69 311.399 288.885 311.767 288.993C312.696 289.428 313.664 289.774 314.658 290.027Z" fill="#F1F2F2"/>
<path d="M199.781 231.571C201.633 231.044 203.574 230.908 205.481 231.173C207.388 231.438 209.219 232.097 210.858 233.109C212.856 234.358 214.507 236.097 216.616 237.215C216.893 237.407 217.223 237.506 217.56 237.499C217.892 237.464 218.202 237.312 218.434 237.071C218.867 236.65 219.162 236.108 219.282 235.516C219.402 234.924 219.339 234.31 219.104 233.754C218.538 232.75 217.661 231.96 216.605 231.502C211.667 228.806 205.961 227.748 199.781 231.571Z" fill="#F1F2F2"/>
<path d="M220.214 241.33L222.749 236.457C223.597 238.061 224.351 239.714 225.008 241.406C225.117 241.641 225.166 241.9 225.148 242.159C225.035 243.016 223.632 243.339 223.76 244.191C222.265 243.71 221.002 242.691 220.214 241.33Z" fill="#F1F2F2"/>
<path d="M275.078 383.128C277.363 379.427 279.702 375.569 280.226 371.257C280.443 369.272 280.362 367.266 279.984 365.305C279.978 364.978 279.887 364.594 280.139 364.391C280.245 364.329 280.364 364.295 280.486 364.293C280.608 364.291 280.729 364.321 280.836 364.379C282.095 364.842 282.52 366.388 282.67 367.711C283.372 374.154 281.882 380.646 278.443 386.135C278.374 386.286 278.255 386.408 278.107 386.483C277.989 386.511 277.867 386.513 277.748 386.488C277.63 386.463 277.518 386.411 277.422 386.337C276.762 386.088 276.189 385.652 275.773 385.082C275.357 384.512 275.115 383.833 275.078 383.128Z" fill="#F1F2F2"/>
<path d="M292.928 268.948L296.182 267.112C295.42 269.018 294.797 270.976 294.318 272.971C294.239 273.329 294.19 273.786 294.478 274.009C294.628 274.113 294.812 274.156 294.992 274.129C295.66 274.117 296.148 273.496 296.667 273.074C297.186 272.653 297.991 272.354 298.483 272.802C298.665 272.992 298.783 273.234 298.821 273.494C298.823 274.636 298.62 275.769 298.223 276.839C298.127 277.921 298.249 279.012 298.582 280.047C298.914 281.082 299.451 282.039 300.159 282.862C301.6 284.846 303.343 286.591 305.324 288.033" stroke="#F1F2F2" stroke-width="0.9" stroke-miterlimit="10"/>
<path d="M204.424 313.925C204.435 320.674 206.737 327.217 210.951 332.482C210.534 331.154 210.38 329.758 210.498 328.371C210.561 327.678 210.808 327.014 211.214 326.448C211.62 325.883 212.169 325.436 212.805 325.155C213.064 325.039 213.351 325.002 213.631 325.051C213.911 325.099 214.169 325.231 214.374 325.428C214.531 325.695 214.619 325.997 214.63 326.307L215.257 331.426C216.436 330.35 217.911 329.655 219.49 329.431C219.667 329.382 219.853 329.379 220.031 329.423C220.209 329.468 220.372 329.558 220.504 329.685C220.576 329.795 220.625 329.918 220.65 330.047C220.674 330.177 220.672 330.309 220.645 330.438L220.318 336.371C220.206 337.289 220.289 338.22 220.563 339.103C220.712 339.541 220.995 339.922 221.372 340.189C221.75 340.457 222.202 340.598 222.665 340.592C224.553 340.375 224.841 337.235 226.711 336.819C227.845 336.572 228.899 337.523 229.584 338.481C230.268 339.438 230.857 340.583 231.945 341.006C233.376 341.566 234.925 340.628 236.278 339.893C238.871 338.496 241.774 337.692 244.308 336.167C246.842 334.643 249.075 332.111 249.011 329.149" stroke="#F1F2F2" stroke-width="0.9" stroke-miterlimit="10"/>
<path d="M198.956 273.848C202.751 274.609 206.682 274.312 210.32 272.987C213.934 271.667 217.327 269.803 220.382 267.461C221.056 266.979 222.23 266.603 222.514 267.425C222.679 267.878 222.331 268.354 221.981 268.702C216.854 273.883 209.903 276.845 202.621 276.95C202.256 276.925 201.891 276.99 201.557 277.139C201.394 277.219 201.268 277.359 201.205 277.53C201.142 277.7 201.146 277.889 201.217 278.056C201.322 278.209 201.474 278.321 201.649 278.377C202.373 278.652 203.144 278.78 203.917 278.752C206.138 278.801 208.357 278.606 210.535 278.171" stroke="#F1F2F2" stroke-width="0.9" stroke-miterlimit="10"/>
<path d="M243.765 349.584C243.874 350.828 244.256 352.032 244.884 353.11C245.512 354.188 246.37 355.114 247.397 355.821C248.635 353.307 245.662 349.88 247.388 347.671L248.852 350.154C249.043 350.493 249.277 350.873 249.662 350.952C250.276 351.07 250.733 350.35 250.765 349.723C250.697 349.096 250.715 348.463 250.819 347.841C251.024 347.446 251.321 347.106 251.686 346.852C252.051 346.598 252.472 346.436 252.913 346.381C255.64 345.673 258.491 345.591 261.253 346.142C264.016 346.692 266.619 347.861 268.867 349.561" stroke="#F1F2F2" stroke-width="0.9" stroke-miterlimit="10"/>
<path d="M283.832 392.883L280.903 394.628C280.903 394.628 280.245 395.194 279.275 395.895C278.159 396.724 276.902 397.343 275.565 397.724C272.734 398.527 274.414 398.613 271.33 399.591C270.059 400.001 268.87 400.633 267.82 401.459C266.266 402.098 262.825 402.968 261.454 403.504C260.593 403.875 258.805 404.974 258.805 404.974L257.925 402.523L260.556 401.653C261.403 401.185 262.337 400.893 263.3 400.794C264.652 400.509 265.957 400.031 267.173 399.376C269.697 398.036 272.576 396.72 274.666 395.844C275.627 395.372 276.545 394.817 277.412 394.188C278.402 393.752 279.367 393.26 280.302 392.714L282.529 390.639L283.832 392.883Z" fill="black"/>
<path d="M306.007 376.024C305.181 376.807 304.398 377.618 303.529 378.359C302.198 379.951 300.623 381.319 298.861 382.413C296.296 383.796 297.971 383.583 295.096 385.156C293.884 385.736 292.808 386.565 291.937 387.588C290.53 388.538 287.458 390.214 286.206 391.005C285.381 391.567 284.589 392.175 283.833 392.826L282.472 390.597L284.94 389.33C285.69 388.708 286.537 388.212 287.447 387.863C288.693 387.276 289.849 386.513 290.879 385.597C292.016 384.723 293.239 383.862 294.435 383.058C295.63 382.254 296.639 381.354 297.552 380.697C298.466 380.04 299.078 379.246 299.876 378.478C300.674 377.709 301.792 377.405 302.533 376.624L304.239 374.073L306.007 376.024Z" fill="black"/>
<path d="M324.429 355.152L322.37 357.866C321.428 359.712 320.198 361.397 318.728 362.857C316.426 364.691 318.01 364.123 315.456 366.218C314.407 367.052 313.547 368.102 312.934 369.295C311.889 370.624 308.966 372.668 307.93 373.654C307.258 374.321 306.006 375.981 306.006 375.981L304.239 374.073L306.342 372.27C306.953 371.513 307.712 370.889 308.573 370.437C309.149 370.103 309.674 369.686 310.13 369.2C310.605 368.665 311.064 368.059 311.525 367.538C313.336 365.313 315.545 363.053 317.111 361.431C317.794 360.621 318.261 359.616 318.872 358.751C319.483 357.886 320.498 357.299 321.036 356.335L322.312 353.578L324.429 355.152Z" fill="black"/>
<path d="M338.188 330.924L336.818 334.025C336.651 334.699 336.448 335.364 336.211 336.016C335.701 337.308 335.008 338.52 334.152 339.613C332.313 341.881 333.721 341.045 331.731 343.601C330.926 344.667 330.289 345.85 329.841 347.109C328.941 348.549 326.625 351.21 325.835 352.463C325.586 352.866 325.256 353.542 324.981 354.116C324.706 354.691 324.444 355.137 324.444 355.137L322.327 353.619C322.956 352.939 323.469 352.175 324.026 351.425C324.442 350.553 325.034 349.776 325.765 349.144C326.701 348.125 327.491 346.98 328.111 345.742C328.888 344.532 329.491 343.182 330.28 341.944C331.07 340.705 331.662 339.541 332.286 338.59C332.792 337.656 333.251 336.697 333.66 335.717C334.265 334.802 334.796 333.84 335.247 332.841L335.88 329.852L338.188 330.924Z" fill="black"/>
<path d="M346.915 304.46C346.709 305.579 346.448 306.687 346.131 307.779C345.972 309.841 345.487 311.864 344.696 313.774C343.403 316.403 344.721 315.269 343.12 318.175C342.457 319.345 342.052 320.644 341.933 321.985C341.362 323.562 339.808 326.723 339.19 328.044C338.821 328.905 338.285 330.909 338.285 330.909L335.921 329.837L337.188 327.38C337.514 326.46 337.979 325.597 338.567 324.82C339.244 323.615 339.749 322.321 340.067 320.976C340.903 318.24 342.161 315.241 342.78 313.136C343.118 312.133 343.156 311.021 343.395 309.991C343.809 308.988 344.172 307.964 344.481 306.923C344.562 305.913 344.578 304.899 344.53 303.887L346.915 304.46Z" fill="black"/>
<path d="M350.006 276.765L349.921 280.172C350.034 280.854 350.108 281.543 350.14 282.234C350.215 282.896 350.226 283.564 350.174 284.229C350.105 284.945 349.969 285.653 349.769 286.344C348.935 289.208 349.892 287.767 349.05 290.973C348.688 292.267 348.604 293.624 348.804 294.953C348.519 296.61 347.395 299.992 347.149 301.435C347.026 302.439 346.957 303.449 346.944 304.46L344.403 303.904L345.069 301.214C345.122 300.243 345.372 299.293 345.805 298.423C346.291 297.13 346.58 295.77 346.661 294.39C346.827 291.538 347.285 288.381 347.646 286.152C347.761 285.087 347.776 284.013 347.692 282.945C347.674 281.863 348.139 280.8 348.022 279.719L347.431 276.723L350.006 276.765Z" fill="black"/>
<path d="M347.634 249.005C347.852 250.113 348.141 251.219 348.259 252.357C348.903 254.325 349.225 256.384 349.215 258.454C349.113 259.193 349.169 259.945 349.38 260.66C349.645 261.454 349.688 262.306 349.507 263.123C349.351 264.459 349.485 265.813 349.901 267.092C349.915 267.932 349.937 269.229 349.859 270.498C349.78 271.768 349.759 273.022 349.729 273.763C349.768 274.768 349.861 275.77 350.007 276.765L347.403 276.724L347.641 273.955C347.562 273.002 347.612 272.042 347.792 271.103C347.961 269.734 347.937 268.348 347.723 266.986C347.571 265.564 347.489 264.055 347.45 262.616C347.412 261.178 347.19 259.842 347.129 258.717C347.067 257.593 346.667 256.616 346.493 255.565C346.319 254.513 346.598 253.368 346.31 252.319C346.022 251.269 345.496 250.452 345.096 249.489L347.634 249.005Z" fill="black"/>
<path d="M339.73 222.279L340.922 225.465C342.001 227.24 342.779 229.181 343.223 231.211C343.528 234.142 343.899 232.497 344.323 235.767C344.475 237.102 344.914 238.387 345.61 239.536C345.73 239.932 345.853 240.458 345.976 241.04L346.207 242.903C346.356 244.168 346.505 245.42 346.66 246.144C346.814 246.868 347.632 248.977 347.632 248.977L345.066 249.462L344.664 246.719C344.339 245.808 344.207 244.84 344.275 243.875C344.253 242.488 343.96 241.118 343.411 239.843C342.483 237.123 341.706 234.044 341.199 231.844C340.821 230.84 340.377 229.862 339.87 228.917C339.455 227.912 339.478 226.757 338.979 225.797L337.315 223.26L339.73 222.279Z" fill="black"/>
<path d="M326.518 197.75L328.386 200.568C328.862 201.065 329.312 201.585 329.735 202.127C330.604 203.213 331.279 204.44 331.73 205.756C332.66 208.59 332.673 206.865 333.807 209.995C334.086 210.849 334.503 211.651 335.042 212.369C335.313 212.712 335.565 213.069 335.799 213.439C336.522 214.965 337.56 218.354 338.194 219.682C338.482 220.235 338.799 220.772 339.145 221.291C339.482 221.827 339.731 222.293 339.731 222.293L337.316 223.288C337.043 222.404 336.724 221.534 336.362 220.682C335.851 219.861 335.507 218.947 335.349 217.992C334.994 216.651 334.445 215.369 333.721 214.186C332.37 211.673 330.788 208.906 329.871 206.856C329.344 205.924 328.754 205.029 328.105 204.178C327.479 203.305 327.247 202.169 326.536 201.355L324.353 199.24L326.518 197.75Z" fill="black"/>
<path d="M308.693 176.349L311.136 178.688C311.716 179.058 312.253 179.494 312.736 179.986C313.79 180.925 314.712 182.002 315.478 183.189C316.943 185.7 316.645 184.067 318.384 186.83C318.994 188.027 319.851 189.081 320.896 189.923C321.93 191.33 323.715 194.307 324.575 195.56C325.184 196.361 325.833 197.13 326.52 197.865L324.354 199.326L322.977 196.913C322.327 196.198 321.804 195.378 321.428 194.488C320.788 193.26 319.974 192.131 319.011 191.137C318.068 190.056 317.222 188.816 316.28 187.735C315.337 186.653 314.494 185.585 313.797 184.699C313.099 183.813 312.237 183.3 311.512 182.457C310.787 181.615 310.371 180.567 309.464 179.941L306.861 178.218L308.693 176.349Z" fill="black"/>
<path d="M286.981 158.93C287.973 159.498 288.933 160.119 289.857 160.791C291.731 161.679 293.45 162.863 294.951 164.296C296.949 166.428 296.382 164.842 298.5 167.328C299.367 168.353 300.443 169.181 301.656 169.755C302.305 170.285 303.215 171.153 304.113 172.122C305.011 173.09 305.781 174.031 306.33 174.521C306.878 175.01 308.721 176.347 308.721 176.347L306.861 178.217L304.992 176.168C304.214 175.586 303.562 174.85 303.078 174.006C302.184 172.932 301.144 171.991 299.988 171.208C297.712 169.479 295.427 167.28 293.613 165.929C292.735 165.313 291.824 164.748 290.882 164.236C289.99 163.639 289.362 162.652 288.414 162.126C287.467 161.601 286.511 161.403 285.552 161.063L286.981 158.93Z" fill="black"/>
<path d="M262.233 146.21L265.357 147.582C267.374 148.045 269.306 148.82 271.084 149.88C273.404 151.679 272.513 150.283 275.135 152.234C276.203 153.039 277.429 153.611 278.733 153.912C279.106 154.105 279.565 154.368 280.069 154.687L281.581 155.802C282.603 156.568 283.597 157.321 284.244 157.695C285.129 158.167 286.038 158.594 286.967 158.974L285.582 161.163L283.308 159.563C282.402 159.151 281.589 158.558 280.918 157.822C279.901 156.881 278.71 156.151 277.411 155.672C274.802 154.462 272.06 152.912 270.106 151.748C269.114 151.342 268.102 150.988 267.073 150.688C266.071 150.306 265.247 149.479 264.203 149.183L261.236 148.62L262.233 146.21Z" fill="black"/>
<path d="M235.329 158.245L238.23 156.501C238.23 156.501 238.888 155.934 239.858 155.234C240.974 154.405 242.231 153.785 243.568 153.405C246.399 152.602 244.719 152.516 247.803 151.538C249.074 151.128 250.263 150.495 251.313 149.669C252.867 149.03 256.308 148.16 257.665 147.625C258.54 147.254 260.328 146.155 260.328 146.155L261.208 148.605L258.577 149.476C257.73 149.944 256.796 150.236 255.833 150.334C254.477 150.642 253.173 151.144 251.961 151.824C249.438 153.163 246.558 154.48 244.468 155.356C243.481 155.822 242.538 156.377 241.652 157.013C240.688 157.457 239.747 157.948 238.832 158.486L236.606 160.575L235.329 158.245Z" fill="black"/>
<path d="M213.153 175.048C213.979 174.265 214.761 173.454 215.617 172.713C216.951 171.125 218.526 169.757 220.284 168.659C222.862 167.19 221.189 167.489 224.064 165.916C225.273 165.331 226.348 164.503 227.223 163.483C228.63 162.534 231.702 160.858 232.94 160.067C233.771 159.507 234.568 158.899 235.327 158.246L236.688 160.474L234.22 161.741C233.47 162.364 232.623 162.86 231.713 163.208C230.467 163.796 229.311 164.559 228.281 165.475C227.143 166.349 225.906 167.21 224.725 168.014C223.544 168.817 222.521 169.718 221.608 170.375C220.694 171.031 220.082 171.825 219.284 172.594C218.486 173.363 217.368 173.666 216.627 174.448L214.921 176.999L213.153 175.048Z" fill="black"/>
<path d="M194.801 195.933L196.86 193.219C197.805 191.37 199.034 189.68 200.502 188.214C202.804 186.394 201.221 186.962 203.774 184.867C204.824 184.033 205.684 182.983 206.297 181.79C207.327 180.461 210.265 178.417 211.301 177.431C211.972 176.764 213.224 175.104 213.224 175.104L214.992 177.012L212.889 178.815C212.274 179.568 211.516 180.191 210.658 180.648C210.082 180.982 209.557 181.399 209.1 181.885C208.626 182.42 208.166 183.026 207.706 183.547C205.894 185.772 203.685 188.032 202.12 189.654C201.422 190.464 200.97 191.469 200.358 192.334C199.747 193.199 198.733 193.786 198.195 194.75L196.918 197.507L194.801 195.933Z" fill="black"/>
<path d="M180.987 220.147L182.357 217.046C182.524 216.372 182.727 215.708 182.964 215.055C183.468 213.76 184.162 212.548 185.022 211.458C186.862 209.19 185.454 210.026 187.444 207.471C188.249 206.404 188.886 205.221 189.334 203.962C190.234 202.522 192.55 199.861 193.34 198.608C193.589 198.205 193.919 197.53 194.194 196.955C194.469 196.381 194.731 195.934 194.731 195.934L196.848 197.452C196.245 198.15 195.678 198.877 195.149 199.632C194.757 200.504 194.189 201.285 193.481 201.926C192.545 202.945 191.756 204.091 191.135 205.328C190.358 206.538 189.755 207.888 188.966 209.126C188.176 210.365 187.584 211.529 186.96 212.48C186.454 213.414 185.995 214.373 185.586 215.353C184.978 216.266 184.447 217.228 183.999 218.23L183.366 221.218L180.987 220.147Z" fill="black"/>
<path d="M172.245 246.568C172.448 245.449 172.71 244.342 173.028 243.249C173.202 241.181 173.7 239.153 174.505 237.24C175.798 234.625 174.481 235.815 176.081 232.853C176.745 231.683 177.15 230.384 177.269 229.043C177.84 227.466 179.394 224.305 180.012 222.984C180.381 222.108 180.916 220.119 180.916 220.119L183.281 221.19L182 223.648C181.68 224.571 181.215 225.435 180.62 226.208C179.943 227.413 179.439 228.707 179.121 230.052C178.285 232.788 177.026 235.716 176.408 237.892C176.069 238.895 176.031 240.007 175.792 241.037C175.378 242.04 175.016 243.064 174.706 244.105C174.626 245.115 174.609 246.129 174.658 247.141L172.245 246.568Z" fill="black"/>
<path d="M169.098 274.307L169.168 270.9C169.168 270.9 169.026 270.048 168.949 268.838C168.882 268.175 168.871 267.508 168.915 266.844C168.984 266.127 169.12 265.419 169.321 264.728C170.154 261.864 169.197 263.305 170.039 260.099C170.402 258.805 170.485 257.449 170.285 256.12C170.57 254.462 171.623 251.081 171.94 249.637C172.063 248.633 172.132 247.624 172.145 246.613L174.686 247.168L174.02 249.858C173.978 250.853 173.728 251.828 173.286 252.721C172.799 254.014 172.511 255.373 172.429 256.753C172.264 259.606 171.805 262.763 171.444 264.992C171.322 266.056 171.307 267.131 171.399 268.198C171.417 269.281 170.951 270.343 171.069 271.424L171.66 274.421L169.098 274.307Z" fill="black"/>
<path d="M171.527 302.068C171.309 300.96 171.02 299.854 170.902 298.716C170.258 296.748 169.936 294.689 169.946 292.619C170.055 291.88 169.994 291.125 169.766 290.413C169.541 289.609 169.527 288.76 169.725 287.949C169.881 286.613 169.747 285.259 169.331 283.98C169.317 283.14 169.295 281.843 169.373 280.574C169.452 279.304 169.473 278.05 169.503 277.309C169.464 276.304 169.371 275.302 169.225 274.307L171.829 274.348L171.591 277.117C171.641 277.59 171.649 278.067 171.615 278.541C171.603 279.023 171.539 279.501 171.425 279.969C171.257 281.343 171.281 282.733 171.495 284.1C171.647 285.523 171.729 287.032 171.768 288.47C171.806 289.909 172.029 291.316 172.089 292.369C172.15 293.423 172.551 294.47 172.725 295.522C172.899 296.573 172.62 297.718 172.908 298.768C173.196 299.817 173.722 300.635 174.122 301.597L171.527 302.068Z" fill="black"/>
<path d="M179.429 328.794L178.237 325.608C177.157 323.832 176.375 321.891 175.922 319.861C175.631 316.931 175.26 318.576 174.835 315.306C174.684 313.971 174.245 312.685 173.549 311.537C173.428 311.14 173.306 310.615 173.182 310.033C173.059 309.451 173.034 308.81 172.952 308.17C172.803 306.904 172.653 305.653 172.499 304.929C172.345 304.205 171.527 302.095 171.527 302.095L174.093 301.611L174.495 304.354C174.82 305.264 174.952 306.233 174.884 307.197C174.905 308.585 175.199 309.955 175.748 311.229C176.676 313.95 177.453 317.029 177.959 319.229C178.341 320.231 178.785 321.209 179.288 322.156C179.704 323.161 179.68 324.315 180.18 325.276L181.844 327.813L179.429 328.794Z" fill="black"/>
<path d="M192.642 353.323L190.774 350.504C190.297 350.005 189.846 349.479 189.425 348.931C188.554 347.853 187.879 346.63 187.43 345.317C186.501 342.483 186.487 344.207 185.353 341.077C185.069 340.226 184.652 339.425 184.119 338.704C183.848 338.361 183.595 338.004 183.361 337.634C182.639 336.107 181.6 332.719 180.966 331.39C180.679 330.837 180.361 330.3 180.015 329.782C179.679 329.246 179.429 328.78 179.429 328.78L181.844 327.785C182.13 328.694 182.463 329.587 182.842 330.461C183.353 331.282 183.697 332.197 183.855 333.151C184.211 334.492 184.759 335.774 185.483 336.957C186.834 339.471 188.416 342.237 189.333 344.288C189.86 345.219 190.45 346.114 191.099 346.965C191.725 347.838 191.957 348.974 192.668 349.789L194.851 351.904L192.642 353.323Z" fill="black"/>
<path d="M210.467 374.724L208.023 372.342C207.443 371.972 206.906 371.536 206.423 371.044C205.397 370.113 204.499 369.05 203.753 367.883C202.288 365.371 202.586 367.005 200.847 364.241C200.211 363.061 199.342 362.024 198.293 361.192C197.261 359.87 195.474 356.822 194.615 355.626C194.006 354.825 193.357 354.056 192.67 353.321L194.836 351.86L196.214 354.274C196.863 354.988 197.386 355.808 197.762 356.698C198.402 357.926 199.216 359.055 200.179 360.049C201.122 361.116 201.968 362.37 202.91 363.451C203.853 364.533 204.696 365.601 205.393 366.487C206.091 367.373 206.953 367.886 207.678 368.729C208.404 369.572 208.819 370.619 209.712 371.245L212.313 372.854L210.467 374.724Z" fill="black"/>
<path d="M232.234 392.141C231.242 391.573 230.282 390.952 229.358 390.28C227.485 389.391 225.765 388.208 224.265 386.775C222.266 384.642 222.833 386.229 220.715 383.742C219.848 382.717 218.772 381.89 217.559 381.316C216.911 380.785 216 379.917 215.102 378.949C214.204 377.981 213.434 377.039 212.885 376.55C212.337 376.06 210.494 374.723 210.494 374.723L212.311 372.855L214.18 374.904C214.959 375.486 215.61 376.222 216.094 377.066C216.985 378.142 218.026 379.085 219.185 379.864C221.461 381.592 223.745 383.791 225.56 385.143C226.435 385.755 227.341 386.32 228.276 386.835C229.183 387.433 229.811 388.42 230.758 388.931C231.693 389.339 232.649 389.698 233.621 390.008L232.234 392.141Z" fill="black"/>
<path d="M256.927 404.863L253.803 403.49C251.787 403.027 249.854 402.252 248.076 401.193C245.742 399.394 246.647 400.789 244.026 398.839C242.957 398.033 241.731 397.461 240.428 397.161C240.054 396.968 239.595 396.705 239.092 396.385L237.651 395.27C236.628 394.503 235.62 393.751 234.988 393.377C234.098 392.903 233.184 392.476 232.25 392.097L233.635 389.908L235.909 391.494C236.787 391.907 237.579 392.484 238.242 393.194C239.258 394.134 240.45 394.865 241.748 395.343C244.343 396.553 247.099 398.103 249.053 399.267C250.045 399.674 251.057 400.028 252.086 400.328C253.088 400.71 253.913 401.536 254.956 401.832L257.924 402.395L256.927 404.863Z" fill="black"/>
<path d="M345.377 300.895C345.643 299.765 345.765 298.609 345.96 297.48C345.96 297.48 345.945 296.597 346.038 295.37C346.028 294.772 346.158 294.071 346.274 293.357C346.368 292.637 346.513 291.925 346.708 291.226C347.57 288.362 346.584 289.804 347.454 286.526C347.756 285.191 347.782 283.808 347.528 282.464C347.513 281.609 347.804 280.293 347.924 278.994C348.045 277.696 348.18 276.425 348.181 275.67C348.165 274.701 347.846 272.612 347.846 272.612L350.447 272.568L350.269 275.492C350.387 276.507 350.303 277.536 350.021 278.517C349.769 279.929 349.664 281.364 349.709 282.797C349.734 284.293 349.619 285.891 349.431 287.376C349.242 288.861 349.009 290.233 348.817 291.447C348.624 292.662 348.854 293.698 348.617 294.814C348.38 295.929 347.872 296.992 347.82 298.133C347.768 299.274 347.955 300.268 347.874 301.338L345.377 300.895Z" fill="#F1F2F2"/>
<path d="M337.058 328.036C337.495 326.96 338.018 325.926 338.426 324.822C338.549 324.132 338.709 323.449 338.904 322.776C339.275 321.421 339.797 320.112 340.46 318.874C341.838 316.243 340.635 317.446 342.12 314.415C342.746 313.193 343.07 311.839 343.063 310.466C343.277 309.636 343.725 308.389 344.174 307.17C344.547 306.119 344.862 305.048 345.115 303.962C345.298 303.005 345.405 300.894 345.405 300.894L347.959 301.392L347.183 304.255C347.09 305.255 346.807 306.227 346.349 307.119C345.752 308.447 345.335 309.848 345.111 311.287C344.952 312.016 344.765 312.717 344.579 313.518C344.394 314.319 344.106 314.951 343.862 315.711C343.374 317.144 342.885 318.477 342.505 319.581C342.126 320.684 341.916 321.742 341.564 322.803C341.212 323.863 340.403 324.788 340.194 325.903C339.985 327.018 339.788 327.991 339.578 329.034L337.058 328.036Z" fill="#F1F2F2"/>
<path d="M323.296 352.847L325.253 349.965L325.5 349.419C325.679 349.088 325.913 348.614 326.174 348.068C326.785 346.805 327.559 345.628 328.476 344.567C330.486 342.339 328.964 343.134 331.039 340.548C331.914 339.492 332.523 338.241 332.813 336.899C333.526 335.363 335.581 332.378 336.169 330.972C336.538 330.068 337.058 328.022 337.058 328.022L339.45 329.036L338.143 331.651C337.861 332.64 337.355 333.55 336.666 334.312C335.828 335.497 335.152 336.787 334.654 338.151C334.024 339.586 333.278 340.895 332.475 342.206C331.805 343.399 331.075 344.558 330.286 345.676C329.648 346.599 329.268 347.688 328.715 348.652C328.162 349.616 327.194 350.374 326.656 351.366L325.426 354.322L323.296 352.847Z" fill="#F1F2F2"/>
<path d="M304.697 374.264C305.565 373.494 306.348 372.64 307.188 371.843C307.591 371.267 308.023 370.713 308.482 370.182C309.386 369.127 310.384 368.156 311.463 367.282C313.822 365.476 312.253 366.058 314.819 363.906C315.857 363.018 316.697 361.921 317.283 360.687C318.414 359.428 320.887 356.793 321.805 355.595C322.372 354.739 322.87 353.84 323.296 352.905L325.426 354.394C324.827 355.174 324.243 355.953 323.601 356.676C323.093 357.567 322.409 358.344 321.592 358.961C320.555 359.979 319.621 361.098 318.803 362.3C317.884 363.484 316.867 364.698 315.876 365.84C314.885 366.982 313.835 367.926 312.981 368.739C312.127 369.551 311.589 370.543 310.849 371.354C310.109 372.164 308.951 372.668 308.255 373.563C307.559 374.458 307.09 375.364 306.45 376.215L304.697 374.264Z" fill="#F1F2F2"/>
<path d="M282.001 391.331C282.986 390.716 284.001 390.157 284.957 389.529C286.481 388.066 288.215 386.841 290.101 385.894C292.768 384.595 291.093 384.809 294.054 383.263C295.278 382.64 296.335 381.733 297.138 380.617C297.783 380.079 298.88 379.334 299.949 378.604C300.866 377.974 301.747 377.293 302.588 376.565C303.307 375.834 303.987 375.066 304.626 374.265L306.393 376.173L304.12 377.992C303.449 378.765 302.634 379.399 301.719 379.856C300.466 380.586 299.314 381.477 298.294 382.507C297.733 383.001 297.144 383.51 296.54 383.962C295.936 384.414 295.304 384.866 294.685 385.304C293.463 386.179 292.267 386.969 291.282 387.613C290.298 388.256 289.529 389.067 288.629 389.681C287.729 390.294 286.525 390.599 285.656 391.341L283.318 393.517L282.001 391.331Z" fill="#F1F2F2"/>
<path d="M256.375 403.319L259.64 402.153L260.162 401.873L261.502 401.181C262.74 400.524 264.055 400.023 265.416 399.69C268.349 399.057 266.64 398.886 269.838 397.949C271.158 397.592 272.382 396.943 273.419 396.051C274.899 395.228 278.32 394.002 279.615 393.211C280.463 392.635 281.279 392.012 282.058 391.346L283.39 393.575L280.81 394.929C279.981 395.567 279.014 396.003 277.987 396.202C276.617 396.672 275.317 397.326 274.123 398.148C272.798 398.854 271.301 399.52 269.989 400.141L267.998 401.015L266.175 401.673C265.143 402.11 264.135 402.602 263.156 403.148C262.126 403.636 260.902 403.614 259.901 404.115L257.17 405.8L256.375 403.319Z" fill="#F1F2F2"/>
<path d="M228.762 409.697L232.195 409.198C234.195 408.547 236.265 408.139 238.361 407.983C241.347 407.932 239.775 407.489 243.056 407.234C244.418 407.13 245.744 406.744 246.948 406.1C248.606 405.73 252.136 405.058 253.593 404.563C254.569 404.21 255.513 403.775 256.416 403.262L257.268 405.741C256.334 406.013 255.4 406.285 254.436 406.501C253.502 406.915 252.496 407.145 251.475 407.178C250.026 407.381 248.602 407.734 247.226 408.232C245.811 408.655 244.253 409.038 242.779 409.376C241.306 409.714 239.943 409.851 238.723 410.028C237.503 410.206 236.571 410.649 235.466 410.895C234.331 410.915 233.198 410.991 232.071 411.123L229.06 412.229L228.762 409.697Z" fill="#F1F2F2"/>
<path d="M200.424 410.174C201.578 410.268 202.73 410.306 203.884 410.386C203.884 410.386 204.764 410.272 205.986 410.237C207.386 410.197 208.786 410.279 210.172 410.48C213.025 411.03 211.59 410.228 214.926 410.728C216.28 410.895 217.653 410.78 218.96 410.389C220.652 410.361 224.267 410.514 225.77 410.275C226.254 410.266 227.004 410.054 227.627 409.916C228.251 409.777 228.76 409.626 228.76 409.626L229.074 412.214C228.107 412.23 227.126 412.247 226.232 412.333C225.23 412.542 224.197 412.559 223.189 412.384C221.768 412.264 220.339 412.288 218.923 412.456C217.432 412.581 215.841 412.679 214.347 412.661C212.853 412.643 211.246 412.628 210.109 412.647C208.971 412.666 207.865 412.841 206.754 412.789C205.644 412.736 204.513 412.271 203.376 412.347C202.24 412.423 201.263 412.667 200.198 412.799L200.424 410.174Z" fill="#F1F2F2"/>
<path d="M172.615 404.727C173.716 405.108 174.831 405.431 175.945 405.711C175.945 405.711 176.828 405.768 178.026 405.976C179.405 406.23 180.758 406.608 182.07 407.104C184.82 408.241 183.492 407.081 186.67 408.324C187.955 408.794 189.329 408.966 190.689 408.826C191.531 408.954 192.816 409.289 194.073 409.596C195.33 409.902 196.613 410.109 197.354 410.182C198.378 410.218 199.403 410.2 200.425 410.13L200.199 412.727L197.346 412.234C196.325 412.254 195.311 412.067 194.364 411.685C192.971 411.269 191.535 411.012 190.084 410.917C187.187 410.555 184.323 409.96 181.521 409.137C180.45 408.87 179.297 408.818 178.212 408.566C177.127 408.313 176.119 407.603 174.993 407.437C173.866 407.271 172.871 407.302 171.817 407.191L172.615 404.727Z" fill="#F1F2F2"/>
<path d="M146.556 393.611L149.585 395.285C149.585 395.285 150.442 395.527 151.573 395.978C152.894 396.462 154.144 397.122 155.29 397.939C157.736 399.622 156.717 398.257 159.592 400.046C160.731 400.805 162.037 401.272 163.398 401.407C165.001 401.979 168.174 403.749 169.645 404.152C170.638 404.4 171.643 404.598 172.656 404.743L171.902 407.249L169.168 406.198C168.159 406.025 167.203 405.622 166.374 405.019C165.109 404.305 163.756 403.757 162.351 403.391C160.883 402.912 159.448 402.336 158.055 401.668C156.622 401.037 155.389 400.445 154.355 399.864C153.321 399.283 152.265 399.044 151.247 398.591C150.23 398.138 149.375 397.197 148.373 396.844L145.314 395.898L146.556 393.611Z" fill="#F1F2F2"/>
<path d="M123.354 377.314L126.009 379.535C126.617 379.883 127.208 380.263 127.777 380.673C128.983 381.424 130.1 382.309 131.107 383.31C133.135 385.513 132.385 384.016 134.812 386.297C135.792 387.251 136.963 387.984 138.248 388.448C139.685 389.365 142.483 391.64 143.776 392.431C144.709 392.875 145.665 393.268 146.64 393.608L145.37 395.881L142.898 394.326C141.969 393.898 141.133 393.293 140.436 392.544C139.332 391.602 138.12 390.795 136.825 390.139C134.323 388.617 131.945 386.899 129.713 385.001C128.862 384.274 127.83 383.793 126.838 383.154C125.845 382.515 125.386 381.398 124.38 380.787L121.51 379.283L123.354 377.314Z" fill="#F1F2F2"/>
<path d="M104.047 356.537C104.717 357.467 105.415 358.395 106.17 359.28C106.17 359.28 106.848 359.853 107.616 360.681C108.587 361.695 109.462 362.796 110.231 363.971C111.781 366.524 111.398 364.864 113.223 367.668C113.979 368.796 114.965 369.75 116.115 370.47C116.722 371.058 117.564 372.112 118.406 373.081C119.247 374.05 120.144 374.99 120.708 375.494C121.189 375.908 121.695 376.294 122.22 376.651C122.539 376.881 122.871 377.095 123.212 377.29L121.496 379.256C120.774 378.599 120.136 377.854 119.442 377.168C118.607 376.578 117.903 375.824 117.37 374.951C116.478 373.807 115.469 372.759 114.36 371.824C112.254 369.835 110.315 367.675 108.562 365.367C107.851 364.51 106.957 363.813 106.217 362.956C105.478 362.099 105.103 360.951 104.278 360.139C103.454 359.326 102.634 358.741 101.854 358.056L104.047 356.537Z" fill="#F1F2F2"/>
<path d="M89.458 332.201L90.9331 335.34L91.2682 335.818C91.501 336.128 91.7926 336.551 92.1284 337.072C92.9153 338.236 93.544 339.5 93.9979 340.831C94.97 343.664 94.9695 341.94 96.2168 345.068C96.684 346.363 97.466 347.52 98.4921 348.436C99.4545 349.844 100.975 353.139 101.947 354.305C102.608 355.094 103.309 355.848 104.048 356.564L101.969 358.124L100.363 355.671C99.6489 354.938 99.1132 354.05 98.7977 353.076C98.1965 351.751 97.4199 350.513 96.4887 349.396C95.602 348.149 94.7917 346.849 94.0623 345.504C93.3291 344.191 92.5973 342.963 92.1239 341.874C91.6504 340.785 90.9116 339.985 90.3555 339.054C89.7994 338.123 89.608 336.886 89.0229 335.927L87.0883 333.367L89.458 332.201Z" fill="#F1F2F2"/>
<path d="M80.2317 305.354L81.0708 308.731C81.3564 309.369 81.6095 310.021 81.829 310.685C82.3582 311.987 82.725 313.35 82.9212 314.742C83.2839 317.7 83.5407 316.057 84.1648 319.338C84.3978 320.681 84.9034 321.963 85.6503 323.103C86.2459 324.689 87.1577 328.165 87.807 329.564C88.2815 330.48 88.8191 331.361 89.4159 332.202L87.0449 333.296C86.6883 332.39 86.3035 331.499 85.9609 330.579C85.4658 329.703 85.1408 328.742 85.0031 327.745C84.6577 326.339 84.1578 324.976 83.5124 323.68C82.4158 320.994 81.5276 318.227 80.8559 315.404C80.5815 314.311 80.0242 313.309 79.665 312.246C79.3058 311.183 79.484 309.941 79.0537 308.879L77.6692 306.053L80.2317 305.354Z" fill="#F1F2F2"/>
<path d="M76.7987 277.171L76.9567 280.645C76.9567 280.645 77.1559 281.497 77.3045 282.72C77.5018 284.106 77.5682 285.507 77.5029 286.906C77.2544 289.888 77.8966 288.324 77.7538 291.675C77.7281 293.041 77.9783 294.399 78.4894 295.667C78.6885 297.359 78.9482 300.959 79.2575 302.436C79.4039 303.056 79.5851 303.666 79.8002 304.265C80.0096 304.874 80.231 305.355 80.231 305.355L77.695 305.939C77.4941 304.988 77.3923 304.006 77.249 303.097C76.9302 302.126 76.8066 301.101 76.8854 300.082C76.8198 298.645 76.6196 297.217 76.2875 295.818C76.0076 294.397 75.781 292.763 75.5994 291.269C75.4178 289.776 75.4221 288.337 75.388 287.155C75.3539 285.973 74.9667 284.939 74.8769 283.829C74.7871 282.719 75.1796 281.53 74.9903 280.422L74.1982 277.3L76.7987 277.171Z" fill="#F1F2F2"/>
<path d="M79.2819 248.888C79.0165 250.018 78.8937 251.174 78.6854 252.317C78.6854 252.317 78.7002 253.201 78.6211 254.413C78.5726 255.088 78.489 255.76 78.3705 256.426C78.2905 257.148 78.1454 257.861 77.937 258.557C77.0891 261.421 78.0604 259.98 77.1914 263.272C76.8828 264.601 76.8623 265.981 77.1314 267.319C77.1458 268.174 76.855 269.49 76.7204 270.789C76.5858 272.088 76.465 273.358 76.4777 274.113C76.5318 275.137 76.6392 276.158 76.7993 277.171L74.1974 277.215L74.3912 274.362C74.2736 273.347 74.3578 272.319 74.639 271.337C74.886 269.924 74.9906 268.49 74.951 267.057C74.9653 265.522 75.0582 263.989 75.2293 262.464C75.4174 260.965 75.6364 259.607 75.8293 258.393C76.0222 257.178 75.8767 256.141 76.0429 255.026C76.209 253.912 76.7885 252.848 76.8262 251.707C76.8639 250.567 76.7049 249.572 76.7723 248.502L79.2819 248.888Z" fill="#F1F2F2"/>
<path d="M87.601 221.76C87.1495 222.822 86.6409 223.87 86.2326 224.96C86.2326 224.96 86.0766 225.832 85.755 227.006C85.3924 228.373 84.8805 229.695 84.2284 230.95C82.8504 233.581 84.0533 232.378 82.5685 235.424C81.94 236.639 81.6161 237.989 81.6249 239.358C81.4113 240.188 80.9487 241.435 80.5143 242.668C80.1321 243.716 79.8176 244.788 79.5727 245.876C79.3894 246.819 79.2827 248.93 79.2827 248.93L76.7285 248.432L77.491 245.569C77.5905 244.569 77.8782 243.597 78.3389 242.705C78.938 241.379 79.3501 239.977 79.5631 238.538C79.7357 237.808 79.9088 237.107 80.1086 236.306C80.3085 235.504 80.5681 234.873 80.8116 234.128C81.2995 232.695 81.7891 231.361 82.1687 230.258C82.5484 229.154 82.7721 228.082 83.1241 227.022C83.476 225.961 84.2854 225.036 84.4944 223.935C84.7035 222.834 84.9144 221.847 85.11 220.79L87.601 221.76Z" fill="#F1F2F2"/>
<path d="M101.363 196.948L99.3917 199.831L99.1449 200.376L98.4707 201.727C97.856 202.992 97.0824 204.174 96.1689 205.243C94.1723 207.456 95.681 206.676 93.6193 209.247C92.7523 210.31 92.1407 211.558 91.8318 212.896C91.1181 214.433 89.0633 217.417 88.4756 218.837C88.1331 219.805 87.8411 220.79 87.6008 221.787L85.1941 220.759L86.5724 218.143C86.8666 217.156 87.376 216.247 88.0636 215.482C88.9044 214.299 89.5812 213.008 90.0756 211.643C90.7057 210.208 91.4519 208.913 92.2405 207.603C92.9072 206.403 93.6378 205.239 94.4291 204.118C95.082 203.195 95.4479 202.12 96.0146 201.141C96.5813 200.163 97.5359 199.42 98.0739 198.428L99.3042 195.472L101.363 196.948Z" fill="#F1F2F2"/>
<path d="M119.962 175.518C119.093 176.303 118.297 177.142 117.471 177.94C117.068 178.515 116.636 179.069 116.176 179.6C115.273 180.656 114.275 181.627 113.196 182.5C110.822 184.307 112.391 183.725 109.839 185.877C108.798 186.761 107.958 187.859 107.376 189.096C106.245 190.355 103.772 192.99 102.853 194.188C102.28 195.044 101.781 195.949 101.363 196.892L99.2326 195.388C99.8311 194.609 100.416 193.844 101.057 193.106C101.573 192.222 102.256 191.446 103.067 190.821C104.1 189.805 105.034 188.692 105.856 187.497C106.76 186.299 107.778 185.085 108.768 183.943C109.759 182.8 110.824 181.856 111.664 181.044C112.503 180.232 113.055 179.24 113.81 178.443C114.565 177.647 115.694 177.115 116.404 176.234C117.115 175.353 117.554 174.433 118.194 173.568L119.962 175.518Z" fill="#F1F2F2"/>
<path d="M142.602 158.466C141.616 159.067 140.602 159.626 139.631 160.269C138.12 161.724 136.401 162.944 134.529 163.889C131.863 165.187 133.538 164.974 130.577 166.52C129.358 167.145 128.306 168.051 127.507 169.165C126.847 169.703 125.751 170.448 124.696 171.178C123.781 171.812 122.9 172.492 122.057 173.218C121.343 173.885 120.033 175.517 120.033 175.517L118.252 173.609L120.44 171.792C121.107 171.015 121.924 170.381 122.84 169.927C124.093 169.198 125.245 168.307 126.266 167.276C126.827 166.782 127.416 166.274 128.005 165.822C128.595 165.371 129.256 164.903 129.874 164.466C131.097 163.604 132.278 162.801 133.263 162.157C134.248 161.514 135.016 160.703 135.931 160.103C136.845 159.504 138.034 159.17 138.889 158.429L141.228 156.252L142.602 158.466Z" fill="#F1F2F2"/>
<path d="M168.27 146.465L165.004 147.631L164.497 147.911L163.086 148.604C161.846 149.268 160.526 149.769 159.158 150.095C156.238 150.728 157.948 150.899 154.735 151.837C153.419 152.192 152.2 152.841 151.169 153.735C149.675 154.558 146.268 155.783 144.973 156.575C144.127 157.159 143.312 157.786 142.53 158.454L141.184 156.211L143.778 154.856C144.61 154.222 145.575 153.787 146.601 153.583C147.976 153.114 149.28 152.459 150.479 151.637C151.804 150.931 153.301 150.265 154.613 149.644L156.604 148.784L158.428 148.127C159.474 147.753 160.416 147.096 161.446 146.651C162.477 146.206 163.686 146.186 164.701 145.684L167.433 144.057L168.27 146.465Z" fill="#F1F2F2"/>
<path d="M195.883 140.101L192.449 140.586C190.455 141.237 188.389 141.645 186.297 141.801C183.311 141.851 184.883 142.295 181.602 142.55C180.238 142.648 178.91 143.04 177.71 143.698C176.052 144.054 172.508 144.726 171.066 145.235C170.089 145.587 169.145 146.022 168.243 146.536L167.434 144.056C168.367 143.77 169.302 143.498 170.265 143.282C171.199 142.867 172.205 142.637 173.226 142.605C174.675 142.403 176.099 142.049 177.475 141.551C178.89 141.128 180.463 140.745 181.922 140.421C183.382 140.098 184.758 139.932 185.978 139.755C187.199 139.577 188.144 139.134 189.235 138.902C190.327 138.67 191.54 138.963 192.63 138.66L195.641 137.569L195.883 140.101Z" fill="#F1F2F2"/>
<path d="M224.221 139.625C223.081 139.516 221.914 139.479 220.761 139.399C220.761 139.399 219.895 139.513 218.673 139.548C217.273 139.588 215.873 139.507 214.487 139.305C211.633 138.754 213.069 139.557 209.733 139.057C208.379 138.888 207.006 139.003 205.699 139.395C203.993 139.424 200.392 139.271 198.889 139.51C198.405 139.518 197.655 139.73 197.017 139.869C196.38 140.008 195.885 140.173 195.885 140.173L195.571 137.585C196.552 137.569 197.519 137.552 198.498 137.45C199.495 137.241 200.523 137.224 201.527 137.4C202.971 137.524 204.424 137.499 205.863 137.327C207.355 137.216 208.932 137.104 210.44 137.121C211.948 137.139 213.372 137.243 214.553 137.323C215.735 137.403 216.783 137.114 217.907 137.167C219.032 137.219 220.149 137.685 221.285 137.609C222.422 137.533 223.399 137.288 224.45 137.171L224.221 139.625Z" fill="#F1F2F2"/>
<path d="M252.031 145.056C250.943 144.675 249.829 144.366 248.701 144.086C248.701 144.086 247.832 144.015 246.619 143.808C245.245 143.553 243.897 143.175 242.59 142.679C239.826 141.542 241.168 142.702 237.99 141.459C236.703 140.998 235.331 140.826 233.97 140.957C233.129 140.829 231.844 140.494 230.573 140.188C229.302 139.881 228.047 139.674 227.292 139.602C226.268 139.563 225.242 139.58 224.22 139.653L224.447 137.056L227.299 137.535C228.325 137.515 229.343 137.702 230.295 138.083C231.687 138.506 233.123 138.764 234.575 138.852C237.473 139.211 240.337 139.806 243.138 140.632C244.224 140.913 245.363 140.95 246.462 141.217C247.562 141.483 248.541 142.179 249.667 142.332C250.793 142.484 251.802 142.467 252.857 142.591L252.031 145.056Z" fill="#F1F2F2"/>
<path d="M278.045 156.189L275.002 154.501C275.002 154.501 274.159 154.259 273.013 153.808C271.746 153.309 270.545 152.654 269.439 151.859C266.978 150.162 268.011 151.527 265.137 149.737C263.994 148.975 262.682 148.508 261.316 148.376C259.728 147.805 256.555 146.034 255.083 145.631C254.086 145.383 253.076 145.186 252.058 145.041L252.827 142.549L255.547 143.586C256.579 143.754 257.559 144.157 258.411 144.763C259.671 145.478 261.019 146.025 262.421 146.392C263.823 146.877 265.195 147.443 266.531 148.089C267.964 148.721 269.197 149.313 270.231 149.894C271.265 150.475 272.321 150.713 273.339 151.167C274.356 151.62 275.211 152.56 276.212 152.914L279.258 153.86L278.045 156.189Z" fill="#F1F2F2"/>
<path d="M301.304 172.469L298.649 170.248C298.04 169.899 297.45 169.519 296.881 169.109C295.694 168.362 294.6 167.476 293.622 166.471C291.594 164.282 292.344 165.765 289.917 163.484C288.932 162.537 287.763 161.804 286.481 161.333C285.044 160.417 282.246 158.141 280.939 157.351C280.008 156.907 279.051 156.519 278.075 156.188L279.33 153.901L281.803 155.455C282.734 155.887 283.574 156.491 284.279 157.238C285.377 158.181 286.584 158.988 287.875 159.642C290.346 161.166 292.691 162.885 294.888 164.782C295.739 165.509 296.786 165.99 297.764 166.629C298.741 167.268 299.215 168.386 300.221 168.996L303.091 170.501L301.304 172.469Z" fill="#F1F2F2"/>
<path d="M320.611 193.261C319.941 192.318 319.157 191.391 318.487 190.447C317.957 190.008 317.45 189.541 316.97 189.048C315.999 188.034 315.124 186.933 314.355 185.757C312.79 183.219 313.174 184.865 311.349 182.06C310.592 180.934 309.607 179.979 308.457 179.259C307.836 178.671 307.007 177.616 306.152 176.648C305.296 175.679 304.427 174.739 303.864 174.235C303.301 173.732 302.87 173.454 302.351 173.078C301.833 172.702 301.359 172.439 301.359 172.439L303.061 170.473C303.784 171.145 304.507 171.873 305.13 172.561C305.954 173.162 306.657 173.915 307.201 174.778C308.093 175.918 309.097 176.966 310.198 177.905C312.3 179.898 314.238 182.058 315.996 184.362C316.707 185.219 317.601 185.931 318.326 186.774C319.051 187.616 319.455 188.792 320.279 189.591C321.103 190.389 321.91 190.988 322.704 191.673L320.611 193.261Z" fill="#F1F2F2"/>
<path d="M335.201 217.595L333.726 214.442L333.376 213.964C333.158 213.668 332.852 213.232 332.516 212.724C331.743 211.547 331.115 210.28 330.647 208.951C329.674 206.118 329.689 207.842 328.442 204.713C327.975 203.423 327.193 202.27 326.167 201.36C325.19 199.952 323.67 196.657 322.711 195.477C322.115 194.703 320.611 193.232 320.611 193.232L322.733 191.686L324.282 194.139C325.002 194.87 325.543 195.758 325.861 196.735C326.463 198.057 327.234 199.294 328.156 200.415C329.048 201.662 329.863 202.961 330.597 204.307C331.316 205.62 332.062 206.847 332.521 207.936C332.98 209.026 333.733 209.825 334.304 210.756C334.874 211.687 335.051 212.924 335.636 213.897L337.557 216.444L335.201 217.595Z" fill="#F1F2F2"/>
<path d="M344.428 244.428L343.589 241.051C343.589 241.051 343.22 240.259 342.817 239.098C342.298 237.793 341.937 236.431 341.739 235.041C341.376 232.083 341.119 233.726 340.481 230.445C340.248 229.106 339.743 227.829 338.995 226.694C338.386 225.108 337.488 221.618 336.838 220.219C336.365 219.307 335.828 218.43 335.23 217.595L337.586 216.487C337.943 217.393 338.328 218.284 338.67 219.205C339.164 220.081 339.488 221.042 339.628 222.038C339.971 223.445 340.471 224.808 341.119 226.103C342.228 228.791 343.121 231.563 343.79 234.394C344.05 235.472 344.621 236.474 344.981 237.551C345.34 238.628 345.162 239.842 345.578 240.904L346.976 243.73L344.428 244.428Z" fill="#F1F2F2"/>
<path d="M347.845 272.614L347.701 269.14C347.701 269.14 347.502 268.288 347.354 267.08C347.147 265.666 347.075 264.236 347.139 262.808C347.388 259.826 346.76 261.39 346.903 258.039C346.936 256.675 346.681 255.32 346.153 254.062C345.968 252.369 345.694 248.769 345.399 247.278C345.291 246.795 345.066 246.072 344.857 245.463C344.647 244.854 344.426 244.359 344.426 244.359L346.962 243.775C347.162 244.726 347.264 245.707 347.393 246.617C347.717 247.587 347.845 248.612 347.771 249.632C347.83 251.069 348.03 252.498 348.369 253.896C348.635 255.317 348.876 256.951 349.043 258.445C349.21 259.938 349.22 261.377 349.269 262.559C349.317 263.741 349.69 264.775 349.766 265.899C349.842 267.024 349.477 268.184 349.667 269.306L350.444 272.414L347.845 272.614Z" fill="#F1F2F2"/>
<path d="M439.878 302.185C440.144 301.055 440.266 299.899 440.475 298.756C440.475 298.756 440.46 297.872 440.539 296.66C440.587 295.985 440.671 295.313 440.79 294.647C440.87 293.925 441.015 293.212 441.223 292.516C442.071 289.652 441.1 291.093 441.969 287.801C442.277 286.467 442.297 285.082 442.028 283.739C442.014 282.899 442.305 281.583 442.44 280.284C442.574 278.985 442.695 277.715 442.682 276.96C442.628 275.936 442.521 274.915 442.361 273.902L445.005 273.857L444.812 276.711C444.929 277.725 444.845 278.753 444.564 279.736C444.317 281.148 444.212 282.582 444.252 284.016C444.237 285.55 444.145 287.083 443.973 288.608C443.785 290.108 443.566 291.465 443.373 292.68C443.181 293.894 443.326 294.932 443.16 296.046C442.994 297.16 442.414 298.224 442.377 299.365C442.339 300.505 442.498 301.5 442.43 302.57L439.878 302.185Z" fill="#F1F2F2"/>
<path d="M431.56 329.313C432.011 328.251 432.52 327.202 432.928 326.112C432.928 326.112 433.084 325.24 433.406 324.067C433.781 322.713 434.302 321.404 434.961 320.165C436.339 317.534 435.137 318.737 436.621 315.691C437.25 314.476 437.574 313.125 437.565 311.757C437.779 310.927 438.241 309.679 438.676 308.446C439.051 307.396 439.366 306.325 439.617 305.239C439.8 304.295 439.907 302.184 439.907 302.184L442.461 302.683L441.699 305.546C441.599 306.545 441.312 307.517 440.851 308.41C440.252 309.735 439.84 311.138 439.627 312.577C439.454 313.306 439.281 314.008 439.081 314.809C438.881 315.61 438.622 316.242 438.378 316.987C437.89 318.42 437.387 319.753 437.021 320.857C436.656 321.96 436.432 323.032 436.08 324.093C435.728 325.153 434.919 326.079 434.71 327.179C434.501 328.28 434.304 329.267 434.094 330.325L431.56 329.313Z" fill="#F1F2F2"/>
<path d="M417.798 354.125L419.769 351.242L420.016 350.71L420.676 349.36C421.301 348.097 422.079 346.916 422.992 345.844C424.989 343.63 423.48 344.411 425.542 341.84C426.409 340.777 427.02 339.528 427.329 338.191C428.043 336.654 430.097 333.67 430.685 332.249C431.028 331.282 431.32 330.297 431.56 329.299L433.952 330.328L432.645 332.943C432.362 333.931 431.857 334.841 431.168 335.604C430.328 336.786 429.651 338.078 429.156 339.442C428.525 340.807 427.78 342.173 426.991 343.483C426.325 344.683 425.594 345.846 424.803 346.968C424.15 347.891 423.784 348.966 423.217 349.944C422.651 350.923 421.696 351.665 421.158 352.658L419.928 355.614L417.798 354.125Z" fill="#F1F2F2"/>
<path d="M399.199 375.555C400.067 374.771 400.864 373.931 401.69 373.133C402.093 372.558 402.525 372.004 402.984 371.473C403.888 370.417 404.886 369.447 405.965 368.573C408.338 366.766 406.769 367.348 409.322 365.196C410.363 364.312 411.203 363.214 411.785 361.977C412.916 360.704 415.389 358.084 416.307 356.886C416.881 356.029 417.379 355.124 417.798 354.182L419.928 355.685C419.329 356.45 418.745 357.229 418.103 357.967C417.587 358.852 416.905 359.628 416.094 360.252C415.06 361.268 414.126 362.381 413.305 363.576C412.387 364.774 411.383 365.988 410.392 367.131C409.402 368.273 408.337 369.217 407.497 370.029C406.657 370.841 406.105 371.834 405.351 372.63C404.596 373.426 403.467 373.958 402.757 374.839C402.046 375.721 401.606 376.64 400.967 377.506L399.199 375.555Z" fill="#F1F2F2"/>
<path d="M376.559 392.607C377.545 392.006 378.559 391.447 379.53 390.804C381.049 389.347 382.779 388.127 384.66 387.184C387.326 385.885 385.652 386.099 388.612 384.553C389.836 383.93 390.894 383.023 391.697 381.908C392.356 381.369 393.453 380.624 394.507 379.894C395.422 379.261 396.303 378.58 397.147 377.855C397.847 377.187 399.17 375.555 399.17 375.555L400.952 377.463L398.664 379.282C397.997 380.059 397.18 380.693 396.264 381.147C395.011 381.876 393.859 382.767 392.838 383.798C392.277 384.292 391.688 384.8 391.085 385.252C390.481 385.704 389.848 386.171 389.23 386.609C388.007 387.47 386.826 388.273 385.827 388.917C384.828 389.561 384.088 390.371 383.174 390.971C382.259 391.57 381.07 391.904 380.215 392.645L377.876 394.822L376.559 392.607Z" fill="#F1F2F2"/>
<path d="M350.89 404.579L354.155 403.412L354.663 403.133L356.002 402.441C357.238 401.777 358.553 401.276 359.917 400.95C362.85 400.317 361.141 400.146 364.353 399.208C365.67 398.853 366.889 398.204 367.92 397.31C369.413 396.487 372.82 395.261 374.116 394.47C374.962 393.886 375.777 393.259 376.559 392.591L377.905 394.834L375.311 396.188C374.5 396.813 373.559 397.247 372.559 397.46C371.184 397.93 369.879 398.585 368.68 399.406C367.355 400.112 365.859 400.779 364.547 401.399L362.556 402.259L360.732 402.917C359.672 403.291 358.744 403.948 357.713 404.393C356.682 404.837 355.474 404.858 354.458 405.359L351.727 407.03L350.89 404.579Z" fill="#F1F2F2"/>
<path d="M323.278 410.973L326.712 410.487C328.707 409.836 330.772 409.428 332.864 409.273C335.85 409.222 334.278 408.779 337.559 408.524C338.924 408.426 340.251 408.034 341.451 407.375C343.109 407.02 346.653 406.348 348.097 405.91C349.072 405.555 350.016 405.12 350.919 404.609L351.757 407.074C350.823 407.36 349.889 407.633 348.926 407.848C347.992 408.264 346.986 408.494 345.965 408.525C344.516 408.73 343.092 409.083 341.716 409.58C340.301 410.002 338.743 410.385 337.283 410.709C335.824 411.032 334.447 411.198 333.227 411.375C332.007 411.553 331.061 411.996 329.97 412.228C328.879 412.46 327.665 412.167 326.575 412.47L323.621 413.589L323.278 410.973Z" fill="#F1F2F2"/>
<path d="M294.941 411.448C296.08 411.557 297.247 411.595 298.4 411.675C298.4 411.675 299.266 411.561 300.489 411.526C301.888 411.485 303.289 411.567 304.674 411.769C307.599 412.318 306.092 411.517 309.429 412.017C310.782 412.186 312.156 412.07 313.462 411.678C315.168 411.65 318.769 411.803 320.274 411.635C320.757 411.627 321.508 411.415 322.131 411.276C322.755 411.137 323.278 410.972 323.278 410.972L323.621 413.588C322.64 413.604 321.673 413.621 320.693 413.723C319.696 413.932 318.668 413.949 317.665 413.773C316.244 413.654 314.815 413.678 313.399 413.845C311.908 413.956 310.33 414.054 308.823 414.05C307.315 414.047 305.891 413.929 304.709 413.849C303.527 413.769 302.48 414.057 301.355 414.005C300.231 413.953 299.114 413.487 297.977 413.549C296.84 413.611 295.863 413.884 294.813 414.001L294.941 411.448Z" fill="#F1F2F2"/>
<path d="M267.13 405.989C268.217 406.37 269.332 406.679 270.446 406.959C270.446 406.959 271.329 407.03 272.527 407.238C273.906 407.491 275.26 407.869 276.571 408.367C279.335 409.503 277.993 408.343 281.171 409.586C282.458 410.047 283.83 410.219 285.19 410.089C286.032 410.217 287.317 410.551 288.588 410.858C289.859 411.164 291.114 411.371 291.869 411.444C292.893 411.482 293.918 411.465 294.94 411.392L294.714 413.989L291.861 413.51C290.836 413.53 289.817 413.344 288.865 412.962C287.474 412.539 286.037 412.281 284.586 412.193C281.688 411.835 278.824 411.239 276.022 410.414C274.937 410.133 273.798 410.095 272.699 409.828C271.599 409.562 270.62 408.866 269.494 408.714C268.368 408.562 267.358 408.579 266.304 408.454L267.13 405.989Z" fill="#F1F2F2"/>
<path d="M241.057 394.885L244.1 396.572C244.1 396.572 244.944 396.815 246.089 397.266C247.401 397.754 248.645 398.408 249.791 399.213C252.252 400.91 251.219 399.545 254.094 401.335C255.236 402.096 256.548 402.564 257.914 402.695C259.502 403.267 262.675 405.037 264.147 405.44C265.144 405.689 266.154 405.886 267.172 406.031L266.403 408.523L263.669 407.486C262.662 407.307 261.708 406.904 260.876 406.307C259.616 405.593 258.268 405.045 256.866 404.679C255.401 404.193 253.966 403.617 252.571 402.956C251.209 402.323 249.905 401.733 248.871 401.152C247.837 400.571 246.781 400.332 245.763 399.879C244.746 399.426 243.891 398.485 242.889 398.132L239.844 397.185L241.057 394.885Z" fill="#F1F2F2"/>
<path d="M217.858 378.604L220.512 380.825C221.121 381.173 221.711 381.553 222.28 381.963C223.467 382.711 224.561 383.596 225.539 384.602C227.567 386.79 226.817 385.307 229.244 387.589C230.229 388.536 231.398 389.268 232.68 389.739C234.117 390.656 236.915 392.931 238.222 393.722C239.153 394.165 240.11 394.554 241.086 394.885L239.831 397.171L237.358 395.617C236.425 395.189 235.584 394.584 234.882 393.835C233.784 392.891 232.577 392.084 231.286 391.43C228.816 389.906 226.47 388.188 224.273 386.29C223.422 385.563 222.375 385.082 221.398 384.443C220.42 383.804 219.946 382.687 218.94 382.077L216.07 380.572L217.858 378.604Z" fill="#F1F2F2"/>
<path d="M198.55 357.812C199.22 358.755 199.932 359.669 200.674 360.626C201.18 361.067 201.663 361.534 202.12 362.027C203.091 363.04 203.966 364.142 204.735 365.317C206.299 367.855 205.916 366.209 207.741 369.014C208.494 370.144 209.48 371.099 210.633 371.815C211.254 372.403 212.083 373.458 212.938 374.427C213.793 375.395 214.663 376.335 215.226 376.839C215.789 377.342 216.22 377.62 216.739 377.996C217.257 378.372 217.731 378.635 217.731 378.635L216.014 380.602C215.306 379.93 214.654 379.2 213.96 378.513C213.136 377.912 212.433 377.16 211.889 376.297C211.001 375.153 209.996 374.105 208.892 373.169C206.79 371.176 204.852 369.017 203.094 366.712C202.383 365.855 201.489 365.143 200.764 364.301C200.039 363.458 199.635 362.282 198.811 361.484C197.987 360.685 197.18 360.086 196.386 359.401L198.55 357.812Z" fill="#F1F2F2"/>
<path d="M183.959 333.478L185.435 336.63L185.784 337.109C186.002 337.405 186.308 337.841 186.63 338.349C187.413 339.522 188.046 340.79 188.514 342.122C189.486 344.955 189.471 343.231 190.718 346.359C191.185 347.65 191.967 348.803 192.994 349.712C193.956 351.121 195.49 354.415 196.449 355.596C197.045 356.37 198.549 357.841 198.549 357.841L196.471 359.414L194.879 356.962C194.158 356.231 193.618 355.343 193.299 354.367C192.698 353.045 191.927 351.807 191.005 350.686C190.113 349.439 189.298 348.14 188.564 346.794C187.845 345.481 187.099 344.254 186.64 343.165C186.181 342.075 185.428 341.276 184.857 340.345C184.287 339.414 184.11 338.177 183.524 337.204L181.604 334.657L183.959 333.478Z" fill="#F1F2F2"/>
<path d="M174.733 306.645L175.572 310.022C175.858 310.66 176.111 311.312 176.331 311.976C176.86 313.278 177.227 314.641 177.423 316.033C177.786 318.991 178.042 317.348 178.681 320.628C178.913 321.968 179.419 323.245 180.166 324.379C180.776 325.965 181.674 329.455 182.323 330.855C182.796 331.767 183.334 332.643 183.932 333.478L181.575 334.587C181.218 333.681 180.834 332.79 180.491 331.869C179.992 330.995 179.666 330.033 179.533 329.035C179.19 327.629 178.69 326.265 178.043 324.971C176.933 322.283 176.04 319.511 175.372 316.68C175.112 315.602 174.54 314.599 174.181 313.523C173.821 312.446 174 311.232 173.584 310.17L172.114 307.345L174.733 306.645Z" fill="#F1F2F2"/>
<path d="M171.314 278.461L171.458 281.935C171.458 281.935 171.657 282.787 171.806 283.995C172.015 285.409 172.082 286.84 172.006 288.267C171.771 291.249 172.399 289.685 172.256 293.022C172.222 294.39 172.477 295.751 173.006 297.013C173.191 298.706 173.451 302.306 173.76 303.797C173.868 304.28 174.093 305.003 174.303 305.612C174.512 306.221 174.734 306.716 174.734 306.716L172.198 307.3C171.997 306.349 171.895 305.368 171.752 304.458C171.44 303.485 171.317 302.462 171.388 301.443C171.329 300.005 171.129 298.577 170.79 297.179C170.524 295.758 170.284 294.124 170.116 292.63C169.949 291.137 169.939 289.698 169.891 288.516C169.842 287.334 169.469 286.3 169.394 285.176C169.318 284.051 169.682 282.891 169.493 281.769L168.715 278.661L171.314 278.461Z" fill="#F1F2F2"/>
<path d="M173.784 250.177C173.519 251.307 173.396 252.464 173.187 253.593C173.187 253.593 173.202 254.476 173.123 255.703C173.133 256.301 173.003 257.001 172.887 257.716C172.793 258.435 172.648 259.147 172.454 259.846C171.591 262.711 172.577 261.269 171.708 264.547C171.398 265.881 171.373 267.265 171.634 268.609C171.648 269.464 171.357 270.78 171.237 272.078C171.117 273.377 170.982 274.647 170.98 275.403C171.037 276.427 171.149 277.448 171.316 278.461L168.714 278.504L168.892 275.58C168.774 274.565 168.858 273.537 169.14 272.555C169.393 271.143 169.497 269.709 169.452 268.275C169.467 266.745 169.56 265.217 169.731 263.697C169.92 262.268 170.152 260.84 170.345 259.625C170.538 258.411 170.307 257.375 170.544 256.259C170.782 255.144 171.29 254.081 171.342 252.94C171.394 251.799 171.206 250.791 171.288 249.735L173.784 250.177Z" fill="#F1F2F2"/>
<path d="M182.103 223.035C181.666 224.111 181.142 225.146 180.734 226.25C180.611 226.94 180.452 227.623 180.257 228.296C179.886 229.65 179.364 230.959 178.701 232.198C177.323 234.828 178.526 233.625 177.041 236.657C176.414 237.878 176.091 239.233 176.098 240.606C175.884 241.436 175.436 242.683 174.987 243.902C174.613 244.952 174.299 246.023 174.045 247.109C173.862 248.067 173.755 250.178 173.755 250.178L171.201 249.679L171.978 246.816C172.071 245.817 172.354 244.845 172.812 243.952C173.409 242.625 173.825 241.223 174.05 239.785C174.208 239.056 174.396 238.354 174.581 237.553C174.767 236.752 175.055 236.12 175.298 235.361C175.772 233.928 176.276 232.595 176.655 231.491C177.035 230.387 177.245 229.329 177.597 228.269C177.949 227.209 178.758 226.283 178.967 225.168C179.176 224.053 179.373 223.081 179.583 222.037L182.103 223.035Z" fill="#F1F2F2"/>
<path d="M195.865 198.222L193.908 201.105L193.661 201.651C193.482 201.982 193.248 202.456 192.987 203.002C192.383 204.258 191.619 205.43 190.713 206.488C188.703 208.716 190.225 207.921 188.15 210.507C187.275 211.563 186.666 212.814 186.376 214.156C185.662 215.692 183.608 218.677 183.02 220.083C182.651 220.987 182.131 223.033 182.131 223.033L179.739 222.019L180.974 219.348C181.256 218.359 181.761 217.449 182.451 216.687C183.289 215.503 183.965 214.212 184.463 212.849C185.093 211.413 185.839 210.104 186.627 208.794C187.302 207.6 188.037 206.441 188.83 205.323C189.469 204.4 189.849 203.311 190.402 202.347C190.954 201.383 192.037 200.638 192.505 199.69L193.735 196.734L195.865 198.222Z" fill="#F1F2F2"/>
<path d="M214.463 176.808C213.594 177.578 212.812 178.431 211.972 179.229C211.972 179.229 211.472 179.95 210.677 180.89C209.77 181.942 208.773 182.912 207.697 183.79C205.338 185.596 206.907 185.014 204.34 187.166C203.269 188.081 202.41 189.219 201.822 190.5C200.691 191.759 198.218 194.394 197.3 195.592C196.733 196.448 196.234 197.347 195.809 198.281L193.679 196.793C194.277 196.013 194.862 195.234 195.504 194.511C196.026 193.592 196.734 192.794 197.583 192.167C198.62 191.149 199.554 190.031 200.372 188.829C201.29 187.645 202.308 186.431 203.299 185.288C204.289 184.146 205.34 183.202 206.194 182.39C207.048 181.578 207.586 180.585 208.326 179.775C209.066 178.965 210.224 178.461 210.92 177.566C211.616 176.67 212.085 175.765 212.71 174.914L214.463 176.808Z" fill="#F1F2F2"/>
<path d="M237.103 159.741C236.118 160.356 235.103 160.915 234.147 161.543C232.623 163.006 230.889 164.231 229.002 165.178C226.336 166.477 228.011 166.263 225.05 167.809C223.826 168.432 222.769 169.339 221.966 170.455C221.32 170.993 220.224 171.738 219.155 172.468C218.235 173.094 217.354 173.775 216.515 174.507C215.797 175.238 215.116 176.006 214.478 176.807L212.696 174.899L214.984 173.08C215.654 172.307 216.47 171.673 217.385 171.216C218.638 170.486 219.789 169.595 220.81 168.565C221.371 168.071 221.96 167.562 222.564 167.11C223.168 166.658 223.8 166.206 224.418 165.768C225.641 164.893 226.837 164.103 227.821 163.459C228.806 162.816 229.575 162.005 230.475 161.391C231.375 160.778 232.578 160.473 233.433 159.732L235.786 157.555L237.103 159.741Z" fill="#F1F2F2"/>
<path d="M262.785 147.752L259.519 148.918L258.998 149.198L257.658 149.89C256.42 150.548 255.105 151.048 253.744 151.381C250.81 152 252.52 152.185 249.321 153.122C248.001 153.479 246.778 154.128 245.741 155.021C244.261 155.844 240.84 157.07 239.545 157.861C238.696 158.437 237.881 159.059 237.101 159.726L235.77 157.497L238.35 156.142C239.179 155.504 240.146 155.068 241.173 154.87C242.543 154.399 243.843 153.745 245.037 152.924C246.362 152.217 247.858 151.551 249.171 150.931L251.161 150.056L252.985 149.399C254.017 148.961 255.025 148.469 256.004 147.923C257.034 147.435 258.243 147.458 259.259 146.956L261.933 145.315L262.785 147.752Z" fill="#F1F2F2"/>
<path d="M290.398 141.374L286.964 141.874C284.965 142.524 282.894 142.932 280.798 143.089C277.812 143.139 279.384 143.583 276.103 143.838C274.741 143.941 273.416 144.328 272.211 144.972C270.553 145.342 267.023 146.014 265.566 146.508C264.59 146.862 263.646 147.297 262.744 147.81L261.934 145.316C262.868 145.043 263.802 144.771 264.765 144.556C265.7 144.141 266.705 143.912 267.726 143.879C269.174 143.669 270.597 143.315 271.975 142.824C273.391 142.401 274.949 142.019 276.408 141.681C277.867 141.343 279.244 141.206 280.479 141.028C281.713 140.851 282.63 140.408 283.721 140.161C284.861 140.142 285.999 140.066 287.131 139.933L290.141 138.828L290.398 141.374Z" fill="#F1F2F2"/>
<path d="M318.734 140.898C317.58 140.804 316.428 140.752 315.274 140.686C315.274 140.686 314.395 140.8 313.172 140.835C311.772 140.875 310.372 140.793 308.987 140.592C306.062 140.043 307.569 140.844 304.232 140.344C302.879 140.169 301.504 140.284 300.199 140.683C298.507 140.711 294.892 140.558 293.387 140.726C292.903 140.734 292.153 140.946 291.53 141.085C290.906 141.224 290.397 141.375 290.397 141.375L290.083 138.787C291.05 138.771 292.031 138.754 292.998 138.738C294 138.529 295.032 138.511 296.041 138.687C297.461 138.807 298.89 138.783 300.306 138.615C301.726 138.491 303.389 138.392 304.882 138.41C306.376 138.427 307.814 138.531 308.996 138.597C310.177 138.663 311.24 138.403 312.35 138.455C313.46 138.508 314.591 138.973 315.728 138.897C316.864 138.821 317.842 138.577 318.906 138.445L318.734 140.898Z" fill="#F1F2F2"/>
<path d="M346.547 146.345C345.446 145.964 344.331 145.641 343.217 145.36C343.217 145.36 342.334 145.304 341.136 145.096C339.757 144.843 338.403 144.466 337.092 143.967C334.342 142.831 335.67 143.991 332.492 142.748C331.207 142.278 329.833 142.107 328.473 142.246C327.632 142.117 326.346 141.783 325.075 141.476C323.804 141.17 322.549 140.963 321.808 140.89C320.784 140.854 319.759 140.871 318.737 140.942L318.964 138.345L321.816 138.838C322.837 138.818 323.851 139.005 324.798 139.386C326.191 139.802 327.627 140.06 329.078 140.155C331.976 140.51 334.841 141.105 337.641 141.935C338.712 142.202 339.851 142.254 340.95 142.506C342.05 142.758 343.043 143.468 344.155 143.621C345.267 143.773 346.291 143.77 347.345 143.88L346.547 146.345Z" fill="#F1F2F2"/>
<path d="M372.605 157.462L369.576 155.788C369.576 155.788 368.718 155.546 367.587 155.095C366.269 154.605 365.02 153.946 363.871 153.134C361.425 151.451 362.443 152.816 359.568 151.027C358.43 150.268 357.123 149.801 355.762 149.666C354.16 149.094 350.987 147.324 349.515 146.921C348.522 146.672 347.517 146.475 346.504 146.33L347.259 143.824L349.993 144.875C351.002 145.048 351.958 145.451 352.786 146.054C354.051 146.768 355.404 147.315 356.81 147.682C358.278 148.161 359.713 148.737 361.106 149.405C362.539 150.036 363.772 150.628 364.805 151.209C365.839 151.79 366.896 152.029 367.913 152.482C368.93 152.935 369.785 153.876 370.787 154.229L373.846 155.175L372.605 157.462Z" fill="#F1F2F2"/>
<path d="M395.805 173.757L393.15 171.522C392.54 171.182 391.949 170.807 391.382 170.398C390.198 169.642 389.105 168.752 388.123 167.745C386.095 165.557 386.846 167.054 384.418 164.773C383.439 163.819 382.268 163.086 380.983 162.622C379.545 161.705 376.748 159.43 375.454 158.639C374.522 158.195 373.565 157.802 372.59 157.462L373.86 155.189L376.333 156.744C377.259 157.175 378.095 157.78 378.795 158.526C379.896 159.465 381.103 160.272 382.391 160.931C384.866 162.455 387.215 164.173 389.418 166.071C390.269 166.797 391.301 167.279 392.222 167.919C393.143 168.559 393.674 169.675 394.68 170.285L397.55 171.79L395.805 173.757Z" fill="#F1F2F2"/>
<path d="M415.113 194.536C414.442 193.593 413.744 192.679 412.99 191.794C412.99 191.794 412.312 191.221 411.544 190.393C410.573 189.379 409.697 188.278 408.929 187.103C407.378 184.55 407.762 186.21 405.922 183.406C405.17 182.276 404.184 181.32 403.031 180.604C402.424 180.016 401.581 178.962 400.74 177.993C399.899 177.024 399.001 176.084 398.438 175.581C397.956 175.166 397.451 174.78 396.925 174.423C396.606 174.193 396.275 173.979 395.933 173.785L397.649 171.818C398.357 172.476 399.01 173.22 399.704 173.906C400.538 174.496 401.243 175.25 401.775 176.123C402.668 177.267 403.677 178.315 404.786 179.25C406.892 181.24 408.831 183.399 410.583 185.707C411.295 186.564 412.188 187.262 412.928 188.118C413.668 188.975 414.043 190.123 414.867 190.936C415.691 191.748 416.512 192.333 417.292 193.032L415.113 194.536Z" fill="#F1F2F2"/>
<path d="M429.702 218.87L428.227 215.732L427.892 215.253C427.659 214.943 427.368 214.521 427.032 213.999C426.247 212.833 425.619 211.569 425.162 210.24C424.19 207.407 424.191 209.131 422.943 206.003C422.476 204.708 421.694 203.551 420.668 202.635C419.706 201.227 418.185 197.932 417.213 196.766C416.617 195.992 415.113 194.507 415.113 194.507L417.191 192.948L418.797 195.4C419.511 196.133 420.047 197.021 420.362 197.995C420.964 199.32 421.74 200.558 422.671 201.676C423.558 202.922 424.368 204.222 425.098 205.568C425.831 206.88 426.563 208.108 427.022 209.197C427.481 210.287 428.248 211.086 428.805 212.017C429.361 212.948 429.552 214.185 430.137 215.144L432.058 217.705L429.702 218.87Z" fill="#F1F2F2"/>
<path d="M438.928 245.717L438.089 242.34C437.803 241.702 437.55 241.05 437.331 240.387C436.802 239.084 436.435 237.722 436.238 236.33C435.876 233.372 435.619 235.015 434.981 231.734C434.751 230.39 434.245 229.108 433.495 227.969C432.885 226.383 431.988 222.907 431.338 221.508C430.864 220.592 430.326 219.711 429.73 218.87L432.086 217.776C432.457 218.682 432.842 219.573 433.185 220.493C433.68 221.369 434.005 222.33 434.142 223.327C434.488 224.733 434.988 226.096 435.633 227.391C436.73 230.078 437.618 232.845 438.29 235.668C438.564 236.761 439.121 237.763 439.481 238.826C439.84 239.888 439.662 241.131 440.092 242.178L441.476 245.005L438.928 245.717Z" fill="#F1F2F2"/>
<path d="M442.361 273.901L442.203 270.427C442.203 270.427 442.003 269.561 441.855 268.353C441.658 266.967 441.591 265.565 441.657 264.167C441.905 261.184 441.263 262.748 441.406 259.397C441.44 258.029 441.185 256.668 440.656 255.406C440.471 253.713 440.211 250.113 439.902 248.636C439.757 248.016 439.576 247.405 439.359 246.807C439.15 246.198 438.929 245.717 438.929 245.717L441.465 245.133C441.665 246.084 441.767 247.066 441.911 247.975C442.229 248.946 442.353 249.971 442.274 250.99C442.34 252.427 442.54 253.855 442.872 255.255C443.152 256.675 443.379 258.31 443.56 259.803C443.742 261.296 443.738 262.735 443.772 263.917C443.806 265.099 444.193 266.133 444.283 267.243C444.372 268.353 443.98 269.542 444.169 270.65L444.961 273.772L442.361 273.901Z" fill="#F1F2F2"/>
<path d="M351.106 162.896C392.83 173.594 408.422 196.686 409.001 205.738C409.814 218.549 383.399 239.441 394.812 244.92C401.35 248.045 413.323 216.609 423.469 223.734C434.71 231.638 404.422 253.108 407.86 265.547C414.987 266.496 424.42 257.431 430.765 260.887C440.596 266.193 437.376 295.458 410.903 352.658C414.644 334.071 418.518 332.695 424.569 308.583C428.981 290.997 428.125 282.348 421.649 278.709C412.547 273.633 397.73 294.13 392.178 285.332C383.762 272.037 420.292 240.288 415.671 234.481C410.063 227.45 389.217 268.283 378.92 261.488C367.615 254.027 403.777 217.325 399.226 204.649C392.707 186.548 370.191 173.789 351.106 162.896Z" fill="#F1F2F2"/>
<path d="M85.3015 265.986C85.4978 256.415 86.4213 246.872 88.0641 237.442C88.3617 235.684 88.8268 233.738 90.347 232.801C90.9421 232.496 91.5933 232.316 92.2604 232.273C92.9274 232.23 93.5963 232.324 94.2255 232.55C98.041 233.626 100.854 236.813 104.397 238.592C107.939 240.37 113.435 239.865 114.308 235.96C114.539 234.666 114.393 233.333 113.888 232.12C112.274 227.473 108.713 223.771 106.563 219.419C104.413 215.066 104.053 208.831 108.014 205.9L123.463 217.923C124.65 219.017 126.09 219.796 127.654 220.19C131.019 220.732 133.995 217.518 134.664 214.173C135.333 210.827 134.549 207.378 134.393 203.975C133.725 193.869 138.108 183.878 144.822 176.313C151.536 168.748 160.377 163.37 169.58 159.211C182.881 153.185 197.106 149.462 211.65 148.201C220.782 147.421 230.688 147.881 238.005 153.343C245.322 158.806 248.031 171.072 241.251 177.199C237.046 180.889 230.895 181.306 225.525 179.971C220.155 178.637 215.258 175.869 210.144 173.69C193.401 166.704 173.146 167.444 158.026 177.487C142.906 187.531 134.22 207.255 138.911 224.831C139.79 228.093 140.758 232.352 137.945 234.209C135.132 236.066 131.792 233.7 129.366 231.503L112.333 215.788C111.657 221.271 116.228 225.811 120.176 229.691C124.124 233.572 128.043 239.078 125.881 244.172C124.363 247.76 120.098 249.599 116.225 249.294C112.347 248.746 108.7 247.125 105.693 244.612C103.503 242.967 101.124 241.069 98.4126 241.343C95.0761 241.684 93.043 245.109 91.7153 248.195C88.7594 255.099 86.6341 262.345 85.3015 265.986Z" fill="#F1F2F2"/>
<path d="M316.7 335.334C304.309 359.666 292.804 368.979 280.393 375.244C249.817 390.577 225.767 360.147 221.428 364.323C216.879 368.675 246.449 378.066 238.811 391.546C229.142 408.622 186.781 400.614 150.025 375.755C194.408 393.247 226.449 401.543 229.073 381.693C230.171 373.395 196.548 361.507 202.378 352.09C210.838 338.425 243.537 383.373 276.472 370.394C289.539 365.158 301.767 356.517 316.7 335.334Z" fill="#F1F2F2"/>
<path d="M263.098 167.211C312.175 180.45 329.632 228.147 328.003 230.241C327.682 230.645 310.607 235.193 306.118 216.089C300.249 191.01 285.423 181.313 263.098 167.211Z" fill="#F1F2F2"/>
<path d="M201.128 206.699C184.639 238.934 178.342 275.437 183.076 311.349C183.471 315.942 184.694 320.425 186.683 324.582C187.402 325.895 188.535 327.287 190.012 327.177C191.49 327.066 192.498 325.268 193.012 323.735C194.341 319.724 195.333 315.608 195.977 311.431C196.535 308.446 196.632 305.393 196.266 302.378C195.677 298.683 193.985 295.292 192.631 291.781C187.399 278.346 187.119 263.375 189.439 249.087C191.758 234.799 196.65 221.223 201.128 206.699Z" fill="#F1F2F2"/>
<path d="M386.625 118.425C384.195 125.418 384.096 133.012 386.343 140.066C388.591 147.121 393.063 153.253 399.088 157.543C406.025 161.946 414.084 164.25 422.297 164.177C434.732 164.37 446.918 160.679 457.163 153.616C449.672 160.639 442.68 168.565 438.887 178.147C435.095 187.73 434.974 199.159 440.538 207.786C445.852 215.933 455.512 220.359 465.134 221.622C474.755 222.885 484.529 221.381 494.118 219.866C476.932 219.585 463.118 237.059 462.938 254.289C462.759 271.52 472.938 287.364 485.649 298.949" stroke="#F1F2F2" stroke-width="0.9" stroke-miterlimit="10"/>
<path d="M43.7578 304.9C58.7483 344.735 85.6492 378.963 120.785 402.907" stroke="#F1F2F2" stroke-width="0.9" stroke-miterlimit="10"/>
<path d="M44.5923 390.923C66.6847 404.943 90.1302 416.698 114.574 426.01" stroke="#F1F2F2" stroke-width="0.9" stroke-miterlimit="10"/>
<path d="M6.24814 219.551C32.9379 207.703 59.7117 195.818 84.7125 180.717C88.429 178.474 92.6247 174.086 90.1388 170.517C89.1673 169.351 87.8448 168.531 86.369 168.181C79.9657 166.16 73.0752 166.623 66.3898 167.144C49.7526 168.439 33.2324 170.049 18.1181 167.719L101.084 152.173C107.069 151.051 113.563 149.646 117.423 144.984C120.053 141.779 121.023 137.552 121.888 133.487C123.723 124.157 126.102 114.941 129.013 105.889C130.575 110.779 129.991 115.932 130.622 120.972C131.254 126.012 133.55 131.438 138.396 133.059C140.715 133.701 143.171 133.651 145.462 132.913C154.317 130.596 160.801 123.217 166.717 116.223L220.892 51.9782" stroke="#F1F2F2" stroke-width="0.9" stroke-miterlimit="10"/>
</svg>
