<?xml version="1.0" encoding="UTF-8"?><svg xmlns="http://www.w3.org/2000/svg" viewBox="0 0 360 360"><defs><style>.q{fill:#edeeee;}.r{fill:#2d2d2d;}</style></defs><g id="a"/><g id="b"><g id="c"/><g id="d"/><g id="e"/><g id="f"/><g id="g"/><g id="h"/><g id="i"/><g id="j"/><g id="k"/></g><g id="l"/><g id="m"><g><circle class="r" cx="159.25" cy="69.41" r="17.45"/><path class="q" d="M161.55,84.21c-.49,.14-.73-.59-.26-.79,4.41-1.91,7.43-4.58,9.72-7.96,.89-1.31,2.84-3.72,3.95-3.12,1.17,.63-.05,3.01-3.26,6.31-2.35,2.43-6.4,4.49-10.15,5.56Z"/><path class="q" d="M171.76,57.77c-.57-.65-1.52-.83-2.37-.69-.85,.14-1.62,.56-2.39,.95-6.71,3.42-14.4,5.42-21.82,4.08-.47-.09-1-.22-1.23-.64,.26-.5,.97-.47,1.53-.4,3.99,.53,11.05,.63,16.61-4.31,2.03-1.8,.02-4.67-2.36-1.87-3.91,4.6-9.61,5.77-15.64,5.9-.21,.37-.4,.74-.59,1.12,.21,.34,.55,.62,.88,.85,2.42,1.63,5.49,1.87,8.41,1.87,5.17,0,10.36-.57,15.36-1.92,1.18-.32,2.41-.72,3.26-1.6,.85-.89,1.16-2.41,.35-3.33Z"/><path class="q" d="M175.09,64.12c-.04-.31-.08-.66,.1-.9,.07-.1,.19-.14,.28-.25-.15-.38-.32-.76-.5-1.13-4.66,4.09-9.62,8.09-15.54,9.91-4.14,1.27-8.52,1.4-12.82,1.86-1.25,.13-2.67,.4-3.34,1.46-.14,.22-.23,.45-.28,.7,.43,1.1,.97,2.15,1.61,3.13,1.32,.73,2.93,.65,4.42,.41,8.58-1.39,15.66-7.22,22.33-12.79,.46-.39,1.19-.76,1.6-.32,.15,.17,.2,.4,.19,.63-.02,.94-.74,1.7-1.44,2.33-5.67,5.19-12.27,9.35-19.4,12.22-.37,.15-.75,.3-1.01,.61-.26,.3-.33,.8-.05,1.08,.16,.15,.38,.21,.6,.25,1.97,.33,3.94-.44,5.74-1.3,4.61-2.2,8.89-5.1,12.65-8.56,2.68-2.47,5.27-5.72,4.85-9.34Z"/><path class="q" d="M163.47,65.78c-6.35,1.6-14.4,2.85-18.2,1.74-.92-.27-2.59-.74-3.38,.16-.06,.57-.09,1.15-.09,1.73,0,.05,0,.11,0,.16,.32,.47,.82,.82,1.18,1.02,1.79,.96,5.61,.57,7.63,.39,3.93-.35,9.18-2.06,13.32-3.82,.83-.35,.41-1.6-.46-1.38Z"/><path class="q" d="M159.25,51.96c-.34,0-.68,.01-1.02,.03-2.14,2.05-4.95,3.4-7.89,3.77-.66,.08-1.34,.12-1.98,.32-.24,.07-.48,.17-.7,.29-.55,.49-1.07,1.01-1.55,1.56v.02c-.02,.54,.71,.73,1.25,.73,1.44,.01,2.92,.02,4.29-.43,3.17-1.05,5.04-4.24,7.68-6.29-.03,0-.05,0-.08,0Z"/><path class="q" d="M165.45,78.9c-4.76,3.18-8.67,4.74-12.28,5.3-.59,.09-1.43,.27-2.27,.54,1.1,.6,2.27,1.08,3.49,1.44,3.19-1.13,7.54-3.82,11.2-6.68,.5-.39,.36-.94-.15-.6Z"/><path class="q" d="M168.12,54.38c-1.93,1.56-3.6,2.55-5.15,3.17-.77,.31-2.34,1.08-2.75,1.9-.43,.87,.77,.55,3.2-.84,1.41-.81,3.29-2.33,5.07-4.01-.12-.08-.25-.15-.37-.23Z"/><path class="r" d="M157.75,65.47c-5.15,.81-10.3,.23-15.03-1.65-.19,.55-.35,1.12-.48,1.7,4.43,2.26,10.52,1.35,15.38,.58,.7-.11,.83-.69,.13-.63Z"/></g></g><g id="n"/><g id="o"/><g id="p"/></svg>