<?xml version="1.0" encoding="UTF-8"?><svg xmlns="http://www.w3.org/2000/svg" viewBox="0 0 360 360"><defs><style>.q{fill:#edeeee;}.r{fill:#b9b9b9;}.s{fill:#2d2d2d;}</style></defs><g id="a"/><g id="b"><g id="c"/><g id="d"/><g id="e"/><g id="f"/><g id="g"/><g id="h"/><g id="i"/><g id="j"/><g id="k"/></g><g id="l"/><g id="m"><g><circle class="q" cx="201.15" cy="59.41" r="17.19"/><circle class="s" cx="201.59" cy="49.18" r="1.66"/><circle class="r" cx="207.41" cy="51.53" r="1.6"/><circle class="r" cx="201.57" cy="43.89" r="1.6"/><circle class="s" cx="199.73" cy="64.53" r="2.46"/><circle class="r" cx="205.96" cy="64.82" r="1.15"/><circle class="r" cx="201.7" cy="71.66" r="1.15"/><circle class="r" cx="204.21" cy="59.08" r="1.75"/><path class="r" d="M186.25,54.34c.96,0,1.75-.78,1.75-1.75s-.78-1.75-1.75-1.75c-.53,.91-.97,1.88-1.32,2.88,.32,.37,.79,.61,1.32,.61Z"/><circle class="r" cx="197.8" cy="52.59" r="3.14"/><circle class="r" cx="209.05" cy="58.12" r=".8"/><circle class="s" cx="208.25" cy="72.8" r=".8"/><circle class="s" cx="213.81" cy="55.77" r="2.12"/><circle class="r" cx="211.47" cy="67.8" r=".8"/><circle class="s" cx="214.78" cy="61.64" r=".97"/><circle class="r" cx="197.09" cy="72.52" r="2.64"/><path class="s" d="M204.21,72.77c-1.46,0-2.64,1.18-2.64,2.64,0,.42,.1,.82,.27,1.17,1.74-.07,3.42-.4,4.99-.95,0-.07,0-.15,0-.22,0-1.46-1.18-2.64-2.64-2.64Z"/><path class="r" d="M215.53,50c-.88-1.34-1.95-2.56-3.16-3.61-.15,.33-.23,.69-.23,1.07,0,1.46,1.18,2.64,2.64,2.64,.26,0,.51-.04,.75-.11Z"/><circle class="r" cx="205.96" cy="69.37" r="2.29"/><circle class="r" cx="190.84" cy="63.8" r="2.16"/><path class="s" d="M184.37,63.16s.09,0,.13,0c1.19,0,2.16-.97,2.16-2.16s-.97-2.16-2.16-2.16c-.18,0-.36,.03-.53,.07,0,.17,0,.33,0,.5,0,1.29,.14,2.54,.41,3.75Z"/><circle class="s" cx="188.7" cy="57.99" r="1.68"/><circle class="r" cx="191.7" cy="51.22" r="1.3"/><circle class="r" cx="195.34" cy="49.12" r=".67"/><circle class="s" cx="193.38" cy="46.43" r="1.07"/><circle class="r" cx="206.78" cy="47.47" r=".97"/><circle class="r" cx="198.24" cy="46.5" r=".97"/></g></g><g id="n"/><g id="o"/><g id="p"/></svg>