<?xml version="1.0" encoding="UTF-8"?><svg xmlns="http://www.w3.org/2000/svg" viewBox="0 0 360 360"><defs><style>.q{fill:#edeeee;}.r{fill:#b9b9b9;}</style></defs><g id="a"/><g id="b"><g id="c"/><g id="d"/><g id="e"/><g id="f"/><g id="g"/><g id="h"/><g id="i"/><g id="j"/><g id="k"/></g><g id="l"/><g id="m"><g><circle class="r" cx="153.5" cy="297.28" r="17.34"/><path class="q" d="M155.96,284.36c-.35-1.67,1.05-2.49,3.48-3.37-1.85-.67-3.85-1.04-5.94-1.04-.85,0-1.69,.06-2.51,.18-.6,.12-1.18,.24-1.72,.35l-.15,.03c-7.45,1.94-12.96,8.72-12.96,16.78,0,.21,0,.43,.01,.64,.1,0,.19-.14,.24-.49,1.42-8.82,10.37-14.34,14.45-12.48,3.56,1.61-1.29,2.22-7.53,8.32-2.17,2.12-3.38,6.84-2.44,9.45,1.35,3.74,7.21,3.57,7.56-5.86,.19-5.17,4.53-7.57,7.05-7.57,2.79,0,8.3,5.46,10.29,1.56,1.47-2.87-9.52-4.93-9.84-6.48Z"/><path class="q" d="M157.79,313.7c-1.06,.47-2.22,.7-3.37,.89,8.67-.45,15.66-7.27,16.36-15.87-.3-.55-.81-.98-1.43-1.02-1.27-.08-2.05,1.34-2.5,2.54l-1.97,5.3c-.37,1-.78,2.06-1.62,2.73-.15,.12-.32,.23-.51,.24-.57,.04-.82-.7-.83-1.27-.09-2.97,1.08-5.82,1.93-8.67,.29-.96,.54-1.95,.4-2.94-.13-.99-.74-1.97-1.7-2.27-1.08-.34-2.28,.32-2.87,1.28-.6,.96-.71,2.14-.69,3.27,.03,1.39,.23,2.78,.61,4.12,.23,.8,.52,1.6,.59,2.43,.08,.83-.1,1.73-.68,2.33-.58,.6-1.47,.79-2.3,.74-.83-.05-1.63-.33-2.43-.55-1.31-.36-2.69-.58-4.04-.38-1.35,.2-2.66,.88-3.42,2.01-.15,.23-.29,.49-.28,.77,0,.29,.18,.56,.37,.78,.87,.99,2.3,1.32,3.62,1.21,1.31-.11,2.56-.61,3.81-1.03,1.24-.42,2.5-.77,3.78-1.04,.62-.13,1.37-.21,1.79,.26,.37,.41,.3,1.06,.09,1.58-.48,1.19-1.55,2.06-2.72,2.58Z"/><path class="r" d="M143.23,294.32c-.35,.54-.58,1.15-.8,1.76-.38,1.08-.72,2.19-.81,3.33s.08,2.33,.66,3.32c.21,.35,.48,.68,.85,.85s.86,.12,1.12-.19c.21-.25,.24-.63,.15-.95s-.27-.6-.44-.89c-.6-1.01-1.04-2.13-1.19-3.3s0-2.39,.53-3.44c.11-.22,.24-.48-.08-.49Z"/><path class="r" d="M151.22,289.8c-.65-.23-1.72,.68-2.52,1.14s-1.53,1.15-1.74,2.05c-.1,.44-.07,.89-.03,1.34,.15,1.47,.51,2.93,.45,4.4-.02,.52-.1,1.05-.02,1.56,.14,0,.22-.16,.26-.29,.56-1.8,.12-3.79,.63-5.61,.42-1.49,1.73-3.04,2.65-3.72,.81-.6,.44-.83,.32-.87Z"/><path class="r" d="M156.76,285.63c-.5-.27-1.01-.54-1.38-.98s-.55-1.06-.32-1.58c.09-.19,.23-.35,.38-.51,.36-.37,.75-.71,1.17-1.01-.07-.12-.24-.11-.37-.09-.63,.09-1.26,.18-1.89,.28-.9,.13-1.82,.27-2.64,.67-.12,.06-.24,.12-.33,.23-.17,.2-.18,.51-.08,.75s.3,.43,.51,.6c1.42,1.14,3.39,1.34,4.89,2.36,.84,.57,1.5,1.37,2.27,2.03s1.76,1.19,2.77,1.05c.23-.03,.47-.11,.61-.3,.18-.25,.12-.61-.07-.86s-.47-.4-.74-.54c-1.56-.81-3.26-1.28-4.79-2.1Z"/><path class="r" d="M160.24,301.88c-.61-.02-.52-2.05-.6-3.1s0-2.13,.39-3.11c.19-.49,.47-.96,.88-1.3s.97-.5,1.48-.35c.05,.02,.1,.03,.15,.07,.15,.13,.09,.37,0,.55-.27,.45-.71,.76-1.09,1.13-1.35,1.31-1.8,3.43-1.2,5.21,.1,.29,.24,.91,0,.91Z"/><path class="r" d="M166.73,305.81c1.29-1.51,2.13-3.54,1.75-5.49-.07-.34-.17-.68-.12-1.02,.05-.34,.25-.66,.56-.8s.72-.08,.93,.19c.16,.2,.2,.47,.22,.73,.07,1.61-.68,3.14-1.46,4.55-.43,.77-.91,1.57-1.68,2.01-.11,.06-.37,.03-.19-.17Z"/><path class="r" d="M155.95,308.82c-1.69,.78-3.43,1.58-5.29,1.6-.7,.01-1.46-.12-1.92-.65-.18-.2-.3-.47-.28-.74s.2-.54,.47-.6c.22-.05,.44,.03,.64,.13,.48,.23,.92,.55,1.42,.73,.68,.24,1.44,.2,2.15,.04s1.38-.44,2.07-.66c.15-.05,.33-.09,.75,.15Z"/><path class="r" d="M150.63,308.44c.35,.5,1.24,.45,1.92,.42,.42-.02,.85-.1,1.14-.31s.39-.56,.14-.79c-.27-.25-.79-.28-1.25-.28-.43,0-.87,.03-1.27,.14s-.99,.4-.69,.83Z"/><path class="r" d="M139.55,289.11c1.54-2.47,3.94-4.26,6.28-5.99,.89-.66,1.82-1.33,2.92-1.52,.1-.02,.21-.03,.3,.02,.09,.04,.14,.13,.2,.21l1.1,1.68c.06,.09,.12,.18,.11,.29,0,.2-.25,.32-.45,.28s-.36-.17-.53-.27c-1.18-.74-2.73-.23-3.96,.44-2.21,1.21-4.17,2.88-5.97,4.88Z"/><path class="r" d="M161.42,304.87c.54-1.24,.65-3.72,1.19-5.28,.33-.94,.69-2.29,.64-2.39-.27-.46-1.88,.24-1.92,1.29-.01,.36,.12,1.39,.21,1.74,.37,1.48-.2,2.08-.69,3.78-.17,.58,.22,1.65,.57,.86Z"/></g></g><g id="n"/><g id="o"/><g id="p"/></svg>