<?xml version="1.0" encoding="UTF-8"?><svg xmlns="http://www.w3.org/2000/svg" viewBox="0 0 360 360"><defs><style>.q{fill:#b9b9b9;}.r{fill:#2d2d2d;}</style></defs><g id="a"/><g id="b"><g id="c"/><g id="d"/><g id="e"/><g id="f"/><g id="g"/><g id="h"/><g id="i"/><g id="j"/><g id="k"/></g><g id="l"/><g id="m"><g><circle class="q" cx="146.28" cy="59.24" r="20.03"/><g><path class="r" d="M158.89,45.47c-1.34-1.01-.67,1.42-2.65,.25s-3.07-4.59-4.34-5c-2.98-.96-.57,1.02-1.45,1.31-1.59,.51-6.14-2.56-6.72-.24-.44,1.75,4.78,1.34,7.23,2.12s3.91,2.75,2.82,3.64c-1.63,1.31-4.2,1.74-3.61,3.52,.75,2.22,4.65,.75,6.25,3.4,.89,1.46,.67,4.57,.54,7.31s-.12,4.99,1.5,4.85c.84-.07,2.24-1.34,1.93-4.63-.27-2.9-1.56-6.1-.36-7.12,1.04-.88,1.95,2.17,2.48,3.58,1.35,3.6,2.39-1.05,1.17-3.48-.58-1.16-2.09-2.83-2.65-4.04-.98-2.14-.55-4.24-2.15-5.46Z"/><path class="r" d="M148.45,77.94c-3.49,.33-8.12-.21-10.08-3.59,2.85-.89,8.37,3.74,8.01,0-.36-2.67-5.34-2.67-8.37-2.67-.36,0-.89-.18-1.25-.53-1.25-1.42-1.07-3.56-2.67-4.81-1.6-1.07-2.67-2.49-3.2-4.1-.89-2.49,0-7.3,3.03-6.41,3.74,1.07,2.31,6.23,3.56,9.44,.53,1.25,1.42,3.03,2.85,2.49,3.92-1.42,7.12-7.83,11.93-5.52,.89,.36,.89,1.78,.18,2.85-1.25,1.6-2.85,2.14-4.63,2.85-1.07,.53-1.25,1.96,0,2.31,3.38,.71,6.59-.89,9.61,.89,.53,.18,.71,1.07,.36,1.78-1.78,3.2-4.45,.89-7.12,.89-.71,.18-1.78,.36-2.14,1.25,0,.53,.71,.53,1.07,.71,.89,.18,2.31-.18,2.85,.71,0,.18-.18,.53-.34,.68-.44,.44-1.04,.52-3.65,.77Z"/><path class="r" d="M127.25,61.36c.61,2.48,1.5,6.58,4.52,6.93-.89-4.99-6.05-10.33-1.6-15.13,1.96-1.96,4.81-.53,6.77,.89,4.45,3.56,13.89,9.79,16.02,3.03,.53-2.14-5.16-1.25-7.3-3.56-.53-.71-1.25-1.6-.71-2.49,1.42-2.31,5.34-.89,6.23-3.38,.53-1.42-1.6-2.14-2.85-1.78-3.38,1.25-6.23,3.03-9.61,.36-.36-.18-.89,.18-1.07,.53-.18,1.42,.36,3.2-1.07,4.1-.71,.18-1.42,.18-2.14-.18-2.67-1.6-1.07-4.27-.18-6.41-3.92,2.49-6.05,6.77-6.96,11.28-.39,2.11-.39,4.05-.06,5.82Z"/><path class="r" d="M162.89,66.67c.58-2.29,1.11-5.86-1.2-7.46-.89,3.38,1.42,8.19-3.2,9.97-1.42,.36,.71,.89,.89,1.42,.18,.71-.89,1.42-.89,2.31,.36-.36,.71-.36,1.04-.77,1.13-1.04,2.35-2.44,3.36-5.49Z"/></g></g></g><g id="n"/><g id="o"/><g id="p"/></svg>