<?xml version="1.0" encoding="UTF-8"?><svg xmlns="http://www.w3.org/2000/svg" viewBox="0 0 360 360"><defs><style>.q{fill:#edeeee;}.r{fill:#b9b9b9;}.s{fill:#2d2d2d;}</style></defs><g id="a"/><g id="b"><g id="c"/><g id="d"/><g id="e"/><g id="f"/><g id="g"/><g id="h"/><g id="i"/><g id="j"/><g id="k"/></g><g id="l"/><g id="m"><g><circle class="r" cx="233.8" cy="274.9" r="16.17"/><g><ellipse class="s" cx="224.45" cy="273.72" rx="8.21" ry="5.88" transform="translate(-89.34 437.52) rotate(-78.21)"/><ellipse class="q" cx="223.48" cy="273.51" rx="6.41" ry="4.59" transform="translate(-89.92 436.4) rotate(-78.21)"/><ellipse class="r" cx="223.22" cy="273.51" rx="4.76" ry="3.41" transform="translate(-90.13 436.15) rotate(-78.21)"/><ellipse class="s" cx="224.45" cy="273.72" rx="2.42" ry="1.73" transform="translate(-89.34 437.52) rotate(-78.21)"/></g><ellipse class="s" cx="238.02" cy="269.41" rx="6.44" ry="8.5" transform="translate(-118.13 220.49) rotate(-40.72)"/><ellipse class="r" cx="237.75" cy="269.65" rx="5.01" ry="6.21" transform="translate(-118.35 220.37) rotate(-40.72)"/><ellipse class="q" cx="236.86" cy="270.41" rx="3.58" ry="4.44" transform="translate(-119.06 219.98) rotate(-40.72)"/><ellipse class="s" cx="236.17" cy="271" rx="2.13" ry="2.94" transform="translate(-119.62 219.67) rotate(-40.72)"/><g><ellipse class="s" cx="232.96" cy="282.84" rx="7.26" ry="3.91" transform="translate(-79.93 92.14) rotate(-19.16)"/><ellipse class="r" cx="232.86" cy="282.55" rx="5.31" ry="3.27" transform="translate(-79.84 92.09) rotate(-19.16)"/><ellipse class="q" cx="232.54" cy="281.61" rx="3.81" ry="2.06" transform="translate(-79.55 91.93) rotate(-19.16)"/><ellipse class="s" cx="232.37" cy="281.15" rx="2.43" ry="1.31" transform="translate(-79.41 91.85) rotate(-19.16)"/></g><g><ellipse class="s" cx="244.22" cy="280.92" rx="5.24" ry="3.23" transform="translate(-112.57 387.01) rotate(-65.56)"/><ellipse class="q" cx="244.55" cy="281.07" rx="4.09" ry="2.53" transform="translate(-112.52 387.4) rotate(-65.56)"/><ellipse class="r" cx="244.64" cy="281.11" rx="3.04" ry="1.87" transform="translate(-112.5 387.5) rotate(-65.56)"/><ellipse class="s" cx="244.06" cy="280.92" rx="1.54" ry=".95" transform="translate(-112.67 386.86) rotate(-65.56)"/></g></g></g><g id="n"/><g id="o"/><g id="p"/></svg>