<?xml version="1.0" encoding="UTF-8"?><svg xmlns="http://www.w3.org/2000/svg" viewBox="0 0 360 360"><defs><style>.q{fill:#edeeee;}.r{fill:#b9b9b9;}</style></defs><g id="a"/><g id="b"><g id="c"/><g id="d"/><g id="e"/><g id="f"/><g id="g"/><g id="h"/><g id="i"/><g id="j"/><g id="k"/></g><g id="l"/><g id="m"><g><circle class="q" cx="78.98" cy="283.34" r="17.11"/><path class="r" d="M75.6,267.85c-5.73,1.06-10.46,6.18-11.06,11.98-.11,1.01-.09,2.07,.33,3,.25,.55,.74,1.08,1.33,1.03,.23-.02,.45-.13,.64-.27,1.83-1.24,1.77-3.92,2.74-5.91,.79-1.61,2.28-2.77,3.8-3.72,.51-.32,1.08-.63,1.68-.55,.71,.09,1.25,.71,1.95,.87,1,.23,1.92-.53,2.8-1.06,1.85-1.14,4.2-1.42,6.26-.76,.71,.23,1.45,.65,1.63,1.37,.16,.66-.24,1.35-.79,1.75s-1.22,.57-1.88,.75c-4.84,1.34-9.52,3.79-12.66,7.71-.47,.58-.92,1.31-.73,2.03,.14,.51,.58,.9,1.07,1.11,1.4,.6,3.03,0,4.32-.83s2.48-1.87,3.96-2.25c1.18-.3,2.43-.14,3.64,.05,.72,.12,1.45,.25,2.08,.63s1.11,1.06,1.07,1.78c-.06,.92-.91,1.57-1.72,2-3.54,1.9-7.77,2.25-11.3,4.17-.41,.23-.83,.49-1.1,.87s-.36,.94-.1,1.33c.36,.56,1.34,.82,1.2,1.48-.11,.48-.8,.65-.88,1.14-.05,.29,.16,.55,.37,.75,1.47,1.38,3.92,1.33,5.61,.23s2.7-3.02,3.15-4.99c.14-.6,.24-1.23,.61-1.73,.5-.68,1.42-.94,2.26-.86s1.62,.45,2.36,.85c.53,.28,1.16,.59,1.71,.33,.25-.12,.44-.34,.61-.56l1.7-2.1c.58-.72,1.2-1.57,1.03-2.48-.14-.77-.83-1.33-1.55-1.63-.48-.2-1.04-.35-1.32-.79-.49-.78,.24-1.82,.01-2.72-.2-.79-1.1-1.21-1.91-1.19s-1.57,.36-2.35,.59c-1.03,.31-2.12,.42-3.2,.34-.15-.01-.3-.03-.41-.13-.29-.26,0-.73,.3-.99,.86-.74,1.81-1.43,2.91-1.71s2.38-.09,3.16,.74c.4,.43,.86,1.07,1.41,.86,.19-.07,.33-.23,.44-.41,.35-.56,.42-1.28,.2-1.9-.15-.43-.43-.92-.16-1.28,.21-.27,.63-.29,.85-.56,.29-.34,.07-.87-.19-1.24-1.07-1.48-2.74-2.52-4.55-2.8-.22-.04-.47-.07-.63-.23-.17-.17-.2-.42-.26-.65-.39-1.53-2.18-2.25-3.77-2.35s-3.22,.2-4.72-.31c-.15-.05-.32-.14-1.94-.81Z"/><path class="r" d="M65.62,290.66c-2-2.2-2.74-5.46-1.89-8.31,.22,1.51,.58,2.99,1.08,4.43,.15,.43,.33,.88,.71,1.15s1,.21,1.18-.2c.08-.18,.06-.38,.09-.58,.16-1.38,2.16-2.2,1.89-3.56,1.42-.63,2.42-2.11,2.47-3.67,.01-.42-.03-.86,.16-1.24,.17-.33,.49-.55,.8-.75,1.79-1.13,4.17-2.01,5.93-.83l-4.05,2.39c-.38,.22-.78,.47-.98,.86-.17,.33-.17,.72-.27,1.09-.22,.82-.92,1.41-1.52,2.02-.68,.69-1.28,1.45-1.78,2.28-.45,.74-.83,1.58-.74,2.44s.8,1.71,1.66,1.67,1.47-1.29,.81-1.85c.62-.25,1.4-.04,1.82,.47s.48,1.31,.11,1.88c1.01,.65,2.58,.03,2.87-1.14,.08-.34,.08-.72,.24-1.03,.26-.48,.86-.66,1.4-.76,1.57-.29,3.18-.3,4.75-.04,.2,.03,.42,.08,.53,.25,.24,.36-.2,.78-.59,.98l-4.18,2.2c-1.32,.7-2.71,1.41-4.21,1.38-.81-.01-1.82-.15-2.23,.55-.59,1.02,.99,2.48,.21,3.37-.43,.49-1.24,.31-1.82,.01-2.02-1.04-2.73-3.53-4.49-5.47Z"/><path class="r" d="M81.93,298.48c.44-.33,1.11-.17,1.56-.48,.65-.44,.44-1.42,.48-2.21,.04-1,.65-1.96,1.53-2.43,.14-.07,.3-.14,.45-.08,.11,.04,.19,.15,.24,.25,.27,.49,.29,1.13,.72,1.48,.42,.34,1.07,.23,1.51-.09s.74-.79,1.07-1.22c.6-.78,1.37-1.44,2.22-1.92,.16-.09,.33-.17,.51-.14,.3,.06,.43,.44,.34,.72s-.34,.49-.58,.67c-.84,.62-1.76,1.12-2.74,1.47-.38,.14-.77,.26-1.08,.52s-.51,.69-.36,1.07c.06,.16,.19,.33,.14,.5-.03,.1-.13,.17-.23,.23-.68,.36-1.55,.26-2.2,.66-.35,.22-.61,.57-.94,.82-.82,.6-2.1,.44-2.63,.18Z"/><path class="r" d="M92.81,277.9c-.34,.45-.68,.93-.79,1.48s.12,1.22,.65,1.42c.29,.12,.67,.1,.86,.35-.45,.69-1.49,.97-1.67,1.77-.17,.73,.58,1.42,1.32,1.46,.31,.02,.69-.1,.76-.41,.03-.14-.01-.28-.06-.42l-.44-1.35c.6-.14,1.27,.25,1.45,.83,.27,.87-.45,1.71-.73,2.58-.17,.54-.17,1.15,0,1.69,.82-1.24,1.13-2.81,.83-4.26-.09-.43-.22-.85-.24-1.29-.02-.37,.05-.73,.04-1.1-.02-.66-.3-1.28-.57-1.88l-.99-2.17c-.05-.11,.49,.05-.43,1.29Z"/></g></g><g id="n"/><g id="o"/><g id="p"/></svg>