<svg xmlns="http://www.w3.org/2000/svg" viewBox="0 0 569.59 101.34"><defs><style>.cls-1{fill:#edeeee;}</style></defs><g id="Layer_2" data-name="Layer 2"><g id="Layer_1-2" data-name="Layer 1"><path class="cls-1" d="M193.4,56.05V12.2h18.46V58.62c0,20.13-11.79,32.18-33.72,32.18s-34.23-12-34.23-32.18V12.2h18.46V55.93c0,9.74,3.85,17.43,15.77,17.43S193.4,65.67,193.4,56.05Z"/><path class="cls-1" d="M238.15,65.93v23.2H219.68V12.2h30.77c20,0,29.88,9.11,29.88,26.8,0,15-10.51,26.93-29.23,26.93Zm0-37.31v20.9H249c8,0,12.06-3.34,12.06-10.52s-3.85-10.38-12.31-10.38Z"/><path class="cls-1" d="M281.87,64.39,300,60.8C301.74,70,308.66,75,318.28,75c7.69,0,12.05-2.69,12.05-7.56s-4-7.44-17.69-9.49c-21.29-3.21-28.08-12-28.08-24.24,0-14.48,10.38-23.33,30.52-23.33,21.15,0,29.87,10.9,32.56,24.74l-18.2,3.72c-2.18-8.72-6.16-12.95-15.39-12.95-7.18,0-10.77,2.95-10.77,7.44,0,4,2.05,7,18.21,9.49,21.92,3.46,27.69,13.08,27.69,24,0,14.62-9.87,24.11-32.18,24.11C292.12,90.8,283.66,78.36,281.87,64.39Z"/><path class="cls-1" d="M404.7,89.13V59.26H372.77V89.13H354.31V12.2h18.46V41.69H404.7V12.2h18.46V89.13Z"/><path class="cls-1" d="M428.29,50.41c0-23.21,15.51-40,39.75-40s39.62,16.79,39.62,40S493,90.93,468,90.93,428.29,73.62,428.29,50.41Zm61-.13c0-12.69-7.18-23.2-21.28-23.2s-21.29,10.51-21.29,23.2c0,14.49,7.06,24.11,21.29,24.11S489.32,64.77,489.32,50.28Z"/><path class="cls-1" d="M506.89,12.2h62.7V29.64H547.53V89.13H529.07V29.64H506.89Z"/><path class="cls-1" d="M101.23,47.38A50.86,50.86,0,0,0,54,.1C17.62-2.19-11.13,33.84,4.23,71.66A46.36,46.36,0,0,0,29.68,97.11C67.5,112.47,103.53,83.72,101.23,47.38Zm-22,10.31c0,16-9.4,25.66-26.88,25.66a34.5,34.5,0,0,1-13.62-2.5C47.56,77,52.18,68.94,52.18,57.69V53a1,1,0,0,0-1-1H25.09V20.68H29a17.17,17.17,0,0,0,5.81,6.45h0a17.48,17.48,0,0,1,7.92-6.51l.18.07a17.23,17.23,0,0,0,5.81,6.44h0a17.49,17.49,0,0,1,7.38-6.26,31.81,31.81,0,0,1,9.52,2.31C56.81,27,52.18,35.09,52.18,46.34v4.18a1.5,1.5,0,0,0,1.5,1.5H79.27Z"/></g></g></svg>