<?xml version="1.0" encoding="UTF-8"?><svg xmlns="http://www.w3.org/2000/svg" viewBox="0 0 360 360"><defs><style>.q{fill:#edeeee;}</style></defs><g id="a"/><g id="b"><g id="c"/><g id="d"/><g id="e"/><g id="f"/><g id="g"/><g id="h"/><g id="i"/><g id="j"/><g id="k"/></g><g id="l"><path class="q" d="M110.59,25.61c-.62,4.54-1.17,6.56,.03,7.8,1.46,1.5,4.79,.07,8.64-1.08-4.28,2.11-7.08,2.83-7.48,4.58s1.46,4.76,2.5,7.83c-1.36-2.6-3.38-6.13-5.49-6.33s-6.08,3.73-7.86,4.96c1.84-1.9,5.29-4.75,4.69-7.5-.51-2.32-2.46-2.09-5.19-4.38,2.43,1.14,5.39,2.87,6.81,2.09,1.61-.88,2.22-3.97,3.36-7.98Z"/><path class="q" d="M190.17,258.42c-.62,4.54-1.17,6.56,.03,7.8,1.46,1.5,4.79,.07,8.64-1.08-4.28,2.11-7.08,2.83-7.48,4.58s1.46,4.76,2.5,7.83c-1.36-2.6-3.38-6.13-5.49-6.33s-6.08,3.73-7.86,4.96c1.84-1.9,5.29-4.75,4.69-7.5-.51-2.32-2.46-2.09-5.19-4.38,2.43,1.14,5.39,2.87,6.81,2.09,1.61-.88,2.22-3.97,3.36-7.98Z"/><path class="q" d="M274.2,115.1c-1.13,8.2-2.12,11.83,.05,14.07,2.64,2.72,8.65,.13,15.59-1.96-7.73,3.81-12.77,5.11-13.5,8.27s2.63,8.59,4.51,14.14c-2.46-4.7-6.09-11.07-9.92-11.42s-10.98,6.74-14.2,8.96c3.31-3.43,9.55-8.57,8.46-13.53-.92-4.18-4.45-3.78-9.36-7.91,4.38,2.06,9.74,5.17,12.3,3.78,2.9-1.58,4.02-7.17,6.06-14.4Z"/><circle class="q" cx="312.1" cy="100.59" r="3.8"/><circle class="q" cx="233.12" cy="45.61" r="3.8"/><circle class="q" cx="92.57" cy="218.68" r="3.8"/></g><g id="m"/><g id="n"/><g id="o"/><g id="p"/></svg>