<?xml version="1.0" encoding="UTF-8"?><svg xmlns="http://www.w3.org/2000/svg" viewBox="0 0 360 360"><defs><style>.q{fill:#edeeee;}</style></defs><g id="a"/><g id="b"><g id="c"/><g id="d"/><g id="e"/><g id="f"/><g id="g"/><g id="h"/><g id="i"/><g id="j"/><g id="k"/></g><g id="l"><path class="q" d="M41.39,115.18c-2.35-3.94-3.18-5.85-4.9-6.07-2.08-.26-3.78,2.94-6.06,6.25,2.02-4.32,3.75-6.63,2.97-8.25s-4.11-2.8-6.85-4.55c2.69,1.18,6.47,2.68,8.24,1.5s2.41-6.72,3.03-8.79c-.25,2.63-1.16,7.01,1.03,8.78,1.85,1.49,3.23,.09,6.79,.18-2.61,.62-6,1.14-6.62,2.63-.71,1.69,.75,4.49,2.37,8.32Z"/><path class="q" d="M277.88,134.85c-2.35-3.94-3.18-5.85-4.9-6.07-2.08-.26-3.78,2.94-6.06,6.25,2.02-4.32,3.75-6.63,2.97-8.25s-4.11-2.8-6.85-4.55c2.69,1.18,6.47,2.68,8.24,1.5s2.41-6.72,3.03-8.79c-.25,2.63-1.16,7.01,1.03,8.78,1.85,1.49,3.23,.09,6.79,.18-2.61,.62-6,1.14-6.62,2.63-.71,1.69,.75,4.49,2.37,8.32Z"/><path class="q" d="M299.04,261.15c-4.25-7.11-5.74-10.56-8.84-10.95-3.76-.47-6.83,5.31-10.95,11.28,3.65-7.81,6.78-11.97,5.37-14.89s-7.42-5.05-12.37-8.22c4.86,2.13,11.68,4.83,14.88,2.71s4.36-12.13,5.48-15.87c-.44,4.75-2.09,12.66,1.86,15.85,3.33,2.69,5.83,.17,12.25,.32-4.71,1.13-10.83,2.05-11.96,4.74-1.28,3.05,1.35,8.1,4.27,15.03Z"/><circle class="q" cx="153.7" cy="316.6" r="3.8"/><circle class="q" cx="144.28" cy="86.53" r="3.8"/><circle class="q" cx="232.21" cy="288.79" r="3.8"/><circle class="q" cx="205" cy="52.12" r="3.8"/></g><g id="m"/><g id="n"/><g id="o"/><g id="p"/></svg>