<?xml version="1.0" encoding="UTF-8"?><svg xmlns="http://www.w3.org/2000/svg" viewBox="0 0 360 360"><defs><style>.q{fill:#edeeee;}</style></defs><g id="a"/><g id="b"><g id="c"/><g id="d"/><g id="e"/><g id="f"/><g id="g"/><g id="h"/><g id="i"/><g id="j"/><g id="k"/></g><g id="l"><path class="q" d="M150.71,47.57c-2.9,3.55-4.42,4.98-4.04,6.67,.46,2.05,4.05,2.56,7.94,3.58-4.75-.43-7.51-1.27-8.77,.01s-1.23,4.82-1.95,7.99c.19-2.93,.32-6.99-1.39-8.26s-7.14,.02-9.3,.14c2.56-.66,6.99-1.3,7.91-3.95,.77-2.24-1.01-3.07-2.14-6.44,1.47,2.24,3.11,5.26,4.72,5.34,1.83,.09,3.97-2.23,7.02-5.06Z"/><path class="q" d="M237.71,254.23c-2.9,3.55-4.42,4.98-4.04,6.67,.46,2.05,4.05,2.56,7.94,3.58-4.75-.43-7.51-1.27-8.77,.01-1.25,1.28-1.23,4.82-1.95,7.99,.19-2.93,.32-6.99-1.39-8.26s-7.14,.02-9.3,.14c2.56-.66,6.99-1.3,7.91-3.95,.77-2.24-1.01-3.07-2.14-6.44,1.47,2.24,3.11,5.26,4.72,5.34,1.83,.09,3.97-2.23,7.02-5.06Z"/><path class="q" d="M292.76,149.79c-5.24,6.41-7.98,8.99-7.29,12.04,.84,3.69,7.32,4.62,14.33,6.46-8.58-.78-13.56-2.3-15.83,.02s-2.23,8.7-3.52,14.42c.35-5.29,.57-12.63-2.51-14.92-2.95-2.19-12.89,.03-16.78,.25,4.62-1.2,12.62-2.34,14.27-7.14,1.4-4.05-1.83-5.54-3.87-11.63,2.66,4.04,5.61,9.49,8.53,9.63,3.3,.16,7.16-4.02,12.67-9.13Z"/><circle class="q" cx="303.87" cy="199.1" r="3.8"/><circle class="q" cx="297.37" cy="130.69" r="3.8"/><circle class="q" cx="60.16" cy="198.12" r="3.8"/><circle class="q" cx="245.05" cy="285.22" r="2.37"/><circle class="q" cx="84.58" cy="140.73" r="2.37"/></g><g id="m"/><g id="n"/><g id="o"/><g id="p"/></svg>