<?xml version="1.0" encoding="UTF-8"?><svg xmlns="http://www.w3.org/2000/svg" viewBox="0 0 360 360"><defs><style>.q{fill:#edeeee;}</style></defs><g id="a"/><g id="b"><g id="c"/><g id="d"/><g id="e"/><g id="f"/><g id="g"/><g id="h"/><g id="i"/><g id="j"/><g id="k"/></g><g id="l"><path class="q" d="M266.65,102.65c-4.58-.28-6.63-.67-7.77,.63-1.39,1.57,.3,4.78,1.74,8.53-2.43-4.11-3.36-6.84-5.14-7.11s-4.63,1.82-7.62,3.09c2.49-1.56,5.86-3.83,5.89-5.96s-4.19-5.78-5.55-7.46c2.03,1.69,5.14,4.91,7.83,4.1,2.27-.69,1.9-2.62,3.97-5.51-.95,2.51-2.44,5.6-1.57,6.95,1,1.54,4.13,1.92,8.21,2.74Z"/><path class="q" d="M206.75,298.14c-4.58-.28-6.63-.67-7.77,.63-1.39,1.57,.3,4.78,1.74,8.53-2.43-4.11-3.36-6.84-5.14-7.11s-4.63,1.82-7.62,3.09c2.49-1.56,5.86-3.83,5.89-5.96s-4.19-5.78-5.55-7.46c2.03,1.69,5.14,4.91,7.83,4.1,2.27-.69,1.9-2.62,3.97-5.51-.95,2.51-2.44,5.6-1.57,6.95,1,1.54,4.13,1.92,8.21,2.74Z"/><path class="q" d="M144.16,279.3c-4.58-.28-6.63-.67-7.77,.63-1.39,1.57,.3,4.78,1.74,8.53-2.43-4.11-3.36-6.84-5.14-7.11s-4.63,1.82-7.62,3.09c2.49-1.56,5.86-3.83,5.89-5.96s-4.19-5.78-5.55-7.46c2.03,1.69,5.14,4.91,7.83,4.1,2.27-.69,1.9-2.62,3.97-5.51-.95,2.51-2.44,5.6-1.57,6.95,1,1.54,4.13,1.92,8.21,2.74Z"/><path class="q" d="M307.62,235.43c-8.26-.5-11.96-1.21-14.03,1.13-2.51,2.84,.54,8.63,3.14,15.4-4.39-7.42-6.07-12.35-9.27-12.83s-8.36,3.28-13.76,5.58c4.5-2.81,10.58-6.92,10.63-10.76,.05-3.67-7.56-10.44-10.02-13.47,3.67,3.04,9.28,8.87,14.14,7.4,4.1-1.24,3.43-4.73,7.17-9.94-1.72,4.52-4.41,10.11-2.83,12.55,1.8,2.77,7.45,3.46,14.82,4.94Z"/><circle class="q" cx="71.76" cy="199.94" r="3.8"/><circle class="q" cx="257.25" cy="237.43" r="3.8"/><circle class="q" cx="296.1" cy="108.91" r="2.37"/><circle class="q" cx="271.8" cy="78.67" r="2.37"/><circle class="q" cx="131.86" cy="315.25" r="2.37"/><circle class="q" cx="52.17" cy="307.28" r="2.37"/></g><g id="m"/><g id="n"/><g id="o"/><g id="p"/></svg>