<?xml version="1.0" encoding="UTF-8"?><svg xmlns="http://www.w3.org/2000/svg" viewBox="0 0 360 360"><defs><style>.q{fill:#edeeee;}</style></defs><g id="a"/><g id="b"><g id="c"/><g id="d"/><g id="e"/><g id="f"/><g id="g"/><g id="h"/><g id="i"/><g id="j"/><g id="k"/></g><g id="l"><path class="q" d="M153.65,58.27c-4.58-.28-6.63-.67-7.77,.63-1.39,1.57,.3,4.78,1.74,8.53-2.43-4.11-3.36-6.84-5.14-7.11s-4.63,1.82-7.62,3.09c2.49-1.56,5.86-3.83,5.89-5.96s-4.19-5.78-5.55-7.46c2.03,1.69,5.14,4.91,7.83,4.1,2.27-.69,1.9-2.62,3.97-5.51-.95,2.51-2.44,5.6-1.57,6.95,1,1.54,4.13,1.92,8.21,2.74Z"/><path class="q" d="M281.63,155.37c-4.58-.28-6.63-.67-7.77,.63-1.39,1.57,.3,4.78,1.74,8.53-2.43-4.11-3.36-6.84-5.14-7.11s-4.63,1.82-7.62,3.09c2.49-1.56,5.86-3.83,5.89-5.96s-4.19-5.78-5.55-7.46c2.03,1.69,5.14,4.91,7.83,4.1,2.27-.69,1.9-2.62,3.97-5.51-.95,2.51-2.44,5.6-1.57,6.95,1,1.54,4.13,1.92,8.21,2.74Z"/><path class="q" d="M325.03,256.5c-4.58-.28-6.63-.67-7.77,.63-1.39,1.57,.3,4.78,1.74,8.53-2.43-4.11-3.36-6.84-5.14-7.11s-4.63,1.82-7.62,3.09c2.49-1.56,5.86-3.83,5.89-5.96s-4.19-5.78-5.55-7.46c2.03,1.69,5.14,4.91,7.83,4.1,2.27-.69,1.9-2.62,3.97-5.51-.95,2.51-2.44,5.6-1.57,6.95,1,1.54,4.13,1.92,8.21,2.74Z"/><path class="q" d="M79.93,265.75c-4.58-.28-6.63-.67-7.77,.63-1.39,1.57,.3,4.78,1.74,8.53-2.43-4.11-3.36-6.84-5.14-7.11s-4.63,1.82-7.62,3.09c2.49-1.56,5.86-3.83,5.89-5.96s-4.19-5.78-5.55-7.46c2.03,1.69,5.14,4.91,7.83,4.1,2.27-.69,1.9-2.62,3.97-5.51-.95,2.51-2.44,5.6-1.57,6.95,1,1.54,4.13,1.92,8.21,2.74Z"/><circle class="q" cx="272.68" cy="269.61" r="3.8"/><circle class="q" cx="302.04" cy="190.56" r="3.8"/><circle class="q" cx="105.04" cy="106.01" r="2.37"/><circle class="q" cx="50.22" cy="214.17" r="2.37"/><circle class="q" cx="88.33" cy="251.49" r="2.37"/><circle class="q" cx="315.64" cy="85.14" r="2.37"/><circle class="q" cx="313.26" cy="309.65" r="2.37"/><circle class="q" cx="302.04" cy="64.6" r="2.37"/></g><g id="m"/><g id="n"/><g id="o"/><g id="p"/></svg>