<?xml version="1.0" encoding="UTF-8"?><svg xmlns="http://www.w3.org/2000/svg" viewBox="0 0 360 360"><defs><style>.q{fill:#b9b9b9;}.r{fill:#2d2d2d;}</style></defs><g id="a"/><g id="b"><g id="c"/><g id="d"/><g id="e"/><g id="f"/><g id="g"/><g id="h"/><g id="i"/><g id="j"/><g id="k"/></g><g id="l"/><g id="m"/><g id="n"><g><circle class="q" cx="74.35" cy="153.92" r="23.06"/><g><path class="r" d="M88.87,138.06c-1.54-1.17-.78,1.64-3.05,.29s-3.53-5.28-5-5.75c-3.43-1.11-.65,1.18-1.67,1.5-1.83,.59-7.07-2.95-7.74-.28-.51,2.01,5.5,1.55,8.32,2.44s4.51,3.17,3.25,4.19c-1.88,1.51-4.84,2.01-4.15,4.05,.86,2.56,5.35,.87,7.2,3.91,1.02,1.68,.78,5.26,.62,8.42s-.14,5.75,1.73,5.59c.97-.08,2.58-1.54,2.23-5.34-.31-3.34-1.79-7.03-.41-8.19,1.2-1.01,2.24,2.5,2.85,4.12,1.56,4.14,2.75-1.2,1.34-4.01-.67-1.33-2.41-3.25-3.05-4.65-1.13-2.47-.64-4.88-2.48-6.28Z"/><path class="r" d="M76.84,175.45c-4.02,.38-9.35-.24-11.61-4.13,3.28-1.03,9.64,4.31,9.23,0-.41-3.08-6.15-3.08-9.64-3.08-.41,0-1.03-.21-1.44-.62-1.44-1.64-1.23-4.1-3.08-5.54-1.85-1.23-3.08-2.87-3.69-4.72-1.03-2.87,0-8.41,3.49-7.38,4.31,1.23,2.67,7.18,4.1,10.87,.62,1.44,1.64,3.49,3.28,2.87,4.51-1.64,8.2-9.02,13.74-6.36,1.03,.41,1.03,2.05,.21,3.28-1.44,1.85-3.28,2.46-5.33,3.28-1.23,.62-1.44,2.26,0,2.67,3.9,.82,7.59-1.03,11.07,1.03,.62,.21,.82,1.23,.41,2.05-2.05,3.69-5.13,1.03-8.2,1.03-.82,.21-2.05,.41-2.46,1.44,0,.62,.82,.62,1.23,.82,1.03,.21,2.67-.21,3.28,.82,0,.21-.21,.62-.39,.78-.5,.5-1.2,.59-4.2,.89Z"/><path class="r" d="M52.44,156.36c.7,2.86,1.72,7.57,5.21,7.98-1.03-5.74-6.97-11.89-1.85-17.43,2.26-2.26,5.54-.62,7.79,1.03,5.13,4.1,15.99,11.28,18.45,3.49,.62-2.46-5.95-1.44-8.41-4.1-.62-.82-1.44-1.85-.82-2.87,1.64-2.67,6.15-1.03,7.18-3.9,.62-1.64-1.85-2.46-3.28-2.05-3.9,1.44-7.18,3.49-11.07,.41-.41-.21-1.03,.21-1.23,.62-.21,1.64,.41,3.69-1.23,4.72-.82,.21-1.64,.21-2.46-.21-3.08-1.85-1.23-4.92-.21-7.38-4.51,2.87-6.97,7.79-8.01,12.99-.45,2.43-.44,4.67-.07,6.7Z"/><path class="r" d="M93.48,162.48c.67-2.64,1.28-6.74-1.38-8.59-1.03,3.9,1.64,9.43-3.69,11.48-1.64,.41,.82,1.03,1.03,1.64,.21,.82-1.03,1.64-1.03,2.67,.41-.41,.82-.41,1.2-.88,1.3-1.19,2.71-2.81,3.87-6.32Z"/></g></g></g><g id="o"/><g id="p"/></svg>