<?xml version="1.0" encoding="UTF-8"?><svg xmlns="http://www.w3.org/2000/svg" viewBox="0 0 360 360"><defs><style>.q{fill:#edeeee;}.r{fill:#b9b9b9;}</style></defs><g id="a"/><g id="b"><g id="c"/><g id="d"/><g id="e"/><g id="f"/><g id="g"/><g id="h"/><g id="i"/><g id="j"/><g id="k"/></g><g id="l"/><g id="m"/><g id="n"><g><circle class="q" cx="293.48" cy="158.64" r="26.51"/><path class="r" d="M288.24,134.65c-8.88,1.64-16.21,9.58-17.14,18.56-.16,1.57-.14,3.21,.51,4.65,.38,.85,1.14,1.68,2.07,1.59,.36-.03,.7-.21,1-.41,2.83-1.93,2.74-6.07,4.24-9.15,1.22-2.5,3.53-4.29,5.89-5.76,.79-.49,1.67-.97,2.6-.86,1.1,.14,1.94,1.1,3.03,1.35,1.55,.35,2.98-.82,4.33-1.65,2.86-1.76,6.5-2.2,9.7-1.17,1.09,.35,2.25,1,2.52,2.12,.25,1.02-.37,2.09-1.22,2.71s-1.9,.88-2.91,1.16c-7.5,2.08-14.75,5.87-19.62,11.95-.72,.9-1.43,2.03-1.13,3.15,.21,.8,.9,1.39,1.66,1.71,2.17,.94,4.7,0,6.69-1.28s3.85-2.9,6.14-3.49c1.84-.47,3.77-.22,5.64,.08,1.11,.18,2.25,.39,3.22,.98s1.73,1.64,1.65,2.76c-.1,1.42-1.41,2.42-2.67,3.1-5.49,2.95-12.03,3.48-17.5,6.47-.64,.35-1.29,.75-1.7,1.35s-.56,1.45-.16,2.06c.56,.87,2.08,1.28,1.86,2.29-.16,.74-1.24,1.01-1.36,1.76-.07,.45,.24,.86,.57,1.17,2.28,2.14,6.07,2.06,8.69,.36s4.18-4.69,4.88-7.73c.21-.93,.37-1.91,.94-2.67,.78-1.05,2.2-1.46,3.5-1.33s2.51,.7,3.66,1.31c.83,.44,1.8,.91,2.65,.5,.39-.19,.67-.53,.95-.87l2.63-3.26c.9-1.12,1.86-2.44,1.59-3.85-.22-1.19-1.28-2.05-2.39-2.52-.75-.31-1.61-.54-2.04-1.23-.77-1.21,.37-2.82,.02-4.21-.31-1.22-1.71-1.87-2.96-1.84s-2.44,.56-3.64,.92c-1.6,.48-3.29,.66-4.96,.53-.23-.02-.47-.05-.64-.2-.45-.4,0-1.13,.47-1.53,1.33-1.15,2.8-2.21,4.5-2.65s3.68-.13,4.89,1.14c.63,.66,1.32,1.65,2.18,1.34,.3-.11,.51-.36,.68-.63,.54-.87,.66-1.99,.31-2.95-.24-.66-.67-1.43-.25-1.99,.32-.42,.98-.45,1.32-.86,.45-.53,.11-1.35-.3-1.92-1.65-2.3-4.25-3.9-7.04-4.34-.35-.05-.72-.11-.97-.35-.26-.26-.31-.65-.4-1.01-.61-2.38-3.38-3.49-5.83-3.63s-4.99,.31-7.31-.48c-.23-.08-.5-.22-3.01-1.26Z"/><path class="r" d="M272.79,169.99c-3.09-3.4-4.24-8.46-2.93-12.87,.34,2.33,.91,4.64,1.68,6.87,.23,.67,.51,1.37,1.09,1.78s1.54,.33,1.83-.32c.12-.28,.1-.6,.13-.9,.25-2.13,3.34-3.4,2.93-5.51,2.2-.98,3.75-3.27,3.83-5.68,.02-.65-.05-1.34,.25-1.92,.26-.51,.76-.85,1.24-1.16,2.77-1.76,6.47-3.11,9.19-1.29l-6.28,3.7c-.59,.35-1.21,.73-1.52,1.34-.26,.52-.27,1.12-.42,1.68-.35,1.27-1.42,2.19-2.35,3.13-1.05,1.06-1.98,2.25-2.75,3.53-.69,1.15-1.28,2.45-1.14,3.78s1.24,2.64,2.58,2.58,2.27-1.99,1.26-2.87c.97-.38,2.16-.07,2.83,.73s.74,2.04,.18,2.91c1.56,1.01,4,.04,4.44-1.76,.13-.53,.12-1.11,.38-1.6,.41-.75,1.33-1.03,2.17-1.18,2.43-.44,4.93-.47,7.37-.06,.31,.05,.65,.13,.83,.39,.38,.55-.32,1.2-.91,1.51l-6.48,3.41c-2.05,1.08-4.2,2.18-6.52,2.14-1.25-.02-2.83-.24-3.45,.85-.92,1.58,1.54,3.84,.33,5.22-.67,.76-1.92,.48-2.82,.02-3.13-1.61-4.23-5.47-6.96-8.47Z"/><path class="r" d="M298.05,182.1c.69-.5,1.72-.26,2.42-.74,1.01-.69,.69-2.2,.74-3.42,.07-1.55,1-3.03,2.37-3.76,.21-.11,.47-.21,.7-.13,.17,.07,.29,.23,.38,.39,.41,.76,.45,1.76,1.12,2.3,.66,.53,1.66,.35,2.35-.14s1.14-1.23,1.66-1.89c.94-1.21,2.12-2.22,3.45-2.97,.24-.14,.51-.27,.79-.22,.46,.09,.67,.68,.53,1.12s-.53,.76-.9,1.04c-1.3,.96-2.73,1.73-4.25,2.28-.58,.21-1.2,.4-1.68,.8s-.79,1.07-.57,1.65c.1,.26,.3,.51,.21,.77-.05,.16-.21,.27-.36,.35-1.05,.56-2.4,.4-3.41,1.03-.55,.34-.94,.88-1.46,1.26-1.27,.94-3.26,.69-4.08,.28Z"/><path class="r" d="M314.91,150.23c-.52,.7-1.06,1.44-1.22,2.3s.19,1.88,1,2.21c.45,.18,1.03,.15,1.33,.54-.7,1.08-2.31,1.5-2.59,2.75-.26,1.13,.89,2.2,2.05,2.26,.48,.03,1.07-.16,1.17-.63,.05-.21-.02-.44-.09-.64l-.68-2.1c.93-.21,1.97,.38,2.25,1.29,.42,1.35-.7,2.65-1.13,4-.27,.84-.27,1.77,0,2.62,1.27-1.92,1.74-4.35,1.29-6.61-.13-.67-.35-1.32-.38-2-.02-.57,.08-1.13,.06-1.7-.03-1.02-.46-1.98-.89-2.91l-1.53-3.37c-.08-.17,.76,.07-.67,2Z"/></g></g><g id="o"/><g id="p"/></svg>