<?xml version="1.0" encoding="UTF-8"?><svg xmlns="http://www.w3.org/2000/svg" viewBox="0 0 360 360"><defs><style>.q{fill:#edeeee;}.r{fill:#b9b9b9;}.s{fill:#2d2d2d;}</style></defs><g id="a"/><g id="b"><g id="c"/><g id="d"/><g id="e"/><g id="f"/><g id="g"/><g id="h"/><g id="i"/><g id="j"/><g id="k"/></g><g id="l"/><g id="m"/><g id="n"><g><circle class="q" cx="59.73" cy="216.53" r="30.11"/><g><ellipse class="q" cx="42.82" cy="214.32" rx="18.2" ry="13.04" transform="translate(-175.73 212.46) rotate(-78.21)"/><ellipse class="s" cx="41.72" cy="214.32" rx="15.29" ry="10.96" transform="translate(-176.61 211.38) rotate(-78.21)"/><ellipse class="q" cx="39.9" cy="213.95" rx="11.94" ry="8.56" transform="translate(-177.68 209.3) rotate(-78.21)"/><ellipse class="r" cx="39.42" cy="213.95" rx="8.86" ry="6.35" transform="translate(-178.07 208.83) rotate(-78.21)"/><ellipse class="s" cx="41.72" cy="214.32" rx="4.51" ry="3.23" transform="translate(-176.61 211.38) rotate(-78.21)"/></g><ellipse class="q" cx="68.62" cy="205.02" rx="14.42" ry="19.9" transform="translate(-117.14 94.4) rotate(-40.72)"/><ellipse class="s" cx="67.58" cy="206.31" rx="11.99" ry="15.82" transform="translate(-118.23 94.03) rotate(-40.72)"/><ellipse class="r" cx="67.08" cy="206.75" rx="9.33" ry="11.57" transform="translate(-118.64 93.81) rotate(-40.72)"/><ellipse class="q" cx="65.83" cy="207.82" rx="6.66" ry="8.26" transform="translate(-119.63 93.26) rotate(-40.72)"/><ellipse class="s" cx="64.14" cy="209.27" rx="3.96" ry="5.47" transform="translate(-120.99 92.5) rotate(-40.72)"/><g><ellipse class="q" cx="59.42" cy="232.12" rx="17.35" ry="9.29" transform="translate(-72.9 32.37) rotate(-19.16)"/><ellipse class="s" cx="58.16" cy="231.31" rx="13.52" ry="7.27" transform="translate(-72.7 31.91) rotate(-19.16)"/><ellipse class="r" cx="57.98" cy="230.78" rx="9.89" ry="6.1" transform="translate(-72.54 31.82) rotate(-19.16)"/><ellipse class="q" cx="57.37" cy="229.03" rx="7.09" ry="3.83" transform="translate(-72 31.52) rotate(-19.16)"/><ellipse class="s" cx="57.07" cy="228.16" rx="4.53" ry="2.44" transform="translate(-71.73 31.37) rotate(-19.16)"/></g><g><ellipse class="q" cx="79.44" cy="230.35" rx="11.61" ry="6.44" transform="translate(-163.13 207.35) rotate(-65.56)"/><ellipse class="s" cx="79.99" cy="230.44" rx="9.76" ry="5.42" transform="translate(-162.89 207.91) rotate(-65.56)"/><ellipse class="q" cx="80.82" cy="230.82" rx="7.62" ry="4.23" transform="translate(-162.75 208.89) rotate(-65.56)"/><ellipse class="r" cx="81.06" cy="230.86" rx="5.65" ry="3.14" transform="translate(-162.65 209.13) rotate(-65.56)"/><ellipse class="s" cx="79.99" cy="230.44" rx="2.88" ry="1.6" transform="translate(-162.89 207.91) rotate(-65.56)"/></g></g></g><g id="o"/><g id="p"/></svg>