<?xml version="1.0" encoding="UTF-8"?><svg xmlns="http://www.w3.org/2000/svg" viewBox="0 0 360 360"><defs><style>.q{fill:#edeeee;}.r{fill:#2d2d2d;}</style></defs><g id="a"/><g id="b"><g id="c"/><g id="d"/><g id="e"/><g id="f"/><g id="g"/><g id="h"/><g id="i"/><g id="j"/><g id="k"/></g><g id="l"/><g id="m"/><g id="n"><g><circle class="r" cx="297.44" cy="80.56" r="24.23"/><path class="q" d="M300.64,101.11c-.68,.2-1.02-.82-.37-1.1,6.12-2.65,10.32-6.36,13.5-11.05,1.23-1.82,3.94-5.17,5.48-4.34,1.63,.87-.07,4.17-4.52,8.76-3.27,3.37-8.89,6.24-14.09,7.73Z"/><path class="q" d="M314.82,64.39c-.79-.9-2.12-1.16-3.3-.96-1.18,.2-2.26,.77-3.32,1.31-9.32,4.74-20,7.52-30.3,5.67-.66-.12-1.39-.31-1.71-.89,.36-.69,1.35-.66,2.12-.56,5.55,.74,15.34,.88,23.07-5.98,2.82-2.5,.02-6.48-3.28-2.6-5.43,6.38-13.34,8.01-21.72,8.2-.29,.51-.56,1.03-.81,1.55,.29,.47,.76,.86,1.23,1.18,3.36,2.27,7.63,2.6,11.68,2.6,7.19,0,14.39-.79,21.33-2.66,1.64-.44,3.35-.99,4.53-2.22,1.18-1.23,1.6-3.35,.48-4.63Z"/><path class="q" d="M319.44,73.2c-.05-.43-.12-.91,.15-1.26,.1-.13,.27-.2,.38-.34-.21-.53-.44-1.06-.69-1.57-6.46,5.68-13.36,11.24-21.58,13.77-5.74,1.76-11.83,1.95-17.81,2.58-1.74,.19-3.7,.55-4.64,2.03-.19,.3-.32,.63-.38,.97,.6,1.53,1.35,2.99,2.23,4.35,1.83,1.02,4.07,.9,6.14,.57,11.91-1.93,21.75-10.03,31.01-17.76,.64-.54,1.65-1.06,2.22-.44,.21,.23,.27,.56,.27,.87-.02,1.31-1.03,2.36-2,3.24-7.87,7.21-17.04,12.98-26.94,16.97-.51,.21-1.05,.42-1.4,.84-.36,.42-.46,1.11-.06,1.5,.22,.21,.53,.29,.83,.34,2.73,.46,5.47-.61,7.97-1.8,6.4-3.06,12.34-7.08,17.56-11.89,3.72-3.43,7.31-7.94,6.74-12.97Z"/><path class="q" d="M303.3,75.51c-8.82,2.23-20,3.95-25.27,2.41-1.28-.38-3.6-1.02-4.7,.23-.08,.79-.12,1.59-.12,2.41,0,.08,0,.15,0,.23,.44,.65,1.14,1.14,1.64,1.41,2.49,1.33,7.79,.8,10.59,.54,5.46-.49,12.75-2.86,18.5-5.31,1.15-.49,.57-2.22-.64-1.92Z"/><path class="q" d="M297.44,56.33c-.48,0-.95,.02-1.41,.04-2.97,2.85-6.87,4.72-10.96,5.23-.92,.12-1.86,.17-2.75,.44-.34,.1-.66,.24-.98,.41-.76,.68-1.48,1.4-2.15,2.17,0,.01,0,.02,0,.03-.02,.75,.98,1.01,1.74,1.01,2.01,.02,4.05,.03,5.96-.6,4.4-1.45,7-5.89,10.67-8.74-.04,0-.07,0-.11,0Z"/><path class="q" d="M306.05,93.73c-6.61,4.41-12.04,6.58-17.05,7.37-.82,.13-1.99,.37-3.15,.75,1.52,.83,3.15,1.5,4.85,2,4.43-1.57,10.47-5.3,15.56-9.27,.69-.54,.5-1.31-.21-.84Z"/><path class="q" d="M309.75,59.68c-2.68,2.17-4.99,3.54-7.15,4.41-1.07,.43-3.25,1.49-3.82,2.64-.6,1.2,1.07,.77,4.44-1.16,1.95-1.12,4.56-3.24,7.04-5.57-.17-.11-.34-.21-.52-.31Z"/><path class="r" d="M295.36,75.09c-7.15,1.13-14.31,.32-20.88-2.3-.26,.77-.48,1.56-.67,2.36,6.15,3.14,14.61,1.87,21.36,.81,.98-.16,1.15-.96,.18-.87Z"/></g></g><g id="o"/><g id="p"/></svg>