<?xml version="1.0" encoding="UTF-8"?><svg xmlns="http://www.w3.org/2000/svg" viewBox="0 0 360 360"><defs><style>.q{fill:#edeeee;}.r{fill:#b9b9b9;}</style></defs><g id="a"/><g id="b"><g id="c"/><g id="d"/><g id="e"/><g id="f"/><g id="g"/><g id="h"/><g id="i"/><g id="j"/><g id="k"/></g><g id="l"/><g id="m"/><g id="n"><g><circle class="r" cx="282.95" cy="143.1" r="23.81"/><path class="q" d="M286.33,125.36c-.48-2.29,1.44-3.42,4.78-4.63-2.54-.93-5.29-1.43-8.15-1.43-1.17,0-2.32,.09-3.44,.25-.82,.16-1.62,.33-2.36,.48l-.21,.04c-10.24,2.67-17.79,11.97-17.79,23.04,0,.29,0,.58,.02,.88,.14,0,.26-.2,.34-.67,1.95-12.11,14.24-19.69,19.85-17.14,4.89,2.22-1.77,3.05-10.34,11.43-2.98,2.92-4.65,9.39-3.35,12.97,1.85,5.13,9.9,4.9,10.38-8.05,.26-7.1,6.23-10.4,9.68-10.4,3.83,0,11.4,7.49,14.13,2.14,2.01-3.94-13.07-6.78-13.52-8.9Z"/><path class="q" d="M288.84,165.66c-1.46,.65-3.05,.95-4.63,1.22,11.91-.62,21.5-9.99,22.47-21.8-.41-.76-1.11-1.35-1.96-1.4-1.75-.11-2.82,1.84-3.43,3.49l-2.71,7.27c-.51,1.38-1.08,2.83-2.23,3.75-.21,.16-.44,.31-.7,.33-.78,.05-1.12-.96-1.14-1.74-.12-4.08,1.48-7.99,2.65-11.9,.39-1.31,.74-2.68,.56-4.04-.18-1.36-1.02-2.71-2.33-3.12-1.48-.46-3.13,.44-3.95,1.76-.82,1.32-.97,2.94-.94,4.49,.04,1.91,.32,3.82,.84,5.66,.31,1.1,.71,2.19,.81,3.33,.1,1.14-.13,2.38-.93,3.2-.8,.82-2.02,1.09-3.16,1.01-1.14-.08-2.23-.45-3.33-.75-1.8-.49-3.69-.8-5.54-.52-1.85,.28-3.66,1.21-4.7,2.76-.21,.32-.4,.68-.38,1.06,.01,.4,.24,.77,.51,1.07,1.19,1.36,3.16,1.82,4.96,1.66,1.8-.16,3.51-.84,5.23-1.42,1.7-.57,3.43-1.05,5.19-1.43,.85-.18,1.88-.29,2.46,.35,.51,.57,.41,1.46,.13,2.17-.66,1.63-2.13,2.83-3.74,3.54Z"/><path class="r" d="M268.85,139.05c-.48,.74-.8,1.58-1.09,2.41-.52,1.49-.99,3.01-1.12,4.58s.11,3.21,.91,4.56c.28,.48,.66,.94,1.17,1.17s1.18,.17,1.54-.26c.3-.35,.33-.86,.2-1.3s-.38-.83-.61-1.22c-.82-1.39-1.43-2.93-1.63-4.53s0-3.28,.73-4.73c.15-.31,.33-.66-.1-.68Z"/><path class="r" d="M279.82,132.83c-.89-.32-2.36,.94-3.46,1.57s-2.1,1.59-2.39,2.82c-.14,.6-.1,1.23-.04,1.84,.21,2.02,.7,4.02,.61,6.04-.03,.72-.14,1.44-.02,2.15,.19,0,.3-.22,.36-.4,.77-2.48,.16-5.21,.86-7.71,.57-2.05,2.37-4.18,3.64-5.11,1.12-.82,.6-1.14,.44-1.2Z"/><path class="r" d="M287.43,127.11c-.69-.37-1.39-.75-1.89-1.34s-.76-1.46-.43-2.17c.12-.26,.32-.48,.52-.69,.49-.51,1.03-.98,1.61-1.38-.1-.16-.32-.15-.51-.12-.86,.12-1.73,.25-2.59,.38-1.24,.18-2.5,.38-3.62,.92-.17,.08-.33,.17-.45,.31-.24,.27-.25,.7-.1,1.03s.41,.6,.7,.82c1.95,1.56,4.65,1.84,6.72,3.24,1.16,.78,2.06,1.88,3.12,2.79s2.42,1.63,3.8,1.44c.32-.05,.65-.15,.84-.41,.25-.34,.16-.84-.1-1.18s-.64-.54-1.02-.74c-2.14-1.11-4.48-1.76-6.58-2.88Z"/><path class="r" d="M292.21,149.42c-.84-.03-.71-2.81-.83-4.25s0-2.92,.54-4.27c.27-.67,.64-1.32,1.21-1.78s1.34-.69,2.03-.49c.07,.02,.14,.05,.2,.09,.21,.17,.13,.51-.01,.75-.37,.62-.98,1.05-1.5,1.55-1.86,1.79-2.48,4.7-1.65,7.15,.14,.4,.32,1.25,.01,1.24Z"/><path class="r" d="M301.12,154.83c1.78-2.07,2.92-4.86,2.4-7.54-.09-.47-.23-.94-.17-1.41,.06-.46,.35-.91,.77-1.1s.98-.1,1.28,.26c.23,.28,.28,.65,.3,1.01,.1,2.22-.93,4.32-2.01,6.25-.59,1.06-1.25,2.16-2.31,2.77-.15,.09-.51,.05-.26-.24Z"/><path class="r" d="M286.31,158.96c-2.32,1.07-4.72,2.16-7.27,2.2-.96,.01-2-.17-2.64-.89-.25-.28-.41-.65-.39-1.02s.28-.74,.64-.82c.3-.07,.6,.04,.88,.18,.66,.32,1.26,.76,1.95,1,.94,.33,1.98,.27,2.95,.05s1.9-.6,2.85-.91c.21-.07,.46-.12,1.03,.21Z"/><path class="r" d="M279.01,158.43c.49,.69,1.7,.61,2.64,.58,.57-.02,1.17-.14,1.56-.43s.53-.77,.19-1.09c-.37-.35-1.09-.39-1.71-.38-.59,.01-1.19,.04-1.74,.19s-1.36,.55-.94,1.14Z"/><path class="r" d="M263.79,131.89c2.11-3.39,5.41-5.85,8.63-8.23,1.22-.9,2.51-1.83,4-2.09,.14-.02,.29-.04,.42,.02,.12,.06,.2,.17,.27,.28l1.5,2.3c.08,.12,.16,.25,.15,.39-.01,.27-.34,.44-.61,.39s-.49-.23-.73-.37c-1.62-1.02-3.75-.32-5.43,.6-3.04,1.66-5.73,3.95-8.2,6.7Z"/><path class="r" d="M293.83,153.53c.74-1.71,.89-5.11,1.64-7.25,.45-1.29,.95-3.15,.87-3.28-.37-.63-2.59,.33-2.64,1.78-.02,.49,.16,1.91,.28,2.38,.51,2.04-.27,2.86-.94,5.19-.23,.79,.31,2.27,.78,1.19Z"/></g></g><g id="o"/><g id="p"/></svg>