<?xml version="1.0" encoding="UTF-8"?><svg xmlns="http://www.w3.org/2000/svg" viewBox="0 0 360 360"><defs><style>.q{fill:#edeeee;}.r{fill:#b9b9b9;}.s{fill:#2d2d2d;}</style></defs><g id="a"/><g id="b"><g id="c"/><g id="d"/><g id="e"/><g id="f"/><g id="g"/><g id="h"/><g id="i"/><g id="j"/><g id="k"/></g><g id="l"/><g id="m"/><g id="n"><g><circle class="q" cx="68.72" cy="117.12" r="22.29"/><circle class="s" cx="69.29" cy="103.85" r="2.15"/><circle class="r" cx="76.85" cy="106.89" r="2.08"/><circle class="r" cx="69.27" cy="96.99" r="2.08"/><circle class="s" cx="66.88" cy="123.76" r="3.2"/><circle class="r" cx="74.96" cy="124.13" r="1.49"/><circle class="r" cx="69.44" cy="133" r="1.49"/><circle class="r" cx="72.7" cy="116.69" r="2.26"/><path class="r" d="M49.39,110.53c1.25,0,2.26-1.01,2.26-2.26s-1.01-2.26-2.26-2.26c-.68,1.18-1.26,2.43-1.71,3.74,.42,.48,1.03,.79,1.71,.79Z"/><circle class="r" cx="64.38" cy="108.27" r="4.07"/><circle class="r" cx="78.97" cy="115.44" r="1.04"/><circle class="s" cx="77.93" cy="134.49" r="1.04"/><circle class="s" cx="85.14" cy="112.4" r="2.75"/><circle class="r" cx="82.11" cy="128" r="1.04"/><circle class="s" cx="86.41" cy="120.01" r="1.26"/><circle class="r" cx="63.46" cy="134.12" r="3.42"/><path class="s" d="M72.7,134.45c-1.89,0-3.42,1.53-3.42,3.42,0,.55,.13,1.06,.36,1.52,2.26-.09,4.44-.52,6.48-1.23,0-.09,.01-.19,.01-.28,0-1.89-1.53-3.42-3.42-3.42Z"/><path class="r" d="M87.38,104.92c-1.14-1.74-2.52-3.32-4.1-4.68-.19,.43-.3,.9-.3,1.39,0,1.89,1.53,3.42,3.42,3.42,.34,0,.66-.05,.97-.14Z"/><circle class="r" cx="74.96" cy="130.03" r="2.97"/><circle class="r" cx="55.35" cy="122.82" r="2.8"/><path class="s" d="M46.96,121.98c.06,0,.11,0,.17,0,1.55,0,2.8-1.25,2.8-2.8s-1.25-2.8-2.8-2.8c-.24,0-.47,.03-.69,.09,0,.21,0,.43,0,.65,0,1.67,.18,3.29,.53,4.86Z"/><circle class="s" cx="52.58" cy="115.27" r="2.18"/><circle class="r" cx="56.47" cy="106.49" r="1.68"/><circle class="r" cx="61.18" cy="103.77" r=".87"/><circle class="s" cx="58.65" cy="100.28" r="1.39"/><circle class="r" cx="76.03" cy="101.63" r="1.26"/><circle class="r" cx="64.95" cy="100.37" r="1.26"/></g></g><g id="o"/><g id="p"/></svg>